solid OpenSCAD_Model
  facet normal -1 0 0
    outer loop
      vertex 0 0 0
      vertex 0 10 6
      vertex 0 10 0
    endloop
  endfacet
  facet normal -1 -0 0
    outer loop
      vertex 0 10 6
      vertex 0 0 0
      vertex 0 0 6
    endloop
  endfacet
  facet normal 0 0 1
    outer loop
      vertex 30 10 6
      vertex 28.2 5 6
      vertex 30 0 6
    endloop
  endfacet
  facet normal 0 0 1
    outer loop
      vertex 30 10 6
      vertex 26.6 7.77128 6
      vertex 28.2 5 6
    endloop
  endfacet
  facet normal 0 0 1
    outer loop
      vertex 30 10 6
      vertex 23.4 7.77128 6
      vertex 26.6 7.77128 6
    endloop
  endfacet
  facet normal -0 0 1
    outer loop
      vertex 19.8429 6.24345 6
      vertex 21.8 5 6
      vertex 23.4 7.77128 6
    endloop
  endfacet
  facet normal 0 0 1
    outer loop
      vertex 21.8 5 6
      vertex 19.8429 6.24345 6
      vertex 20 5 6
    endloop
  endfacet
  facet normal 0 0 1
    outer loop
      vertex 23.4 7.77128 6
      vertex 19.3815 7.40877 6
      vertex 19.8429 6.24345 6
    endloop
  endfacet
  facet normal -0 0 1
    outer loop
      vertex 17.6791 9.22164 6
      vertex 23.4 7.77128 6
      vertex 30 10 6
    endloop
  endfacet
  facet normal 0 0 1
    outer loop
      vertex 23.4 7.77128 6
      vertex 18.6448 8.42274 6
      vertex 19.3815 7.40877 6
    endloop
  endfacet
  facet normal 0 0 1
    outer loop
      vertex 23.4 7.77128 6
      vertex 17.6791 9.22164 6
      vertex 18.6448 8.42274 6
    endloop
  endfacet
  facet normal 0 0 1
    outer loop
      vertex 30 10 6
      vertex 16.5451 9.75528 6
      vertex 17.6791 9.22164 6
    endloop
  endfacet
  facet normal 0 0 1
    outer loop
      vertex 30 10 6
      vertex 15.314 9.99013 6
      vertex 16.5451 9.75528 6
    endloop
  endfacet
  facet normal 0 0 1
    outer loop
      vertex 10.0394 5.62667 6
      vertex 8.2 5 6
      vertex 10.0394 4.37333 6
    endloop
  endfacet
  facet normal 0 0 1
    outer loop
      vertex 10.3511 6.84062 6
      vertex 8.2 5 6
      vertex 10.0394 5.62667 6
    endloop
  endfacet
  facet normal -0 0 1
    outer loop
      vertex 6.6 7.77128 6
      vertex 10.3511 6.84062 6
      vertex 10.9549 7.93893 6
    endloop
  endfacet
  facet normal 0 0 1
    outer loop
      vertex 10.3511 6.84062 6
      vertex 6.6 7.77128 6
      vertex 8.2 5 6
    endloop
  endfacet
  facet normal 0 0 1
    outer loop
      vertex 11.8129 8.85257 6
      vertex 6.6 7.77128 6
      vertex 10.9549 7.93893 6
    endloop
  endfacet
  facet normal 0 0 1
    outer loop
      vertex 12.8711 9.52413 6
      vertex 6.6 7.77128 6
      vertex 11.8129 8.85257 6
    endloop
  endfacet
  facet normal 0 0 1
    outer loop
      vertex 0 10 6
      vertex 12.8711 9.52413 6
      vertex 14.0631 9.91144 6
    endloop
  endfacet
  facet normal 0 0 1
    outer loop
      vertex 12.8711 9.52413 6
      vertex 0 10 6
      vertex 6.6 7.77128 6
    endloop
  endfacet
  facet normal 0 0 1
    outer loop
      vertex 3.4 7.77128 6
      vertex 0 10 6
      vertex 1.8 5 6
    endloop
  endfacet
  facet normal 0 0 1
    outer loop
      vertex 6.6 7.77128 6
      vertex 0 10 6
      vertex 3.4 7.77128 6
    endloop
  endfacet
  facet normal 0 0 1
    outer loop
      vertex 15.314 9.99013 6
      vertex 0 10 6
      vertex 14.0631 9.91144 6
    endloop
  endfacet
  facet normal -0 0 1
    outer loop
      vertex 0 10 6
      vertex 15.314 9.99013 6
      vertex 30 10 6
    endloop
  endfacet
  facet normal -0 0 1
    outer loop
      vertex 26.6 2.22872 6
      vertex 30 0 6
      vertex 28.2 5 6
    endloop
  endfacet
  facet normal -0 0 1
    outer loop
      vertex 23.4 2.22872 6
      vertex 30 0 6
      vertex 26.6 2.22872 6
    endloop
  endfacet
  facet normal 0 0 1
    outer loop
      vertex 19.8429 3.75655 6
      vertex 21.8 5 6
      vertex 20 5 6
    endloop
  endfacet
  facet normal 0 0 1
    outer loop
      vertex 21.8 5 6
      vertex 19.8429 3.75655 6
      vertex 23.4 2.22872 6
    endloop
  endfacet
  facet normal -0 0 1
    outer loop
      vertex 19.3815 2.59123 6
      vertex 23.4 2.22872 6
      vertex 19.8429 3.75655 6
    endloop
  endfacet
  facet normal 0 0 1
    outer loop
      vertex 18.6448 1.57726 6
      vertex 23.4 2.22872 6
      vertex 19.3815 2.59123 6
    endloop
  endfacet
  facet normal 0 0 1
    outer loop
      vertex 17.6791 0.77836 6
      vertex 23.4 2.22872 6
      vertex 18.6448 1.57726 6
    endloop
  endfacet
  facet normal 0 0 1
    outer loop
      vertex 23.4 2.22872 6
      vertex 17.6791 0.77836 6
      vertex 30 0 6
    endloop
  endfacet
  facet normal -0 0 1
    outer loop
      vertex 16.5451 0.244717 6
      vertex 30 0 6
      vertex 17.6791 0.77836 6
    endloop
  endfacet
  facet normal -0 0 1
    outer loop
      vertex 15.314 0.00986576 6
      vertex 30 0 6
      vertex 16.5451 0.244717 6
    endloop
  endfacet
  facet normal 0 0 1
    outer loop
      vertex 8.2 5 6
      vertex 10.3511 3.15938 6
      vertex 10.0394 4.37333 6
    endloop
  endfacet
  facet normal 0 0 1
    outer loop
      vertex 6.6 2.22872 6
      vertex 10.3511 3.15938 6
      vertex 8.2 5 6
    endloop
  endfacet
  facet normal 0 0 1
    outer loop
      vertex 10.3511 3.15938 6
      vertex 6.6 2.22872 6
      vertex 10.9549 2.06107 6
    endloop
  endfacet
  facet normal 0 0 1
    outer loop
      vertex 6.6 2.22872 6
      vertex 11.8129 1.14743 6
      vertex 10.9549 2.06107 6
    endloop
  endfacet
  facet normal 0 0 1
    outer loop
      vertex 6.6 2.22872 6
      vertex 12.8711 0.475864 6
      vertex 11.8129 1.14743 6
    endloop
  endfacet
  facet normal 0 0 1
    outer loop
      vertex 0 0 6
      vertex 12.8711 0.475864 6
      vertex 6.6 2.22872 6
    endloop
  endfacet
  facet normal 0 0 1
    outer loop
      vertex 0 0 6
      vertex 6.6 2.22872 6
      vertex 3.4 2.22872 6
    endloop
  endfacet
  facet normal 0 0 1
    outer loop
      vertex 15.314 0.00986576 6
      vertex 0 0 6
      vertex 30 0 6
    endloop
  endfacet
  facet normal 0 0 1
    outer loop
      vertex 14.0631 0.088563 6
      vertex 0 0 6
      vertex 15.314 0.00986576 6
    endloop
  endfacet
  facet normal 0 0 1
    outer loop
      vertex 12.8711 0.475864 6
      vertex 0 0 6
      vertex 14.0631 0.088563 6
    endloop
  endfacet
  facet normal 0 0 1
    outer loop
      vertex 1.8 5 6
      vertex 0 0 6
      vertex 3.4 2.22872 6
    endloop
  endfacet
  facet normal 0 0 1
    outer loop
      vertex 0 0 6
      vertex 1.8 5 6
      vertex 0 10 6
    endloop
  endfacet
  facet normal 1 -0 0
    outer loop
      vertex 30 0 6
      vertex 30 10 0
      vertex 30 10 6
    endloop
  endfacet
  facet normal 1 0 0
    outer loop
      vertex 30 10 0
      vertex 30 0 6
      vertex 30 0 0
    endloop
  endfacet
  facet normal 0 1 -0
    outer loop
      vertex 30 10 0
      vertex 0 10 6
      vertex 30 10 6
    endloop
  endfacet
  facet normal 0 1 0
    outer loop
      vertex 0 10 6
      vertex 30 10 0
      vertex 0 10 0
    endloop
  endfacet
  facet normal 0 0 -1
    outer loop
      vertex 30 0 0
      vertex 26.65 5 0
      vertex 30 10 0
    endloop
  endfacet
  facet normal 0 0 -1
    outer loop
      vertex 30 0 0
      vertex 26.5692 4.49012 0
      vertex 26.65 5 0
    endloop
  endfacet
  facet normal 0 0 -1
    outer loop
      vertex 30 0 0
      vertex 26.3349 4.03015 0
      vertex 26.5692 4.49012 0
    endloop
  endfacet
  facet normal 0 0 -1
    outer loop
      vertex 30 0 0
      vertex 25.9698 3.66512 0
      vertex 26.3349 4.03015 0
    endloop
  endfacet
  facet normal 0 0 -1
    outer loop
      vertex 30 0 0
      vertex 25.5099 3.43076 0
      vertex 25.9698 3.66512 0
    endloop
  endfacet
  facet normal 0 0 -1
    outer loop
      vertex 30 0 0
      vertex 25 3.35 0
      vertex 25.5099 3.43076 0
    endloop
  endfacet
  facet normal 0 0 -1
    outer loop
      vertex 30 0 0
      vertex 24.4901 3.43076 0
      vertex 25 3.35 0
    endloop
  endfacet
  facet normal 0 0 -1
    outer loop
      vertex 17.25 1.10289 0
      vertex 24.4901 3.43076 0
      vertex 30 0 0
    endloop
  endfacet
  facet normal 0 0 -1
    outer loop
      vertex 23.4308 4.49012 0
      vertex 19.5 5 0
      vertex 23.35 5 0
    endloop
  endfacet
  facet normal 0 0 -1
    outer loop
      vertex 23.6651 4.03015 0
      vertex 19.5 5 0
      vertex 23.4308 4.49012 0
    endloop
  endfacet
  facet normal 0 0 -1
    outer loop
      vertex 17.25 1.10289 0
      vertex 23.6651 4.03015 0
      vertex 24.0302 3.66512 0
    endloop
  endfacet
  facet normal -0 0 -1
    outer loop
      vertex 24.4901 3.43076 0
      vertex 17.25 1.10289 0
      vertex 24.0302 3.66512 0
    endloop
  endfacet
  facet normal -0 0 -1
    outer loop
      vertex 23.6651 4.03015 0
      vertex 17.25 1.10289 0
      vertex 19.5 5 0
    endloop
  endfacet
  facet normal 0 0 -1
    outer loop
      vertex 30 0 0
      vertex 12.75 1.10289 0
      vertex 17.25 1.10289 0
    endloop
  endfacet
  facet normal 0 0 -1
    outer loop
      vertex 6.33488 4.03015 0
      vertex 10.5 5 0
      vertex 12.75 1.10289 0
    endloop
  endfacet
  facet normal -0 0 -1
    outer loop
      vertex 10.5 5 0
      vertex 6.56924 4.49012 0
      vertex 6.65 5 0
    endloop
  endfacet
  facet normal 0 0 -1
    outer loop
      vertex 10.5 5 0
      vertex 6.33488 4.03015 0
      vertex 6.56924 4.49012 0
    endloop
  endfacet
  facet normal 0 0 -1
    outer loop
      vertex 12.75 1.10289 0
      vertex 5.96984 3.66512 0
      vertex 6.33488 4.03015 0
    endloop
  endfacet
  facet normal 0 0 -1
    outer loop
      vertex 12.75 1.10289 0
      vertex 5.50988 3.43076 0
      vertex 5.96984 3.66512 0
    endloop
  endfacet
  facet normal 0 0 -1
    outer loop
      vertex 0 0 0
      vertex 5.50988 3.43076 0
      vertex 12.75 1.10289 0
    endloop
  endfacet
  facet normal 0 0 -1
    outer loop
      vertex 5.50988 3.43076 0
      vertex 0 0 0
      vertex 5 3.35 0
    endloop
  endfacet
  facet normal -0 0 -1
    outer loop
      vertex 3.43076 4.49012 0
      vertex 0 0 0
      vertex 3.35 5 0
    endloop
  endfacet
  facet normal -0 0 -1
    outer loop
      vertex 3.66512 4.03015 0
      vertex 0 0 0
      vertex 3.43076 4.49012 0
    endloop
  endfacet
  facet normal -0 0 -1
    outer loop
      vertex 4.03015 3.66512 0
      vertex 0 0 0
      vertex 3.66512 4.03015 0
    endloop
  endfacet
  facet normal -0 0 -1
    outer loop
      vertex 4.49012 3.43076 0
      vertex 0 0 0
      vertex 4.03015 3.66512 0
    endloop
  endfacet
  facet normal -0 0 -1
    outer loop
      vertex 5 3.35 0
      vertex 0 0 0
      vertex 4.49012 3.43076 0
    endloop
  endfacet
  facet normal 0 0 -1
    outer loop
      vertex 0 0 0
      vertex 12.75 1.10289 0
      vertex 30 0 0
    endloop
  endfacet
  facet normal 0 0 -1
    outer loop
      vertex 26.5692 5.50988 0
      vertex 30 10 0
      vertex 26.65 5 0
    endloop
  endfacet
  facet normal 0 0 -1
    outer loop
      vertex 26.3349 5.96984 0
      vertex 30 10 0
      vertex 26.5692 5.50988 0
    endloop
  endfacet
  facet normal 0 0 -1
    outer loop
      vertex 25.9698 6.33488 0
      vertex 30 10 0
      vertex 26.3349 5.96984 0
    endloop
  endfacet
  facet normal 0 0 -1
    outer loop
      vertex 25.5099 6.56924 0
      vertex 30 10 0
      vertex 25.9698 6.33488 0
    endloop
  endfacet
  facet normal 0 0 -1
    outer loop
      vertex 25 6.65 0
      vertex 30 10 0
      vertex 25.5099 6.56924 0
    endloop
  endfacet
  facet normal 0 0 -1
    outer loop
      vertex 24.4901 6.56924 0
      vertex 30 10 0
      vertex 25 6.65 0
    endloop
  endfacet
  facet normal 0 0 -1
    outer loop
      vertex 17.25 8.89711 0
      vertex 24.4901 6.56924 0
      vertex 24.0302 6.33488 0
    endloop
  endfacet
  facet normal 0 0 -1
    outer loop
      vertex 19.5 5 0
      vertex 23.4308 5.50988 0
      vertex 23.35 5 0
    endloop
  endfacet
  facet normal 0 0 -1
    outer loop
      vertex 19.5 5 0
      vertex 23.6651 5.96984 0
      vertex 23.4308 5.50988 0
    endloop
  endfacet
  facet normal 0 0 -1
    outer loop
      vertex 17.25 8.89711 0
      vertex 23.6651 5.96984 0
      vertex 19.5 5 0
    endloop
  endfacet
  facet normal 0 0 -1
    outer loop
      vertex 23.6651 5.96984 0
      vertex 17.25 8.89711 0
      vertex 24.0302 6.33488 0
    endloop
  endfacet
  facet normal 0 0 -1
    outer loop
      vertex 24.4901 6.56924 0
      vertex 17.25 8.89711 0
      vertex 30 10 0
    endloop
  endfacet
  facet normal 0 0 -1
    outer loop
      vertex 12.75 8.89711 0
      vertex 30 10 0
      vertex 17.25 8.89711 0
    endloop
  endfacet
  facet normal 0 0 -1
    outer loop
      vertex 6.56924 5.50988 0
      vertex 10.5 5 0
      vertex 6.65 5 0
    endloop
  endfacet
  facet normal 0 0 -1
    outer loop
      vertex 6.33488 5.96984 0
      vertex 10.5 5 0
      vertex 6.56924 5.50988 0
    endloop
  endfacet
  facet normal 0 0 -1
    outer loop
      vertex 10.5 5 0
      vertex 6.33488 5.96984 0
      vertex 12.75 8.89711 0
    endloop
  endfacet
  facet normal 0 0 -1
    outer loop
      vertex 5.96984 6.33488 0
      vertex 12.75 8.89711 0
      vertex 6.33488 5.96984 0
    endloop
  endfacet
  facet normal 0 0 -1
    outer loop
      vertex 5.50988 6.56924 0
      vertex 12.75 8.89711 0
      vertex 5.96984 6.33488 0
    endloop
  endfacet
  facet normal 0 0 -1
    outer loop
      vertex 0 10 0
      vertex 5.50988 6.56924 0
      vertex 5 6.65 0
    endloop
  endfacet
  facet normal 0 0 -1
    outer loop
      vertex 0 10 0
      vertex 5 6.65 0
      vertex 4.49012 6.56924 0
    endloop
  endfacet
  facet normal 0 0 -1
    outer loop
      vertex 0 10 0
      vertex 3.35 5 0
      vertex 0 0 0
    endloop
  endfacet
  facet normal 0 0 -1
    outer loop
      vertex 3.35 5 0
      vertex 0 10 0
      vertex 3.43076 5.50988 0
    endloop
  endfacet
  facet normal 0 0 -1
    outer loop
      vertex 12.75 8.89711 0
      vertex 0 10 0
      vertex 30 10 0
    endloop
  endfacet
  facet normal 0 0 -1
    outer loop
      vertex 5.50988 6.56924 0
      vertex 0 10 0
      vertex 12.75 8.89711 0
    endloop
  endfacet
  facet normal 0 0 -1
    outer loop
      vertex 4.03015 6.33488 0
      vertex 0 10 0
      vertex 4.49012 6.56924 0
    endloop
  endfacet
  facet normal 0 0 -1
    outer loop
      vertex 3.66512 5.96984 0
      vertex 0 10 0
      vertex 4.03015 6.33488 0
    endloop
  endfacet
  facet normal 0 0 -1
    outer loop
      vertex 3.43076 5.50988 0
      vertex 0 10 0
      vertex 3.66512 5.96984 0
    endloop
  endfacet
  facet normal 0 -1 0
    outer loop
      vertex 0 0 0
      vertex 30 0 6
      vertex 0 0 6
    endloop
  endfacet
  facet normal 0 -1 -0
    outer loop
      vertex 30 0 6
      vertex 0 0 0
      vertex 30 0 0
    endloop
  endfacet
  facet normal 0.987688 0.156434 0
    outer loop
      vertex 18.1 5 11.6
      vertex 17.9483 5.95795 10.6
      vertex 17.9483 5.95795 11.6
    endloop
  endfacet
  facet normal 0.987688 0.156434 0
    outer loop
      vertex 17.9483 5.95795 10.6
      vertex 18.1 5 11.6
      vertex 18.1 5 10.6
    endloop
  endfacet
  facet normal -0.156434 0.987688 0
    outer loop
      vertex 15 8.1 10.6
      vertex 14.042 7.94827 11.6
      vertex 15 8.1 11.6
    endloop
  endfacet
  facet normal -0.156434 0.987688 0
    outer loop
      vertex 14.042 7.94827 11.6
      vertex 15 8.1 10.6
      vertex 14.042 7.94827 10.6
    endloop
  endfacet
  facet normal 0.156435 -0.987688 0
    outer loop
      vertex 15 1.9 10.6
      vertex 15.958 2.05172 11.6
      vertex 15 1.9 11.6
    endloop
  endfacet
  facet normal 0.156435 -0.987688 0
    outer loop
      vertex 15.958 2.05172 11.6
      vertex 15 1.9 10.6
      vertex 15.958 2.05172 10.6
    endloop
  endfacet
  facet normal -0.453991 -0.891006 0
    outer loop
      vertex 13.1779 2.49205 10.6
      vertex 14.042 2.05172 11.6
      vertex 13.1779 2.49205 11.6
    endloop
  endfacet
  facet normal -0.453991 -0.891006 -0
    outer loop
      vertex 14.042 2.05172 11.6
      vertex 13.1779 2.49205 10.6
      vertex 14.042 2.05172 10.6
    endloop
  endfacet
  facet normal 0.453991 0.891006 -0
    outer loop
      vertex 16.8221 7.50795 10.6
      vertex 15.958 7.94827 11.6
      vertex 16.8221 7.50795 11.6
    endloop
  endfacet
  facet normal 0.453991 0.891006 0
    outer loop
      vertex 15.958 7.94827 11.6
      vertex 16.8221 7.50795 10.6
      vertex 15.958 7.94827 10.6
    endloop
  endfacet
  facet normal 0.891006 0.453991 0
    outer loop
      vertex 17.9483 5.95795 11.6
      vertex 17.508 6.82213 10.6
      vertex 17.508 6.82213 11.6
    endloop
  endfacet
  facet normal 0.891006 0.453991 0
    outer loop
      vertex 17.508 6.82213 10.6
      vertex 17.9483 5.95795 11.6
      vertex 17.9483 5.95795 10.6
    endloop
  endfacet
  facet normal 0.156435 0.987688 -0
    outer loop
      vertex 15.958 7.94827 10.6
      vertex 15 8.1 11.6
      vertex 15.958 7.94827 11.6
    endloop
  endfacet
  facet normal 0.156435 0.987688 0
    outer loop
      vertex 15 8.1 11.6
      vertex 15.958 7.94827 10.6
      vertex 15 8.1 10.6
    endloop
  endfacet
  facet normal -0.891006 0.453991 0
    outer loop
      vertex 12.0517 5.95795 10.6
      vertex 12.492 6.82213 11.6
      vertex 12.492 6.82213 10.6
    endloop
  endfacet
  facet normal -0.891006 0.453991 0
    outer loop
      vertex 12.492 6.82213 11.6
      vertex 12.0517 5.95795 10.6
      vertex 12.0517 5.95795 11.6
    endloop
  endfacet
  facet normal -0.987688 0.156435 0
    outer loop
      vertex 11.9 5 10.6
      vertex 12.0517 5.95795 11.6
      vertex 12.0517 5.95795 10.6
    endloop
  endfacet
  facet normal -0.987688 0.156435 0
    outer loop
      vertex 12.0517 5.95795 11.6
      vertex 11.9 5 10.6
      vertex 11.9 5 11.6
    endloop
  endfacet
  facet normal 0 0 1
    outer loop
      vertex 17 5 11.6
      vertex 18.1 5 11.6
      vertex 17.9483 5.95795 11.6
    endloop
  endfacet
  facet normal 0 0 1
    outer loop
      vertex 16.9021 5.61803 11.6
      vertex 17.9483 5.95795 11.6
      vertex 17.508 6.82213 11.6
    endloop
  endfacet
  facet normal 0 0 1
    outer loop
      vertex 18.1 5 11.6
      vertex 17 5 11.6
      vertex 17.9483 4.04205 11.6
    endloop
  endfacet
  facet normal -0 0 1
    outer loop
      vertex 16.9021 4.38197 11.6
      vertex 17.9483 4.04205 11.6
      vertex 17 5 11.6
    endloop
  endfacet
  facet normal 0 0 1
    outer loop
      vertex 17.9483 5.95795 11.6
      vertex 16.9021 5.61803 11.6
      vertex 17 5 11.6
    endloop
  endfacet
  facet normal 0 0 1
    outer loop
      vertex 16.618 6.17557 11.6
      vertex 17.508 6.82213 11.6
      vertex 16.8221 7.50795 11.6
    endloop
  endfacet
  facet normal 0 0 1
    outer loop
      vertex 17.508 6.82213 11.6
      vertex 16.618 6.17557 11.6
      vertex 16.9021 5.61803 11.6
    endloop
  endfacet
  facet normal 0 0 1
    outer loop
      vertex 16.8221 7.50795 11.6
      vertex 16.1756 6.61803 11.6
      vertex 16.618 6.17557 11.6
    endloop
  endfacet
  facet normal 0 0 1
    outer loop
      vertex 15.958 7.94827 11.6
      vertex 16.1756 6.61803 11.6
      vertex 16.8221 7.50795 11.6
    endloop
  endfacet
  facet normal 0 0 1
    outer loop
      vertex 15.958 7.94827 11.6
      vertex 15.618 6.90211 11.6
      vertex 16.1756 6.61803 11.6
    endloop
  endfacet
  facet normal 0 0 1
    outer loop
      vertex 15 8.1 11.6
      vertex 15.618 6.90211 11.6
      vertex 15.958 7.94827 11.6
    endloop
  endfacet
  facet normal 0 0 1
    outer loop
      vertex 15 8.1 11.6
      vertex 15 7 11.6
      vertex 15.618 6.90211 11.6
    endloop
  endfacet
  facet normal 0 0 1
    outer loop
      vertex 15 8.1 11.6
      vertex 14.382 6.90211 11.6
      vertex 15 7 11.6
    endloop
  endfacet
  facet normal -0 0 1
    outer loop
      vertex 14.042 7.94827 11.6
      vertex 14.382 6.90211 11.6
      vertex 15 8.1 11.6
    endloop
  endfacet
  facet normal 0 0 1
    outer loop
      vertex 14.042 7.94827 11.6
      vertex 13.8244 6.61803 11.6
      vertex 14.382 6.90211 11.6
    endloop
  endfacet
  facet normal -0 0 1
    outer loop
      vertex 13.1779 7.50795 11.6
      vertex 13.8244 6.61803 11.6
      vertex 14.042 7.94827 11.6
    endloop
  endfacet
  facet normal 0 0 1
    outer loop
      vertex 13.8244 6.61803 11.6
      vertex 13.1779 7.50795 11.6
      vertex 13.382 6.17557 11.6
    endloop
  endfacet
  facet normal -0 0 1
    outer loop
      vertex 12.492 6.82213 11.6
      vertex 13.382 6.17557 11.6
      vertex 13.1779 7.50795 11.6
    endloop
  endfacet
  facet normal 0 0 1
    outer loop
      vertex 13.382 6.17557 11.6
      vertex 12.492 6.82213 11.6
      vertex 13.0979 5.61803 11.6
    endloop
  endfacet
  facet normal -0 0 1
    outer loop
      vertex 12.0517 5.95795 11.6
      vertex 13.0979 5.61803 11.6
      vertex 12.492 6.82213 11.6
    endloop
  endfacet
  facet normal 0 0 1
    outer loop
      vertex 17.9483 4.04205 11.6
      vertex 16.9021 4.38197 11.6
      vertex 17.508 3.17787 11.6
    endloop
  endfacet
  facet normal -0 0 1
    outer loop
      vertex 16.618 3.82443 11.6
      vertex 17.508 3.17787 11.6
      vertex 16.9021 4.38197 11.6
    endloop
  endfacet
  facet normal 0 0 1
    outer loop
      vertex 17.508 3.17787 11.6
      vertex 16.618 3.82443 11.6
      vertex 16.8221 2.49205 11.6
    endloop
  endfacet
  facet normal -0 0 1
    outer loop
      vertex 16.1756 3.38197 11.6
      vertex 16.8221 2.49205 11.6
      vertex 16.618 3.82443 11.6
    endloop
  endfacet
  facet normal 0 0 1
    outer loop
      vertex 16.1756 3.38197 11.6
      vertex 15.958 2.05172 11.6
      vertex 16.8221 2.49205 11.6
    endloop
  endfacet
  facet normal -0 0 1
    outer loop
      vertex 15.618 3.09789 11.6
      vertex 15.958 2.05172 11.6
      vertex 16.1756 3.38197 11.6
    endloop
  endfacet
  facet normal -0 0 1
    outer loop
      vertex 15 3 11.6
      vertex 15.958 2.05172 11.6
      vertex 15.618 3.09789 11.6
    endloop
  endfacet
  facet normal 0 0 1
    outer loop
      vertex 15 3 11.6
      vertex 15 1.9 11.6
      vertex 15.958 2.05172 11.6
    endloop
  endfacet
  facet normal 0 0 1
    outer loop
      vertex 14.382 3.09789 11.6
      vertex 15 1.9 11.6
      vertex 15 3 11.6
    endloop
  endfacet
  facet normal 0 0 1
    outer loop
      vertex 14.382 3.09789 11.6
      vertex 14.042 2.05172 11.6
      vertex 15 1.9 11.6
    endloop
  endfacet
  facet normal 0 0 1
    outer loop
      vertex 13.8244 3.38197 11.6
      vertex 14.042 2.05172 11.6
      vertex 14.382 3.09789 11.6
    endloop
  endfacet
  facet normal 0 0 1
    outer loop
      vertex 13.1779 2.49205 11.6
      vertex 13.8244 3.38197 11.6
      vertex 13.382 3.82443 11.6
    endloop
  endfacet
  facet normal 0 0 1
    outer loop
      vertex 13.8244 3.38197 11.6
      vertex 13.1779 2.49205 11.6
      vertex 14.042 2.05172 11.6
    endloop
  endfacet
  facet normal 0 0 1
    outer loop
      vertex 12.492 3.17787 11.6
      vertex 13.382 3.82443 11.6
      vertex 13.0979 4.38197 11.6
    endloop
  endfacet
  facet normal 0 0 1
    outer loop
      vertex 12.0517 4.04205 11.6
      vertex 13.0979 4.38197 11.6
      vertex 13 5 11.6
    endloop
  endfacet
  facet normal 0 0 1
    outer loop
      vertex 13.0979 5.61803 11.6
      vertex 12.0517 5.95795 11.6
      vertex 13 5 11.6
    endloop
  endfacet
  facet normal 0 0 1
    outer loop
      vertex 13.382 3.82443 11.6
      vertex 12.492 3.17787 11.6
      vertex 13.1779 2.49205 11.6
    endloop
  endfacet
  facet normal 0 0 1
    outer loop
      vertex 11.9 5 11.6
      vertex 13 5 11.6
      vertex 12.0517 5.95795 11.6
    endloop
  endfacet
  facet normal 0 0 1
    outer loop
      vertex 13.0979 4.38197 11.6
      vertex 12.0517 4.04205 11.6
      vertex 12.492 3.17787 11.6
    endloop
  endfacet
  facet normal 0 0 1
    outer loop
      vertex 13 5 11.6
      vertex 11.9 5 11.6
      vertex 12.0517 4.04205 11.6
    endloop
  endfacet
  facet normal -0.453991 0.891006 0
    outer loop
      vertex 14.042 7.94827 10.6
      vertex 13.1779 7.50795 11.6
      vertex 14.042 7.94827 11.6
    endloop
  endfacet
  facet normal -0.453991 0.891006 0
    outer loop
      vertex 13.1779 7.50795 11.6
      vertex 14.042 7.94827 10.6
      vertex 13.1779 7.50795 10.6
    endloop
  endfacet
  facet normal 0.987689 -0.156433 0
    outer loop
      vertex 17.9483 4.04205 11.6
      vertex 18.1 5 10.6
      vertex 18.1 5 11.6
    endloop
  endfacet
  facet normal 0.987689 -0.156433 0
    outer loop
      vertex 18.1 5 10.6
      vertex 17.9483 4.04205 11.6
      vertex 17.9483 4.04205 10.6
    endloop
  endfacet
  facet normal -0.156434 -0.987688 0
    outer loop
      vertex 14.042 2.05172 10.6
      vertex 15 1.9 11.6
      vertex 14.042 2.05172 11.6
    endloop
  endfacet
  facet normal -0.156434 -0.987688 -0
    outer loop
      vertex 15 1.9 11.6
      vertex 14.042 2.05172 10.6
      vertex 15 1.9 10.6
    endloop
  endfacet
  facet normal -0.891006 -0.453991 0
    outer loop
      vertex 12.492 3.17787 10.6
      vertex 12.0517 4.04205 11.6
      vertex 12.0517 4.04205 10.6
    endloop
  endfacet
  facet normal -0.891006 -0.453991 0
    outer loop
      vertex 12.0517 4.04205 11.6
      vertex 12.492 3.17787 10.6
      vertex 12.492 3.17787 11.6
    endloop
  endfacet
  facet normal 0.707107 0.707107 0
    outer loop
      vertex 17.508 6.82213 11.6
      vertex 16.8221 7.50795 10.6
      vertex 16.8221 7.50795 11.6
    endloop
  endfacet
  facet normal 0.707107 0.707107 0
    outer loop
      vertex 16.8221 7.50795 10.6
      vertex 17.508 6.82213 11.6
      vertex 17.508 6.82213 10.6
    endloop
  endfacet
  facet normal -0.987688 -0.156434 0
    outer loop
      vertex 12.0517 4.04205 10.6
      vertex 11.9 5 11.6
      vertex 11.9 5 10.6
    endloop
  endfacet
  facet normal -0.987688 -0.156434 0
    outer loop
      vertex 11.9 5 11.6
      vertex 12.0517 4.04205 10.6
      vertex 12.0517 4.04205 11.6
    endloop
  endfacet
  facet normal -0.707107 0.707107 0
    outer loop
      vertex 12.492 6.82213 10.6
      vertex 13.1779 7.50795 11.6
      vertex 13.1779 7.50795 10.6
    endloop
  endfacet
  facet normal -0.707107 0.707107 0
    outer loop
      vertex 13.1779 7.50795 11.6
      vertex 12.492 6.82213 10.6
      vertex 12.492 6.82213 11.6
    endloop
  endfacet
  facet normal 0.453991 -0.891006 0
    outer loop
      vertex 15.958 2.05172 10.6
      vertex 16.8221 2.49205 11.6
      vertex 15.958 2.05172 11.6
    endloop
  endfacet
  facet normal 0.453991 -0.891006 0
    outer loop
      vertex 16.8221 2.49205 11.6
      vertex 15.958 2.05172 10.6
      vertex 16.8221 2.49205 10.6
    endloop
  endfacet
  facet normal -0.707107 -0.707107 0
    outer loop
      vertex 13.1779 2.49205 10.6
      vertex 12.492 3.17787 11.6
      vertex 12.492 3.17787 10.6
    endloop
  endfacet
  facet normal -0.707107 -0.707107 0
    outer loop
      vertex 12.492 3.17787 11.6
      vertex 13.1779 2.49205 10.6
      vertex 13.1779 2.49205 11.6
    endloop
  endfacet
  facet normal 0.707107 -0.707107 0
    outer loop
      vertex 16.8221 2.49205 11.6
      vertex 17.508 3.17787 10.6
      vertex 17.508 3.17787 11.6
    endloop
  endfacet
  facet normal 0.707107 -0.707107 0
    outer loop
      vertex 17.508 3.17787 10.6
      vertex 16.8221 2.49205 11.6
      vertex 16.8221 2.49205 10.6
    endloop
  endfacet
  facet normal 0.891006 -0.453991 0
    outer loop
      vertex 17.508 3.17787 11.6
      vertex 17.9483 4.04205 10.6
      vertex 17.9483 4.04205 11.6
    endloop
  endfacet
  facet normal 0.891006 -0.453991 0
    outer loop
      vertex 17.9483 4.04205 10.6
      vertex 17.508 3.17787 11.6
      vertex 17.508 3.17787 10.6
    endloop
  endfacet
  facet normal 0.992115 0.125334 0
    outer loop
      vertex 20 5 10.6
      vertex 19.8429 6.24345 6
      vertex 19.8429 6.24345 10.6
    endloop
  endfacet
  facet normal 0.992115 0.125334 0
    outer loop
      vertex 19.8429 6.24345 6
      vertex 20 5 10.6
      vertex 20 5 6
    endloop
  endfacet
  facet normal -1 0 0
    outer loop
      vertex 10.0394 4.37333 6
      vertex 10.0394 5.62667 10.6
      vertex 10.0394 5.62667 6
    endloop
  endfacet
  facet normal -1 -0 0
    outer loop
      vertex 10.0394 5.62667 10.6
      vertex 10.0394 4.37333 6
      vertex 10.0394 4.37333 10.6
    endloop
  endfacet
  facet normal -0.0627904 0.998027 0
    outer loop
      vertex 15.314 9.99013 6
      vertex 14.0631 9.91144 10.6
      vertex 15.314 9.99013 10.6
    endloop
  endfacet
  facet normal -0.0627904 0.998027 0
    outer loop
      vertex 14.0631 9.91144 10.6
      vertex 15.314 9.99013 6
      vertex 14.0631 9.91144 6
    endloop
  endfacet
  facet normal 0.187381 -0.982287 0
    outer loop
      vertex 15.314 0.00986576 6
      vertex 16.5451 0.244717 10.6
      vertex 15.314 0.00986576 10.6
    endloop
  endfacet
  facet normal 0.187381 -0.982287 0
    outer loop
      vertex 16.5451 0.244717 10.6
      vertex 15.314 0.00986576 6
      vertex 16.5451 0.244717 6
    endloop
  endfacet
  facet normal 0.637423 0.770514 -0
    outer loop
      vertex 18.6448 8.42274 6
      vertex 17.6791 9.22164 10.6
      vertex 18.6448 8.42274 10.6
    endloop
  endfacet
  facet normal 0.637423 0.770514 0
    outer loop
      vertex 17.6791 9.22164 10.6
      vertex 18.6448 8.42274 6
      vertex 17.6791 9.22164 6
    endloop
  endfacet
  facet normal 0.42578 0.904827 -0
    outer loop
      vertex 17.6791 9.22164 6
      vertex 16.5451 9.75528 10.6
      vertex 17.6791 9.22164 10.6
    endloop
  endfacet
  facet normal 0.42578 0.904827 0
    outer loop
      vertex 16.5451 9.75528 10.6
      vertex 17.6791 9.22164 6
      vertex 16.5451 9.75528 6
    endloop
  endfacet
  facet normal -0.728968 0.684547 0
    outer loop
      vertex 10.9549 7.93893 6
      vertex 11.8129 8.85257 10.6
      vertex 11.8129 8.85257 6
    endloop
  endfacet
  facet normal -0.728968 0.684547 0
    outer loop
      vertex 11.8129 8.85257 10.6
      vertex 10.9549 7.93893 6
      vertex 10.9549 7.93893 10.6
    endloop
  endfacet
  facet normal 0 0 1
    outer loop
      vertex 18.1 5 10.6
      vertex 20 5 10.6
      vertex 19.8429 6.24345 10.6
    endloop
  endfacet
  facet normal 0 0 1
    outer loop
      vertex 17.9483 5.95795 10.6
      vertex 19.8429 6.24345 10.6
      vertex 19.3815 7.40877 10.6
    endloop
  endfacet
  facet normal 0 0 1
    outer loop
      vertex 20 5 10.6
      vertex 18.1 5 10.6
      vertex 19.8429 3.75655 10.6
    endloop
  endfacet
  facet normal 0 0 1
    outer loop
      vertex 17.508 6.82213 10.6
      vertex 19.3815 7.40877 10.6
      vertex 18.6448 8.42274 10.6
    endloop
  endfacet
  facet normal -0 0 1
    outer loop
      vertex 17.9483 4.04205 10.6
      vertex 19.8429 3.75655 10.6
      vertex 18.1 5 10.6
    endloop
  endfacet
  facet normal 0 0 1
    outer loop
      vertex 19.8429 3.75655 10.6
      vertex 17.9483 4.04205 10.6
      vertex 19.3815 2.59123 10.6
    endloop
  endfacet
  facet normal 0 0 1
    outer loop
      vertex 19.8429 6.24345 10.6
      vertex 17.9483 5.95795 10.6
      vertex 18.1 5 10.6
    endloop
  endfacet
  facet normal 0 0 1
    outer loop
      vertex 16.8221 7.50795 10.6
      vertex 18.6448 8.42274 10.6
      vertex 17.6791 9.22164 10.6
    endloop
  endfacet
  facet normal 0 0 1
    outer loop
      vertex 19.3815 7.40877 10.6
      vertex 17.508 6.82213 10.6
      vertex 17.9483 5.95795 10.6
    endloop
  endfacet
  facet normal 0 0 1
    outer loop
      vertex 18.6448 8.42274 10.6
      vertex 16.8221 7.50795 10.6
      vertex 17.508 6.82213 10.6
    endloop
  endfacet
  facet normal 0 0 1
    outer loop
      vertex 15.958 7.94827 10.6
      vertex 17.6791 9.22164 10.6
      vertex 16.5451 9.75528 10.6
    endloop
  endfacet
  facet normal 0 0 1
    outer loop
      vertex 17.6791 9.22164 10.6
      vertex 15.958 7.94827 10.6
      vertex 16.8221 7.50795 10.6
    endloop
  endfacet
  facet normal 0 0 1
    outer loop
      vertex 15.314 9.99013 10.6
      vertex 15.958 7.94827 10.6
      vertex 16.5451 9.75528 10.6
    endloop
  endfacet
  facet normal 0 0 1
    outer loop
      vertex 15.314 9.99013 10.6
      vertex 15 8.1 10.6
      vertex 15.958 7.94827 10.6
    endloop
  endfacet
  facet normal -0 0 1
    outer loop
      vertex 14.0631 9.91144 10.6
      vertex 15 8.1 10.6
      vertex 15.314 9.99013 10.6
    endloop
  endfacet
  facet normal 0 0 1
    outer loop
      vertex 14.0631 9.91144 10.6
      vertex 14.042 7.94827 10.6
      vertex 15 8.1 10.6
    endloop
  endfacet
  facet normal -0 0 1
    outer loop
      vertex 12.8711 9.52413 10.6
      vertex 14.042 7.94827 10.6
      vertex 14.0631 9.91144 10.6
    endloop
  endfacet
  facet normal 0 0 1
    outer loop
      vertex 14.042 7.94827 10.6
      vertex 12.8711 9.52413 10.6
      vertex 13.1779 7.50795 10.6
    endloop
  endfacet
  facet normal -0 0 1
    outer loop
      vertex 11.8129 8.85257 10.6
      vertex 13.1779 7.50795 10.6
      vertex 12.8711 9.52413 10.6
    endloop
  endfacet
  facet normal 0 0 1
    outer loop
      vertex 13.1779 7.50795 10.6
      vertex 11.8129 8.85257 10.6
      vertex 12.492 6.82213 10.6
    endloop
  endfacet
  facet normal -0 0 1
    outer loop
      vertex 10.3511 6.84062 10.6
      vertex 12.492 6.82213 10.6
      vertex 10.9549 7.93893 10.6
    endloop
  endfacet
  facet normal -0 0 1
    outer loop
      vertex 10.9549 7.93893 10.6
      vertex 12.492 6.82213 10.6
      vertex 11.8129 8.85257 10.6
    endloop
  endfacet
  facet normal -0 0 1
    outer loop
      vertex 17.508 3.17787 10.6
      vertex 19.3815 2.59123 10.6
      vertex 17.9483 4.04205 10.6
    endloop
  endfacet
  facet normal 0 0 1
    outer loop
      vertex 19.3815 2.59123 10.6
      vertex 17.508 3.17787 10.6
      vertex 18.6448 1.57726 10.6
    endloop
  endfacet
  facet normal -0 0 1
    outer loop
      vertex 16.8221 2.49205 10.6
      vertex 18.6448 1.57726 10.6
      vertex 17.508 3.17787 10.6
    endloop
  endfacet
  facet normal 0 0 1
    outer loop
      vertex 18.6448 1.57726 10.6
      vertex 16.8221 2.49205 10.6
      vertex 17.6791 0.77836 10.6
    endloop
  endfacet
  facet normal -0 0 1
    outer loop
      vertex 15.958 2.05172 10.6
      vertex 17.6791 0.77836 10.6
      vertex 16.8221 2.49205 10.6
    endloop
  endfacet
  facet normal 0 0 1
    outer loop
      vertex 17.6791 0.77836 10.6
      vertex 15.958 2.05172 10.6
      vertex 16.5451 0.244717 10.6
    endloop
  endfacet
  facet normal 0 0 1
    outer loop
      vertex 15.958 2.05172 10.6
      vertex 15.314 0.00986576 10.6
      vertex 16.5451 0.244717 10.6
    endloop
  endfacet
  facet normal -0 0 1
    outer loop
      vertex 15 1.9 10.6
      vertex 15.314 0.00986576 10.6
      vertex 15.958 2.05172 10.6
    endloop
  endfacet
  facet normal 0 0 1
    outer loop
      vertex 15 1.9 10.6
      vertex 14.0631 0.088563 10.6
      vertex 15.314 0.00986576 10.6
    endloop
  endfacet
  facet normal 0 0 1
    outer loop
      vertex 14.042 2.05172 10.6
      vertex 14.0631 0.088563 10.6
      vertex 15 1.9 10.6
    endloop
  endfacet
  facet normal 0 0 1
    outer loop
      vertex 12.8711 0.475864 10.6
      vertex 14.042 2.05172 10.6
      vertex 13.1779 2.49205 10.6
    endloop
  endfacet
  facet normal 0 0 1
    outer loop
      vertex 14.042 2.05172 10.6
      vertex 12.8711 0.475864 10.6
      vertex 14.0631 0.088563 10.6
    endloop
  endfacet
  facet normal 0 0 1
    outer loop
      vertex 11.8129 1.14743 10.6
      vertex 13.1779 2.49205 10.6
      vertex 12.492 3.17787 10.6
    endloop
  endfacet
  facet normal 0 0 1
    outer loop
      vertex 10.3511 3.15938 10.6
      vertex 12.492 3.17787 10.6
      vertex 12.0517 4.04205 10.6
    endloop
  endfacet
  facet normal 0 0 1
    outer loop
      vertex 13.1779 2.49205 10.6
      vertex 11.8129 1.14743 10.6
      vertex 12.8711 0.475864 10.6
    endloop
  endfacet
  facet normal -0 0 1
    outer loop
      vertex 10.0394 4.37333 10.6
      vertex 12.0517 4.04205 10.6
      vertex 11.9 5 10.6
    endloop
  endfacet
  facet normal 0 0 1
    outer loop
      vertex 12.492 6.82213 10.6
      vertex 10.3511 6.84062 10.6
      vertex 12.0517 5.95795 10.6
    endloop
  endfacet
  facet normal 0 0 1
    outer loop
      vertex 10.0394 5.62667 10.6
      vertex 12.0517 5.95795 10.6
      vertex 10.3511 6.84062 10.6
    endloop
  endfacet
  facet normal 0 0 1
    outer loop
      vertex 12.492 3.17787 10.6
      vertex 10.9549 2.06107 10.6
      vertex 11.8129 1.14743 10.6
    endloop
  endfacet
  facet normal 0 0 1
    outer loop
      vertex 12.0517 5.95795 10.6
      vertex 10.0394 5.62667 10.6
      vertex 11.9 5 10.6
    endloop
  endfacet
  facet normal 0 0 1
    outer loop
      vertex 12.492 3.17787 10.6
      vertex 10.3511 3.15938 10.6
      vertex 10.9549 2.06107 10.6
    endloop
  endfacet
  facet normal 0 0 1
    outer loop
      vertex 10.0394 4.37333 10.6
      vertex 11.9 5 10.6
      vertex 10.0394 5.62667 10.6
    endloop
  endfacet
  facet normal 0 0 1
    outer loop
      vertex 12.0517 4.04205 10.6
      vertex 10.0394 4.37333 10.6
      vertex 10.3511 3.15938 10.6
    endloop
  endfacet
  facet normal -0.535827 0.844328 0
    outer loop
      vertex 12.8711 9.52413 6
      vertex 11.8129 8.85257 10.6
      vertex 12.8711 9.52413 10.6
    endloop
  endfacet
  facet normal -0.535827 0.844328 0
    outer loop
      vertex 11.8129 8.85257 10.6
      vertex 12.8711 9.52413 6
      vertex 11.8129 8.85257 6
    endloop
  endfacet
  facet normal 0.929777 -0.368124 0
    outer loop
      vertex 19.3815 2.59123 10.6
      vertex 19.8429 3.75655 6
      vertex 19.8429 3.75655 10.6
    endloop
  endfacet
  facet normal 0.929777 -0.368124 0
    outer loop
      vertex 19.8429 3.75655 6
      vertex 19.3815 2.59123 10.6
      vertex 19.3815 2.59123 6
    endloop
  endfacet
  facet normal 0.809018 0.587784 0
    outer loop
      vertex 19.3815 7.40877 10.6
      vertex 18.6448 8.42274 6
      vertex 18.6448 8.42274 10.6
    endloop
  endfacet
  facet normal 0.809018 0.587784 0
    outer loop
      vertex 18.6448 8.42274 6
      vertex 19.3815 7.40877 10.6
      vertex 19.3815 7.40877 6
    endloop
  endfacet
  facet normal 0.929777 0.368124 0
    outer loop
      vertex 19.8429 6.24345 10.6
      vertex 19.3815 7.40877 6
      vertex 19.3815 7.40877 10.6
    endloop
  endfacet
  facet normal 0.929777 0.368124 0
    outer loop
      vertex 19.3815 7.40877 6
      vertex 19.8429 6.24345 10.6
      vertex 19.8429 6.24345 6
    endloop
  endfacet
  facet normal 0.187381 0.982287 -0
    outer loop
      vertex 16.5451 9.75528 6
      vertex 15.314 9.99013 10.6
      vertex 16.5451 9.75528 10.6
    endloop
  endfacet
  facet normal 0.187381 0.982287 0
    outer loop
      vertex 15.314 9.99013 10.6
      vertex 16.5451 9.75528 6
      vertex 15.314 9.99013 6
    endloop
  endfacet
  facet normal -0.876307 0.481753 0
    outer loop
      vertex 10.3511 6.84062 6
      vertex 10.9549 7.93893 10.6
      vertex 10.9549 7.93893 6
    endloop
  endfacet
  facet normal -0.876307 0.481753 0
    outer loop
      vertex 10.9549 7.93893 10.6
      vertex 10.3511 6.84062 6
      vertex 10.3511 6.84062 10.6
    endloop
  endfacet
  facet normal -0.968583 0.24869 0
    outer loop
      vertex 10.0394 5.62667 6
      vertex 10.3511 6.84062 10.6
      vertex 10.3511 6.84062 6
    endloop
  endfacet
  facet normal -0.968583 0.24869 0
    outer loop
      vertex 10.3511 6.84062 10.6
      vertex 10.0394 5.62667 6
      vertex 10.0394 5.62667 10.6
    endloop
  endfacet
  facet normal -0.309017 0.951056 0
    outer loop
      vertex 14.0631 9.91144 6
      vertex 12.8711 9.52413 10.6
      vertex 14.0631 9.91144 10.6
    endloop
  endfacet
  facet normal -0.309017 0.951056 0
    outer loop
      vertex 12.8711 9.52413 10.6
      vertex 14.0631 9.91144 6
      vertex 12.8711 9.52413 6
    endloop
  endfacet
  facet normal 0.992115 -0.125334 0
    outer loop
      vertex 19.8429 3.75655 10.6
      vertex 20 5 6
      vertex 20 5 10.6
    endloop
  endfacet
  facet normal 0.992115 -0.125334 0
    outer loop
      vertex 20 5 6
      vertex 19.8429 3.75655 10.6
      vertex 19.8429 3.75655 6
    endloop
  endfacet
  facet normal 0.809018 -0.587784 0
    outer loop
      vertex 18.6448 1.57726 10.6
      vertex 19.3815 2.59123 6
      vertex 19.3815 2.59123 10.6
    endloop
  endfacet
  facet normal 0.809018 -0.587784 0
    outer loop
      vertex 19.3815 2.59123 6
      vertex 18.6448 1.57726 10.6
      vertex 18.6448 1.57726 6
    endloop
  endfacet
  facet normal -0.728968 -0.684547 0
    outer loop
      vertex 11.8129 1.14743 6
      vertex 10.9549 2.06107 10.6
      vertex 10.9549 2.06107 6
    endloop
  endfacet
  facet normal -0.728968 -0.684547 0
    outer loop
      vertex 10.9549 2.06107 10.6
      vertex 11.8129 1.14743 6
      vertex 11.8129 1.14743 10.6
    endloop
  endfacet
  facet normal -0.0627904 -0.998027 0
    outer loop
      vertex 14.0631 0.088563 6
      vertex 15.314 0.00986576 10.6
      vertex 14.0631 0.088563 10.6
    endloop
  endfacet
  facet normal -0.0627904 -0.998027 -0
    outer loop
      vertex 15.314 0.00986576 10.6
      vertex 14.0631 0.088563 6
      vertex 15.314 0.00986576 6
    endloop
  endfacet
  facet normal -0.535827 -0.844328 0
    outer loop
      vertex 11.8129 1.14743 6
      vertex 12.8711 0.475864 10.6
      vertex 11.8129 1.14743 10.6
    endloop
  endfacet
  facet normal -0.535827 -0.844328 -0
    outer loop
      vertex 12.8711 0.475864 10.6
      vertex 11.8129 1.14743 6
      vertex 12.8711 0.475864 6
    endloop
  endfacet
  facet normal -0.309017 -0.951056 0
    outer loop
      vertex 12.8711 0.475864 6
      vertex 14.0631 0.088563 10.6
      vertex 12.8711 0.475864 10.6
    endloop
  endfacet
  facet normal -0.309017 -0.951056 -0
    outer loop
      vertex 14.0631 0.088563 10.6
      vertex 12.8711 0.475864 6
      vertex 14.0631 0.088563 6
    endloop
  endfacet
  facet normal -0.876307 -0.481753 0
    outer loop
      vertex 10.9549 2.06107 6
      vertex 10.3511 3.15938 10.6
      vertex 10.3511 3.15938 6
    endloop
  endfacet
  facet normal -0.876307 -0.481753 0
    outer loop
      vertex 10.3511 3.15938 10.6
      vertex 10.9549 2.06107 6
      vertex 10.9549 2.06107 10.6
    endloop
  endfacet
  facet normal -0.968583 -0.24869 0
    outer loop
      vertex 10.3511 3.15938 6
      vertex 10.0394 4.37333 10.6
      vertex 10.0394 4.37333 6
    endloop
  endfacet
  facet normal -0.968583 -0.24869 0
    outer loop
      vertex 10.0394 4.37333 10.6
      vertex 10.3511 3.15938 6
      vertex 10.3511 3.15938 10.6
    endloop
  endfacet
  facet normal 0.637423 -0.770514 0
    outer loop
      vertex 17.6791 0.77836 6
      vertex 18.6448 1.57726 10.6
      vertex 17.6791 0.77836 10.6
    endloop
  endfacet
  facet normal 0.637423 -0.770514 0
    outer loop
      vertex 18.6448 1.57726 10.6
      vertex 17.6791 0.77836 6
      vertex 18.6448 1.57726 6
    endloop
  endfacet
  facet normal 0.42578 -0.904827 0
    outer loop
      vertex 16.5451 0.244717 6
      vertex 17.6791 0.77836 10.6
      vertex 16.5451 0.244717 10.6
    endloop
  endfacet
  facet normal 0.42578 -0.904827 0
    outer loop
      vertex 17.6791 0.77836 10.6
      vertex 16.5451 0.244717 6
      vertex 17.6791 0.77836 6
    endloop
  endfacet
  facet normal -0.987688 -0.156435 0
    outer loop
      vertex 6.65 5 0
      vertex 6.56924 5.50988 3
      vertex 6.56924 5.50988 0
    endloop
  endfacet
  facet normal -0.987688 -0.156435 0
    outer loop
      vertex 6.56924 5.50988 3
      vertex 6.65 5 0
      vertex 6.65 5 3
    endloop
  endfacet
  facet normal 0.891007 0.453989 0
    outer loop
      vertex 3.66512 4.03015 3
      vertex 3.43076 4.49012 0
      vertex 3.43076 4.49012 3
    endloop
  endfacet
  facet normal 0.891007 0.453989 0
    outer loop
      vertex 3.43076 4.49012 0
      vertex 3.66512 4.03015 3
      vertex 3.66512 4.03015 0
    endloop
  endfacet
  facet normal 0.156435 -0.987688 0
    outer loop
      vertex 4.49012 6.56924 0
      vertex 5 6.65 3
      vertex 4.49012 6.56924 3
    endloop
  endfacet
  facet normal 0.156435 -0.987688 0
    outer loop
      vertex 5 6.65 3
      vertex 4.49012 6.56924 0
      vertex 5 6.65 0
    endloop
  endfacet
  facet normal 0.987688 0.156435 0
    outer loop
      vertex 3.43076 4.49012 3
      vertex 3.35 5 0
      vertex 3.35 5 3
    endloop
  endfacet
  facet normal 0.987688 0.156435 0
    outer loop
      vertex 3.35 5 0
      vertex 3.43076 4.49012 3
      vertex 3.43076 4.49012 0
    endloop
  endfacet
  facet normal -0.707107 -0.707107 0
    outer loop
      vertex 6.33488 5.96984 0
      vertex 5.96984 6.33488 3
      vertex 5.96984 6.33488 0
    endloop
  endfacet
  facet normal -0.707107 -0.707107 0
    outer loop
      vertex 5.96984 6.33488 3
      vertex 6.33488 5.96984 0
      vertex 6.33488 5.96984 3
    endloop
  endfacet
  facet normal -0.891007 -0.453989 0
    outer loop
      vertex 6.56924 5.50988 0
      vertex 6.33488 5.96984 3
      vertex 6.33488 5.96984 0
    endloop
  endfacet
  facet normal -0.891007 -0.453989 0
    outer loop
      vertex 6.33488 5.96984 3
      vertex 6.56924 5.50988 0
      vertex 6.56924 5.50988 3
    endloop
  endfacet
  facet normal -0.156435 -0.987688 0
    outer loop
      vertex 5 6.65 0
      vertex 5.50988 6.56924 3
      vertex 5 6.65 3
    endloop
  endfacet
  facet normal -0.156435 -0.987688 -0
    outer loop
      vertex 5.50988 6.56924 3
      vertex 5 6.65 0
      vertex 5.50988 6.56924 0
    endloop
  endfacet
  facet normal 0.453989 -0.891007 0
    outer loop
      vertex 4.03015 6.33488 0
      vertex 4.49012 6.56924 3
      vertex 4.03015 6.33488 3
    endloop
  endfacet
  facet normal 0.453989 -0.891007 0
    outer loop
      vertex 4.49012 6.56924 3
      vertex 4.03015 6.33488 0
      vertex 4.49012 6.56924 0
    endloop
  endfacet
  facet normal 0.987688 -0.156435 0
    outer loop
      vertex 3.35 5 3
      vertex 3.43076 5.50988 0
      vertex 3.43076 5.50988 3
    endloop
  endfacet
  facet normal 0.987688 -0.156435 0
    outer loop
      vertex 3.43076 5.50988 0
      vertex 3.35 5 3
      vertex 3.35 5 0
    endloop
  endfacet
  facet normal 0.707107 -0.707107 0
    outer loop
      vertex 3.66512 5.96984 3
      vertex 4.03015 6.33488 0
      vertex 4.03015 6.33488 3
    endloop
  endfacet
  facet normal 0.707107 -0.707107 0
    outer loop
      vertex 4.03015 6.33488 0
      vertex 3.66512 5.96984 3
      vertex 3.66512 5.96984 0
    endloop
  endfacet
  facet normal -0.453989 -0.891007 0
    outer loop
      vertex 5.50988 6.56924 0
      vertex 5.96984 6.33488 3
      vertex 5.50988 6.56924 3
    endloop
  endfacet
  facet normal -0.453989 -0.891007 -0
    outer loop
      vertex 5.96984 6.33488 3
      vertex 5.50988 6.56924 0
      vertex 5.96984 6.33488 0
    endloop
  endfacet
  facet normal 0.891007 -0.453989 0
    outer loop
      vertex 3.43076 5.50988 3
      vertex 3.66512 5.96984 0
      vertex 3.66512 5.96984 3
    endloop
  endfacet
  facet normal 0.891007 -0.453989 0
    outer loop
      vertex 3.66512 5.96984 0
      vertex 3.43076 5.50988 3
      vertex 3.43076 5.50988 0
    endloop
  endfacet
  facet normal -0.891007 0.453989 0
    outer loop
      vertex 6.33488 4.03015 0
      vertex 6.56924 4.49012 3
      vertex 6.56924 4.49012 0
    endloop
  endfacet
  facet normal -0.891007 0.453989 0
    outer loop
      vertex 6.56924 4.49012 3
      vertex 6.33488 4.03015 0
      vertex 6.33488 4.03015 3
    endloop
  endfacet
  facet normal 0.707107 0.707107 0
    outer loop
      vertex 4.03015 3.66512 3
      vertex 3.66512 4.03015 0
      vertex 3.66512 4.03015 3
    endloop
  endfacet
  facet normal 0.707107 0.707107 0
    outer loop
      vertex 3.66512 4.03015 0
      vertex 4.03015 3.66512 3
      vertex 4.03015 3.66512 0
    endloop
  endfacet
  facet normal -0.453989 0.891007 0
    outer loop
      vertex 5.96984 3.66512 0
      vertex 5.50988 3.43076 3
      vertex 5.96984 3.66512 3
    endloop
  endfacet
  facet normal -0.453989 0.891007 0
    outer loop
      vertex 5.50988 3.43076 3
      vertex 5.96984 3.66512 0
      vertex 5.50988 3.43076 0
    endloop
  endfacet
  facet normal -0.707107 0.707107 0
    outer loop
      vertex 5.96984 3.66512 0
      vertex 6.33488 4.03015 3
      vertex 6.33488 4.03015 0
    endloop
  endfacet
  facet normal -0.707107 0.707107 0
    outer loop
      vertex 6.33488 4.03015 3
      vertex 5.96984 3.66512 0
      vertex 5.96984 3.66512 3
    endloop
  endfacet
  facet normal -0.987688 0.156435 0
    outer loop
      vertex 6.56924 4.49012 0
      vertex 6.65 5 3
      vertex 6.65 5 0
    endloop
  endfacet
  facet normal -0.987688 0.156435 0
    outer loop
      vertex 6.65 5 3
      vertex 6.56924 4.49012 0
      vertex 6.56924 4.49012 3
    endloop
  endfacet
  facet normal -0.156435 0.987688 0
    outer loop
      vertex 5.50988 3.43076 0
      vertex 5 3.35 3
      vertex 5.50988 3.43076 3
    endloop
  endfacet
  facet normal -0.156435 0.987688 0
    outer loop
      vertex 5 3.35 3
      vertex 5.50988 3.43076 0
      vertex 5 3.35 0
    endloop
  endfacet
  facet normal 0.156435 0.987688 -0
    outer loop
      vertex 5 3.35 0
      vertex 4.49012 3.43076 3
      vertex 5 3.35 3
    endloop
  endfacet
  facet normal 0.156435 0.987688 0
    outer loop
      vertex 4.49012 3.43076 3
      vertex 5 3.35 0
      vertex 4.49012 3.43076 0
    endloop
  endfacet
  facet normal 0.453989 0.891007 -0
    outer loop
      vertex 4.49012 3.43076 0
      vertex 4.03015 3.66512 3
      vertex 4.49012 3.43076 3
    endloop
  endfacet
  facet normal 0.453989 0.891007 0
    outer loop
      vertex 4.03015 3.66512 3
      vertex 4.49012 3.43076 0
      vertex 4.03015 3.66512 0
    endloop
  endfacet
  facet normal -0.987688 -0.156435 0
    outer loop
      vertex 26.65 5 0
      vertex 26.5692 5.50988 3
      vertex 26.5692 5.50988 0
    endloop
  endfacet
  facet normal -0.987688 -0.156435 0
    outer loop
      vertex 26.5692 5.50988 3
      vertex 26.65 5 0
      vertex 26.65 5 3
    endloop
  endfacet
  facet normal 0.891006 0.453991 0
    outer loop
      vertex 23.6651 4.03015 3
      vertex 23.4308 4.49012 0
      vertex 23.4308 4.49012 3
    endloop
  endfacet
  facet normal 0.891006 0.453991 0
    outer loop
      vertex 23.4308 4.49012 0
      vertex 23.6651 4.03015 3
      vertex 23.6651 4.03015 0
    endloop
  endfacet
  facet normal 0.156435 -0.987688 0
    outer loop
      vertex 24.4901 6.56924 0
      vertex 25 6.65 3
      vertex 24.4901 6.56924 3
    endloop
  endfacet
  facet normal 0.156435 -0.987688 0
    outer loop
      vertex 25 6.65 3
      vertex 24.4901 6.56924 0
      vertex 25 6.65 0
    endloop
  endfacet
  facet normal 0.987688 0.156435 0
    outer loop
      vertex 23.4308 4.49012 3
      vertex 23.35 5 0
      vertex 23.35 5 3
    endloop
  endfacet
  facet normal 0.987688 0.156435 0
    outer loop
      vertex 23.35 5 0
      vertex 23.4308 4.49012 3
      vertex 23.4308 4.49012 0
    endloop
  endfacet
  facet normal -0.707108 -0.707106 0
    outer loop
      vertex 26.3349 5.96984 0
      vertex 25.9698 6.33488 3
      vertex 25.9698 6.33488 0
    endloop
  endfacet
  facet normal -0.707108 -0.707106 0
    outer loop
      vertex 25.9698 6.33488 3
      vertex 26.3349 5.96984 0
      vertex 26.3349 5.96984 3
    endloop
  endfacet
  facet normal -0.891006 -0.453991 0
    outer loop
      vertex 26.5692 5.50988 0
      vertex 26.3349 5.96984 3
      vertex 26.3349 5.96984 0
    endloop
  endfacet
  facet normal -0.891006 -0.453991 0
    outer loop
      vertex 26.3349 5.96984 3
      vertex 26.5692 5.50988 0
      vertex 26.5692 5.50988 3
    endloop
  endfacet
  facet normal -0.156436 -0.987688 0
    outer loop
      vertex 25 6.65 0
      vertex 25.5099 6.56924 3
      vertex 25 6.65 3
    endloop
  endfacet
  facet normal -0.156436 -0.987688 -0
    outer loop
      vertex 25.5099 6.56924 3
      vertex 25 6.65 0
      vertex 25.5099 6.56924 0
    endloop
  endfacet
  facet normal 0.45399 -0.891007 0
    outer loop
      vertex 24.0302 6.33488 0
      vertex 24.4901 6.56924 3
      vertex 24.0302 6.33488 3
    endloop
  endfacet
  facet normal 0.45399 -0.891007 0
    outer loop
      vertex 24.4901 6.56924 3
      vertex 24.0302 6.33488 0
      vertex 24.4901 6.56924 0
    endloop
  endfacet
  facet normal 0.987688 -0.156435 0
    outer loop
      vertex 23.35 5 3
      vertex 23.4308 5.50988 0
      vertex 23.4308 5.50988 3
    endloop
  endfacet
  facet normal 0.987688 -0.156435 0
    outer loop
      vertex 23.4308 5.50988 0
      vertex 23.35 5 3
      vertex 23.35 5 0
    endloop
  endfacet
  facet normal 0.707106 -0.707108 0
    outer loop
      vertex 23.6651 5.96984 0
      vertex 24.0302 6.33488 3
      vertex 23.6651 5.96984 3
    endloop
  endfacet
  facet normal 0.707106 -0.707108 0
    outer loop
      vertex 24.0302 6.33488 3
      vertex 23.6651 5.96984 0
      vertex 24.0302 6.33488 0
    endloop
  endfacet
  facet normal -0.453989 -0.891007 0
    outer loop
      vertex 25.5099 6.56924 0
      vertex 25.9698 6.33488 3
      vertex 25.5099 6.56924 3
    endloop
  endfacet
  facet normal -0.453989 -0.891007 -0
    outer loop
      vertex 25.9698 6.33488 3
      vertex 25.5099 6.56924 0
      vertex 25.9698 6.33488 0
    endloop
  endfacet
  facet normal 0.891006 -0.453991 0
    outer loop
      vertex 23.4308 5.50988 3
      vertex 23.6651 5.96984 0
      vertex 23.6651 5.96984 3
    endloop
  endfacet
  facet normal 0.891006 -0.453991 0
    outer loop
      vertex 23.6651 5.96984 0
      vertex 23.4308 5.50988 3
      vertex 23.4308 5.50988 0
    endloop
  endfacet
  facet normal -0.891006 0.453991 0
    outer loop
      vertex 26.3349 4.03015 0
      vertex 26.5692 4.49012 3
      vertex 26.5692 4.49012 0
    endloop
  endfacet
  facet normal -0.891006 0.453991 0
    outer loop
      vertex 26.5692 4.49012 3
      vertex 26.3349 4.03015 0
      vertex 26.3349 4.03015 3
    endloop
  endfacet
  facet normal 0.45399 0.891007 -0
    outer loop
      vertex 24.4901 3.43076 0
      vertex 24.0302 3.66512 3
      vertex 24.4901 3.43076 3
    endloop
  endfacet
  facet normal 0.45399 0.891007 0
    outer loop
      vertex 24.0302 3.66512 3
      vertex 24.4901 3.43076 0
      vertex 24.0302 3.66512 0
    endloop
  endfacet
  facet normal 0.707106 0.707108 -0
    outer loop
      vertex 24.0302 3.66512 0
      vertex 23.6651 4.03015 3
      vertex 24.0302 3.66512 3
    endloop
  endfacet
  facet normal 0.707106 0.707108 0
    outer loop
      vertex 23.6651 4.03015 3
      vertex 24.0302 3.66512 0
      vertex 23.6651 4.03015 0
    endloop
  endfacet
  facet normal -0.453989 0.891007 0
    outer loop
      vertex 25.9698 3.66512 0
      vertex 25.5099 3.43076 3
      vertex 25.9698 3.66512 3
    endloop
  endfacet
  facet normal -0.453989 0.891007 0
    outer loop
      vertex 25.5099 3.43076 3
      vertex 25.9698 3.66512 0
      vertex 25.5099 3.43076 0
    endloop
  endfacet
  facet normal -0.707108 0.707106 0
    outer loop
      vertex 25.9698 3.66512 0
      vertex 26.3349 4.03015 3
      vertex 26.3349 4.03015 0
    endloop
  endfacet
  facet normal -0.707108 0.707106 0
    outer loop
      vertex 26.3349 4.03015 3
      vertex 25.9698 3.66512 0
      vertex 25.9698 3.66512 3
    endloop
  endfacet
  facet normal -0.987688 0.156435 0
    outer loop
      vertex 26.5692 4.49012 0
      vertex 26.65 5 3
      vertex 26.65 5 0
    endloop
  endfacet
  facet normal -0.987688 0.156435 0
    outer loop
      vertex 26.65 5 3
      vertex 26.5692 4.49012 0
      vertex 26.5692 4.49012 3
    endloop
  endfacet
  facet normal -0.156436 0.987688 0
    outer loop
      vertex 25.5099 3.43076 0
      vertex 25 3.35 3
      vertex 25.5099 3.43076 3
    endloop
  endfacet
  facet normal -0.156436 0.987688 0
    outer loop
      vertex 25 3.35 3
      vertex 25.5099 3.43076 0
      vertex 25 3.35 0
    endloop
  endfacet
  facet normal 0.156435 0.987688 -0
    outer loop
      vertex 25 3.35 0
      vertex 24.4901 3.43076 3
      vertex 25 3.35 3
    endloop
  endfacet
  facet normal 0.156435 0.987688 0
    outer loop
      vertex 24.4901 3.43076 3
      vertex 25 3.35 0
      vertex 24.4901 3.43076 0
    endloop
  endfacet
  facet normal -0 0 1
    outer loop
      vertex 6.33488 5.96984 3
      vertex 8.2 5 3
      vertex 6.6 7.77128 3
    endloop
  endfacet
  facet normal 0 0 1
    outer loop
      vertex 8.2 5 3
      vertex 6.56924 5.50988 3
      vertex 6.65 5 3
    endloop
  endfacet
  facet normal 0 0 1
    outer loop
      vertex 8.2 5 3
      vertex 6.33488 5.96984 3
      vertex 6.56924 5.50988 3
    endloop
  endfacet
  facet normal 0 0 1
    outer loop
      vertex 6.6 7.77128 3
      vertex 5.96984 6.33488 3
      vertex 6.33488 5.96984 3
    endloop
  endfacet
  facet normal 0 0 1
    outer loop
      vertex 6.6 7.77128 3
      vertex 5.50988 6.56924 3
      vertex 5.96984 6.33488 3
    endloop
  endfacet
  facet normal 0 0 1
    outer loop
      vertex 6.6 7.77128 3
      vertex 5 6.65 3
      vertex 5.50988 6.56924 3
    endloop
  endfacet
  facet normal -0 0 1
    outer loop
      vertex 3.4 7.77128 3
      vertex 5 6.65 3
      vertex 6.6 7.77128 3
    endloop
  endfacet
  facet normal 0 0 1
    outer loop
      vertex 5 6.65 3
      vertex 3.4 7.77128 3
      vertex 4.49012 6.56924 3
    endloop
  endfacet
  facet normal 0 0 1
    outer loop
      vertex 4.49012 6.56924 3
      vertex 3.4 7.77128 3
      vertex 4.03015 6.33488 3
    endloop
  endfacet
  facet normal 0 0 1
    outer loop
      vertex 3.4 7.77128 3
      vertex 3.66512 5.96984 3
      vertex 4.03015 6.33488 3
    endloop
  endfacet
  facet normal 0 0 1
    outer loop
      vertex 1.8 5 3
      vertex 3.66512 5.96984 3
      vertex 3.4 7.77128 3
    endloop
  endfacet
  facet normal 0 0 1
    outer loop
      vertex 3.66512 5.96984 3
      vertex 1.8 5 3
      vertex 3.43076 5.50988 3
    endloop
  endfacet
  facet normal 0 0 1
    outer loop
      vertex 3.43076 5.50988 3
      vertex 1.8 5 3
      vertex 3.35 5 3
    endloop
  endfacet
  facet normal 0 0 1
    outer loop
      vertex 6.56924 4.49012 3
      vertex 8.2 5 3
      vertex 6.65 5 3
    endloop
  endfacet
  facet normal 0 0 1
    outer loop
      vertex 6.33488 4.03015 3
      vertex 8.2 5 3
      vertex 6.56924 4.49012 3
    endloop
  endfacet
  facet normal 0 0 1
    outer loop
      vertex 8.2 5 3
      vertex 6.33488 4.03015 3
      vertex 6.6 2.22872 3
    endloop
  endfacet
  facet normal -0 0 1
    outer loop
      vertex 5.96984 3.66512 3
      vertex 6.6 2.22872 3
      vertex 6.33488 4.03015 3
    endloop
  endfacet
  facet normal -0 0 1
    outer loop
      vertex 5.50988 3.43076 3
      vertex 6.6 2.22872 3
      vertex 5.96984 3.66512 3
    endloop
  endfacet
  facet normal -0 0 1
    outer loop
      vertex 5 3.35 3
      vertex 6.6 2.22872 3
      vertex 5.50988 3.43076 3
    endloop
  endfacet
  facet normal 0 0 1
    outer loop
      vertex 3.4 2.22872 3
      vertex 5 3.35 3
      vertex 4.49012 3.43076 3
    endloop
  endfacet
  facet normal 0 0 1
    outer loop
      vertex 3.4 2.22872 3
      vertex 4.49012 3.43076 3
      vertex 4.03015 3.66512 3
    endloop
  endfacet
  facet normal 0 0 1
    outer loop
      vertex 5 3.35 3
      vertex 3.4 2.22872 3
      vertex 6.6 2.22872 3
    endloop
  endfacet
  facet normal 0 0 1
    outer loop
      vertex 3.66512 4.03015 3
      vertex 3.4 2.22872 3
      vertex 4.03015 3.66512 3
    endloop
  endfacet
  facet normal 0 0 1
    outer loop
      vertex 1.8 5 3
      vertex 3.66512 4.03015 3
      vertex 3.43076 4.49012 3
    endloop
  endfacet
  facet normal -0 0 1
    outer loop
      vertex 1.8 5 3
      vertex 3.43076 4.49012 3
      vertex 3.35 5 3
    endloop
  endfacet
  facet normal 0 0 1
    outer loop
      vertex 3.66512 4.03015 3
      vertex 1.8 5 3
      vertex 3.4 2.22872 3
    endloop
  endfacet
  facet normal -0.866025 -0.5 0
    outer loop
      vertex 8.2 5 3
      vertex 6.6 7.77128 6
      vertex 6.6 7.77128 3
    endloop
  endfacet
  facet normal -0.866025 -0.5 0
    outer loop
      vertex 6.6 7.77128 6
      vertex 8.2 5 3
      vertex 8.2 5 6
    endloop
  endfacet
  facet normal 0.866025 -0.5 0
    outer loop
      vertex 1.8 5 6
      vertex 3.4 7.77128 3
      vertex 3.4 7.77128 6
    endloop
  endfacet
  facet normal 0.866025 -0.5 0
    outer loop
      vertex 3.4 7.77128 3
      vertex 1.8 5 6
      vertex 1.8 5 3
    endloop
  endfacet
  facet normal 0 -1 0
    outer loop
      vertex 3.4 7.77128 3
      vertex 6.6 7.77128 6
      vertex 3.4 7.77128 6
    endloop
  endfacet
  facet normal 0 -1 -0
    outer loop
      vertex 6.6 7.77128 6
      vertex 3.4 7.77128 3
      vertex 6.6 7.77128 3
    endloop
  endfacet
  facet normal 0.866025 0.5 0
    outer loop
      vertex 3.4 2.22872 6
      vertex 1.8 5 3
      vertex 1.8 5 6
    endloop
  endfacet
  facet normal 0.866025 0.5 0
    outer loop
      vertex 1.8 5 3
      vertex 3.4 2.22872 6
      vertex 3.4 2.22872 3
    endloop
  endfacet
  facet normal -0.866025 0.5 0
    outer loop
      vertex 6.6 2.22872 3
      vertex 8.2 5 6
      vertex 8.2 5 3
    endloop
  endfacet
  facet normal -0.866025 0.5 0
    outer loop
      vertex 8.2 5 6
      vertex 6.6 2.22872 3
      vertex 6.6 2.22872 6
    endloop
  endfacet
  facet normal 0 1 -0
    outer loop
      vertex 6.6 2.22872 3
      vertex 3.4 2.22872 6
      vertex 6.6 2.22872 6
    endloop
  endfacet
  facet normal 0 1 0
    outer loop
      vertex 3.4 2.22872 6
      vertex 6.6 2.22872 3
      vertex 3.4 2.22872 3
    endloop
  endfacet
  facet normal -0 0 1
    outer loop
      vertex 26.3349 5.96984 3
      vertex 28.2 5 3
      vertex 26.6 7.77128 3
    endloop
  endfacet
  facet normal 0 0 1
    outer loop
      vertex 28.2 5 3
      vertex 26.5692 5.50988 3
      vertex 26.65 5 3
    endloop
  endfacet
  facet normal 0 0 1
    outer loop
      vertex 28.2 5 3
      vertex 26.3349 5.96984 3
      vertex 26.5692 5.50988 3
    endloop
  endfacet
  facet normal 0 0 1
    outer loop
      vertex 26.6 7.77128 3
      vertex 25.9698 6.33488 3
      vertex 26.3349 5.96984 3
    endloop
  endfacet
  facet normal 0 0 1
    outer loop
      vertex 26.6 7.77128 3
      vertex 25.5099 6.56924 3
      vertex 25.9698 6.33488 3
    endloop
  endfacet
  facet normal 0 0 1
    outer loop
      vertex 26.6 7.77128 3
      vertex 25 6.65 3
      vertex 25.5099 6.56924 3
    endloop
  endfacet
  facet normal -0 0 1
    outer loop
      vertex 23.4 7.77128 3
      vertex 25 6.65 3
      vertex 26.6 7.77128 3
    endloop
  endfacet
  facet normal 0 0 1
    outer loop
      vertex 25 6.65 3
      vertex 23.4 7.77128 3
      vertex 24.4901 6.56924 3
    endloop
  endfacet
  facet normal 0 0 1
    outer loop
      vertex 24.4901 6.56924 3
      vertex 23.4 7.77128 3
      vertex 24.0302 6.33488 3
    endloop
  endfacet
  facet normal 0 0 1
    outer loop
      vertex 23.4 7.77128 3
      vertex 23.6651 5.96984 3
      vertex 24.0302 6.33488 3
    endloop
  endfacet
  facet normal 0 0 1
    outer loop
      vertex 21.8 5 3
      vertex 23.6651 5.96984 3
      vertex 23.4 7.77128 3
    endloop
  endfacet
  facet normal 0 0 1
    outer loop
      vertex 23.6651 5.96984 3
      vertex 21.8 5 3
      vertex 23.4308 5.50988 3
    endloop
  endfacet
  facet normal 0 0 1
    outer loop
      vertex 23.4308 5.50988 3
      vertex 21.8 5 3
      vertex 23.35 5 3
    endloop
  endfacet
  facet normal 0 0 1
    outer loop
      vertex 26.5692 4.49012 3
      vertex 28.2 5 3
      vertex 26.65 5 3
    endloop
  endfacet
  facet normal 0 0 1
    outer loop
      vertex 26.3349 4.03015 3
      vertex 28.2 5 3
      vertex 26.5692 4.49012 3
    endloop
  endfacet
  facet normal 0 0 1
    outer loop
      vertex 28.2 5 3
      vertex 26.3349 4.03015 3
      vertex 26.6 2.22872 3
    endloop
  endfacet
  facet normal -0 0 1
    outer loop
      vertex 25.9698 3.66512 3
      vertex 26.6 2.22872 3
      vertex 26.3349 4.03015 3
    endloop
  endfacet
  facet normal -0 0 1
    outer loop
      vertex 25.5099 3.43076 3
      vertex 26.6 2.22872 3
      vertex 25.9698 3.66512 3
    endloop
  endfacet
  facet normal -0 0 1
    outer loop
      vertex 25 3.35 3
      vertex 26.6 2.22872 3
      vertex 25.5099 3.43076 3
    endloop
  endfacet
  facet normal 0 0 1
    outer loop
      vertex 23.4 2.22872 3
      vertex 25 3.35 3
      vertex 24.4901 3.43076 3
    endloop
  endfacet
  facet normal 0 0 1
    outer loop
      vertex 23.4 2.22872 3
      vertex 24.4901 3.43076 3
      vertex 24.0302 3.66512 3
    endloop
  endfacet
  facet normal 0 0 1
    outer loop
      vertex 25 3.35 3
      vertex 23.4 2.22872 3
      vertex 26.6 2.22872 3
    endloop
  endfacet
  facet normal 0 0 1
    outer loop
      vertex 23.6651 4.03015 3
      vertex 23.4 2.22872 3
      vertex 24.0302 3.66512 3
    endloop
  endfacet
  facet normal 0 0 1
    outer loop
      vertex 21.8 5 3
      vertex 23.6651 4.03015 3
      vertex 23.4308 4.49012 3
    endloop
  endfacet
  facet normal -0 0 1
    outer loop
      vertex 21.8 5 3
      vertex 23.4308 4.49012 3
      vertex 23.35 5 3
    endloop
  endfacet
  facet normal 0 0 1
    outer loop
      vertex 23.6651 4.03015 3
      vertex 21.8 5 3
      vertex 23.4 2.22872 3
    endloop
  endfacet
  facet normal -0.866025 -0.500001 0
    outer loop
      vertex 28.2 5 3
      vertex 26.6 7.77128 6
      vertex 26.6 7.77128 3
    endloop
  endfacet
  facet normal -0.866025 -0.500001 0
    outer loop
      vertex 26.6 7.77128 6
      vertex 28.2 5 3
      vertex 28.2 5 6
    endloop
  endfacet
  facet normal 0 1 -0
    outer loop
      vertex 26.6 2.22872 3
      vertex 23.4 2.22872 6
      vertex 26.6 2.22872 6
    endloop
  endfacet
  facet normal 0 1 0
    outer loop
      vertex 23.4 2.22872 6
      vertex 26.6 2.22872 3
      vertex 23.4 2.22872 3
    endloop
  endfacet
  facet normal 0.866025 -0.5 0
    outer loop
      vertex 21.8 5 6
      vertex 23.4 7.77128 3
      vertex 23.4 7.77128 6
    endloop
  endfacet
  facet normal 0.866025 -0.5 0
    outer loop
      vertex 23.4 7.77128 3
      vertex 21.8 5 6
      vertex 21.8 5 3
    endloop
  endfacet
  facet normal 0 -1 0
    outer loop
      vertex 23.4 7.77128 3
      vertex 26.6 7.77128 6
      vertex 23.4 7.77128 6
    endloop
  endfacet
  facet normal 0 -1 -0
    outer loop
      vertex 26.6 7.77128 6
      vertex 23.4 7.77128 3
      vertex 26.6 7.77128 3
    endloop
  endfacet
  facet normal 0.866025 0.5 0
    outer loop
      vertex 23.4 2.22872 6
      vertex 21.8 5 3
      vertex 21.8 5 6
    endloop
  endfacet
  facet normal 0.866025 0.5 0
    outer loop
      vertex 21.8 5 3
      vertex 23.4 2.22872 6
      vertex 23.4 2.22872 3
    endloop
  endfacet
  facet normal -0.866025 0.5 0
    outer loop
      vertex 26.6 2.22872 3
      vertex 28.2 5 6
      vertex 28.2 5 3
    endloop
  endfacet
  facet normal -0.866025 0.5 0
    outer loop
      vertex 28.2 5 6
      vertex 26.6 2.22872 3
      vertex 26.6 2.22872 6
    endloop
  endfacet
  facet normal -0.866025 -0.5 0
    outer loop
      vertex 19.5 5 0
      vertex 17.25 8.89711 5
      vertex 17.25 8.89711 0
    endloop
  endfacet
  facet normal -0.866025 -0.5 0
    outer loop
      vertex 17.25 8.89711 5
      vertex 19.5 5 0
      vertex 19.5 5 5
    endloop
  endfacet
  facet normal 0.866026 0.5 0
    outer loop
      vertex 12.75 1.10289 5
      vertex 10.5 5 0
      vertex 10.5 5 5
    endloop
  endfacet
  facet normal 0.866026 0.5 0
    outer loop
      vertex 10.5 5 0
      vertex 12.75 1.10289 5
      vertex 12.75 1.10289 0
    endloop
  endfacet
  facet normal 0 -1 0
    outer loop
      vertex 12.75 8.89711 0
      vertex 17.25 8.89711 5
      vertex 12.75 8.89711 5
    endloop
  endfacet
  facet normal 0 -1 -0
    outer loop
      vertex 17.25 8.89711 5
      vertex 12.75 8.89711 0
      vertex 17.25 8.89711 0
    endloop
  endfacet
  facet normal 0 1 -0
    outer loop
      vertex 17.25 1.10289 0
      vertex 12.75 1.10289 5
      vertex 17.25 1.10289 5
    endloop
  endfacet
  facet normal 0 1 0
    outer loop
      vertex 12.75 1.10289 5
      vertex 17.25 1.10289 0
      vertex 12.75 1.10289 0
    endloop
  endfacet
  facet normal 0 0 -1
    outer loop
      vertex 17.25 1.10289 5
      vertex 17.25 8.89711 5
      vertex 19.5 5 5
    endloop
  endfacet
  facet normal 0 0 -1
    outer loop
      vertex 17.25 1.10289 5
      vertex 12.75 8.89711 5
      vertex 17.25 8.89711 5
    endloop
  endfacet
  facet normal 0 0 -1
    outer loop
      vertex 12.75 1.10289 5
      vertex 12.75 8.89711 5
      vertex 17.25 1.10289 5
    endloop
  endfacet
  facet normal 0 0 -1
    outer loop
      vertex 12.75 8.89711 5
      vertex 12.75 1.10289 5
      vertex 10.5 5 5
    endloop
  endfacet
  facet normal 0.866025 -0.5 0
    outer loop
      vertex 10.5 5 5
      vertex 12.75 8.89711 0
      vertex 12.75 8.89711 5
    endloop
  endfacet
  facet normal 0.866025 -0.5 0
    outer loop
      vertex 12.75 8.89711 0
      vertex 10.5 5 5
      vertex 10.5 5 0
    endloop
  endfacet
  facet normal -0.866025 0.5 0
    outer loop
      vertex 17.25 1.10289 0
      vertex 19.5 5 5
      vertex 19.5 5 0
    endloop
  endfacet
  facet normal -0.866025 0.5 0
    outer loop
      vertex 19.5 5 5
      vertex 17.25 1.10289 0
      vertex 17.25 1.10289 5
    endloop
  endfacet
  facet normal -0.987688 -0.156435 0
    outer loop
      vertex 17 5 5.3
      vertex 16.9021 5.61803 11.6
      vertex 16.9021 5.61803 5.3
    endloop
  endfacet
  facet normal -0.987688 -0.156435 0
    outer loop
      vertex 16.9021 5.61803 11.6
      vertex 17 5 5.3
      vertex 17 5 11.6
    endloop
  endfacet
  facet normal 0.156434 -0.987688 0
    outer loop
      vertex 14.382 6.90211 5.3
      vertex 15 7 11.6
      vertex 14.382 6.90211 11.6
    endloop
  endfacet
  facet normal 0.156434 -0.987688 0
    outer loop
      vertex 15 7 11.6
      vertex 14.382 6.90211 5.3
      vertex 15 7 5.3
    endloop
  endfacet
  facet normal -0.45399 0.891007 0
    outer loop
      vertex 16.1756 3.38197 5.3
      vertex 15.618 3.09789 11.6
      vertex 16.1756 3.38197 11.6
    endloop
  endfacet
  facet normal -0.45399 0.891007 0
    outer loop
      vertex 15.618 3.09789 11.6
      vertex 16.1756 3.38197 5.3
      vertex 15.618 3.09789 5.3
    endloop
  endfacet
  facet normal -0.45399 -0.891007 0
    outer loop
      vertex 15.618 6.90211 5.3
      vertex 16.1756 6.61803 11.6
      vertex 15.618 6.90211 11.6
    endloop
  endfacet
  facet normal -0.45399 -0.891007 -0
    outer loop
      vertex 16.1756 6.61803 11.6
      vertex 15.618 6.90211 5.3
      vertex 16.1756 6.61803 5.3
    endloop
  endfacet
  facet normal -0.891007 -0.45399 0
    outer loop
      vertex 16.9021 5.61803 5.3
      vertex 16.618 6.17557 11.6
      vertex 16.618 6.17557 5.3
    endloop
  endfacet
  facet normal -0.891007 -0.45399 0
    outer loop
      vertex 16.618 6.17557 11.6
      vertex 16.9021 5.61803 5.3
      vertex 16.9021 5.61803 11.6
    endloop
  endfacet
  facet normal -0.156435 -0.987688 0
    outer loop
      vertex 15 7 5.3
      vertex 15.618 6.90211 11.6
      vertex 15 7 11.6
    endloop
  endfacet
  facet normal -0.156435 -0.987688 -0
    outer loop
      vertex 15.618 6.90211 11.6
      vertex 15 7 5.3
      vertex 15.618 6.90211 5.3
    endloop
  endfacet
  facet normal 0.891006 -0.453991 0
    outer loop
      vertex 13.0979 5.61803 11.6
      vertex 13.382 6.17557 5.3
      vertex 13.382 6.17557 11.6
    endloop
  endfacet
  facet normal 0.891006 -0.453991 0
    outer loop
      vertex 13.382 6.17557 5.3
      vertex 13.0979 5.61803 11.6
      vertex 13.0979 5.61803 5.3
    endloop
  endfacet
  facet normal 0 0 1
    outer loop
      vertex 16.9021 5.61803 5.3
      vertex 16.9021 4.38197 5.3
      vertex 17 5 5.3
    endloop
  endfacet
  facet normal 0 0 1
    outer loop
      vertex 16.618 6.17557 5.3
      vertex 16.9021 4.38197 5.3
      vertex 16.9021 5.61803 5.3
    endloop
  endfacet
  facet normal 0 0 1
    outer loop
      vertex 16.618 6.17557 5.3
      vertex 16.618 3.82443 5.3
      vertex 16.9021 4.38197 5.3
    endloop
  endfacet
  facet normal 0 0 1
    outer loop
      vertex 16.1756 6.61803 5.3
      vertex 16.618 3.82443 5.3
      vertex 16.618 6.17557 5.3
    endloop
  endfacet
  facet normal 0 0 1
    outer loop
      vertex 16.1756 6.61803 5.3
      vertex 16.1756 3.38197 5.3
      vertex 16.618 3.82443 5.3
    endloop
  endfacet
  facet normal 0 0 1
    outer loop
      vertex 15.618 6.90211 5.3
      vertex 16.1756 3.38197 5.3
      vertex 16.1756 6.61803 5.3
    endloop
  endfacet
  facet normal 0 0 1
    outer loop
      vertex 15.618 6.90211 5.3
      vertex 15.618 3.09789 5.3
      vertex 16.1756 3.38197 5.3
    endloop
  endfacet
  facet normal 0 0 1
    outer loop
      vertex 15 7 5.3
      vertex 15.618 3.09789 5.3
      vertex 15.618 6.90211 5.3
    endloop
  endfacet
  facet normal 0 0 1
    outer loop
      vertex 15 7 5.3
      vertex 15 3 5.3
      vertex 15.618 3.09789 5.3
    endloop
  endfacet
  facet normal -0 0 1
    outer loop
      vertex 14.382 6.90211 5.3
      vertex 15 3 5.3
      vertex 15 7 5.3
    endloop
  endfacet
  facet normal 0 0 1
    outer loop
      vertex 14.382 6.90211 5.3
      vertex 14.382 3.09789 5.3
      vertex 15 3 5.3
    endloop
  endfacet
  facet normal -0 0 1
    outer loop
      vertex 13.8244 6.61803 5.3
      vertex 14.382 3.09789 5.3
      vertex 14.382 6.90211 5.3
    endloop
  endfacet
  facet normal 0 0 1
    outer loop
      vertex 13.8244 6.61803 5.3
      vertex 13.8244 3.38197 5.3
      vertex 14.382 3.09789 5.3
    endloop
  endfacet
  facet normal -0 0 1
    outer loop
      vertex 13.382 6.17557 5.3
      vertex 13.8244 3.38197 5.3
      vertex 13.8244 6.61803 5.3
    endloop
  endfacet
  facet normal 0 0 1
    outer loop
      vertex 13.382 6.17557 5.3
      vertex 13.382 3.82443 5.3
      vertex 13.8244 3.38197 5.3
    endloop
  endfacet
  facet normal -0 0 1
    outer loop
      vertex 13.0979 5.61803 5.3
      vertex 13.382 3.82443 5.3
      vertex 13.382 6.17557 5.3
    endloop
  endfacet
  facet normal 0 0 1
    outer loop
      vertex 13.0979 5.61803 5.3
      vertex 13.0979 4.38197 5.3
      vertex 13.382 3.82443 5.3
    endloop
  endfacet
  facet normal 0 -0 1
    outer loop
      vertex 13.0979 4.38197 5.3
      vertex 13.0979 5.61803 5.3
      vertex 13 5 5.3
    endloop
  endfacet
  facet normal 0.987689 -0.156433 0
    outer loop
      vertex 13 5 11.6
      vertex 13.0979 5.61803 5.3
      vertex 13.0979 5.61803 11.6
    endloop
  endfacet
  facet normal 0.987689 -0.156433 0
    outer loop
      vertex 13.0979 5.61803 5.3
      vertex 13 5 11.6
      vertex 13 5 5.3
    endloop
  endfacet
  facet normal 0.453991 -0.891006 0
    outer loop
      vertex 13.8244 6.61803 5.3
      vertex 14.382 6.90211 11.6
      vertex 13.8244 6.61803 11.6
    endloop
  endfacet
  facet normal 0.453991 -0.891006 0
    outer loop
      vertex 14.382 6.90211 11.6
      vertex 13.8244 6.61803 5.3
      vertex 14.382 6.90211 5.3
    endloop
  endfacet
  facet normal 0.156433 0.987689 -0
    outer loop
      vertex 15 3 5.3
      vertex 14.382 3.09789 11.6
      vertex 15 3 11.6
    endloop
  endfacet
  facet normal 0.156433 0.987689 0
    outer loop
      vertex 14.382 3.09789 11.6
      vertex 15 3 5.3
      vertex 14.382 3.09789 5.3
    endloop
  endfacet
  facet normal 0.891006 0.453991 0
    outer loop
      vertex 13.382 3.82443 11.6
      vertex 13.0979 4.38197 5.3
      vertex 13.0979 4.38197 11.6
    endloop
  endfacet
  facet normal 0.891006 0.453991 0
    outer loop
      vertex 13.0979 4.38197 5.3
      vertex 13.382 3.82443 11.6
      vertex 13.382 3.82443 5.3
    endloop
  endfacet
  facet normal -0.707107 -0.707107 0
    outer loop
      vertex 16.618 6.17557 5.3
      vertex 16.1756 6.61803 11.6
      vertex 16.1756 6.61803 5.3
    endloop
  endfacet
  facet normal -0.707107 -0.707107 0
    outer loop
      vertex 16.1756 6.61803 11.6
      vertex 16.618 6.17557 5.3
      vertex 16.618 6.17557 11.6
    endloop
  endfacet
  facet normal 0.987689 0.156433 0
    outer loop
      vertex 13.0979 4.38197 11.6
      vertex 13 5 5.3
      vertex 13 5 11.6
    endloop
  endfacet
  facet normal 0.987689 0.156433 0
    outer loop
      vertex 13 5 5.3
      vertex 13.0979 4.38197 11.6
      vertex 13.0979 4.38197 5.3
    endloop
  endfacet
  facet normal 0.707107 -0.707107 0
    outer loop
      vertex 13.382 6.17557 11.6
      vertex 13.8244 6.61803 5.3
      vertex 13.8244 6.61803 11.6
    endloop
  endfacet
  facet normal 0.707107 -0.707107 0
    outer loop
      vertex 13.8244 6.61803 5.3
      vertex 13.382 6.17557 11.6
      vertex 13.382 6.17557 5.3
    endloop
  endfacet
  facet normal -0.891007 0.45399 0
    outer loop
      vertex 16.618 3.82443 5.3
      vertex 16.9021 4.38197 11.6
      vertex 16.9021 4.38197 5.3
    endloop
  endfacet
  facet normal -0.891007 0.45399 0
    outer loop
      vertex 16.9021 4.38197 11.6
      vertex 16.618 3.82443 5.3
      vertex 16.618 3.82443 11.6
    endloop
  endfacet
  facet normal -0.156433 0.987689 0
    outer loop
      vertex 15.618 3.09789 5.3
      vertex 15 3 11.6
      vertex 15.618 3.09789 11.6
    endloop
  endfacet
  facet normal -0.156433 0.987689 0
    outer loop
      vertex 15 3 11.6
      vertex 15.618 3.09789 5.3
      vertex 15 3 5.3
    endloop
  endfacet
  facet normal 0.707107 0.707107 0
    outer loop
      vertex 13.8244 3.38197 11.6
      vertex 13.382 3.82443 5.3
      vertex 13.382 3.82443 11.6
    endloop
  endfacet
  facet normal 0.707107 0.707107 0
    outer loop
      vertex 13.382 3.82443 5.3
      vertex 13.8244 3.38197 11.6
      vertex 13.8244 3.38197 5.3
    endloop
  endfacet
  facet normal -0.707107 0.707107 0
    outer loop
      vertex 16.1756 3.38197 5.3
      vertex 16.618 3.82443 11.6
      vertex 16.618 3.82443 5.3
    endloop
  endfacet
  facet normal -0.707107 0.707107 0
    outer loop
      vertex 16.618 3.82443 11.6
      vertex 16.1756 3.38197 5.3
      vertex 16.1756 3.38197 11.6
    endloop
  endfacet
  facet normal -0.987688 0.156434 0
    outer loop
      vertex 16.9021 4.38197 5.3
      vertex 17 5 11.6
      vertex 17 5 5.3
    endloop
  endfacet
  facet normal -0.987688 0.156434 0
    outer loop
      vertex 17 5 11.6
      vertex 16.9021 4.38197 5.3
      vertex 16.9021 4.38197 11.6
    endloop
  endfacet
  facet normal 0.453991 0.891006 -0
    outer loop
      vertex 14.382 3.09789 5.3
      vertex 13.8244 3.38197 11.6
      vertex 14.382 3.09789 11.6
    endloop
  endfacet
  facet normal 0.453991 0.891006 0
    outer loop
      vertex 13.8244 3.38197 11.6
      vertex 14.382 3.09789 5.3
      vertex 13.8244 3.38197 5.3
    endloop
  endfacet
endsolid OpenSCAD_Model
