solid OpenSCAD_Model
  facet normal 0.987688 0.156435 0
    outer loop
      vertex 15.35 0 6
      vertex 15.1493 1.26697 0
      vertex 15.1493 1.26697 6
    endloop
  endfacet
  facet normal 0.987688 0.156435 0
    outer loop
      vertex 15.1493 1.26697 0
      vertex 15.35 0 6
      vertex 15.35 0 0
    endloop
  endfacet
  facet normal -0.987688 0.156435 0
    outer loop
      vertex -15.35 0 0
      vertex -15.1493 1.26697 6
      vertex -15.1493 1.26697 0
    endloop
  endfacet
  facet normal -0.987688 0.156435 0
    outer loop
      vertex -15.1493 1.26697 6
      vertex -15.35 0 0
      vertex -15.35 0 6
    endloop
  endfacet
  facet normal 0 1 -0
    outer loop
      vertex -3.46513 4.1 0
      vertex -11.25 4.1 6
      vertex -3.46513 4.1 6
    endloop
  endfacet
  facet normal 0 1 0
    outer loop
      vertex -11.25 4.1 6
      vertex -3.46513 4.1 0
      vertex -11.25 4.1 0
    endloop
  endfacet
  facet normal 0 1 -0
    outer loop
      vertex 11.25 4.1 0
      vertex 3.40984 4.1 6
      vertex 11.25 4.1 6
    endloop
  endfacet
  facet normal 0 1 0
    outer loop
      vertex 3.40984 4.1 6
      vertex 11.25 4.1 0
      vertex 3.40984 4.1 0
    endloop
  endfacet
  facet normal 0.156435 0.987688 -0
    outer loop
      vertex 12.517 3.89933 0
      vertex 11.25 4.1 6
      vertex 12.517 3.89933 6
    endloop
  endfacet
  facet normal 0.156435 0.987688 0
    outer loop
      vertex 11.25 4.1 6
      vertex 12.517 3.89933 0
      vertex 11.25 4.1 0
    endloop
  endfacet
  facet normal -0.707107 0.707107 0
    outer loop
      vertex -14.567 2.40992 0
      vertex -13.6599 3.31697 6
      vertex -13.6599 3.31697 0
    endloop
  endfacet
  facet normal -0.707107 0.707107 0
    outer loop
      vertex -13.6599 3.31697 6
      vertex -14.567 2.40992 0
      vertex -14.567 2.40992 6
    endloop
  endfacet
  facet normal -0.891007 0.453991 0
    outer loop
      vertex -15.1493 1.26697 0
      vertex -14.567 2.40992 6
      vertex -14.567 2.40992 0
    endloop
  endfacet
  facet normal -0.891007 0.453991 0
    outer loop
      vertex -14.567 2.40992 6
      vertex -15.1493 1.26697 0
      vertex -15.1493 1.26697 6
    endloop
  endfacet
  facet normal 0 0 1
    outer loop
      vertex 14.45 0 6
      vertex 15.35 0 6
      vertex 15.1493 1.26697 6
    endloop
  endfacet
  facet normal 0 0 1
    outer loop
      vertex 14.45 0 6
      vertex 15.1493 1.26697 6
      vertex 14.567 2.40992 6
    endloop
  endfacet
  facet normal 0 0 1
    outer loop
      vertex 15.35 0 6
      vertex 14.45 0 6
      vertex 15.1493 -1.26697 6
    endloop
  endfacet
  facet normal 0 0 1
    outer loop
      vertex 15.1493 -1.26697 6
      vertex 14.45 0 6
      vertex 14.567 -2.40992 6
    endloop
  endfacet
  facet normal -0 0 1
    outer loop
      vertex 12.85 2.77128 6
      vertex 14.567 2.40992 6
      vertex 13.6599 3.31697 6
    endloop
  endfacet
  facet normal 0 0 1
    outer loop
      vertex 14.567 2.40992 6
      vertex 12.85 2.77128 6
      vertex 14.45 0 6
    endloop
  endfacet
  facet normal 0 0 1
    outer loop
      vertex 12.517 3.89933 6
      vertex 12.85 2.77128 6
      vertex 13.6599 3.31697 6
    endloop
  endfacet
  facet normal 0 0 1
    outer loop
      vertex 11.25 4.1 6
      vertex 12.85 2.77128 6
      vertex 12.517 3.89933 6
    endloop
  endfacet
  facet normal 0 0 1
    outer loop
      vertex 11.25 4.1 6
      vertex 9.65 2.77128 6
      vertex 12.85 2.77128 6
    endloop
  endfacet
  facet normal -0 0 1
    outer loop
      vertex 5.20613 1.33671 6
      vertex 8.05 0 6
      vertex 9.65 2.77128 6
    endloop
  endfacet
  facet normal -0 0 1
    outer loop
      vertex 3.91821 3.67944 6
      vertex 9.65 2.77128 6
      vertex 11.25 4.1 6
    endloop
  endfacet
  facet normal 0 0 1
    outer loop
      vertex 8.05 0 6
      vertex 5.20613 1.33671 6
      vertex 5.375 0 6
    endloop
  endfacet
  facet normal 0 0 1
    outer loop
      vertex 9.65 2.77128 6
      vertex 4.71015 2.58943 6
      vertex 5.20613 1.33671 6
    endloop
  endfacet
  facet normal 0 0 1
    outer loop
      vertex 9.65 2.77128 6
      vertex 3.91821 3.67944 6
      vertex 4.71015 2.58943 6
    endloop
  endfacet
  facet normal 0 -0 1
    outer loop
      vertex 3.91821 3.67944 6
      vertex 11.25 4.1 6
      vertex 3.40984 4.1 6
    endloop
  endfacet
  facet normal 0 0 1
    outer loop
      vertex 12.85 -2.77128 6
      vertex 14.567 -2.40992 6
      vertex 14.45 0 6
    endloop
  endfacet
  facet normal 0 0 1
    outer loop
      vertex 14.567 -2.40992 6
      vertex 12.85 -2.77128 6
      vertex 13.6599 -3.31697 6
    endloop
  endfacet
  facet normal 0 0 1
    outer loop
      vertex 12.85 -2.77128 6
      vertex 12.517 -3.89933 6
      vertex 13.6599 -3.31697 6
    endloop
  endfacet
  facet normal 0 0 1
    outer loop
      vertex 12.85 -2.77128 6
      vertex 11.25 -4.1 6
      vertex 12.517 -3.89933 6
    endloop
  endfacet
  facet normal -0 0 1
    outer loop
      vertex 9.65 -2.77128 6
      vertex 11.25 -4.1 6
      vertex 12.85 -2.77128 6
    endloop
  endfacet
  facet normal 0 0 1
    outer loop
      vertex 5.20613 -1.33671 6
      vertex 8.05 0 6
      vertex 5.375 0 6
    endloop
  endfacet
  facet normal 0 0 1
    outer loop
      vertex 8.05 0 6
      vertex 5.20613 -1.33671 6
      vertex 9.65 -2.77128 6
    endloop
  endfacet
  facet normal -0 0 1
    outer loop
      vertex 4.71015 -2.58943 6
      vertex 9.65 -2.77128 6
      vertex 5.20613 -1.33671 6
    endloop
  endfacet
  facet normal 0 0 1
    outer loop
      vertex 3.91821 -3.67944 6
      vertex 9.65 -2.77128 6
      vertex 4.71015 -2.58943 6
    endloop
  endfacet
  facet normal 0 0 1
    outer loop
      vertex 9.65 -2.77128 6
      vertex 3.91821 -3.67944 6
      vertex 11.25 -4.1 6
    endloop
  endfacet
  facet normal 0 0 1
    outer loop
      vertex 11.25 -4.1 6
      vertex 3.91821 -3.67944 6
      vertex 3.40984 -4.1 6
    endloop
  endfacet
  facet normal 0 0 1
    outer loop
      vertex -5.33262 0.673666 6
      vertex -8.05 0 6
      vertex -5.33262 -0.673666 6
    endloop
  endfacet
  facet normal 0 0 1
    outer loop
      vertex -4.99755 1.97867 6
      vertex -8.05 0 6
      vertex -5.33262 0.673666 6
    endloop
  endfacet
  facet normal -0 0 1
    outer loop
      vertex -9.65 2.77128 6
      vertex -4.99755 1.97867 6
      vertex -4.34847 3.15935 6
    endloop
  endfacet
  facet normal 0 0 1
    outer loop
      vertex -9.65 2.77128 6
      vertex -4.34847 3.15935 6
      vertex -3.46513 4.1 6
    endloop
  endfacet
  facet normal 0 0 1
    outer loop
      vertex -4.99755 1.97867 6
      vertex -9.65 2.77128 6
      vertex -8.05 0 6
    endloop
  endfacet
  facet normal -0 0 1
    outer loop
      vertex -11.25 4.1 6
      vertex -9.65 2.77128 6
      vertex -3.46513 4.1 6
    endloop
  endfacet
  facet normal 0 0 1
    outer loop
      vertex -12.85 2.77128 6
      vertex -11.25 4.1 6
      vertex -12.517 3.89933 6
    endloop
  endfacet
  facet normal 0 0 1
    outer loop
      vertex -11.25 4.1 6
      vertex -12.85 2.77128 6
      vertex -9.65 2.77128 6
    endloop
  endfacet
  facet normal -0 0 1
    outer loop
      vertex -13.6599 3.31697 6
      vertex -12.85 2.77128 6
      vertex -12.517 3.89933 6
    endloop
  endfacet
  facet normal 0 0 1
    outer loop
      vertex -14.567 2.40992 6
      vertex -12.85 2.77128 6
      vertex -13.6599 3.31697 6
    endloop
  endfacet
  facet normal 0 0 1
    outer loop
      vertex -12.85 2.77128 6
      vertex -14.567 2.40992 6
      vertex -14.45 0 6
    endloop
  endfacet
  facet normal 0 0 1
    outer loop
      vertex -8.05 0 6
      vertex -4.99755 -1.97867 6
      vertex -5.33262 -0.673666 6
    endloop
  endfacet
  facet normal 0 0 1
    outer loop
      vertex -9.65 -2.77128 6
      vertex -4.99755 -1.97867 6
      vertex -8.05 0 6
    endloop
  endfacet
  facet normal 0 0 1
    outer loop
      vertex -4.99755 -1.97867 6
      vertex -9.65 -2.77128 6
      vertex -4.34847 -3.15935 6
    endloop
  endfacet
  facet normal 0 0 1
    outer loop
      vertex -4.34847 -3.15935 6
      vertex -9.65 -2.77128 6
      vertex -3.46513 -4.1 6
    endloop
  endfacet
  facet normal 0 0 1
    outer loop
      vertex -9.65 -2.77128 6
      vertex -11.25 -4.1 6
      vertex -3.46513 -4.1 6
    endloop
  endfacet
  facet normal -0 0 1
    outer loop
      vertex -12.85 -2.77128 6
      vertex -11.25 -4.1 6
      vertex -9.65 -2.77128 6
    endloop
  endfacet
  facet normal 0 0 1
    outer loop
      vertex -11.25 -4.1 6
      vertex -12.85 -2.77128 6
      vertex -12.517 -3.89933 6
    endloop
  endfacet
  facet normal 0 0 1
    outer loop
      vertex -12.85 -2.77128 6
      vertex -13.6599 -3.31697 6
      vertex -12.517 -3.89933 6
    endloop
  endfacet
  facet normal -0 0 1
    outer loop
      vertex -14.567 -2.40992 6
      vertex -12.85 -2.77128 6
      vertex -14.45 0 6
    endloop
  endfacet
  facet normal 0 0 1
    outer loop
      vertex -12.85 -2.77128 6
      vertex -14.567 -2.40992 6
      vertex -13.6599 -3.31697 6
    endloop
  endfacet
  facet normal -0 0 1
    outer loop
      vertex -15.1493 1.26697 6
      vertex -14.45 0 6
      vertex -14.567 2.40992 6
    endloop
  endfacet
  facet normal 0 0 1
    outer loop
      vertex -15.35 0 6
      vertex -14.45 0 6
      vertex -15.1493 1.26697 6
    endloop
  endfacet
  facet normal 0 0 1
    outer loop
      vertex -14.45 0 6
      vertex -15.1493 -1.26697 6
      vertex -14.567 -2.40992 6
    endloop
  endfacet
  facet normal 0 0 1
    outer loop
      vertex -14.45 0 6
      vertex -15.35 0 6
      vertex -15.1493 -1.26697 6
    endloop
  endfacet
  facet normal -0.453991 0.891007 0
    outer loop
      vertex -12.517 3.89933 0
      vertex -13.6599 3.31697 6
      vertex -12.517 3.89933 6
    endloop
  endfacet
  facet normal -0.453991 0.891007 0
    outer loop
      vertex -13.6599 3.31697 6
      vertex -12.517 3.89933 0
      vertex -13.6599 3.31697 0
    endloop
  endfacet
  facet normal 0.891007 -0.453991 0
    outer loop
      vertex 14.567 -2.40992 6
      vertex 15.1493 -1.26697 0
      vertex 15.1493 -1.26697 6
    endloop
  endfacet
  facet normal 0.891007 -0.453991 0
    outer loop
      vertex 15.1493 -1.26697 0
      vertex 14.567 -2.40992 6
      vertex 14.567 -2.40992 0
    endloop
  endfacet
  facet normal 0 -1 0
    outer loop
      vertex 3.40984 -4.1 0
      vertex 11.25 -4.1 6
      vertex 3.40984 -4.1 6
    endloop
  endfacet
  facet normal 0 -1 -0
    outer loop
      vertex 11.25 -4.1 6
      vertex 3.40984 -4.1 0
      vertex 11.25 -4.1 0
    endloop
  endfacet
  facet normal 0 -1 0
    outer loop
      vertex -11.25 -4.1 0
      vertex -3.46513 -4.1 6
      vertex -11.25 -4.1 6
    endloop
  endfacet
  facet normal 0 -1 -0
    outer loop
      vertex -3.46513 -4.1 6
      vertex -11.25 -4.1 0
      vertex -3.46513 -4.1 0
    endloop
  endfacet
  facet normal 0 0 -1
    outer loop
      vertex 12.9 0 0
      vertex 15.35 0 0
      vertex 15.1493 -1.26697 0
    endloop
  endfacet
  facet normal 0 0 -1
    outer loop
      vertex 12.8192 -0.509877 0
      vertex 15.1493 -1.26697 0
      vertex 14.567 -2.40992 0
    endloop
  endfacet
  facet normal 0 0 -1
    outer loop
      vertex 15.35 0 0
      vertex 12.9 0 0
      vertex 15.1493 1.26697 0
    endloop
  endfacet
  facet normal 0 0 -1
    outer loop
      vertex 12.5849 -0.969845 0
      vertex 14.567 -2.40992 0
      vertex 13.6599 -3.31697 0
    endloop
  endfacet
  facet normal 0 0 -1
    outer loop
      vertex 12.8192 0.509877 0
      vertex 15.1493 1.26697 0
      vertex 12.9 0 0
    endloop
  endfacet
  facet normal -0 0 -1
    outer loop
      vertex 15.1493 1.26697 0
      vertex 12.8192 0.509877 0
      vertex 14.567 2.40992 0
    endloop
  endfacet
  facet normal 0 0 -1
    outer loop
      vertex 15.1493 -1.26697 0
      vertex 12.8192 -0.509877 0
      vertex 12.9 0 0
    endloop
  endfacet
  facet normal 0 0 -1
    outer loop
      vertex 14.567 -2.40992 0
      vertex 12.5849 -0.969845 0
      vertex 12.8192 -0.509877 0
    endloop
  endfacet
  facet normal 0 0 -1
    outer loop
      vertex 12.2198 -1.33488 0
      vertex 13.6599 -3.31697 0
      vertex 12.517 -3.89933 0
    endloop
  endfacet
  facet normal 0 0 -1
    outer loop
      vertex 13.6599 -3.31697 0
      vertex 12.2198 -1.33488 0
      vertex 12.5849 -0.969845 0
    endloop
  endfacet
  facet normal 0 0 -1
    outer loop
      vertex 12.517 -3.89933 0
      vertex 11.7599 -1.56924 0
      vertex 12.2198 -1.33488 0
    endloop
  endfacet
  facet normal 0 0 -1
    outer loop
      vertex 11.25 -4.1 0
      vertex 11.7599 -1.56924 0
      vertex 12.517 -3.89933 0
    endloop
  endfacet
  facet normal 0 0 -1
    outer loop
      vertex 11.25 -4.1 0
      vertex 11.25 -1.65 0
      vertex 11.7599 -1.56924 0
    endloop
  endfacet
  facet normal 0 0 -1
    outer loop
      vertex 11.25 -4.1 0
      vertex 10.7401 -1.56924 0
      vertex 11.25 -1.65 0
    endloop
  endfacet
  facet normal 0 0 -1
    outer loop
      vertex 11.25 -4.1 0
      vertex 10.2802 -1.33488 0
      vertex 10.7401 -1.56924 0
    endloop
  endfacet
  facet normal 0 0 -1
    outer loop
      vertex 11.25 -4.1 0
      vertex 9.91512 -0.969845 0
      vertex 10.2802 -1.33488 0
    endloop
  endfacet
  facet normal 0 0 -1
    outer loop
      vertex 3.40984 -4.1 0
      vertex 9.91512 -0.969845 0
      vertex 11.25 -4.1 0
    endloop
  endfacet
  facet normal -0 0 -1
    outer loop
      vertex 9.68076 -0.509877 0
      vertex 3.72391 -2.15 0
      vertex 9.6 0 0
    endloop
  endfacet
  facet normal -0 0 -1
    outer loop
      vertex 9.91512 -0.969845 0
      vertex 3.72391 -2.15 0
      vertex 9.68076 -0.509877 0
    endloop
  endfacet
  facet normal 0 0 -1
    outer loop
      vertex 9.91512 -0.969845 0
      vertex 3.40984 -4.1 0
      vertex 3.72391 -2.15 0
    endloop
  endfacet
  facet normal 0 0 -1
    outer loop
      vertex 2.88007 -4.53826 0
      vertex 3.72391 -2.15 0
      vertex 3.40984 -4.1 0
    endloop
  endfacet
  facet normal 0 0 -1
    outer loop
      vertex 0 -4.3 0
      vertex 2.88007 -4.53826 0
      vertex 1.66097 -5.11193 0
    endloop
  endfacet
  facet normal 0 0 -1
    outer loop
      vertex 0 -4.3 0
      vertex 1.66097 -5.11193 0
      vertex 0.337499 -5.36439 0
    endloop
  endfacet
  facet normal 0 0 -1
    outer loop
      vertex 2.88007 -4.53826 0
      vertex 0 -4.3 0
      vertex 3.72391 -2.15 0
    endloop
  endfacet
  facet normal 0 0 -1
    outer loop
      vertex -1.00717 -5.27979 0
      vertex 0 -4.3 0
      vertex 0.337499 -5.36439 0
    endloop
  endfacet
  facet normal 0 0 -1
    outer loop
      vertex -2.28856 -4.86345 0
      vertex 0 -4.3 0
      vertex -1.00717 -5.27979 0
    endloop
  endfacet
  facet normal 0 0 -1
    outer loop
      vertex -3.72391 -2.15 0
      vertex -2.28856 -4.86345 0
      vertex -3.42615 -4.14151 0
    endloop
  endfacet
  facet normal 0 0 -1
    outer loop
      vertex -3.72391 -2.15 0
      vertex -3.42615 -4.14151 0
      vertex -3.46513 -4.1 0
    endloop
  endfacet
  facet normal 0 0 -1
    outer loop
      vertex -2.28856 -4.86345 0
      vertex -3.72391 -2.15 0
      vertex 0 -4.3 0
    endloop
  endfacet
  facet normal 0 0 -1
    outer loop
      vertex -3.72391 -2.15 0
      vertex -9.6 0 0
      vertex -3.72391 2.15 0
    endloop
  endfacet
  facet normal 0 0 -1
    outer loop
      vertex -9.91512 -0.969845 0
      vertex -3.72391 -2.15 0
      vertex -3.46513 -4.1 0
    endloop
  endfacet
  facet normal 0 0 -1
    outer loop
      vertex -3.72391 -2.15 0
      vertex -9.68076 -0.509877 0
      vertex -9.6 0 0
    endloop
  endfacet
  facet normal 0 0 -1
    outer loop
      vertex -3.72391 -2.15 0
      vertex -9.91512 -0.969845 0
      vertex -9.68076 -0.509877 0
    endloop
  endfacet
  facet normal 0 0 -1
    outer loop
      vertex -3.46513 -4.1 0
      vertex -10.2802 -1.33488 0
      vertex -9.91512 -0.969845 0
    endloop
  endfacet
  facet normal 0 0 -1
    outer loop
      vertex -11.25 -4.1 0
      vertex -10.2802 -1.33488 0
      vertex -3.46513 -4.1 0
    endloop
  endfacet
  facet normal 0 0 -1
    outer loop
      vertex -10.2802 -1.33488 0
      vertex -11.25 -4.1 0
      vertex -10.7401 -1.56924 0
    endloop
  endfacet
  facet normal 0 0 -1
    outer loop
      vertex -11.25 -4.1 0
      vertex -11.25 -1.65 0
      vertex -10.7401 -1.56924 0
    endloop
  endfacet
  facet normal 0 0 -1
    outer loop
      vertex -11.25 -4.1 0
      vertex -11.7599 -1.56924 0
      vertex -11.25 -1.65 0
    endloop
  endfacet
  facet normal 0 0 -1
    outer loop
      vertex -12.517 -3.89933 0
      vertex -11.7599 -1.56924 0
      vertex -11.25 -4.1 0
    endloop
  endfacet
  facet normal -0 0 -1
    outer loop
      vertex -11.7599 -1.56924 0
      vertex -12.517 -3.89933 0
      vertex -12.2198 -1.33488 0
    endloop
  endfacet
  facet normal 0 0 -1
    outer loop
      vertex -13.6599 -3.31697 0
      vertex -12.2198 -1.33488 0
      vertex -12.517 -3.89933 0
    endloop
  endfacet
  facet normal -0 0 -1
    outer loop
      vertex -12.2198 -1.33488 0
      vertex -13.6599 -3.31697 0
      vertex -12.5849 -0.969845 0
    endloop
  endfacet
  facet normal 0 0 -1
    outer loop
      vertex -14.567 -2.40992 0
      vertex -12.5849 -0.969845 0
      vertex -13.6599 -3.31697 0
    endloop
  endfacet
  facet normal -0 0 -1
    outer loop
      vertex -12.5849 -0.969845 0
      vertex -14.567 -2.40992 0
      vertex -12.8192 -0.509877 0
    endloop
  endfacet
  facet normal 0 0 -1
    outer loop
      vertex 12.5849 0.969845 0
      vertex 14.567 2.40992 0
      vertex 12.8192 0.509877 0
    endloop
  endfacet
  facet normal -0 0 -1
    outer loop
      vertex 14.567 2.40992 0
      vertex 12.5849 0.969845 0
      vertex 13.6599 3.31697 0
    endloop
  endfacet
  facet normal 0 0 -1
    outer loop
      vertex 12.2198 1.33488 0
      vertex 13.6599 3.31697 0
      vertex 12.5849 0.969845 0
    endloop
  endfacet
  facet normal -0 0 -1
    outer loop
      vertex 13.6599 3.31697 0
      vertex 12.2198 1.33488 0
      vertex 12.517 3.89933 0
    endloop
  endfacet
  facet normal 0 0 -1
    outer loop
      vertex 11.7599 1.56924 0
      vertex 12.517 3.89933 0
      vertex 12.2198 1.33488 0
    endloop
  endfacet
  facet normal 0 0 -1
    outer loop
      vertex 11.25 1.65 0
      vertex 12.517 3.89933 0
      vertex 11.7599 1.56924 0
    endloop
  endfacet
  facet normal 0 0 -1
    outer loop
      vertex 11.25 1.65 0
      vertex 11.25 4.1 0
      vertex 12.517 3.89933 0
    endloop
  endfacet
  facet normal 0 0 -1
    outer loop
      vertex 10.7401 1.56924 0
      vertex 11.25 4.1 0
      vertex 11.25 1.65 0
    endloop
  endfacet
  facet normal 0 0 -1
    outer loop
      vertex 10.2802 1.33488 0
      vertex 11.25 4.1 0
      vertex 10.7401 1.56924 0
    endloop
  endfacet
  facet normal 0 0 -1
    outer loop
      vertex 9.91512 0.969845 0
      vertex 11.25 4.1 0
      vertex 10.2802 1.33488 0
    endloop
  endfacet
  facet normal 0 0 -1
    outer loop
      vertex 3.72391 2.15 0
      vertex 9.91512 0.969845 0
      vertex 9.68076 0.509877 0
    endloop
  endfacet
  facet normal 0 0 -1
    outer loop
      vertex 3.72391 2.15 0
      vertex 9.6 0 0
      vertex 3.72391 -2.15 0
    endloop
  endfacet
  facet normal 0 0 -1
    outer loop
      vertex 9.6 0 0
      vertex 3.72391 2.15 0
      vertex 9.68076 0.509877 0
    endloop
  endfacet
  facet normal 0 0 -1
    outer loop
      vertex 3.40984 4.1 0
      vertex 9.91512 0.969845 0
      vertex 3.72391 2.15 0
    endloop
  endfacet
  facet normal 0 0 -1
    outer loop
      vertex 9.91512 0.969845 0
      vertex 3.40984 4.1 0
      vertex 11.25 4.1 0
    endloop
  endfacet
  facet normal 0 0 -1
    outer loop
      vertex 3.72391 2.15 0
      vertex 2.88007 4.53826 0
      vertex 3.40984 4.1 0
    endloop
  endfacet
  facet normal 0 0 -1
    outer loop
      vertex 0 4.3 0
      vertex 2.88007 4.53826 0
      vertex 3.72391 2.15 0
    endloop
  endfacet
  facet normal -0 0 -1
    outer loop
      vertex 2.88007 4.53826 0
      vertex 0 4.3 0
      vertex 1.66097 5.11193 0
    endloop
  endfacet
  facet normal -0 0 -1
    outer loop
      vertex 1.66097 5.11193 0
      vertex 0 4.3 0
      vertex 0.337499 5.36439 0
    endloop
  endfacet
  facet normal 0 0 -1
    outer loop
      vertex 0 4.3 0
      vertex -1.00717 5.27979 0
      vertex 0.337499 5.36439 0
    endloop
  endfacet
  facet normal 0 0 -1
    outer loop
      vertex 0 4.3 0
      vertex -2.28856 4.86345 0
      vertex -1.00717 5.27979 0
    endloop
  endfacet
  facet normal 0 0 -1
    outer loop
      vertex -3.72391 2.15 0
      vertex -2.28856 4.86345 0
      vertex 0 4.3 0
    endloop
  endfacet
  facet normal 0 0 -1
    outer loop
      vertex -2.28856 4.86345 0
      vertex -3.72391 2.15 0
      vertex -3.42615 4.14151 0
    endloop
  endfacet
  facet normal 0 0 -1
    outer loop
      vertex -3.42615 4.14151 0
      vertex -3.72391 2.15 0
      vertex -3.46513 4.1 0
    endloop
  endfacet
  facet normal 0 0 -1
    outer loop
      vertex -9.68076 0.509877 0
      vertex -3.72391 2.15 0
      vertex -9.6 0 0
    endloop
  endfacet
  facet normal 0 0 -1
    outer loop
      vertex -9.91512 0.969845 0
      vertex -3.72391 2.15 0
      vertex -9.68076 0.509877 0
    endloop
  endfacet
  facet normal -0 0 -1
    outer loop
      vertex -3.72391 2.15 0
      vertex -9.91512 0.969845 0
      vertex -3.46513 4.1 0
    endloop
  endfacet
  facet normal 0 0 -1
    outer loop
      vertex -10.2802 1.33488 0
      vertex -3.46513 4.1 0
      vertex -9.91512 0.969845 0
    endloop
  endfacet
  facet normal 0 0 -1
    outer loop
      vertex -11.25 4.1 0
      vertex -10.2802 1.33488 0
      vertex -10.7401 1.56924 0
    endloop
  endfacet
  facet normal 0 0 -1
    outer loop
      vertex -11.25 4.1 0
      vertex -10.7401 1.56924 0
      vertex -11.25 1.65 0
    endloop
  endfacet
  facet normal 0 0 -1
    outer loop
      vertex -10.2802 1.33488 0
      vertex -11.25 4.1 0
      vertex -3.46513 4.1 0
    endloop
  endfacet
  facet normal 0 0 -1
    outer loop
      vertex -11.7599 1.56924 0
      vertex -11.25 4.1 0
      vertex -11.25 1.65 0
    endloop
  endfacet
  facet normal 0 0 -1
    outer loop
      vertex -12.517 3.89933 0
      vertex -11.7599 1.56924 0
      vertex -12.2198 1.33488 0
    endloop
  endfacet
  facet normal 0 0 -1
    outer loop
      vertex -11.7599 1.56924 0
      vertex -12.517 3.89933 0
      vertex -11.25 4.1 0
    endloop
  endfacet
  facet normal 0 0 -1
    outer loop
      vertex -13.6599 3.31697 0
      vertex -12.2198 1.33488 0
      vertex -12.5849 0.969845 0
    endloop
  endfacet
  facet normal 0 0 -1
    outer loop
      vertex -14.567 2.40992 0
      vertex -12.5849 0.969845 0
      vertex -12.8192 0.509877 0
    endloop
  endfacet
  facet normal 0 0 -1
    outer loop
      vertex -15.1493 1.26697 0
      vertex -12.8192 0.509877 0
      vertex -12.9 0 0
    endloop
  endfacet
  facet normal 0 0 -1
    outer loop
      vertex -15.1493 -1.26697 0
      vertex -12.8192 -0.509877 0
      vertex -14.567 -2.40992 0
    endloop
  endfacet
  facet normal 0 0 -1
    outer loop
      vertex -12.2198 1.33488 0
      vertex -13.6599 3.31697 0
      vertex -12.517 3.89933 0
    endloop
  endfacet
  facet normal -0 0 -1
    outer loop
      vertex -12.8192 -0.509877 0
      vertex -15.1493 -1.26697 0
      vertex -12.9 0 0
    endloop
  endfacet
  facet normal 0 0 -1
    outer loop
      vertex -12.5849 0.969845 0
      vertex -14.567 2.40992 0
      vertex -13.6599 3.31697 0
    endloop
  endfacet
  facet normal 0 0 -1
    outer loop
      vertex -15.35 0 0
      vertex -12.9 0 0
      vertex -15.1493 -1.26697 0
    endloop
  endfacet
  facet normal 0 0 -1
    outer loop
      vertex -12.8192 0.509877 0
      vertex -15.1493 1.26697 0
      vertex -14.567 2.40992 0
    endloop
  endfacet
  facet normal 0 0 -1
    outer loop
      vertex -12.9 0 0
      vertex -15.35 0 0
      vertex -15.1493 1.26697 0
    endloop
  endfacet
  facet normal 0.707107 0.707107 0
    outer loop
      vertex 14.567 2.40992 6
      vertex 13.6599 3.31697 0
      vertex 13.6599 3.31697 6
    endloop
  endfacet
  facet normal 0.707107 0.707107 0
    outer loop
      vertex 13.6599 3.31697 0
      vertex 14.567 2.40992 6
      vertex 14.567 2.40992 0
    endloop
  endfacet
  facet normal 0.891007 0.453991 0
    outer loop
      vertex 15.1493 1.26697 6
      vertex 14.567 2.40992 0
      vertex 14.567 2.40992 6
    endloop
  endfacet
  facet normal 0.891007 0.453991 0
    outer loop
      vertex 14.567 2.40992 0
      vertex 15.1493 1.26697 6
      vertex 15.1493 1.26697 0
    endloop
  endfacet
  facet normal 0.453991 0.891007 -0
    outer loop
      vertex 13.6599 3.31697 0
      vertex 12.517 3.89933 6
      vertex 13.6599 3.31697 6
    endloop
  endfacet
  facet normal 0.453991 0.891007 0
    outer loop
      vertex 12.517 3.89933 6
      vertex 13.6599 3.31697 0
      vertex 12.517 3.89933 0
    endloop
  endfacet
  facet normal -0.156435 0.987688 0
    outer loop
      vertex -11.25 4.1 0
      vertex -12.517 3.89933 6
      vertex -11.25 4.1 6
    endloop
  endfacet
  facet normal -0.156435 0.987688 0
    outer loop
      vertex -12.517 3.89933 6
      vertex -11.25 4.1 0
      vertex -12.517 3.89933 0
    endloop
  endfacet
  facet normal 0.987688 -0.156435 0
    outer loop
      vertex 15.1493 -1.26697 6
      vertex 15.35 0 0
      vertex 15.35 0 6
    endloop
  endfacet
  facet normal 0.987688 -0.156435 0
    outer loop
      vertex 15.35 0 0
      vertex 15.1493 -1.26697 6
      vertex 15.1493 -1.26697 0
    endloop
  endfacet
  facet normal 0.156435 -0.987688 0
    outer loop
      vertex 11.25 -4.1 0
      vertex 12.517 -3.89933 6
      vertex 11.25 -4.1 6
    endloop
  endfacet
  facet normal 0.156435 -0.987688 0
    outer loop
      vertex 12.517 -3.89933 6
      vertex 11.25 -4.1 0
      vertex 12.517 -3.89933 0
    endloop
  endfacet
  facet normal 0.707107 -0.707107 0
    outer loop
      vertex 13.6599 -3.31697 6
      vertex 14.567 -2.40992 0
      vertex 14.567 -2.40992 6
    endloop
  endfacet
  facet normal 0.707107 -0.707107 0
    outer loop
      vertex 14.567 -2.40992 0
      vertex 13.6599 -3.31697 6
      vertex 13.6599 -3.31697 0
    endloop
  endfacet
  facet normal -0.707107 -0.707107 0
    outer loop
      vertex -13.6599 -3.31697 0
      vertex -14.567 -2.40992 6
      vertex -14.567 -2.40992 0
    endloop
  endfacet
  facet normal -0.707107 -0.707107 0
    outer loop
      vertex -14.567 -2.40992 6
      vertex -13.6599 -3.31697 0
      vertex -13.6599 -3.31697 6
    endloop
  endfacet
  facet normal -0.987688 -0.156435 0
    outer loop
      vertex -15.1493 -1.26697 0
      vertex -15.35 0 6
      vertex -15.35 0 0
    endloop
  endfacet
  facet normal -0.987688 -0.156435 0
    outer loop
      vertex -15.35 0 6
      vertex -15.1493 -1.26697 0
      vertex -15.1493 -1.26697 6
    endloop
  endfacet
  facet normal 0.453991 -0.891007 0
    outer loop
      vertex 12.517 -3.89933 0
      vertex 13.6599 -3.31697 6
      vertex 12.517 -3.89933 6
    endloop
  endfacet
  facet normal 0.453991 -0.891007 0
    outer loop
      vertex 13.6599 -3.31697 6
      vertex 12.517 -3.89933 0
      vertex 13.6599 -3.31697 0
    endloop
  endfacet
  facet normal -0.453991 -0.891007 0
    outer loop
      vertex -13.6599 -3.31697 0
      vertex -12.517 -3.89933 6
      vertex -13.6599 -3.31697 6
    endloop
  endfacet
  facet normal -0.453991 -0.891007 -0
    outer loop
      vertex -12.517 -3.89933 6
      vertex -13.6599 -3.31697 0
      vertex -12.517 -3.89933 0
    endloop
  endfacet
  facet normal -0.891007 -0.453991 0
    outer loop
      vertex -14.567 -2.40992 0
      vertex -15.1493 -1.26697 6
      vertex -15.1493 -1.26697 0
    endloop
  endfacet
  facet normal -0.891007 -0.453991 0
    outer loop
      vertex -15.1493 -1.26697 6
      vertex -14.567 -2.40992 0
      vertex -14.567 -2.40992 6
    endloop
  endfacet
  facet normal -0.156435 -0.987688 0
    outer loop
      vertex -12.517 -3.89933 0
      vertex -11.25 -4.1 6
      vertex -12.517 -3.89933 6
    endloop
  endfacet
  facet normal -0.156435 -0.987688 -0
    outer loop
      vertex -11.25 -4.1 6
      vertex -12.517 -3.89933 0
      vertex -11.25 -4.1 0
    endloop
  endfacet
  facet normal 0.987688 0.156435 0
    outer loop
      vertex 3.1 0 11.6
      vertex 2.94827 0.957952 10.6
      vertex 2.94827 0.957952 11.6
    endloop
  endfacet
  facet normal 0.987688 0.156435 0
    outer loop
      vertex 2.94827 0.957952 10.6
      vertex 3.1 0 11.6
      vertex 3.1 0 10.6
    endloop
  endfacet
  facet normal -0.987688 0.156435 0
    outer loop
      vertex -3.1 0 10.6
      vertex -2.94827 0.957952 11.6
      vertex -2.94827 0.957952 10.6
    endloop
  endfacet
  facet normal -0.987688 0.156435 0
    outer loop
      vertex -2.94827 0.957952 11.6
      vertex -3.1 0 10.6
      vertex -3.1 0 11.6
    endloop
  endfacet
  facet normal 0.156435 0.987688 -0
    outer loop
      vertex 0.957952 2.94827 10.6
      vertex 0 3.1 11.6
      vertex 0.957952 2.94827 11.6
    endloop
  endfacet
  facet normal 0.156435 0.987688 0
    outer loop
      vertex 0 3.1 11.6
      vertex 0.957952 2.94827 10.6
      vertex 0 3.1 10.6
    endloop
  endfacet
  facet normal -0.156435 -0.987688 0
    outer loop
      vertex -0.957952 -2.94827 10.6
      vertex 0 -3.1 11.6
      vertex -0.957952 -2.94827 11.6
    endloop
  endfacet
  facet normal -0.156435 -0.987688 -0
    outer loop
      vertex 0 -3.1 11.6
      vertex -0.957952 -2.94827 10.6
      vertex 0 -3.1 10.6
    endloop
  endfacet
  facet normal 0.707107 0.707107 0
    outer loop
      vertex 2.50795 1.82213 11.6
      vertex 1.82213 2.50795 10.6
      vertex 1.82213 2.50795 11.6
    endloop
  endfacet
  facet normal 0.707107 0.707107 0
    outer loop
      vertex 1.82213 2.50795 10.6
      vertex 2.50795 1.82213 11.6
      vertex 2.50795 1.82213 10.6
    endloop
  endfacet
  facet normal 0.891006 0.453991 0
    outer loop
      vertex 2.94827 0.957952 11.6
      vertex 2.50795 1.82213 10.6
      vertex 2.50795 1.82213 11.6
    endloop
  endfacet
  facet normal 0.891006 0.453991 0
    outer loop
      vertex 2.50795 1.82213 10.6
      vertex 2.94827 0.957952 11.6
      vertex 2.94827 0.957952 10.6
    endloop
  endfacet
  facet normal 0.453991 0.891006 -0
    outer loop
      vertex 1.82213 2.50795 10.6
      vertex 0.957952 2.94827 11.6
      vertex 1.82213 2.50795 11.6
    endloop
  endfacet
  facet normal 0.453991 0.891006 0
    outer loop
      vertex 0.957952 2.94827 11.6
      vertex 1.82213 2.50795 10.6
      vertex 0.957952 2.94827 10.6
    endloop
  endfacet
  facet normal -0.453991 0.891006 0
    outer loop
      vertex -0.957952 2.94827 10.6
      vertex -1.82213 2.50795 11.6
      vertex -0.957952 2.94827 11.6
    endloop
  endfacet
  facet normal -0.453991 0.891006 0
    outer loop
      vertex -1.82213 2.50795 11.6
      vertex -0.957952 2.94827 10.6
      vertex -1.82213 2.50795 10.6
    endloop
  endfacet
  facet normal 0 0 1
    outer loop
      vertex 2 0 11.6
      vertex 3.1 0 11.6
      vertex 2.94827 0.957952 11.6
    endloop
  endfacet
  facet normal 0 0 1
    outer loop
      vertex 1.90211 0.618033 11.6
      vertex 2.94827 0.957952 11.6
      vertex 2.50795 1.82213 11.6
    endloop
  endfacet
  facet normal 0 0 1
    outer loop
      vertex 3.1 0 11.6
      vertex 2 0 11.6
      vertex 2.94827 -0.957952 11.6
    endloop
  endfacet
  facet normal -0 0 1
    outer loop
      vertex 1.90211 -0.618033 11.6
      vertex 2.94827 -0.957952 11.6
      vertex 2 0 11.6
    endloop
  endfacet
  facet normal 0 0 1
    outer loop
      vertex 2.94827 0.957952 11.6
      vertex 1.90211 0.618033 11.6
      vertex 2 0 11.6
    endloop
  endfacet
  facet normal 0 0 1
    outer loop
      vertex 1.61803 1.17557 11.6
      vertex 2.50795 1.82213 11.6
      vertex 1.82213 2.50795 11.6
    endloop
  endfacet
  facet normal 0 0 1
    outer loop
      vertex 2.50795 1.82213 11.6
      vertex 1.61803 1.17557 11.6
      vertex 1.90211 0.618033 11.6
    endloop
  endfacet
  facet normal 0 0 1
    outer loop
      vertex 1.82213 2.50795 11.6
      vertex 1.17557 1.61803 11.6
      vertex 1.61803 1.17557 11.6
    endloop
  endfacet
  facet normal 0 0 1
    outer loop
      vertex 0.957952 2.94827 11.6
      vertex 1.17557 1.61803 11.6
      vertex 1.82213 2.50795 11.6
    endloop
  endfacet
  facet normal 0 0 1
    outer loop
      vertex 0.957952 2.94827 11.6
      vertex 0.618033 1.90211 11.6
      vertex 1.17557 1.61803 11.6
    endloop
  endfacet
  facet normal 0 0 1
    outer loop
      vertex 0 3.1 11.6
      vertex 0.618033 1.90211 11.6
      vertex 0.957952 2.94827 11.6
    endloop
  endfacet
  facet normal 0 0 1
    outer loop
      vertex 0 3.1 11.6
      vertex 0 2 11.6
      vertex 0.618033 1.90211 11.6
    endloop
  endfacet
  facet normal 0 0 1
    outer loop
      vertex 0 3.1 11.6
      vertex -0.618033 1.90211 11.6
      vertex 0 2 11.6
    endloop
  endfacet
  facet normal -0 0 1
    outer loop
      vertex -0.957952 2.94827 11.6
      vertex -0.618033 1.90211 11.6
      vertex 0 3.1 11.6
    endloop
  endfacet
  facet normal 0 0 1
    outer loop
      vertex -0.957952 2.94827 11.6
      vertex -1.17557 1.61803 11.6
      vertex -0.618033 1.90211 11.6
    endloop
  endfacet
  facet normal -0 0 1
    outer loop
      vertex -1.82213 2.50795 11.6
      vertex -1.17557 1.61803 11.6
      vertex -0.957952 2.94827 11.6
    endloop
  endfacet
  facet normal 0 0 1
    outer loop
      vertex -1.17557 1.61803 11.6
      vertex -1.82213 2.50795 11.6
      vertex -1.61803 1.17557 11.6
    endloop
  endfacet
  facet normal -0 0 1
    outer loop
      vertex -2.50795 1.82213 11.6
      vertex -1.61803 1.17557 11.6
      vertex -1.82213 2.50795 11.6
    endloop
  endfacet
  facet normal 0 0 1
    outer loop
      vertex -1.61803 1.17557 11.6
      vertex -2.50795 1.82213 11.6
      vertex -1.90211 0.618033 11.6
    endloop
  endfacet
  facet normal -0 0 1
    outer loop
      vertex -2.94827 0.957952 11.6
      vertex -1.90211 0.618033 11.6
      vertex -2.50795 1.82213 11.6
    endloop
  endfacet
  facet normal 0 0 1
    outer loop
      vertex 2.94827 -0.957952 11.6
      vertex 1.90211 -0.618033 11.6
      vertex 2.50795 -1.82213 11.6
    endloop
  endfacet
  facet normal -0 0 1
    outer loop
      vertex 1.61803 -1.17557 11.6
      vertex 2.50795 -1.82213 11.6
      vertex 1.90211 -0.618033 11.6
    endloop
  endfacet
  facet normal 0 0 1
    outer loop
      vertex 2.50795 -1.82213 11.6
      vertex 1.61803 -1.17557 11.6
      vertex 1.82213 -2.50795 11.6
    endloop
  endfacet
  facet normal -0 0 1
    outer loop
      vertex 1.17557 -1.61803 11.6
      vertex 1.82213 -2.50795 11.6
      vertex 1.61803 -1.17557 11.6
    endloop
  endfacet
  facet normal 0 0 1
    outer loop
      vertex 1.17557 -1.61803 11.6
      vertex 0.957952 -2.94827 11.6
      vertex 1.82213 -2.50795 11.6
    endloop
  endfacet
  facet normal -0 0 1
    outer loop
      vertex 0.618033 -1.90211 11.6
      vertex 0.957952 -2.94827 11.6
      vertex 1.17557 -1.61803 11.6
    endloop
  endfacet
  facet normal -0 0 1
    outer loop
      vertex 0 -2 11.6
      vertex 0.957952 -2.94827 11.6
      vertex 0.618033 -1.90211 11.6
    endloop
  endfacet
  facet normal 0 0 1
    outer loop
      vertex 0 -2 11.6
      vertex 0 -3.1 11.6
      vertex 0.957952 -2.94827 11.6
    endloop
  endfacet
  facet normal 0 0 1
    outer loop
      vertex -0.618033 -1.90211 11.6
      vertex 0 -3.1 11.6
      vertex 0 -2 11.6
    endloop
  endfacet
  facet normal 0 0 1
    outer loop
      vertex -0.618033 -1.90211 11.6
      vertex -0.957952 -2.94827 11.6
      vertex 0 -3.1 11.6
    endloop
  endfacet
  facet normal 0 0 1
    outer loop
      vertex -1.17557 -1.61803 11.6
      vertex -0.957952 -2.94827 11.6
      vertex -0.618033 -1.90211 11.6
    endloop
  endfacet
  facet normal 0 0 1
    outer loop
      vertex -1.82213 -2.50795 11.6
      vertex -1.17557 -1.61803 11.6
      vertex -1.61803 -1.17557 11.6
    endloop
  endfacet
  facet normal 0 0 1
    outer loop
      vertex -1.17557 -1.61803 11.6
      vertex -1.82213 -2.50795 11.6
      vertex -0.957952 -2.94827 11.6
    endloop
  endfacet
  facet normal 0 0 1
    outer loop
      vertex -2.50795 -1.82213 11.6
      vertex -1.61803 -1.17557 11.6
      vertex -1.90211 -0.618033 11.6
    endloop
  endfacet
  facet normal 0 0 1
    outer loop
      vertex -2.94827 -0.957952 11.6
      vertex -1.90211 -0.618033 11.6
      vertex -2 0 11.6
    endloop
  endfacet
  facet normal 0 0 1
    outer loop
      vertex -1.90211 0.618033 11.6
      vertex -2.94827 0.957952 11.6
      vertex -2 0 11.6
    endloop
  endfacet
  facet normal 0 0 1
    outer loop
      vertex -1.61803 -1.17557 11.6
      vertex -2.50795 -1.82213 11.6
      vertex -1.82213 -2.50795 11.6
    endloop
  endfacet
  facet normal 0 0 1
    outer loop
      vertex -3.1 0 11.6
      vertex -2 0 11.6
      vertex -2.94827 0.957952 11.6
    endloop
  endfacet
  facet normal 0 0 1
    outer loop
      vertex -1.90211 -0.618033 11.6
      vertex -2.94827 -0.957952 11.6
      vertex -2.50795 -1.82213 11.6
    endloop
  endfacet
  facet normal 0 0 1
    outer loop
      vertex -2 0 11.6
      vertex -3.1 0 11.6
      vertex -2.94827 -0.957952 11.6
    endloop
  endfacet
  facet normal -0.156435 0.987688 0
    outer loop
      vertex 0 3.1 10.6
      vertex -0.957952 2.94827 11.6
      vertex 0 3.1 11.6
    endloop
  endfacet
  facet normal -0.156435 0.987688 0
    outer loop
      vertex -0.957952 2.94827 11.6
      vertex 0 3.1 10.6
      vertex -0.957952 2.94827 10.6
    endloop
  endfacet
  facet normal 0.891006 -0.453991 0
    outer loop
      vertex 2.50795 -1.82213 11.6
      vertex 2.94827 -0.957952 10.6
      vertex 2.94827 -0.957952 11.6
    endloop
  endfacet
  facet normal 0.891006 -0.453991 0
    outer loop
      vertex 2.94827 -0.957952 10.6
      vertex 2.50795 -1.82213 11.6
      vertex 2.50795 -1.82213 10.6
    endloop
  endfacet
  facet normal -0.987688 -0.156435 0
    outer loop
      vertex -2.94827 -0.957952 10.6
      vertex -3.1 0 11.6
      vertex -3.1 0 10.6
    endloop
  endfacet
  facet normal -0.987688 -0.156435 0
    outer loop
      vertex -3.1 0 11.6
      vertex -2.94827 -0.957952 10.6
      vertex -2.94827 -0.957952 11.6
    endloop
  endfacet
  facet normal -0.707107 0.707107 0
    outer loop
      vertex -2.50795 1.82213 10.6
      vertex -1.82213 2.50795 11.6
      vertex -1.82213 2.50795 10.6
    endloop
  endfacet
  facet normal -0.707107 0.707107 0
    outer loop
      vertex -1.82213 2.50795 11.6
      vertex -2.50795 1.82213 10.6
      vertex -2.50795 1.82213 11.6
    endloop
  endfacet
  facet normal -0.891006 0.453991 0
    outer loop
      vertex -2.94827 0.957952 10.6
      vertex -2.50795 1.82213 11.6
      vertex -2.50795 1.82213 10.6
    endloop
  endfacet
  facet normal -0.891006 0.453991 0
    outer loop
      vertex -2.50795 1.82213 11.6
      vertex -2.94827 0.957952 10.6
      vertex -2.94827 0.957952 11.6
    endloop
  endfacet
  facet normal 0.987688 -0.156435 0
    outer loop
      vertex 2.94827 -0.957952 11.6
      vertex 3.1 0 10.6
      vertex 3.1 0 11.6
    endloop
  endfacet
  facet normal 0.987688 -0.156435 0
    outer loop
      vertex 3.1 0 10.6
      vertex 2.94827 -0.957952 11.6
      vertex 2.94827 -0.957952 10.6
    endloop
  endfacet
  facet normal 0.156435 -0.987688 0
    outer loop
      vertex 0 -3.1 10.6
      vertex 0.957952 -2.94827 11.6
      vertex 0 -3.1 11.6
    endloop
  endfacet
  facet normal 0.156435 -0.987688 0
    outer loop
      vertex 0.957952 -2.94827 11.6
      vertex 0 -3.1 10.6
      vertex 0.957952 -2.94827 10.6
    endloop
  endfacet
  facet normal -0.707107 -0.707107 0
    outer loop
      vertex -1.82213 -2.50795 10.6
      vertex -2.50795 -1.82213 11.6
      vertex -2.50795 -1.82213 10.6
    endloop
  endfacet
  facet normal -0.707107 -0.707107 0
    outer loop
      vertex -2.50795 -1.82213 11.6
      vertex -1.82213 -2.50795 10.6
      vertex -1.82213 -2.50795 11.6
    endloop
  endfacet
  facet normal -0.891006 -0.453991 0
    outer loop
      vertex -2.50795 -1.82213 10.6
      vertex -2.94827 -0.957952 11.6
      vertex -2.94827 -0.957952 10.6
    endloop
  endfacet
  facet normal -0.891006 -0.453991 0
    outer loop
      vertex -2.94827 -0.957952 11.6
      vertex -2.50795 -1.82213 10.6
      vertex -2.50795 -1.82213 11.6
    endloop
  endfacet
  facet normal 0.453991 -0.891006 0
    outer loop
      vertex 0.957952 -2.94827 10.6
      vertex 1.82213 -2.50795 11.6
      vertex 0.957952 -2.94827 11.6
    endloop
  endfacet
  facet normal 0.453991 -0.891006 0
    outer loop
      vertex 1.82213 -2.50795 11.6
      vertex 0.957952 -2.94827 10.6
      vertex 1.82213 -2.50795 10.6
    endloop
  endfacet
  facet normal 0.707107 -0.707107 0
    outer loop
      vertex 1.82213 -2.50795 11.6
      vertex 2.50795 -1.82213 10.6
      vertex 2.50795 -1.82213 11.6
    endloop
  endfacet
  facet normal 0.707107 -0.707107 0
    outer loop
      vertex 2.50795 -1.82213 10.6
      vertex 1.82213 -2.50795 11.6
      vertex 1.82213 -2.50795 10.6
    endloop
  endfacet
  facet normal -0.453991 -0.891006 0
    outer loop
      vertex -1.82213 -2.50795 10.6
      vertex -0.957952 -2.94827 11.6
      vertex -1.82213 -2.50795 11.6
    endloop
  endfacet
  facet normal -0.453991 -0.891006 -0
    outer loop
      vertex -0.957952 -2.94827 11.6
      vertex -1.82213 -2.50795 10.6
      vertex -0.957952 -2.94827 10.6
    endloop
  endfacet
  facet normal 0.992115 0.125334 0
    outer loop
      vertex 5.375 0 10.6
      vertex 5.20613 1.33671 6
      vertex 5.20613 1.33671 10.6
    endloop
  endfacet
  facet normal 0.992115 0.125334 0
    outer loop
      vertex 5.20613 1.33671 6
      vertex 5.375 0 10.6
      vertex 5.375 0 6
    endloop
  endfacet
  facet normal -1 0 0
    outer loop
      vertex -5.33262 -0.673666 6
      vertex -5.33262 0.673666 10.6
      vertex -5.33262 0.673666 6
    endloop
  endfacet
  facet normal -1 -0 0
    outer loop
      vertex -5.33262 0.673666 10.6
      vertex -5.33262 -0.673666 6
      vertex -5.33262 -0.673666 10.6
    endloop
  endfacet
  facet normal -0.0627904 0.998027 0
    outer loop
      vertex 0.337499 5.36439 0
      vertex -1.00717 5.27979 10.6
      vertex 0.337499 5.36439 10.6
    endloop
  endfacet
  facet normal -0.0627904 0.998027 0
    outer loop
      vertex -1.00717 5.27979 10.6
      vertex 0.337499 5.36439 0
      vertex -1.00717 5.27979 0
    endloop
  endfacet
  facet normal -0.0627904 -0.998027 0
    outer loop
      vertex -1.00717 -5.27979 0
      vertex 0.337499 -5.36439 10.6
      vertex -1.00717 -5.27979 10.6
    endloop
  endfacet
  facet normal -0.0627904 -0.998027 -0
    outer loop
      vertex 0.337499 -5.36439 10.6
      vertex -1.00717 -5.27979 0
      vertex 0.337499 -5.36439 0
    endloop
  endfacet
  facet normal 0.637424 0.770513 0
    outer loop
      vertex 3.40984 4.1 6
      vertex 3.91821 3.67944 10.6
      vertex 3.91821 3.67944 6
    endloop
  endfacet
  facet normal 0.637424 0.770513 -1.58662e-09
    outer loop
      vertex 3.91821 3.67944 10.6
      vertex 3.40984 4.1 6
      vertex 2.88007 4.53826 10.6
    endloop
  endfacet
  facet normal 0.637424 0.770513 0
    outer loop
      vertex 2.88007 4.53826 0
      vertex 3.40984 4.1 6
      vertex 3.40984 4.1 0
    endloop
  endfacet
  facet normal 0.637424 0.770513 0
    outer loop
      vertex 3.40984 4.1 6
      vertex 2.88007 4.53826 0
      vertex 2.88007 4.53826 10.6
    endloop
  endfacet
  facet normal -0.728968 0.684548 0
    outer loop
      vertex -3.46513 4.1 6
      vertex -3.42615 4.14151 0
      vertex -3.46513 4.1 0
    endloop
  endfacet
  facet normal -0.728968 0.684548 0
    outer loop
      vertex -3.42615 4.14151 0
      vertex -3.46513 4.1 6
      vertex -3.42615 4.14151 10.6
    endloop
  endfacet
  facet normal -0.728968 0.684547 3.12772e-09
    outer loop
      vertex -4.34847 3.15935 6
      vertex -3.42615 4.14151 10.6
      vertex -3.46513 4.1 6
    endloop
  endfacet
  facet normal -0.728968 0.684547 0
    outer loop
      vertex -3.42615 4.14151 10.6
      vertex -4.34847 3.15935 6
      vertex -4.34847 3.15935 10.6
    endloop
  endfacet
  facet normal -0.876307 0.481754 0
    outer loop
      vertex -4.99755 1.97867 6
      vertex -4.34847 3.15935 10.6
      vertex -4.34847 3.15935 6
    endloop
  endfacet
  facet normal -0.876307 0.481754 0
    outer loop
      vertex -4.34847 3.15935 10.6
      vertex -4.99755 1.97867 6
      vertex -4.99755 1.97867 10.6
    endloop
  endfacet
  facet normal -0.309017 0.951056 0
    outer loop
      vertex -1.00717 5.27979 0
      vertex -2.28856 4.86345 10.6
      vertex -1.00717 5.27979 10.6
    endloop
  endfacet
  facet normal -0.309017 0.951056 0
    outer loop
      vertex -2.28856 4.86345 10.6
      vertex -1.00717 5.27979 0
      vertex -2.28856 4.86345 0
    endloop
  endfacet
  facet normal 0.809017 -0.587785 0
    outer loop
      vertex 3.91821 -3.67944 10.6
      vertex 4.71015 -2.58943 6
      vertex 4.71015 -2.58943 10.6
    endloop
  endfacet
  facet normal 0.809017 -0.587785 0
    outer loop
      vertex 4.71015 -2.58943 6
      vertex 3.91821 -3.67944 10.6
      vertex 3.91821 -3.67944 6
    endloop
  endfacet
  facet normal -0.535827 -0.844328 0
    outer loop
      vertex -3.42615 -4.14151 0
      vertex -2.28856 -4.86345 10.6
      vertex -3.42615 -4.14151 10.6
    endloop
  endfacet
  facet normal -0.535827 -0.844328 -0
    outer loop
      vertex -2.28856 -4.86345 10.6
      vertex -3.42615 -4.14151 0
      vertex -2.28856 -4.86345 0
    endloop
  endfacet
  facet normal 0.809017 0.587785 0
    outer loop
      vertex 4.71015 2.58943 10.6
      vertex 3.91821 3.67944 6
      vertex 3.91821 3.67944 10.6
    endloop
  endfacet
  facet normal 0.809017 0.587785 0
    outer loop
      vertex 3.91821 3.67944 6
      vertex 4.71015 2.58943 10.6
      vertex 4.71015 2.58943 6
    endloop
  endfacet
  facet normal 0.929776 0.368125 0
    outer loop
      vertex 5.20613 1.33671 10.6
      vertex 4.71015 2.58943 6
      vertex 4.71015 2.58943 10.6
    endloop
  endfacet
  facet normal 0.929776 0.368125 0
    outer loop
      vertex 4.71015 2.58943 6
      vertex 5.20613 1.33671 10.6
      vertex 5.20613 1.33671 6
    endloop
  endfacet
  facet normal 0.187382 0.982287 -0
    outer loop
      vertex 1.66097 5.11193 0
      vertex 0.337499 5.36439 10.6
      vertex 1.66097 5.11193 10.6
    endloop
  endfacet
  facet normal 0.187382 0.982287 0
    outer loop
      vertex 0.337499 5.36439 10.6
      vertex 1.66097 5.11193 0
      vertex 0.337499 5.36439 0
    endloop
  endfacet
  facet normal 0.425779 0.904827 -0
    outer loop
      vertex 2.88007 4.53826 0
      vertex 1.66097 5.11193 10.6
      vertex 2.88007 4.53826 10.6
    endloop
  endfacet
  facet normal 0.425779 0.904827 0
    outer loop
      vertex 1.66097 5.11193 10.6
      vertex 2.88007 4.53826 0
      vertex 1.66097 5.11193 0
    endloop
  endfacet
  facet normal -0.968583 0.24869 0
    outer loop
      vertex -5.33262 0.673666 6
      vertex -4.99755 1.97867 10.6
      vertex -4.99755 1.97867 6
    endloop
  endfacet
  facet normal -0.968583 0.24869 0
    outer loop
      vertex -4.99755 1.97867 10.6
      vertex -5.33262 0.673666 6
      vertex -5.33262 0.673666 10.6
    endloop
  endfacet
  facet normal 0 0 1
    outer loop
      vertex 3.1 0 10.6
      vertex 5.375 0 10.6
      vertex 5.20613 1.33671 10.6
    endloop
  endfacet
  facet normal 0 0 1
    outer loop
      vertex 2.94827 0.957952 10.6
      vertex 5.20613 1.33671 10.6
      vertex 4.71015 2.58943 10.6
    endloop
  endfacet
  facet normal 0 0 1
    outer loop
      vertex 5.375 0 10.6
      vertex 3.1 0 10.6
      vertex 5.20613 -1.33671 10.6
    endloop
  endfacet
  facet normal 0 0 1
    outer loop
      vertex 2.50795 1.82213 10.6
      vertex 4.71015 2.58943 10.6
      vertex 3.91821 3.67944 10.6
    endloop
  endfacet
  facet normal -0 0 1
    outer loop
      vertex 2.94827 -0.957952 10.6
      vertex 5.20613 -1.33671 10.6
      vertex 3.1 0 10.6
    endloop
  endfacet
  facet normal 0 0 1
    outer loop
      vertex 5.20613 -1.33671 10.6
      vertex 2.94827 -0.957952 10.6
      vertex 4.71015 -2.58943 10.6
    endloop
  endfacet
  facet normal 0 0 1
    outer loop
      vertex 5.20613 1.33671 10.6
      vertex 2.94827 0.957952 10.6
      vertex 3.1 0 10.6
    endloop
  endfacet
  facet normal 0 0 1
    outer loop
      vertex 1.82213 2.50795 10.6
      vertex 3.91821 3.67944 10.6
      vertex 2.88007 4.53826 10.6
    endloop
  endfacet
  facet normal 0 0 1
    outer loop
      vertex 4.71015 2.58943 10.6
      vertex 2.50795 1.82213 10.6
      vertex 2.94827 0.957952 10.6
    endloop
  endfacet
  facet normal 0 0 1
    outer loop
      vertex 3.91821 3.67944 10.6
      vertex 1.82213 2.50795 10.6
      vertex 2.50795 1.82213 10.6
    endloop
  endfacet
  facet normal 0 0 1
    outer loop
      vertex 0.957952 2.94827 10.6
      vertex 2.88007 4.53826 10.6
      vertex 1.66097 5.11193 10.6
    endloop
  endfacet
  facet normal 0 0 1
    outer loop
      vertex 2.88007 4.53826 10.6
      vertex 0.957952 2.94827 10.6
      vertex 1.82213 2.50795 10.6
    endloop
  endfacet
  facet normal 0 0 1
    outer loop
      vertex 0.337499 5.36439 10.6
      vertex 0.957952 2.94827 10.6
      vertex 1.66097 5.11193 10.6
    endloop
  endfacet
  facet normal 0 0 1
    outer loop
      vertex 0.337499 5.36439 10.6
      vertex 0 3.1 10.6
      vertex 0.957952 2.94827 10.6
    endloop
  endfacet
  facet normal -0 0 1
    outer loop
      vertex -1.00717 5.27979 10.6
      vertex 0 3.1 10.6
      vertex 0.337499 5.36439 10.6
    endloop
  endfacet
  facet normal 0 0 1
    outer loop
      vertex 0 3.1 10.6
      vertex -1.00717 5.27979 10.6
      vertex -0.957952 2.94827 10.6
    endloop
  endfacet
  facet normal -0 0 1
    outer loop
      vertex -2.28856 4.86345 10.6
      vertex -0.957952 2.94827 10.6
      vertex -1.00717 5.27979 10.6
    endloop
  endfacet
  facet normal 0 0 1
    outer loop
      vertex -0.957952 2.94827 10.6
      vertex -2.28856 4.86345 10.6
      vertex -1.82213 2.50795 10.6
    endloop
  endfacet
  facet normal -0 0 1
    outer loop
      vertex -3.42615 4.14151 10.6
      vertex -1.82213 2.50795 10.6
      vertex -2.28856 4.86345 10.6
    endloop
  endfacet
  facet normal 0 0 1
    outer loop
      vertex -1.82213 2.50795 10.6
      vertex -3.42615 4.14151 10.6
      vertex -2.50795 1.82213 10.6
    endloop
  endfacet
  facet normal -0 0 1
    outer loop
      vertex -4.99755 1.97867 10.6
      vertex -2.50795 1.82213 10.6
      vertex -4.34847 3.15935 10.6
    endloop
  endfacet
  facet normal -0 0 1
    outer loop
      vertex -4.34847 3.15935 10.6
      vertex -2.50795 1.82213 10.6
      vertex -3.42615 4.14151 10.6
    endloop
  endfacet
  facet normal -0 0 1
    outer loop
      vertex 2.50795 -1.82213 10.6
      vertex 4.71015 -2.58943 10.6
      vertex 2.94827 -0.957952 10.6
    endloop
  endfacet
  facet normal 0 0 1
    outer loop
      vertex 4.71015 -2.58943 10.6
      vertex 2.50795 -1.82213 10.6
      vertex 3.91821 -3.67944 10.6
    endloop
  endfacet
  facet normal -0 0 1
    outer loop
      vertex 1.82213 -2.50795 10.6
      vertex 3.91821 -3.67944 10.6
      vertex 2.50795 -1.82213 10.6
    endloop
  endfacet
  facet normal 0 0 1
    outer loop
      vertex 3.91821 -3.67944 10.6
      vertex 1.82213 -2.50795 10.6
      vertex 2.88007 -4.53826 10.6
    endloop
  endfacet
  facet normal -0 0 1
    outer loop
      vertex 0.957952 -2.94827 10.6
      vertex 2.88007 -4.53826 10.6
      vertex 1.82213 -2.50795 10.6
    endloop
  endfacet
  facet normal 0 0 1
    outer loop
      vertex 2.88007 -4.53826 10.6
      vertex 0.957952 -2.94827 10.6
      vertex 1.66097 -5.11193 10.6
    endloop
  endfacet
  facet normal 0 0 1
    outer loop
      vertex 0.957952 -2.94827 10.6
      vertex 0.337499 -5.36439 10.6
      vertex 1.66097 -5.11193 10.6
    endloop
  endfacet
  facet normal -0 0 1
    outer loop
      vertex 0 -3.1 10.6
      vertex 0.337499 -5.36439 10.6
      vertex 0.957952 -2.94827 10.6
    endloop
  endfacet
  facet normal 0 0 1
    outer loop
      vertex -1.00717 -5.27979 10.6
      vertex 0 -3.1 10.6
      vertex -0.957952 -2.94827 10.6
    endloop
  endfacet
  facet normal 0 0 1
    outer loop
      vertex 0 -3.1 10.6
      vertex -1.00717 -5.27979 10.6
      vertex 0.337499 -5.36439 10.6
    endloop
  endfacet
  facet normal 0 0 1
    outer loop
      vertex -2.28856 -4.86345 10.6
      vertex -0.957952 -2.94827 10.6
      vertex -1.82213 -2.50795 10.6
    endloop
  endfacet
  facet normal 0 0 1
    outer loop
      vertex -0.957952 -2.94827 10.6
      vertex -2.28856 -4.86345 10.6
      vertex -1.00717 -5.27979 10.6
    endloop
  endfacet
  facet normal 0 0 1
    outer loop
      vertex -3.42615 -4.14151 10.6
      vertex -1.82213 -2.50795 10.6
      vertex -2.50795 -1.82213 10.6
    endloop
  endfacet
  facet normal 0 0 1
    outer loop
      vertex -4.99755 -1.97867 10.6
      vertex -2.50795 -1.82213 10.6
      vertex -2.94827 -0.957952 10.6
    endloop
  endfacet
  facet normal 0 0 1
    outer loop
      vertex -1.82213 -2.50795 10.6
      vertex -3.42615 -4.14151 10.6
      vertex -2.28856 -4.86345 10.6
    endloop
  endfacet
  facet normal -0 0 1
    outer loop
      vertex -5.33262 -0.673666 10.6
      vertex -2.94827 -0.957952 10.6
      vertex -3.1 0 10.6
    endloop
  endfacet
  facet normal 0 0 1
    outer loop
      vertex -2.50795 1.82213 10.6
      vertex -4.99755 1.97867 10.6
      vertex -2.94827 0.957952 10.6
    endloop
  endfacet
  facet normal 0 0 1
    outer loop
      vertex -5.33262 0.673666 10.6
      vertex -2.94827 0.957952 10.6
      vertex -4.99755 1.97867 10.6
    endloop
  endfacet
  facet normal 0 0 1
    outer loop
      vertex -2.50795 -1.82213 10.6
      vertex -4.34847 -3.15935 10.6
      vertex -3.42615 -4.14151 10.6
    endloop
  endfacet
  facet normal 0 0 1
    outer loop
      vertex -2.94827 0.957952 10.6
      vertex -5.33262 0.673666 10.6
      vertex -3.1 0 10.6
    endloop
  endfacet
  facet normal 0 0 1
    outer loop
      vertex -2.50795 -1.82213 10.6
      vertex -4.99755 -1.97867 10.6
      vertex -4.34847 -3.15935 10.6
    endloop
  endfacet
  facet normal 0 0 1
    outer loop
      vertex -5.33262 -0.673666 10.6
      vertex -3.1 0 10.6
      vertex -5.33262 0.673666 10.6
    endloop
  endfacet
  facet normal 0 0 1
    outer loop
      vertex -2.94827 -0.957952 10.6
      vertex -5.33262 -0.673666 10.6
      vertex -4.99755 -1.97867 10.6
    endloop
  endfacet
  facet normal -0.535827 0.844328 0
    outer loop
      vertex -2.28856 4.86345 0
      vertex -3.42615 4.14151 10.6
      vertex -2.28856 4.86345 10.6
    endloop
  endfacet
  facet normal -0.535827 0.844328 0
    outer loop
      vertex -3.42615 4.14151 10.6
      vertex -2.28856 4.86345 0
      vertex -3.42615 4.14151 0
    endloop
  endfacet
  facet normal 0.187382 -0.982287 0
    outer loop
      vertex 0.337499 -5.36439 0
      vertex 1.66097 -5.11193 10.6
      vertex 0.337499 -5.36439 10.6
    endloop
  endfacet
  facet normal 0.187382 -0.982287 0
    outer loop
      vertex 1.66097 -5.11193 10.6
      vertex 0.337499 -5.36439 0
      vertex 1.66097 -5.11193 0
    endloop
  endfacet
  facet normal 0.637424 -0.770513 -1.58662e-09
    outer loop
      vertex 2.88007 -4.53826 10.6
      vertex 3.40984 -4.1 6
      vertex 3.91821 -3.67944 10.6
    endloop
  endfacet
  facet normal 0.637424 -0.770513 0
    outer loop
      vertex 2.88007 -4.53826 0
      vertex 3.40984 -4.1 6
      vertex 2.88007 -4.53826 10.6
    endloop
  endfacet
  facet normal 0.637424 -0.770513 0
    outer loop
      vertex 3.40984 -4.1 6
      vertex 2.88007 -4.53826 0
      vertex 3.40984 -4.1 0
    endloop
  endfacet
  facet normal 0.637424 -0.770513 0
    outer loop
      vertex 3.91821 -3.67944 10.6
      vertex 3.40984 -4.1 6
      vertex 3.91821 -3.67944 6
    endloop
  endfacet
  facet normal -0.309017 -0.951056 0
    outer loop
      vertex -2.28856 -4.86345 0
      vertex -1.00717 -5.27979 10.6
      vertex -2.28856 -4.86345 10.6
    endloop
  endfacet
  facet normal -0.309017 -0.951056 -0
    outer loop
      vertex -1.00717 -5.27979 10.6
      vertex -2.28856 -4.86345 0
      vertex -1.00717 -5.27979 0
    endloop
  endfacet
  facet normal -0.728968 -0.684548 0
    outer loop
      vertex -3.46513 -4.1 0
      vertex -3.42615 -4.14151 0
      vertex -3.46513 -4.1 6
    endloop
  endfacet
  facet normal -0.728968 -0.684547 0
    outer loop
      vertex -3.46513 -4.1 6
      vertex -4.34847 -3.15935 10.6
      vertex -4.34847 -3.15935 6
    endloop
  endfacet
  facet normal -0.728968 -0.684547 2.99554e-09
    outer loop
      vertex -3.46513 -4.1 6
      vertex -3.42615 -4.14151 10.6
      vertex -4.34847 -3.15935 10.6
    endloop
  endfacet
  facet normal -0.728968 -0.684548 -0
    outer loop
      vertex -3.42615 -4.14151 10.6
      vertex -3.46513 -4.1 6
      vertex -3.42615 -4.14151 0
    endloop
  endfacet
  facet normal -0.968583 -0.24869 0
    outer loop
      vertex -4.99755 -1.97867 6
      vertex -5.33262 -0.673666 10.6
      vertex -5.33262 -0.673666 6
    endloop
  endfacet
  facet normal -0.968583 -0.24869 0
    outer loop
      vertex -5.33262 -0.673666 10.6
      vertex -4.99755 -1.97867 6
      vertex -4.99755 -1.97867 10.6
    endloop
  endfacet
  facet normal 0.425779 -0.904827 0
    outer loop
      vertex 1.66097 -5.11193 0
      vertex 2.88007 -4.53826 10.6
      vertex 1.66097 -5.11193 10.6
    endloop
  endfacet
  facet normal 0.425779 -0.904827 0
    outer loop
      vertex 2.88007 -4.53826 10.6
      vertex 1.66097 -5.11193 0
      vertex 2.88007 -4.53826 0
    endloop
  endfacet
  facet normal 0.929776 -0.368125 0
    outer loop
      vertex 4.71015 -2.58943 10.6
      vertex 5.20613 -1.33671 6
      vertex 5.20613 -1.33671 10.6
    endloop
  endfacet
  facet normal 0.929776 -0.368125 0
    outer loop
      vertex 5.20613 -1.33671 6
      vertex 4.71015 -2.58943 10.6
      vertex 4.71015 -2.58943 6
    endloop
  endfacet
  facet normal 0.992115 -0.125334 0
    outer loop
      vertex 5.20613 -1.33671 10.6
      vertex 5.375 0 6
      vertex 5.375 0 10.6
    endloop
  endfacet
  facet normal 0.992115 -0.125334 0
    outer loop
      vertex 5.375 0 6
      vertex 5.20613 -1.33671 10.6
      vertex 5.20613 -1.33671 6
    endloop
  endfacet
  facet normal -0.876307 -0.481754 0
    outer loop
      vertex -4.34847 -3.15935 6
      vertex -4.99755 -1.97867 10.6
      vertex -4.99755 -1.97867 6
    endloop
  endfacet
  facet normal -0.876307 -0.481754 0
    outer loop
      vertex -4.99755 -1.97867 10.6
      vertex -4.34847 -3.15935 6
      vertex -4.34847 -3.15935 10.6
    endloop
  endfacet
  facet normal -0.987688 -0.156435 0
    outer loop
      vertex -9.6 0 0
      vertex -9.68076 0.509877 3
      vertex -9.68076 0.509877 0
    endloop
  endfacet
  facet normal -0.987688 -0.156435 0
    outer loop
      vertex -9.68076 0.509877 3
      vertex -9.6 0 0
      vertex -9.6 0 3
    endloop
  endfacet
  facet normal -0.453989 -0.891007 0
    outer loop
      vertex -10.7401 1.56924 0
      vertex -10.2802 1.33488 3
      vertex -10.7401 1.56924 3
    endloop
  endfacet
  facet normal -0.453989 -0.891007 -0
    outer loop
      vertex -10.2802 1.33488 3
      vertex -10.7401 1.56924 0
      vertex -10.2802 1.33488 0
    endloop
  endfacet
  facet normal -0.707107 0.707107 0
    outer loop
      vertex -10.2802 -1.33488 0
      vertex -9.91512 -0.969845 3
      vertex -9.91512 -0.969845 0
    endloop
  endfacet
  facet normal -0.707107 0.707107 0
    outer loop
      vertex -9.91512 -0.969845 3
      vertex -10.2802 -1.33488 0
      vertex -10.2802 -1.33488 3
    endloop
  endfacet
  facet normal 0.453989 0.891007 -0
    outer loop
      vertex -11.7599 -1.56924 0
      vertex -12.2198 -1.33488 3
      vertex -11.7599 -1.56924 3
    endloop
  endfacet
  facet normal 0.453989 0.891007 0
    outer loop
      vertex -12.2198 -1.33488 3
      vertex -11.7599 -1.56924 0
      vertex -12.2198 -1.33488 0
    endloop
  endfacet
  facet normal -0.707107 -0.707107 0
    outer loop
      vertex -9.91512 0.969845 0
      vertex -10.2802 1.33488 3
      vertex -10.2802 1.33488 0
    endloop
  endfacet
  facet normal -0.707107 -0.707107 0
    outer loop
      vertex -10.2802 1.33488 3
      vertex -9.91512 0.969845 0
      vertex -9.91512 0.969845 3
    endloop
  endfacet
  facet normal -0.891007 -0.453989 0
    outer loop
      vertex -9.68076 0.509877 0
      vertex -9.91512 0.969845 3
      vertex -9.91512 0.969845 0
    endloop
  endfacet
  facet normal -0.891007 -0.453989 0
    outer loop
      vertex -9.91512 0.969845 3
      vertex -9.68076 0.509877 0
      vertex -9.68076 0.509877 3
    endloop
  endfacet
  facet normal -0.156435 -0.987688 0
    outer loop
      vertex -11.25 1.65 0
      vertex -10.7401 1.56924 3
      vertex -11.25 1.65 3
    endloop
  endfacet
  facet normal -0.156435 -0.987688 -0
    outer loop
      vertex -10.7401 1.56924 3
      vertex -11.25 1.65 0
      vertex -10.7401 1.56924 0
    endloop
  endfacet
  facet normal 0.156435 -0.987688 0
    outer loop
      vertex -11.7599 1.56924 0
      vertex -11.25 1.65 3
      vertex -11.7599 1.56924 3
    endloop
  endfacet
  facet normal 0.156435 -0.987688 0
    outer loop
      vertex -11.25 1.65 3
      vertex -11.7599 1.56924 0
      vertex -11.25 1.65 0
    endloop
  endfacet
  facet normal 0.453989 -0.891007 0
    outer loop
      vertex -12.2198 1.33488 0
      vertex -11.7599 1.56924 3
      vertex -12.2198 1.33488 3
    endloop
  endfacet
  facet normal 0.453989 -0.891007 0
    outer loop
      vertex -11.7599 1.56924 3
      vertex -12.2198 1.33488 0
      vertex -11.7599 1.56924 0
    endloop
  endfacet
  facet normal -0.987688 0.156435 0
    outer loop
      vertex -9.68076 -0.509877 0
      vertex -9.6 0 3
      vertex -9.6 0 0
    endloop
  endfacet
  facet normal -0.987688 0.156435 0
    outer loop
      vertex -9.6 0 3
      vertex -9.68076 -0.509877 0
      vertex -9.68076 -0.509877 3
    endloop
  endfacet
  facet normal 0.987688 0.156435 0
    outer loop
      vertex -12.8192 -0.509877 3
      vertex -12.9 0 0
      vertex -12.9 0 3
    endloop
  endfacet
  facet normal 0.987688 0.156435 0
    outer loop
      vertex -12.9 0 0
      vertex -12.8192 -0.509877 3
      vertex -12.8192 -0.509877 0
    endloop
  endfacet
  facet normal 0.707107 0.707107 0
    outer loop
      vertex -12.2198 -1.33488 3
      vertex -12.5849 -0.969845 0
      vertex -12.5849 -0.969845 3
    endloop
  endfacet
  facet normal 0.707107 0.707107 0
    outer loop
      vertex -12.5849 -0.969845 0
      vertex -12.2198 -1.33488 3
      vertex -12.2198 -1.33488 0
    endloop
  endfacet
  facet normal 0.891007 0.453989 0
    outer loop
      vertex -12.5849 -0.969845 3
      vertex -12.8192 -0.509877 0
      vertex -12.8192 -0.509877 3
    endloop
  endfacet
  facet normal 0.891007 0.453989 0
    outer loop
      vertex -12.8192 -0.509877 0
      vertex -12.5849 -0.969845 3
      vertex -12.5849 -0.969845 0
    endloop
  endfacet
  facet normal 0.987688 -0.156435 0
    outer loop
      vertex -12.9 0 3
      vertex -12.8192 0.509877 0
      vertex -12.8192 0.509877 3
    endloop
  endfacet
  facet normal 0.987688 -0.156435 0
    outer loop
      vertex -12.8192 0.509877 0
      vertex -12.9 0 3
      vertex -12.9 0 0
    endloop
  endfacet
  facet normal 0.707107 -0.707107 0
    outer loop
      vertex -12.5849 0.969845 3
      vertex -12.2198 1.33488 0
      vertex -12.2198 1.33488 3
    endloop
  endfacet
  facet normal 0.707107 -0.707107 0
    outer loop
      vertex -12.2198 1.33488 0
      vertex -12.5849 0.969845 3
      vertex -12.5849 0.969845 0
    endloop
  endfacet
  facet normal -0.156435 0.987688 0
    outer loop
      vertex -10.7401 -1.56924 0
      vertex -11.25 -1.65 3
      vertex -10.7401 -1.56924 3
    endloop
  endfacet
  facet normal -0.156435 0.987688 0
    outer loop
      vertex -11.25 -1.65 3
      vertex -10.7401 -1.56924 0
      vertex -11.25 -1.65 0
    endloop
  endfacet
  facet normal 0.156435 0.987688 -0
    outer loop
      vertex -11.25 -1.65 0
      vertex -11.7599 -1.56924 3
      vertex -11.25 -1.65 3
    endloop
  endfacet
  facet normal 0.156435 0.987688 0
    outer loop
      vertex -11.7599 -1.56924 3
      vertex -11.25 -1.65 0
      vertex -11.7599 -1.56924 0
    endloop
  endfacet
  facet normal 0.891007 -0.453989 0
    outer loop
      vertex -12.8192 0.509877 3
      vertex -12.5849 0.969845 0
      vertex -12.5849 0.969845 3
    endloop
  endfacet
  facet normal 0.891007 -0.453989 0
    outer loop
      vertex -12.5849 0.969845 0
      vertex -12.8192 0.509877 3
      vertex -12.8192 0.509877 0
    endloop
  endfacet
  facet normal -0.891007 0.453989 0
    outer loop
      vertex -9.91512 -0.969845 0
      vertex -9.68076 -0.509877 3
      vertex -9.68076 -0.509877 0
    endloop
  endfacet
  facet normal -0.891007 0.453989 0
    outer loop
      vertex -9.68076 -0.509877 3
      vertex -9.91512 -0.969845 0
      vertex -9.91512 -0.969845 3
    endloop
  endfacet
  facet normal -0.453989 0.891007 0
    outer loop
      vertex -10.2802 -1.33488 0
      vertex -10.7401 -1.56924 3
      vertex -10.2802 -1.33488 3
    endloop
  endfacet
  facet normal -0.453989 0.891007 0
    outer loop
      vertex -10.7401 -1.56924 3
      vertex -10.2802 -1.33488 0
      vertex -10.7401 -1.56924 0
    endloop
  endfacet
  facet normal -0.866025 -0.5 0
    outer loop
      vertex -8.05 0 3
      vertex -9.65 2.77128 6
      vertex -9.65 2.77128 3
    endloop
  endfacet
  facet normal -0.866025 -0.5 0
    outer loop
      vertex -9.65 2.77128 6
      vertex -8.05 0 3
      vertex -8.05 0 6
    endloop
  endfacet
  facet normal 0.866025 -0.5 0
    outer loop
      vertex -14.45 0 6
      vertex -12.85 2.77128 3
      vertex -12.85 2.77128 6
    endloop
  endfacet
  facet normal 0.866025 -0.5 0
    outer loop
      vertex -12.85 2.77128 3
      vertex -14.45 0 6
      vertex -14.45 0 3
    endloop
  endfacet
  facet normal 0 -1 0
    outer loop
      vertex -12.85 2.77128 3
      vertex -9.65 2.77128 6
      vertex -12.85 2.77128 6
    endloop
  endfacet
  facet normal 0 -1 -0
    outer loop
      vertex -9.65 2.77128 6
      vertex -12.85 2.77128 3
      vertex -9.65 2.77128 3
    endloop
  endfacet
  facet normal 0.866025 0.5 0
    outer loop
      vertex -12.85 -2.77128 6
      vertex -14.45 0 3
      vertex -14.45 0 6
    endloop
  endfacet
  facet normal 0.866025 0.5 0
    outer loop
      vertex -14.45 0 3
      vertex -12.85 -2.77128 6
      vertex -12.85 -2.77128 3
    endloop
  endfacet
  facet normal -0.866025 0.5 0
    outer loop
      vertex -9.65 -2.77128 3
      vertex -8.05 0 6
      vertex -8.05 0 3
    endloop
  endfacet
  facet normal -0.866025 0.5 0
    outer loop
      vertex -8.05 0 6
      vertex -9.65 -2.77128 3
      vertex -9.65 -2.77128 6
    endloop
  endfacet
  facet normal -0 0 1
    outer loop
      vertex -9.91512 0.969845 3
      vertex -8.05 0 3
      vertex -9.65 2.77128 3
    endloop
  endfacet
  facet normal 0 0 1
    outer loop
      vertex -8.05 0 3
      vertex -9.68076 0.509877 3
      vertex -9.6 0 3
    endloop
  endfacet
  facet normal 0 0 1
    outer loop
      vertex -8.05 0 3
      vertex -9.91512 0.969845 3
      vertex -9.68076 0.509877 3
    endloop
  endfacet
  facet normal 0 0 1
    outer loop
      vertex -9.65 2.77128 3
      vertex -10.2802 1.33488 3
      vertex -9.91512 0.969845 3
    endloop
  endfacet
  facet normal 0 0 1
    outer loop
      vertex -9.65 2.77128 3
      vertex -10.7401 1.56924 3
      vertex -10.2802 1.33488 3
    endloop
  endfacet
  facet normal 0 0 1
    outer loop
      vertex -9.65 2.77128 3
      vertex -11.25 1.65 3
      vertex -10.7401 1.56924 3
    endloop
  endfacet
  facet normal -0 0 1
    outer loop
      vertex -12.85 2.77128 3
      vertex -11.25 1.65 3
      vertex -9.65 2.77128 3
    endloop
  endfacet
  facet normal 0 0 1
    outer loop
      vertex -11.25 1.65 3
      vertex -12.85 2.77128 3
      vertex -11.7599 1.56924 3
    endloop
  endfacet
  facet normal 0 0 1
    outer loop
      vertex -11.7599 1.56924 3
      vertex -12.85 2.77128 3
      vertex -12.2198 1.33488 3
    endloop
  endfacet
  facet normal 0 0 1
    outer loop
      vertex -12.85 2.77128 3
      vertex -12.5849 0.969845 3
      vertex -12.2198 1.33488 3
    endloop
  endfacet
  facet normal 0 0 1
    outer loop
      vertex -14.45 0 3
      vertex -12.5849 0.969845 3
      vertex -12.85 2.77128 3
    endloop
  endfacet
  facet normal 0 0 1
    outer loop
      vertex -12.5849 0.969845 3
      vertex -14.45 0 3
      vertex -12.8192 0.509877 3
    endloop
  endfacet
  facet normal 0 0 1
    outer loop
      vertex -12.8192 0.509877 3
      vertex -14.45 0 3
      vertex -12.9 0 3
    endloop
  endfacet
  facet normal 0 0 1
    outer loop
      vertex -9.68076 -0.509877 3
      vertex -8.05 0 3
      vertex -9.6 0 3
    endloop
  endfacet
  facet normal 0 0 1
    outer loop
      vertex -9.91512 -0.969845 3
      vertex -8.05 0 3
      vertex -9.68076 -0.509877 3
    endloop
  endfacet
  facet normal 0 0 1
    outer loop
      vertex -8.05 0 3
      vertex -9.91512 -0.969845 3
      vertex -9.65 -2.77128 3
    endloop
  endfacet
  facet normal -0 0 1
    outer loop
      vertex -10.2802 -1.33488 3
      vertex -9.65 -2.77128 3
      vertex -9.91512 -0.969845 3
    endloop
  endfacet
  facet normal -0 0 1
    outer loop
      vertex -10.7401 -1.56924 3
      vertex -9.65 -2.77128 3
      vertex -10.2802 -1.33488 3
    endloop
  endfacet
  facet normal -0 0 1
    outer loop
      vertex -11.25 -1.65 3
      vertex -9.65 -2.77128 3
      vertex -10.7401 -1.56924 3
    endloop
  endfacet
  facet normal 0 0 1
    outer loop
      vertex -12.85 -2.77128 3
      vertex -11.25 -1.65 3
      vertex -11.7599 -1.56924 3
    endloop
  endfacet
  facet normal 0 0 1
    outer loop
      vertex -12.85 -2.77128 3
      vertex -11.7599 -1.56924 3
      vertex -12.2198 -1.33488 3
    endloop
  endfacet
  facet normal 0 0 1
    outer loop
      vertex -11.25 -1.65 3
      vertex -12.85 -2.77128 3
      vertex -9.65 -2.77128 3
    endloop
  endfacet
  facet normal 0 0 1
    outer loop
      vertex -12.5849 -0.969845 3
      vertex -12.85 -2.77128 3
      vertex -12.2198 -1.33488 3
    endloop
  endfacet
  facet normal 0 0 1
    outer loop
      vertex -14.45 0 3
      vertex -12.5849 -0.969845 3
      vertex -12.8192 -0.509877 3
    endloop
  endfacet
  facet normal -0 0 1
    outer loop
      vertex -14.45 0 3
      vertex -12.8192 -0.509877 3
      vertex -12.9 0 3
    endloop
  endfacet
  facet normal 0 0 1
    outer loop
      vertex -12.5849 -0.969845 3
      vertex -14.45 0 3
      vertex -12.85 -2.77128 3
    endloop
  endfacet
  facet normal 0 1 -0
    outer loop
      vertex -9.65 -2.77128 3
      vertex -12.85 -2.77128 6
      vertex -9.65 -2.77128 6
    endloop
  endfacet
  facet normal 0 1 0
    outer loop
      vertex -12.85 -2.77128 6
      vertex -9.65 -2.77128 3
      vertex -12.85 -2.77128 3
    endloop
  endfacet
  facet normal -0.987688 -0.156435 0
    outer loop
      vertex 12.9 0 0
      vertex 12.8192 0.509877 3
      vertex 12.8192 0.509877 0
    endloop
  endfacet
  facet normal -0.987688 -0.156435 0
    outer loop
      vertex 12.8192 0.509877 3
      vertex 12.9 0 0
      vertex 12.9 0 3
    endloop
  endfacet
  facet normal 0.987688 -0.156435 0
    outer loop
      vertex 9.6 0 3
      vertex 9.68076 0.509877 0
      vertex 9.68076 0.509877 3
    endloop
  endfacet
  facet normal 0.987688 -0.156435 0
    outer loop
      vertex 9.68076 0.509877 0
      vertex 9.6 0 3
      vertex 9.6 0 0
    endloop
  endfacet
  facet normal -0.156435 -0.987688 0
    outer loop
      vertex 11.25 1.65 0
      vertex 11.7599 1.56924 3
      vertex 11.25 1.65 3
    endloop
  endfacet
  facet normal -0.156435 -0.987688 -0
    outer loop
      vertex 11.7599 1.56924 3
      vertex 11.25 1.65 0
      vertex 11.7599 1.56924 0
    endloop
  endfacet
  facet normal -0.707107 -0.707107 0
    outer loop
      vertex 12.5849 0.969845 0
      vertex 12.2198 1.33488 3
      vertex 12.2198 1.33488 0
    endloop
  endfacet
  facet normal -0.707107 -0.707107 0
    outer loop
      vertex 12.2198 1.33488 3
      vertex 12.5849 0.969845 0
      vertex 12.5849 0.969845 3
    endloop
  endfacet
  facet normal -0.891007 -0.453989 0
    outer loop
      vertex 12.8192 0.509877 0
      vertex 12.5849 0.969845 3
      vertex 12.5849 0.969845 0
    endloop
  endfacet
  facet normal -0.891007 -0.453989 0
    outer loop
      vertex 12.5849 0.969845 3
      vertex 12.8192 0.509877 0
      vertex 12.8192 0.509877 3
    endloop
  endfacet
  facet normal -0.453989 -0.891007 0
    outer loop
      vertex 11.7599 1.56924 0
      vertex 12.2198 1.33488 3
      vertex 11.7599 1.56924 3
    endloop
  endfacet
  facet normal -0.453989 -0.891007 -0
    outer loop
      vertex 12.2198 1.33488 3
      vertex 11.7599 1.56924 0
      vertex 12.2198 1.33488 0
    endloop
  endfacet
  facet normal 0.453989 -0.891007 0
    outer loop
      vertex 10.2802 1.33488 0
      vertex 10.7401 1.56924 3
      vertex 10.2802 1.33488 3
    endloop
  endfacet
  facet normal 0.453989 -0.891007 0
    outer loop
      vertex 10.7401 1.56924 3
      vertex 10.2802 1.33488 0
      vertex 10.7401 1.56924 0
    endloop
  endfacet
  facet normal 0.707107 -0.707107 0
    outer loop
      vertex 9.91512 0.969845 3
      vertex 10.2802 1.33488 0
      vertex 10.2802 1.33488 3
    endloop
  endfacet
  facet normal 0.707107 -0.707107 0
    outer loop
      vertex 10.2802 1.33488 0
      vertex 9.91512 0.969845 3
      vertex 9.91512 0.969845 0
    endloop
  endfacet
  facet normal 0.156435 -0.987688 0
    outer loop
      vertex 10.7401 1.56924 0
      vertex 11.25 1.65 3
      vertex 10.7401 1.56924 3
    endloop
  endfacet
  facet normal 0.156435 -0.987688 0
    outer loop
      vertex 11.25 1.65 3
      vertex 10.7401 1.56924 0
      vertex 11.25 1.65 0
    endloop
  endfacet
  facet normal -0.891007 0.453989 0
    outer loop
      vertex 12.5849 -0.969845 0
      vertex 12.8192 -0.509877 3
      vertex 12.8192 -0.509877 0
    endloop
  endfacet
  facet normal -0.891007 0.453989 0
    outer loop
      vertex 12.8192 -0.509877 3
      vertex 12.5849 -0.969845 0
      vertex 12.5849 -0.969845 3
    endloop
  endfacet
  facet normal 0.453989 0.891007 -0
    outer loop
      vertex 10.7401 -1.56924 0
      vertex 10.2802 -1.33488 3
      vertex 10.7401 -1.56924 3
    endloop
  endfacet
  facet normal 0.453989 0.891007 0
    outer loop
      vertex 10.2802 -1.33488 3
      vertex 10.7401 -1.56924 0
      vertex 10.2802 -1.33488 0
    endloop
  endfacet
  facet normal 0.891007 -0.453989 0
    outer loop
      vertex 9.68076 0.509877 3
      vertex 9.91512 0.969845 0
      vertex 9.91512 0.969845 3
    endloop
  endfacet
  facet normal 0.891007 -0.453989 0
    outer loop
      vertex 9.91512 0.969845 0
      vertex 9.68076 0.509877 3
      vertex 9.68076 0.509877 0
    endloop
  endfacet
  facet normal -0.987688 0.156435 0
    outer loop
      vertex 12.8192 -0.509877 0
      vertex 12.9 0 3
      vertex 12.9 0 0
    endloop
  endfacet
  facet normal -0.987688 0.156435 0
    outer loop
      vertex 12.9 0 3
      vertex 12.8192 -0.509877 0
      vertex 12.8192 -0.509877 3
    endloop
  endfacet
  facet normal -0.156435 0.987688 0
    outer loop
      vertex 11.7599 -1.56924 0
      vertex 11.25 -1.65 3
      vertex 11.7599 -1.56924 3
    endloop
  endfacet
  facet normal -0.156435 0.987688 0
    outer loop
      vertex 11.25 -1.65 3
      vertex 11.7599 -1.56924 0
      vertex 11.25 -1.65 0
    endloop
  endfacet
  facet normal -0.707107 0.707107 0
    outer loop
      vertex 12.2198 -1.33488 0
      vertex 12.5849 -0.969845 3
      vertex 12.5849 -0.969845 0
    endloop
  endfacet
  facet normal -0.707107 0.707107 0
    outer loop
      vertex 12.5849 -0.969845 3
      vertex 12.2198 -1.33488 0
      vertex 12.2198 -1.33488 3
    endloop
  endfacet
  facet normal 0.156435 0.987688 -0
    outer loop
      vertex 11.25 -1.65 0
      vertex 10.7401 -1.56924 3
      vertex 11.25 -1.65 3
    endloop
  endfacet
  facet normal 0.156435 0.987688 0
    outer loop
      vertex 10.7401 -1.56924 3
      vertex 11.25 -1.65 0
      vertex 10.7401 -1.56924 0
    endloop
  endfacet
  facet normal 0.707107 0.707107 0
    outer loop
      vertex 10.2802 -1.33488 3
      vertex 9.91512 -0.969845 0
      vertex 9.91512 -0.969845 3
    endloop
  endfacet
  facet normal 0.707107 0.707107 0
    outer loop
      vertex 9.91512 -0.969845 0
      vertex 10.2802 -1.33488 3
      vertex 10.2802 -1.33488 0
    endloop
  endfacet
  facet normal 0.987688 0.156435 0
    outer loop
      vertex 9.68076 -0.509877 3
      vertex 9.6 0 0
      vertex 9.6 0 3
    endloop
  endfacet
  facet normal 0.987688 0.156435 0
    outer loop
      vertex 9.6 0 0
      vertex 9.68076 -0.509877 3
      vertex 9.68076 -0.509877 0
    endloop
  endfacet
  facet normal -0.453989 0.891007 0
    outer loop
      vertex 12.2198 -1.33488 0
      vertex 11.7599 -1.56924 3
      vertex 12.2198 -1.33488 3
    endloop
  endfacet
  facet normal -0.453989 0.891007 0
    outer loop
      vertex 11.7599 -1.56924 3
      vertex 12.2198 -1.33488 0
      vertex 11.7599 -1.56924 0
    endloop
  endfacet
  facet normal 0.891007 0.453989 0
    outer loop
      vertex 9.91512 -0.969845 3
      vertex 9.68076 -0.509877 0
      vertex 9.68076 -0.509877 3
    endloop
  endfacet
  facet normal 0.891007 0.453989 0
    outer loop
      vertex 9.68076 -0.509877 0
      vertex 9.91512 -0.969845 3
      vertex 9.91512 -0.969845 0
    endloop
  endfacet
  facet normal -0.866025 -0.5 0
    outer loop
      vertex 14.45 0 3
      vertex 12.85 2.77128 6
      vertex 12.85 2.77128 3
    endloop
  endfacet
  facet normal -0.866025 -0.5 0
    outer loop
      vertex 12.85 2.77128 6
      vertex 14.45 0 3
      vertex 14.45 0 6
    endloop
  endfacet
  facet normal 0.866025 -0.5 0
    outer loop
      vertex 8.05 0 6
      vertex 9.65 2.77128 3
      vertex 9.65 2.77128 6
    endloop
  endfacet
  facet normal 0.866025 -0.5 0
    outer loop
      vertex 9.65 2.77128 3
      vertex 8.05 0 6
      vertex 8.05 0 3
    endloop
  endfacet
  facet normal 0 -1 0
    outer loop
      vertex 9.65 2.77128 3
      vertex 12.85 2.77128 6
      vertex 9.65 2.77128 6
    endloop
  endfacet
  facet normal 0 -1 -0
    outer loop
      vertex 12.85 2.77128 6
      vertex 9.65 2.77128 3
      vertex 12.85 2.77128 3
    endloop
  endfacet
  facet normal 0.866025 0.5 0
    outer loop
      vertex 9.65 -2.77128 6
      vertex 8.05 0 3
      vertex 8.05 0 6
    endloop
  endfacet
  facet normal 0.866025 0.5 0
    outer loop
      vertex 8.05 0 3
      vertex 9.65 -2.77128 6
      vertex 9.65 -2.77128 3
    endloop
  endfacet
  facet normal -0.866025 0.5 0
    outer loop
      vertex 12.85 -2.77128 3
      vertex 14.45 0 6
      vertex 14.45 0 3
    endloop
  endfacet
  facet normal -0.866025 0.5 0
    outer loop
      vertex 14.45 0 6
      vertex 12.85 -2.77128 3
      vertex 12.85 -2.77128 6
    endloop
  endfacet
  facet normal -0 0 1
    outer loop
      vertex 12.5849 0.969845 3
      vertex 14.45 0 3
      vertex 12.85 2.77128 3
    endloop
  endfacet
  facet normal 0 0 1
    outer loop
      vertex 14.45 0 3
      vertex 12.8192 0.509877 3
      vertex 12.9 0 3
    endloop
  endfacet
  facet normal 0 0 1
    outer loop
      vertex 14.45 0 3
      vertex 12.5849 0.969845 3
      vertex 12.8192 0.509877 3
    endloop
  endfacet
  facet normal 0 0 1
    outer loop
      vertex 12.85 2.77128 3
      vertex 12.2198 1.33488 3
      vertex 12.5849 0.969845 3
    endloop
  endfacet
  facet normal 0 0 1
    outer loop
      vertex 12.85 2.77128 3
      vertex 11.7599 1.56924 3
      vertex 12.2198 1.33488 3
    endloop
  endfacet
  facet normal 0 0 1
    outer loop
      vertex 12.85 2.77128 3
      vertex 11.25 1.65 3
      vertex 11.7599 1.56924 3
    endloop
  endfacet
  facet normal -0 0 1
    outer loop
      vertex 9.65 2.77128 3
      vertex 11.25 1.65 3
      vertex 12.85 2.77128 3
    endloop
  endfacet
  facet normal 0 0 1
    outer loop
      vertex 11.25 1.65 3
      vertex 9.65 2.77128 3
      vertex 10.7401 1.56924 3
    endloop
  endfacet
  facet normal 0 0 1
    outer loop
      vertex 10.7401 1.56924 3
      vertex 9.65 2.77128 3
      vertex 10.2802 1.33488 3
    endloop
  endfacet
  facet normal 0 0 1
    outer loop
      vertex 9.65 2.77128 3
      vertex 9.91512 0.969845 3
      vertex 10.2802 1.33488 3
    endloop
  endfacet
  facet normal 0 0 1
    outer loop
      vertex 8.05 0 3
      vertex 9.91512 0.969845 3
      vertex 9.65 2.77128 3
    endloop
  endfacet
  facet normal 0 0 1
    outer loop
      vertex 9.91512 0.969845 3
      vertex 8.05 0 3
      vertex 9.68076 0.509877 3
    endloop
  endfacet
  facet normal 0 0 1
    outer loop
      vertex 9.68076 0.509877 3
      vertex 8.05 0 3
      vertex 9.6 0 3
    endloop
  endfacet
  facet normal 0 0 1
    outer loop
      vertex 12.8192 -0.509877 3
      vertex 14.45 0 3
      vertex 12.9 0 3
    endloop
  endfacet
  facet normal 0 0 1
    outer loop
      vertex 12.5849 -0.969845 3
      vertex 14.45 0 3
      vertex 12.8192 -0.509877 3
    endloop
  endfacet
  facet normal 0 0 1
    outer loop
      vertex 14.45 0 3
      vertex 12.5849 -0.969845 3
      vertex 12.85 -2.77128 3
    endloop
  endfacet
  facet normal -0 0 1
    outer loop
      vertex 12.2198 -1.33488 3
      vertex 12.85 -2.77128 3
      vertex 12.5849 -0.969845 3
    endloop
  endfacet
  facet normal -0 0 1
    outer loop
      vertex 11.7599 -1.56924 3
      vertex 12.85 -2.77128 3
      vertex 12.2198 -1.33488 3
    endloop
  endfacet
  facet normal -0 0 1
    outer loop
      vertex 11.25 -1.65 3
      vertex 12.85 -2.77128 3
      vertex 11.7599 -1.56924 3
    endloop
  endfacet
  facet normal 0 0 1
    outer loop
      vertex 9.65 -2.77128 3
      vertex 11.25 -1.65 3
      vertex 10.7401 -1.56924 3
    endloop
  endfacet
  facet normal 0 0 1
    outer loop
      vertex 9.65 -2.77128 3
      vertex 10.7401 -1.56924 3
      vertex 10.2802 -1.33488 3
    endloop
  endfacet
  facet normal 0 0 1
    outer loop
      vertex 11.25 -1.65 3
      vertex 9.65 -2.77128 3
      vertex 12.85 -2.77128 3
    endloop
  endfacet
  facet normal 0 0 1
    outer loop
      vertex 9.91512 -0.969845 3
      vertex 9.65 -2.77128 3
      vertex 10.2802 -1.33488 3
    endloop
  endfacet
  facet normal 0 0 1
    outer loop
      vertex 8.05 0 3
      vertex 9.91512 -0.969845 3
      vertex 9.68076 -0.509877 3
    endloop
  endfacet
  facet normal -0 0 1
    outer loop
      vertex 8.05 0 3
      vertex 9.68076 -0.509877 3
      vertex 9.6 0 3
    endloop
  endfacet
  facet normal 0 0 1
    outer loop
      vertex 9.91512 -0.969845 3
      vertex 8.05 0 3
      vertex 9.65 -2.77128 3
    endloop
  endfacet
  facet normal 0 1 -0
    outer loop
      vertex 12.85 -2.77128 3
      vertex 9.65 -2.77128 6
      vertex 12.85 -2.77128 6
    endloop
  endfacet
  facet normal 0 1 0
    outer loop
      vertex 9.65 -2.77128 6
      vertex 12.85 -2.77128 3
      vertex 9.65 -2.77128 3
    endloop
  endfacet
  facet normal -0.5 -0.866025 0
    outer loop
      vertex 0 4.3 0
      vertex 3.72391 2.15 7
      vertex 0 4.3 7
    endloop
  endfacet
  facet normal -0.5 -0.866025 -0
    outer loop
      vertex 3.72391 2.15 7
      vertex 0 4.3 0
      vertex 3.72391 2.15 0
    endloop
  endfacet
  facet normal 1 -0 0
    outer loop
      vertex -3.72391 -2.15 7
      vertex -3.72391 2.15 0
      vertex -3.72391 2.15 7
    endloop
  endfacet
  facet normal 1 0 0
    outer loop
      vertex -3.72391 2.15 0
      vertex -3.72391 -2.15 7
      vertex -3.72391 -2.15 0
    endloop
  endfacet
  facet normal 0.5 -0.866025 0
    outer loop
      vertex -3.72391 2.15 0
      vertex 0 4.3 7
      vertex -3.72391 2.15 7
    endloop
  endfacet
  facet normal 0.5 -0.866025 0
    outer loop
      vertex 0 4.3 7
      vertex -3.72391 2.15 0
      vertex 0 4.3 0
    endloop
  endfacet
  facet normal 0 0 -1
    outer loop
      vertex 0 -4.3 7
      vertex 3.72391 2.15 7
      vertex 3.72391 -2.15 7
    endloop
  endfacet
  facet normal 0 0 -1
    outer loop
      vertex 0 -4.3 7
      vertex 0 4.3 7
      vertex 3.72391 2.15 7
    endloop
  endfacet
  facet normal 0 0 -1
    outer loop
      vertex -3.72391 -2.15 7
      vertex 0 4.3 7
      vertex 0 -4.3 7
    endloop
  endfacet
  facet normal 0 0 -1
    outer loop
      vertex 0 4.3 7
      vertex -3.72391 -2.15 7
      vertex -3.72391 2.15 7
    endloop
  endfacet
  facet normal -0.5 0.866025 0
    outer loop
      vertex 3.72391 -2.15 0
      vertex 0 -4.3 7
      vertex 3.72391 -2.15 7
    endloop
  endfacet
  facet normal -0.5 0.866025 0
    outer loop
      vertex 0 -4.3 7
      vertex 3.72391 -2.15 0
      vertex 0 -4.3 0
    endloop
  endfacet
  facet normal 0.5 0.866025 -0
    outer loop
      vertex 0 -4.3 0
      vertex -3.72391 -2.15 7
      vertex 0 -4.3 7
    endloop
  endfacet
  facet normal 0.5 0.866025 0
    outer loop
      vertex -3.72391 -2.15 7
      vertex 0 -4.3 0
      vertex -3.72391 -2.15 0
    endloop
  endfacet
  facet normal -1 0 0
    outer loop
      vertex 3.72391 -2.15 0
      vertex 3.72391 2.15 7
      vertex 3.72391 2.15 0
    endloop
  endfacet
  facet normal -1 -0 0
    outer loop
      vertex 3.72391 2.15 7
      vertex 3.72391 -2.15 0
      vertex 3.72391 -2.15 7
    endloop
  endfacet
  facet normal 0.987688 -0.156435 0
    outer loop
      vertex -2 0 11.6
      vertex -1.90211 0.618033 7.3
      vertex -1.90211 0.618033 11.6
    endloop
  endfacet
  facet normal 0.987688 -0.156435 0
    outer loop
      vertex -1.90211 0.618033 7.3
      vertex -2 0 11.6
      vertex -2 0 7.3
    endloop
  endfacet
  facet normal -0.453991 -0.891006 0
    outer loop
      vertex 0.618033 1.90211 7.3
      vertex 1.17557 1.61803 11.6
      vertex 0.618033 1.90211 11.6
    endloop
  endfacet
  facet normal -0.453991 -0.891006 -0
    outer loop
      vertex 1.17557 1.61803 11.6
      vertex 0.618033 1.90211 7.3
      vertex 1.17557 1.61803 7.3
    endloop
  endfacet
  facet normal -0.156435 0.987688 0
    outer loop
      vertex 0.618033 -1.90211 7.3
      vertex 0 -2 11.6
      vertex 0.618033 -1.90211 11.6
    endloop
  endfacet
  facet normal -0.156435 0.987688 0
    outer loop
      vertex 0 -2 11.6
      vertex 0.618033 -1.90211 7.3
      vertex 0 -2 7.3
    endloop
  endfacet
  facet normal 0.156435 0.987688 -0
    outer loop
      vertex 0 -2 7.3
      vertex -0.618033 -1.90211 11.6
      vertex 0 -2 11.6
    endloop
  endfacet
  facet normal 0.156435 0.987688 0
    outer loop
      vertex -0.618033 -1.90211 11.6
      vertex 0 -2 7.3
      vertex -0.618033 -1.90211 7.3
    endloop
  endfacet
  facet normal -0.707107 -0.707107 0
    outer loop
      vertex 1.61803 1.17557 7.3
      vertex 1.17557 1.61803 11.6
      vertex 1.17557 1.61803 7.3
    endloop
  endfacet
  facet normal -0.707107 -0.707107 0
    outer loop
      vertex 1.17557 1.61803 11.6
      vertex 1.61803 1.17557 7.3
      vertex 1.61803 1.17557 11.6
    endloop
  endfacet
  facet normal -0.891006 -0.453991 0
    outer loop
      vertex 1.90211 0.618033 7.3
      vertex 1.61803 1.17557 11.6
      vertex 1.61803 1.17557 7.3
    endloop
  endfacet
  facet normal -0.891006 -0.453991 0
    outer loop
      vertex 1.61803 1.17557 11.6
      vertex 1.90211 0.618033 7.3
      vertex 1.90211 0.618033 11.6
    endloop
  endfacet
  facet normal -0.156435 -0.987688 0
    outer loop
      vertex 0 2 7.3
      vertex 0.618033 1.90211 11.6
      vertex 0 2 11.6
    endloop
  endfacet
  facet normal -0.156435 -0.987688 -0
    outer loop
      vertex 0.618033 1.90211 11.6
      vertex 0 2 7.3
      vertex 0.618033 1.90211 7.3
    endloop
  endfacet
  facet normal 0.156435 -0.987688 0
    outer loop
      vertex -0.618033 1.90211 7.3
      vertex 0 2 11.6
      vertex -0.618033 1.90211 11.6
    endloop
  endfacet
  facet normal 0.156435 -0.987688 0
    outer loop
      vertex 0 2 11.6
      vertex -0.618033 1.90211 7.3
      vertex 0 2 7.3
    endloop
  endfacet
  facet normal 0.891006 -0.453991 0
    outer loop
      vertex -1.90211 0.618033 11.6
      vertex -1.61803 1.17557 7.3
      vertex -1.61803 1.17557 11.6
    endloop
  endfacet
  facet normal 0.891006 -0.453991 0
    outer loop
      vertex -1.61803 1.17557 7.3
      vertex -1.90211 0.618033 11.6
      vertex -1.90211 0.618033 7.3
    endloop
  endfacet
  facet normal 0.453991 -0.891006 0
    outer loop
      vertex -1.17557 1.61803 7.3
      vertex -0.618033 1.90211 11.6
      vertex -1.17557 1.61803 11.6
    endloop
  endfacet
  facet normal 0.453991 -0.891006 0
    outer loop
      vertex -0.618033 1.90211 11.6
      vertex -1.17557 1.61803 7.3
      vertex -0.618033 1.90211 7.3
    endloop
  endfacet
  facet normal -0.987688 0.156435 0
    outer loop
      vertex 1.90211 -0.618033 7.3
      vertex 2 0 11.6
      vertex 2 0 7.3
    endloop
  endfacet
  facet normal -0.987688 0.156435 0
    outer loop
      vertex 2 0 11.6
      vertex 1.90211 -0.618033 7.3
      vertex 1.90211 -0.618033 11.6
    endloop
  endfacet
  facet normal 0.987688 0.156435 0
    outer loop
      vertex -1.90211 -0.618033 11.6
      vertex -2 0 7.3
      vertex -2 0 11.6
    endloop
  endfacet
  facet normal 0.987688 0.156435 0
    outer loop
      vertex -2 0 7.3
      vertex -1.90211 -0.618033 11.6
      vertex -1.90211 -0.618033 7.3
    endloop
  endfacet
  facet normal 0 0 1
    outer loop
      vertex 1.90211 0.618033 7.3
      vertex 1.90211 -0.618033 7.3
      vertex 2 0 7.3
    endloop
  endfacet
  facet normal 0 0 1
    outer loop
      vertex 1.61803 1.17557 7.3
      vertex 1.90211 -0.618033 7.3
      vertex 1.90211 0.618033 7.3
    endloop
  endfacet
  facet normal 0 0 1
    outer loop
      vertex 1.61803 1.17557 7.3
      vertex 1.61803 -1.17557 7.3
      vertex 1.90211 -0.618033 7.3
    endloop
  endfacet
  facet normal 0 0 1
    outer loop
      vertex 1.17557 1.61803 7.3
      vertex 1.61803 -1.17557 7.3
      vertex 1.61803 1.17557 7.3
    endloop
  endfacet
  facet normal 0 0 1
    outer loop
      vertex 1.17557 1.61803 7.3
      vertex 1.17557 -1.61803 7.3
      vertex 1.61803 -1.17557 7.3
    endloop
  endfacet
  facet normal 0 0 1
    outer loop
      vertex 0.618033 1.90211 7.3
      vertex 1.17557 -1.61803 7.3
      vertex 1.17557 1.61803 7.3
    endloop
  endfacet
  facet normal 0 0 1
    outer loop
      vertex 0.618033 1.90211 7.3
      vertex 0.618033 -1.90211 7.3
      vertex 1.17557 -1.61803 7.3
    endloop
  endfacet
  facet normal 0 0 1
    outer loop
      vertex 0 2 7.3
      vertex 0.618033 -1.90211 7.3
      vertex 0.618033 1.90211 7.3
    endloop
  endfacet
  facet normal 0 0 1
    outer loop
      vertex 0 2 7.3
      vertex 0 -2 7.3
      vertex 0.618033 -1.90211 7.3
    endloop
  endfacet
  facet normal -0 0 1
    outer loop
      vertex -0.618033 1.90211 7.3
      vertex 0 -2 7.3
      vertex 0 2 7.3
    endloop
  endfacet
  facet normal 0 0 1
    outer loop
      vertex -0.618033 1.90211 7.3
      vertex -0.618033 -1.90211 7.3
      vertex 0 -2 7.3
    endloop
  endfacet
  facet normal -0 0 1
    outer loop
      vertex -1.17557 1.61803 7.3
      vertex -0.618033 -1.90211 7.3
      vertex -0.618033 1.90211 7.3
    endloop
  endfacet
  facet normal 0 0 1
    outer loop
      vertex -1.17557 1.61803 7.3
      vertex -1.17557 -1.61803 7.3
      vertex -0.618033 -1.90211 7.3
    endloop
  endfacet
  facet normal -0 0 1
    outer loop
      vertex -1.61803 1.17557 7.3
      vertex -1.17557 -1.61803 7.3
      vertex -1.17557 1.61803 7.3
    endloop
  endfacet
  facet normal 0 0 1
    outer loop
      vertex -1.61803 1.17557 7.3
      vertex -1.61803 -1.17557 7.3
      vertex -1.17557 -1.61803 7.3
    endloop
  endfacet
  facet normal -0 0 1
    outer loop
      vertex -1.90211 0.618033 7.3
      vertex -1.61803 -1.17557 7.3
      vertex -1.61803 1.17557 7.3
    endloop
  endfacet
  facet normal 0 0 1
    outer loop
      vertex -1.90211 0.618033 7.3
      vertex -1.90211 -0.618033 7.3
      vertex -1.61803 -1.17557 7.3
    endloop
  endfacet
  facet normal 0 -0 1
    outer loop
      vertex -1.90211 -0.618033 7.3
      vertex -1.90211 0.618033 7.3
      vertex -2 0 7.3
    endloop
  endfacet
  facet normal 0.707107 -0.707107 0
    outer loop
      vertex -1.61803 1.17557 11.6
      vertex -1.17557 1.61803 7.3
      vertex -1.17557 1.61803 11.6
    endloop
  endfacet
  facet normal 0.707107 -0.707107 0
    outer loop
      vertex -1.17557 1.61803 7.3
      vertex -1.61803 1.17557 11.6
      vertex -1.61803 1.17557 7.3
    endloop
  endfacet
  facet normal -0.987688 -0.156435 0
    outer loop
      vertex 2 0 7.3
      vertex 1.90211 0.618033 11.6
      vertex 1.90211 0.618033 7.3
    endloop
  endfacet
  facet normal -0.987688 -0.156435 0
    outer loop
      vertex 1.90211 0.618033 11.6
      vertex 2 0 7.3
      vertex 2 0 11.6
    endloop
  endfacet
  facet normal -0.453991 0.891006 0
    outer loop
      vertex 1.17557 -1.61803 7.3
      vertex 0.618033 -1.90211 11.6
      vertex 1.17557 -1.61803 11.6
    endloop
  endfacet
  facet normal -0.453991 0.891006 0
    outer loop
      vertex 0.618033 -1.90211 11.6
      vertex 1.17557 -1.61803 7.3
      vertex 0.618033 -1.90211 7.3
    endloop
  endfacet
  facet normal -0.891006 0.453991 0
    outer loop
      vertex 1.61803 -1.17557 7.3
      vertex 1.90211 -0.618033 11.6
      vertex 1.90211 -0.618033 7.3
    endloop
  endfacet
  facet normal -0.891006 0.453991 0
    outer loop
      vertex 1.90211 -0.618033 11.6
      vertex 1.61803 -1.17557 7.3
      vertex 1.61803 -1.17557 11.6
    endloop
  endfacet
  facet normal 0.707107 0.707107 0
    outer loop
      vertex -1.17557 -1.61803 11.6
      vertex -1.61803 -1.17557 7.3
      vertex -1.61803 -1.17557 11.6
    endloop
  endfacet
  facet normal 0.707107 0.707107 0
    outer loop
      vertex -1.61803 -1.17557 7.3
      vertex -1.17557 -1.61803 11.6
      vertex -1.17557 -1.61803 7.3
    endloop
  endfacet
  facet normal 0.891006 0.453991 0
    outer loop
      vertex -1.61803 -1.17557 11.6
      vertex -1.90211 -0.618033 7.3
      vertex -1.90211 -0.618033 11.6
    endloop
  endfacet
  facet normal 0.891006 0.453991 0
    outer loop
      vertex -1.90211 -0.618033 7.3
      vertex -1.61803 -1.17557 11.6
      vertex -1.61803 -1.17557 7.3
    endloop
  endfacet
  facet normal 0.453991 0.891006 -0
    outer loop
      vertex -0.618033 -1.90211 7.3
      vertex -1.17557 -1.61803 11.6
      vertex -0.618033 -1.90211 11.6
    endloop
  endfacet
  facet normal 0.453991 0.891006 0
    outer loop
      vertex -1.17557 -1.61803 11.6
      vertex -0.618033 -1.90211 7.3
      vertex -1.17557 -1.61803 7.3
    endloop
  endfacet
  facet normal -0.707107 0.707107 0
    outer loop
      vertex 1.17557 -1.61803 7.3
      vertex 1.61803 -1.17557 11.6
      vertex 1.61803 -1.17557 7.3
    endloop
  endfacet
  facet normal -0.707107 0.707107 0
    outer loop
      vertex 1.61803 -1.17557 11.6
      vertex 1.17557 -1.61803 7.3
      vertex 1.17557 -1.61803 11.6
    endloop
  endfacet
endsolid OpenSCAD_Model
