solid OpenSCAD_Model
  facet normal -0.987688 -0.156435 0
    outer loop
      vertex 5.15 5 0
      vertex 5.06924 5.50988 3
      vertex 5.06924 5.50988 0
    endloop
  endfacet
  facet normal -0.987688 -0.156435 0
    outer loop
      vertex 5.06924 5.50988 3
      vertex 5.15 5 0
      vertex 5.15 5 3
    endloop
  endfacet
  facet normal 0.891007 0.453989 0
    outer loop
      vertex 2.16512 4.03015 3
      vertex 1.93076 4.49012 0
      vertex 1.93076 4.49012 3
    endloop
  endfacet
  facet normal 0.891007 0.453989 0
    outer loop
      vertex 1.93076 4.49012 0
      vertex 2.16512 4.03015 3
      vertex 2.16512 4.03015 0
    endloop
  endfacet
  facet normal 0.156435 -0.987688 0
    outer loop
      vertex 2.99012 6.56924 0
      vertex 3.5 6.65 3
      vertex 2.99012 6.56924 3
    endloop
  endfacet
  facet normal 0.156435 -0.987688 0
    outer loop
      vertex 3.5 6.65 3
      vertex 2.99012 6.56924 0
      vertex 3.5 6.65 0
    endloop
  endfacet
  facet normal 0.987688 0.156435 0
    outer loop
      vertex 1.93076 4.49012 3
      vertex 1.85 5 0
      vertex 1.85 5 3
    endloop
  endfacet
  facet normal 0.987688 0.156435 0
    outer loop
      vertex 1.85 5 0
      vertex 1.93076 4.49012 3
      vertex 1.93076 4.49012 0
    endloop
  endfacet
  facet normal -0.707107 -0.707107 0
    outer loop
      vertex 4.83488 5.96984 0
      vertex 4.46984 6.33488 3
      vertex 4.46984 6.33488 0
    endloop
  endfacet
  facet normal -0.707107 -0.707107 0
    outer loop
      vertex 4.46984 6.33488 3
      vertex 4.83488 5.96984 0
      vertex 4.83488 5.96984 3
    endloop
  endfacet
  facet normal -0.891007 -0.453989 0
    outer loop
      vertex 5.06924 5.50988 0
      vertex 4.83488 5.96984 3
      vertex 4.83488 5.96984 0
    endloop
  endfacet
  facet normal -0.891007 -0.453989 0
    outer loop
      vertex 4.83488 5.96984 3
      vertex 5.06924 5.50988 0
      vertex 5.06924 5.50988 3
    endloop
  endfacet
  facet normal -0.156435 -0.987688 0
    outer loop
      vertex 3.5 6.65 0
      vertex 4.00988 6.56924 3
      vertex 3.5 6.65 3
    endloop
  endfacet
  facet normal -0.156435 -0.987688 -0
    outer loop
      vertex 4.00988 6.56924 3
      vertex 3.5 6.65 0
      vertex 4.00988 6.56924 0
    endloop
  endfacet
  facet normal 0.453989 -0.891007 0
    outer loop
      vertex 2.53015 6.33488 0
      vertex 2.99012 6.56924 3
      vertex 2.53015 6.33488 3
    endloop
  endfacet
  facet normal 0.453989 -0.891007 0
    outer loop
      vertex 2.99012 6.56924 3
      vertex 2.53015 6.33488 0
      vertex 2.99012 6.56924 0
    endloop
  endfacet
  facet normal 0.987688 -0.156435 0
    outer loop
      vertex 1.85 5 3
      vertex 1.93076 5.50988 0
      vertex 1.93076 5.50988 3
    endloop
  endfacet
  facet normal 0.987688 -0.156435 0
    outer loop
      vertex 1.93076 5.50988 0
      vertex 1.85 5 3
      vertex 1.85 5 0
    endloop
  endfacet
  facet normal 0.707107 -0.707107 0
    outer loop
      vertex 2.16512 5.96984 3
      vertex 2.53015 6.33488 0
      vertex 2.53015 6.33488 3
    endloop
  endfacet
  facet normal 0.707107 -0.707107 0
    outer loop
      vertex 2.53015 6.33488 0
      vertex 2.16512 5.96984 3
      vertex 2.16512 5.96984 0
    endloop
  endfacet
  facet normal -0.453989 -0.891007 0
    outer loop
      vertex 4.00988 6.56924 0
      vertex 4.46984 6.33488 3
      vertex 4.00988 6.56924 3
    endloop
  endfacet
  facet normal -0.453989 -0.891007 -0
    outer loop
      vertex 4.46984 6.33488 3
      vertex 4.00988 6.56924 0
      vertex 4.46984 6.33488 0
    endloop
  endfacet
  facet normal 0.891007 -0.453989 0
    outer loop
      vertex 1.93076 5.50988 3
      vertex 2.16512 5.96984 0
      vertex 2.16512 5.96984 3
    endloop
  endfacet
  facet normal 0.891007 -0.453989 0
    outer loop
      vertex 2.16512 5.96984 0
      vertex 1.93076 5.50988 3
      vertex 1.93076 5.50988 0
    endloop
  endfacet
  facet normal -0.891007 0.453989 0
    outer loop
      vertex 4.83488 4.03015 0
      vertex 5.06924 4.49012 3
      vertex 5.06924 4.49012 0
    endloop
  endfacet
  facet normal -0.891007 0.453989 0
    outer loop
      vertex 5.06924 4.49012 3
      vertex 4.83488 4.03015 0
      vertex 4.83488 4.03015 3
    endloop
  endfacet
  facet normal 0.707107 0.707107 0
    outer loop
      vertex 2.53015 3.66512 3
      vertex 2.16512 4.03015 0
      vertex 2.16512 4.03015 3
    endloop
  endfacet
  facet normal 0.707107 0.707107 0
    outer loop
      vertex 2.16512 4.03015 0
      vertex 2.53015 3.66512 3
      vertex 2.53015 3.66512 0
    endloop
  endfacet
  facet normal -0.453989 0.891007 0
    outer loop
      vertex 4.46984 3.66512 0
      vertex 4.00988 3.43076 3
      vertex 4.46984 3.66512 3
    endloop
  endfacet
  facet normal -0.453989 0.891007 0
    outer loop
      vertex 4.00988 3.43076 3
      vertex 4.46984 3.66512 0
      vertex 4.00988 3.43076 0
    endloop
  endfacet
  facet normal -0.707107 0.707107 0
    outer loop
      vertex 4.46984 3.66512 0
      vertex 4.83488 4.03015 3
      vertex 4.83488 4.03015 0
    endloop
  endfacet
  facet normal -0.707107 0.707107 0
    outer loop
      vertex 4.83488 4.03015 3
      vertex 4.46984 3.66512 0
      vertex 4.46984 3.66512 3
    endloop
  endfacet
  facet normal -0.987688 0.156435 0
    outer loop
      vertex 5.06924 4.49012 0
      vertex 5.15 5 3
      vertex 5.15 5 0
    endloop
  endfacet
  facet normal -0.987688 0.156435 0
    outer loop
      vertex 5.15 5 3
      vertex 5.06924 4.49012 0
      vertex 5.06924 4.49012 3
    endloop
  endfacet
  facet normal 0 0 -1
    outer loop
      vertex 6.24179 4.33573 7
      vertex 6.7 5 7
      vertex 6.26478 4.24618 7
    endloop
  endfacet
  facet normal 0 0 -1
    outer loop
      vertex 6.24179 5.66427 7
      vertex 6.7 5 7
      vertex 6.24179 4.33573 7
    endloop
  endfacet
  facet normal 0 0 -1
    outer loop
      vertex 6.7 5 7
      vertex 6.24179 5.66427 7
      vertex 6.26478 5.75382 7
    endloop
  endfacet
  facet normal -0.156435 0.987688 0
    outer loop
      vertex 4.00988 3.43076 0
      vertex 3.5 3.35 3
      vertex 4.00988 3.43076 3
    endloop
  endfacet
  facet normal -0.156435 0.987688 0
    outer loop
      vertex 3.5 3.35 3
      vertex 4.00988 3.43076 0
      vertex 3.5 3.35 0
    endloop
  endfacet
  facet normal 0.156435 0.987688 -0
    outer loop
      vertex 3.5 3.35 0
      vertex 2.99012 3.43076 3
      vertex 3.5 3.35 3
    endloop
  endfacet
  facet normal 0.156435 0.987688 0
    outer loop
      vertex 2.99012 3.43076 3
      vertex 3.5 3.35 0
      vertex 2.99012 3.43076 0
    endloop
  endfacet
  facet normal 0.453989 0.891007 -0
    outer loop
      vertex 2.99012 3.43076 0
      vertex 2.53015 3.66512 3
      vertex 2.99012 3.43076 3
    endloop
  endfacet
  facet normal 0.453989 0.891007 0
    outer loop
      vertex 2.53015 3.66512 3
      vertex 2.99012 3.43076 0
      vertex 2.53015 3.66512 0
    endloop
  endfacet
  facet normal -0 0 1
    outer loop
      vertex 4.83488 5.96984 3
      vertex 6.7 5 3
      vertex 5.1 7.77128 3
    endloop
  endfacet
  facet normal 0 0 1
    outer loop
      vertex 6.7 5 3
      vertex 5.06924 5.50988 3
      vertex 5.15 5 3
    endloop
  endfacet
  facet normal 0 0 1
    outer loop
      vertex 6.7 5 3
      vertex 4.83488 5.96984 3
      vertex 5.06924 5.50988 3
    endloop
  endfacet
  facet normal 0 0 1
    outer loop
      vertex 5.1 7.77128 3
      vertex 4.46984 6.33488 3
      vertex 4.83488 5.96984 3
    endloop
  endfacet
  facet normal 0 0 1
    outer loop
      vertex 5.1 7.77128 3
      vertex 4.00988 6.56924 3
      vertex 4.46984 6.33488 3
    endloop
  endfacet
  facet normal 0 0 1
    outer loop
      vertex 5.1 7.77128 3
      vertex 3.5 6.65 3
      vertex 4.00988 6.56924 3
    endloop
  endfacet
  facet normal -0 0 1
    outer loop
      vertex 1.9 7.77128 3
      vertex 3.5 6.65 3
      vertex 5.1 7.77128 3
    endloop
  endfacet
  facet normal 0 0 1
    outer loop
      vertex 3.5 6.65 3
      vertex 1.9 7.77128 3
      vertex 2.99012 6.56924 3
    endloop
  endfacet
  facet normal 0 0 1
    outer loop
      vertex 2.99012 6.56924 3
      vertex 1.9 7.77128 3
      vertex 2.53015 6.33488 3
    endloop
  endfacet
  facet normal 0 0 1
    outer loop
      vertex 1.9 7.77128 3
      vertex 2.16512 5.96984 3
      vertex 2.53015 6.33488 3
    endloop
  endfacet
  facet normal 0 0 1
    outer loop
      vertex 0.299999 5 3
      vertex 2.16512 5.96984 3
      vertex 1.9 7.77128 3
    endloop
  endfacet
  facet normal 0 0 1
    outer loop
      vertex 2.16512 5.96984 3
      vertex 0.299999 5 3
      vertex 1.93076 5.50988 3
    endloop
  endfacet
  facet normal 0 0 1
    outer loop
      vertex 1.93076 5.50988 3
      vertex 0.299999 5 3
      vertex 1.85 5 3
    endloop
  endfacet
  facet normal 0 0 1
    outer loop
      vertex 5.06924 4.49012 3
      vertex 6.7 5 3
      vertex 5.15 5 3
    endloop
  endfacet
  facet normal 0 0 1
    outer loop
      vertex 4.83488 4.03015 3
      vertex 6.7 5 3
      vertex 5.06924 4.49012 3
    endloop
  endfacet
  facet normal 0 0 1
    outer loop
      vertex 6.7 5 3
      vertex 4.83488 4.03015 3
      vertex 5.1 2.22872 3
    endloop
  endfacet
  facet normal -0 0 1
    outer loop
      vertex 4.46984 3.66512 3
      vertex 5.1 2.22872 3
      vertex 4.83488 4.03015 3
    endloop
  endfacet
  facet normal -0 0 1
    outer loop
      vertex 4.00988 3.43076 3
      vertex 5.1 2.22872 3
      vertex 4.46984 3.66512 3
    endloop
  endfacet
  facet normal -0 0 1
    outer loop
      vertex 3.5 3.35 3
      vertex 5.1 2.22872 3
      vertex 4.00988 3.43076 3
    endloop
  endfacet
  facet normal 0 0 1
    outer loop
      vertex 1.9 2.22872 3
      vertex 3.5 3.35 3
      vertex 2.99012 3.43076 3
    endloop
  endfacet
  facet normal 0 0 1
    outer loop
      vertex 1.9 2.22872 3
      vertex 2.99012 3.43076 3
      vertex 2.53015 3.66512 3
    endloop
  endfacet
  facet normal 0 0 1
    outer loop
      vertex 3.5 3.35 3
      vertex 1.9 2.22872 3
      vertex 5.1 2.22872 3
    endloop
  endfacet
  facet normal 0 0 1
    outer loop
      vertex 2.16512 4.03015 3
      vertex 1.9 2.22872 3
      vertex 2.53015 3.66512 3
    endloop
  endfacet
  facet normal 0 0 1
    outer loop
      vertex 0.299999 5 3
      vertex 2.16512 4.03015 3
      vertex 1.93076 4.49012 3
    endloop
  endfacet
  facet normal -0 0 1
    outer loop
      vertex 0.299999 5 3
      vertex 1.93076 4.49012 3
      vertex 1.85 5 3
    endloop
  endfacet
  facet normal 0 0 1
    outer loop
      vertex 2.16512 4.03015 3
      vertex 0.299999 5 3
      vertex 1.9 2.22872 3
    endloop
  endfacet
  facet normal -0.866025 -0.5 0
    outer loop
      vertex 5.1 7.77128 3
      vertex 6.26478 5.75382 6
      vertex 5.1 7.77128 6
    endloop
  endfacet
  facet normal -0.866025 -0.5 9.26278e-09
    outer loop
      vertex 6.7 5 3
      vertex 6.26478 5.75382 6
      vertex 5.1 7.77128 3
    endloop
  endfacet
  facet normal -0.866025 -0.5 -0
    outer loop
      vertex 6.7 5 7
      vertex 6.26478 5.75382 6
      vertex 6.7 5 3
    endloop
  endfacet
  facet normal -0.866025 -0.5 0
    outer loop
      vertex 6.26478 5.75382 6
      vertex 6.7 5 7
      vertex 6.26478 5.75382 7
    endloop
  endfacet
  facet normal 0.866025 -0.5 0
    outer loop
      vertex 0.299999 5 6
      vertex 1.9 7.77128 3
      vertex 1.9 7.77128 6
    endloop
  endfacet
  facet normal 0.866025 -0.5 0
    outer loop
      vertex 1.9 7.77128 3
      vertex 0.299999 5 6
      vertex 0.299999 5 3
    endloop
  endfacet
  facet normal 0 -1 0
    outer loop
      vertex 1.9 7.77128 3
      vertex 5.1 7.77128 6
      vertex 1.9 7.77128 6
    endloop
  endfacet
  facet normal 0 -1 -0
    outer loop
      vertex 5.1 7.77128 6
      vertex 1.9 7.77128 3
      vertex 5.1 7.77128 3
    endloop
  endfacet
  facet normal 0.866025 0.5 0
    outer loop
      vertex 1.9 2.22872 6
      vertex 0.299999 5 3
      vertex 0.299999 5 6
    endloop
  endfacet
  facet normal 0.866025 0.5 0
    outer loop
      vertex 0.299999 5 3
      vertex 1.9 2.22872 6
      vertex 1.9 2.22872 3
    endloop
  endfacet
  facet normal -0.866025 0.5 0
    outer loop
      vertex 6.7 5 3
      vertex 6.26478 4.24618 6
      vertex 6.7 5 7
    endloop
  endfacet
  facet normal -0.866025 0.5 -9.21502e-08
    outer loop
      vertex 5.1 2.22872 3
      vertex 6.26478 4.24618 6
      vertex 6.7 5 3
    endloop
  endfacet
  facet normal -0.866025 0.5 0
    outer loop
      vertex 6.26478 4.24618 6
      vertex 5.1 2.22872 3
      vertex 5.1 2.22872 6
    endloop
  endfacet
  facet normal -0.866025 0.5 0
    outer loop
      vertex 6.7 5 7
      vertex 6.26478 4.24618 6
      vertex 6.26478 4.24618 7
    endloop
  endfacet
  facet normal 0 1 -0
    outer loop
      vertex 5.1 2.22872 3
      vertex 1.9 2.22872 6
      vertex 5.1 2.22872 6
    endloop
  endfacet
  facet normal 0 1 0
    outer loop
      vertex 1.9 2.22872 6
      vertex 5.1 2.22872 3
      vertex 1.9 2.22872 3
    endloop
  endfacet
  facet normal -0.987688 -0.156435 0
    outer loop
      vertex 21.15 5 0
      vertex 21.0692 5.50988 3
      vertex 21.0692 5.50988 0
    endloop
  endfacet
  facet normal -0.987688 -0.156435 0
    outer loop
      vertex 21.0692 5.50988 3
      vertex 21.15 5 0
      vertex 21.15 5 3
    endloop
  endfacet
  facet normal 0.156435 -0.987688 0
    outer loop
      vertex 18.9901 6.56924 0
      vertex 19.5 6.65 3
      vertex 18.9901 6.56924 3
    endloop
  endfacet
  facet normal 0.156435 -0.987688 0
    outer loop
      vertex 19.5 6.65 3
      vertex 18.9901 6.56924 0
      vertex 19.5 6.65 0
    endloop
  endfacet
  facet normal -0.156436 0.987688 0
    outer loop
      vertex 20.0099 3.43076 0
      vertex 19.5 3.35 3
      vertex 20.0099 3.43076 3
    endloop
  endfacet
  facet normal -0.156436 0.987688 0
    outer loop
      vertex 19.5 3.35 3
      vertex 20.0099 3.43076 0
      vertex 19.5 3.35 0
    endloop
  endfacet
  facet normal -0.453989 0.891007 0
    outer loop
      vertex 20.4698 3.66512 0
      vertex 20.0099 3.43076 3
      vertex 20.4698 3.66512 3
    endloop
  endfacet
  facet normal -0.453989 0.891007 0
    outer loop
      vertex 20.0099 3.43076 3
      vertex 20.4698 3.66512 0
      vertex 20.0099 3.43076 0
    endloop
  endfacet
  facet normal -0.707108 -0.707106 0
    outer loop
      vertex 20.8349 5.96984 0
      vertex 20.4698 6.33488 3
      vertex 20.4698 6.33488 0
    endloop
  endfacet
  facet normal -0.707108 -0.707106 0
    outer loop
      vertex 20.4698 6.33488 3
      vertex 20.8349 5.96984 0
      vertex 20.8349 5.96984 3
    endloop
  endfacet
  facet normal -0.891006 -0.453991 0
    outer loop
      vertex 21.0692 5.50988 0
      vertex 20.8349 5.96984 3
      vertex 20.8349 5.96984 0
    endloop
  endfacet
  facet normal -0.891006 -0.453991 0
    outer loop
      vertex 20.8349 5.96984 3
      vertex 21.0692 5.50988 0
      vertex 21.0692 5.50988 3
    endloop
  endfacet
  facet normal 0.707106 -0.707108 0
    outer loop
      vertex 18.1651 5.96984 0
      vertex 18.5302 6.33488 3
      vertex 18.1651 5.96984 3
    endloop
  endfacet
  facet normal 0.707106 -0.707108 0
    outer loop
      vertex 18.5302 6.33488 3
      vertex 18.1651 5.96984 0
      vertex 18.5302 6.33488 0
    endloop
  endfacet
  facet normal 0 0 -1
    outer loop
      vertex 16.3 5 7
      vertex 16.8 5 7
      vertex 16.7102 4.28945 7
    endloop
  endfacet
  facet normal 0 0 -1
    outer loop
      vertex 16.8 5 7
      vertex 16.3 5 7
      vertex 16.7102 5.71055 7
    endloop
  endfacet
  facet normal 0.45399 -0.891007 0
    outer loop
      vertex 18.5302 6.33488 0
      vertex 18.9901 6.56924 3
      vertex 18.5302 6.33488 3
    endloop
  endfacet
  facet normal 0.45399 -0.891007 0
    outer loop
      vertex 18.9901 6.56924 3
      vertex 18.5302 6.33488 0
      vertex 18.9901 6.56924 0
    endloop
  endfacet
  facet normal -0.156436 -0.987688 0
    outer loop
      vertex 19.5 6.65 0
      vertex 20.0099 6.56924 3
      vertex 19.5 6.65 3
    endloop
  endfacet
  facet normal -0.156436 -0.987688 -0
    outer loop
      vertex 20.0099 6.56924 3
      vertex 19.5 6.65 0
      vertex 20.0099 6.56924 0
    endloop
  endfacet
  facet normal -0.453989 -0.891007 0
    outer loop
      vertex 20.0099 6.56924 0
      vertex 20.4698 6.33488 3
      vertex 20.0099 6.56924 3
    endloop
  endfacet
  facet normal -0.453989 -0.891007 -0
    outer loop
      vertex 20.4698 6.33488 3
      vertex 20.0099 6.56924 0
      vertex 20.4698 6.33488 0
    endloop
  endfacet
  facet normal 0.891006 -0.453991 0
    outer loop
      vertex 17.9308 5.50988 3
      vertex 18.1651 5.96984 0
      vertex 18.1651 5.96984 3
    endloop
  endfacet
  facet normal 0.891006 -0.453991 0
    outer loop
      vertex 18.1651 5.96984 0
      vertex 17.9308 5.50988 3
      vertex 17.9308 5.50988 0
    endloop
  endfacet
  facet normal 0.987688 -0.156435 0
    outer loop
      vertex 17.85 5 3
      vertex 17.9308 5.50988 0
      vertex 17.9308 5.50988 3
    endloop
  endfacet
  facet normal 0.987688 -0.156435 0
    outer loop
      vertex 17.9308 5.50988 0
      vertex 17.85 5 3
      vertex 17.85 5 0
    endloop
  endfacet
  facet normal 0.987688 0.156435 0
    outer loop
      vertex 17.9308 4.49012 3
      vertex 17.85 5 0
      vertex 17.85 5 3
    endloop
  endfacet
  facet normal 0.987688 0.156435 0
    outer loop
      vertex 17.85 5 0
      vertex 17.9308 4.49012 3
      vertex 17.9308 4.49012 0
    endloop
  endfacet
  facet normal -0.987688 0.156435 0
    outer loop
      vertex 21.0692 4.49012 0
      vertex 21.15 5 3
      vertex 21.15 5 0
    endloop
  endfacet
  facet normal -0.987688 0.156435 0
    outer loop
      vertex 21.15 5 3
      vertex 21.0692 4.49012 0
      vertex 21.0692 4.49012 3
    endloop
  endfacet
  facet normal -0.707108 0.707106 0
    outer loop
      vertex 20.4698 3.66512 0
      vertex 20.8349 4.03015 3
      vertex 20.8349 4.03015 0
    endloop
  endfacet
  facet normal -0.707108 0.707106 0
    outer loop
      vertex 20.8349 4.03015 3
      vertex 20.4698 3.66512 0
      vertex 20.4698 3.66512 3
    endloop
  endfacet
  facet normal -0.891006 0.453991 0
    outer loop
      vertex 20.8349 4.03015 0
      vertex 21.0692 4.49012 3
      vertex 21.0692 4.49012 0
    endloop
  endfacet
  facet normal -0.891006 0.453991 0
    outer loop
      vertex 21.0692 4.49012 3
      vertex 20.8349 4.03015 0
      vertex 20.8349 4.03015 3
    endloop
  endfacet
  facet normal 0.707106 0.707108 -0
    outer loop
      vertex 18.5302 3.66512 0
      vertex 18.1651 4.03015 3
      vertex 18.5302 3.66512 3
    endloop
  endfacet
  facet normal 0.707106 0.707108 0
    outer loop
      vertex 18.1651 4.03015 3
      vertex 18.5302 3.66512 0
      vertex 18.1651 4.03015 0
    endloop
  endfacet
  facet normal 0.891006 0.453991 0
    outer loop
      vertex 18.1651 4.03015 3
      vertex 17.9308 4.49012 0
      vertex 17.9308 4.49012 3
    endloop
  endfacet
  facet normal 0.891006 0.453991 0
    outer loop
      vertex 17.9308 4.49012 0
      vertex 18.1651 4.03015 3
      vertex 18.1651 4.03015 0
    endloop
  endfacet
  facet normal 0.156435 0.987688 -0
    outer loop
      vertex 19.5 3.35 0
      vertex 18.9901 3.43076 3
      vertex 19.5 3.35 3
    endloop
  endfacet
  facet normal 0.156435 0.987688 0
    outer loop
      vertex 18.9901 3.43076 3
      vertex 19.5 3.35 0
      vertex 18.9901 3.43076 0
    endloop
  endfacet
  facet normal 0.45399 0.891007 -0
    outer loop
      vertex 18.9901 3.43076 0
      vertex 18.5302 3.66512 3
      vertex 18.9901 3.43076 3
    endloop
  endfacet
  facet normal 0.45399 0.891007 0
    outer loop
      vertex 18.5302 3.66512 3
      vertex 18.9901 3.43076 0
      vertex 18.5302 3.66512 0
    endloop
  endfacet
  facet normal -0 0 1
    outer loop
      vertex 20.8349 5.96984 3
      vertex 22.7 5 3
      vertex 21.1 7.77128 3
    endloop
  endfacet
  facet normal 0 0 1
    outer loop
      vertex 22.7 5 3
      vertex 21.0692 5.50988 3
      vertex 21.15 5 3
    endloop
  endfacet
  facet normal 0 0 1
    outer loop
      vertex 22.7 5 3
      vertex 20.8349 5.96984 3
      vertex 21.0692 5.50988 3
    endloop
  endfacet
  facet normal 0 0 1
    outer loop
      vertex 21.1 7.77128 3
      vertex 20.4698 6.33488 3
      vertex 20.8349 5.96984 3
    endloop
  endfacet
  facet normal 0 0 1
    outer loop
      vertex 21.1 7.77128 3
      vertex 20.0099 6.56924 3
      vertex 20.4698 6.33488 3
    endloop
  endfacet
  facet normal 0 0 1
    outer loop
      vertex 21.1 7.77128 3
      vertex 19.5 6.65 3
      vertex 20.0099 6.56924 3
    endloop
  endfacet
  facet normal -0 0 1
    outer loop
      vertex 17.9 7.77128 3
      vertex 19.5 6.65 3
      vertex 21.1 7.77128 3
    endloop
  endfacet
  facet normal 0 0 1
    outer loop
      vertex 19.5 6.65 3
      vertex 17.9 7.77128 3
      vertex 18.9901 6.56924 3
    endloop
  endfacet
  facet normal 0 0 1
    outer loop
      vertex 18.9901 6.56924 3
      vertex 17.9 7.77128 3
      vertex 18.5302 6.33488 3
    endloop
  endfacet
  facet normal 0 0 1
    outer loop
      vertex 17.9 7.77128 3
      vertex 18.1651 5.96984 3
      vertex 18.5302 6.33488 3
    endloop
  endfacet
  facet normal 0 0 1
    outer loop
      vertex 16.3 5 3
      vertex 18.1651 5.96984 3
      vertex 17.9 7.77128 3
    endloop
  endfacet
  facet normal 0 0 1
    outer loop
      vertex 18.1651 5.96984 3
      vertex 16.3 5 3
      vertex 17.9308 5.50988 3
    endloop
  endfacet
  facet normal 0 0 1
    outer loop
      vertex 17.9308 5.50988 3
      vertex 16.3 5 3
      vertex 17.85 5 3
    endloop
  endfacet
  facet normal 0 0 1
    outer loop
      vertex 21.0692 4.49012 3
      vertex 22.7 5 3
      vertex 21.15 5 3
    endloop
  endfacet
  facet normal 0 0 1
    outer loop
      vertex 20.8349 4.03015 3
      vertex 22.7 5 3
      vertex 21.0692 4.49012 3
    endloop
  endfacet
  facet normal 0 0 1
    outer loop
      vertex 22.7 5 3
      vertex 20.8349 4.03015 3
      vertex 21.1 2.22872 3
    endloop
  endfacet
  facet normal -0 0 1
    outer loop
      vertex 20.4698 3.66512 3
      vertex 21.1 2.22872 3
      vertex 20.8349 4.03015 3
    endloop
  endfacet
  facet normal -0 0 1
    outer loop
      vertex 20.0099 3.43076 3
      vertex 21.1 2.22872 3
      vertex 20.4698 3.66512 3
    endloop
  endfacet
  facet normal -0 0 1
    outer loop
      vertex 19.5 3.35 3
      vertex 21.1 2.22872 3
      vertex 20.0099 3.43076 3
    endloop
  endfacet
  facet normal 0 0 1
    outer loop
      vertex 17.9 2.22872 3
      vertex 19.5 3.35 3
      vertex 18.9901 3.43076 3
    endloop
  endfacet
  facet normal 0 0 1
    outer loop
      vertex 17.9 2.22872 3
      vertex 18.9901 3.43076 3
      vertex 18.5302 3.66512 3
    endloop
  endfacet
  facet normal 0 0 1
    outer loop
      vertex 19.5 3.35 3
      vertex 17.9 2.22872 3
      vertex 21.1 2.22872 3
    endloop
  endfacet
  facet normal 0 0 1
    outer loop
      vertex 18.1651 4.03015 3
      vertex 17.9 2.22872 3
      vertex 18.5302 3.66512 3
    endloop
  endfacet
  facet normal 0 0 1
    outer loop
      vertex 16.3 5 3
      vertex 18.1651 4.03015 3
      vertex 17.9308 4.49012 3
    endloop
  endfacet
  facet normal -0 0 1
    outer loop
      vertex 16.3 5 3
      vertex 17.9308 4.49012 3
      vertex 17.85 5 3
    endloop
  endfacet
  facet normal 0 0 1
    outer loop
      vertex 18.1651 4.03015 3
      vertex 16.3 5 3
      vertex 17.9 2.22872 3
    endloop
  endfacet
  facet normal -0.866025 -0.500001 0
    outer loop
      vertex 22.7 5 3
      vertex 21.1 7.77128 6
      vertex 21.1 7.77128 3
    endloop
  endfacet
  facet normal -0.866025 -0.500001 0
    outer loop
      vertex 21.1 7.77128 6
      vertex 22.7 5 3
      vertex 22.7 5 6
    endloop
  endfacet
  facet normal 0 1 -0
    outer loop
      vertex 21.1 2.22872 3
      vertex 17.9 2.22872 6
      vertex 21.1 2.22872 6
    endloop
  endfacet
  facet normal 0 1 0
    outer loop
      vertex 17.9 2.22872 6
      vertex 21.1 2.22872 3
      vertex 17.9 2.22872 3
    endloop
  endfacet
  facet normal 0.866026 -0.5 0
    outer loop
      vertex 16.7102 5.71055 7
      vertex 16.3 5 7
      vertex 16.7102 5.71055 6
    endloop
  endfacet
  facet normal 0.866025 -0.5 0
    outer loop
      vertex 16.7102 5.71055 6
      vertex 17.9 7.77128 3
      vertex 17.9 7.77128 6
    endloop
  endfacet
  facet normal 0.866026 -0.5 0
    outer loop
      vertex 16.3 5 3
      vertex 16.7102 5.71055 6
      vertex 16.3 5 7
    endloop
  endfacet
  facet normal 0.866025 -0.5 1.25158e-07
    outer loop
      vertex 16.7102 5.71055 6
      vertex 16.3 5 3
      vertex 17.9 7.77128 3
    endloop
  endfacet
  facet normal 0 -1 0
    outer loop
      vertex 17.9 7.77128 3
      vertex 21.1 7.77128 6
      vertex 17.9 7.77128 6
    endloop
  endfacet
  facet normal 0 -1 -0
    outer loop
      vertex 21.1 7.77128 6
      vertex 17.9 7.77128 3
      vertex 21.1 7.77128 3
    endloop
  endfacet
  facet normal 0.866026 0.499999 -0
    outer loop
      vertex 16.7102 4.28945 6
      vertex 16.3 5 7
      vertex 16.7102 4.28945 7
    endloop
  endfacet
  facet normal 0.866026 0.499999 0
    outer loop
      vertex 16.3 5 7
      vertex 16.7102 4.28945 6
      vertex 16.3 5 3
    endloop
  endfacet
  facet normal 0.866025 0.5 -0
    outer loop
      vertex 17.9 2.22872 3
      vertex 16.7102 4.28945 6
      vertex 17.9 2.22872 6
    endloop
  endfacet
  facet normal 0.866025 0.5 1.63877e-07
    outer loop
      vertex 16.7102 4.28945 6
      vertex 17.9 2.22872 3
      vertex 16.3 5 3
    endloop
  endfacet
  facet normal -0.866025 0.5 0
    outer loop
      vertex 21.1 2.22872 3
      vertex 22.7 5 6
      vertex 22.7 5 3
    endloop
  endfacet
  facet normal -0.866025 0.5 0
    outer loop
      vertex 22.7 5 6
      vertex 21.1 2.22872 3
      vertex 21.1 2.22872 6
    endloop
  endfacet
  facet normal 0.987688 0.156435 0
    outer loop
      vertex 23.6 5 6
      vertex 23.3993 6.26697 0
      vertex 23.3993 6.26697 6
    endloop
  endfacet
  facet normal 0.987688 0.156435 0
    outer loop
      vertex 23.3993 6.26697 0
      vertex 23.6 5 6
      vertex 23.6 5 0
    endloop
  endfacet
  facet normal 0 1 -0
    outer loop
      vertex 8.14731 9.1 0
      vertex 3.5 9.1 6
      vertex 8.14731 9.1 6
    endloop
  endfacet
  facet normal 0 1 0
    outer loop
      vertex 3.5 9.1 6
      vertex 8.14731 9.1 0
      vertex 3.5 9.1 0
    endloop
  endfacet
  facet normal 0 1 -0
    outer loop
      vertex 19.5 9.1 0
      vertex 14.7931 9.1 6
      vertex 19.5 9.1 6
    endloop
  endfacet
  facet normal 0 1 0
    outer loop
      vertex 14.7931 9.1 6
      vertex 19.5 9.1 0
      vertex 14.7931 9.1 0
    endloop
  endfacet
  facet normal -0.156435 -0.987688 0
    outer loop
      vertex 2.23303 1.10067 0
      vertex 3.5 0.9 6
      vertex 2.23303 1.10067 6
    endloop
  endfacet
  facet normal -0.156435 -0.987688 -0
    outer loop
      vertex 3.5 0.9 6
      vertex 2.23303 1.10067 0
      vertex 3.5 0.9 0
    endloop
  endfacet
  facet normal 0.156435 0.987688 -0
    outer loop
      vertex 20.767 8.89933 0
      vertex 19.5 9.1 6
      vertex 20.767 8.89933 6
    endloop
  endfacet
  facet normal 0.156435 0.987688 0
    outer loop
      vertex 19.5 9.1 6
      vertex 20.767 8.89933 0
      vertex 19.5 9.1 0
    endloop
  endfacet
  facet normal -0.707107 0.707107 0
    outer loop
      vertex 0.18303 7.40992 0
      vertex 1.09008 8.31697 6
      vertex 1.09008 8.31697 0
    endloop
  endfacet
  facet normal -0.707107 0.707107 0
    outer loop
      vertex 1.09008 8.31697 6
      vertex 0.18303 7.40992 0
      vertex 0.18303 7.40992 6
    endloop
  endfacet
  facet normal 0 0 -1
    outer loop
      vertex 21.15 5 0
      vertex 23.6 5 0
      vertex 23.3993 3.73303 0
    endloop
  endfacet
  facet normal 0 0 -1
    outer loop
      vertex 21.0692 4.49012 0
      vertex 23.3993 3.73303 0
      vertex 22.817 2.59008 0
    endloop
  endfacet
  facet normal 0 0 -1
    outer loop
      vertex 23.6 5 0
      vertex 21.15 5 0
      vertex 23.3993 6.26697 0
    endloop
  endfacet
  facet normal 0 0 -1
    outer loop
      vertex 20.8349 4.03015 0
      vertex 22.817 2.59008 0
      vertex 21.9099 1.68303 0
    endloop
  endfacet
  facet normal 0 0 -1
    outer loop
      vertex 21.0692 5.50988 0
      vertex 23.3993 6.26697 0
      vertex 21.15 5 0
    endloop
  endfacet
  facet normal -0 0 -1
    outer loop
      vertex 23.3993 6.26697 0
      vertex 21.0692 5.50988 0
      vertex 22.817 7.40992 0
    endloop
  endfacet
  facet normal 0 0 -1
    outer loop
      vertex 23.3993 3.73303 0
      vertex 21.0692 4.49012 0
      vertex 21.15 5 0
    endloop
  endfacet
  facet normal 0 0 -1
    outer loop
      vertex 22.817 2.59008 0
      vertex 20.8349 4.03015 0
      vertex 21.0692 4.49012 0
    endloop
  endfacet
  facet normal 0 0 -1
    outer loop
      vertex 20.4698 3.66512 0
      vertex 21.9099 1.68303 0
      vertex 20.767 1.10067 0
    endloop
  endfacet
  facet normal 0 0 -1
    outer loop
      vertex 21.9099 1.68303 0
      vertex 20.4698 3.66512 0
      vertex 20.8349 4.03015 0
    endloop
  endfacet
  facet normal 0 0 -1
    outer loop
      vertex 20.767 1.10067 0
      vertex 20.0099 3.43076 0
      vertex 20.4698 3.66512 0
    endloop
  endfacet
  facet normal 0 0 -1
    outer loop
      vertex 19.5 0.9 0
      vertex 20.0099 3.43076 0
      vertex 20.767 1.10067 0
    endloop
  endfacet
  facet normal 0 0 -1
    outer loop
      vertex 19.5 0.9 0
      vertex 19.5 3.35 0
      vertex 20.0099 3.43076 0
    endloop
  endfacet
  facet normal 0 0 -1
    outer loop
      vertex 19.5 0.9 0
      vertex 18.9901 3.43076 0
      vertex 19.5 3.35 0
    endloop
  endfacet
  facet normal 0 0 -1
    outer loop
      vertex 19.5 0.9 0
      vertex 18.5302 3.66512 0
      vertex 18.9901 3.43076 0
    endloop
  endfacet
  facet normal 0 0 -1
    outer loop
      vertex 14.7931 0.9 0
      vertex 18.5302 3.66512 0
      vertex 19.5 0.9 0
    endloop
  endfacet
  facet normal -0 0 -1
    outer loop
      vertex 18.5302 3.66512 0
      vertex 14.7931 0.9 0
      vertex 18.1651 4.03015 0
    endloop
  endfacet
  facet normal 0 0 -1
    outer loop
      vertex 17.9308 4.49012 0
      vertex 15.8 5 0
      vertex 17.85 5 0
    endloop
  endfacet
  facet normal 0 -0 -1
    outer loop
      vertex 15.8 5 0
      vertex 18.1651 4.03015 0
      vertex 14.7931 0.9 0
    endloop
  endfacet
  facet normal 0 0 -1
    outer loop
      vertex 18.1651 4.03015 0
      vertex 15.8 5 0
      vertex 17.9308 4.49012 0
    endloop
  endfacet
  facet normal 0 0 -1
    outer loop
      vertex 13.65 1.27609 0
      vertex 14.7931 0.9 0
      vertex 14.3399 0.525062 0
    endloop
  endfacet
  facet normal 0 0 -1
    outer loop
      vertex 14.7931 0.9 0
      vertex 13.65 1.27609 0
      vertex 15.8 5 0
    endloop
  endfacet
  facet normal 0 0 -1
    outer loop
      vertex 13.1378 -0.0405989 0
      vertex 13.65 1.27609 0
      vertex 14.3399 0.525062 0
    endloop
  endfacet
  facet normal 0 0 -1
    outer loop
      vertex 11.8328 -0.289541 0
      vertex 13.65 1.27609 0
      vertex 13.1378 -0.0405989 0
    endloop
  endfacet
  facet normal 0 0 -1
    outer loop
      vertex 9.35 1.27609 0
      vertex 11.8328 -0.289541 0
      vertex 10.5069 -0.206122 0
    endloop
  endfacet
  facet normal 0 0 -1
    outer loop
      vertex 11.8328 -0.289541 0
      vertex 9.35 1.27609 0
      vertex 13.65 1.27609 0
    endloop
  endfacet
  facet normal 0 0 -1
    outer loop
      vertex 9.24337 0.204416 0
      vertex 9.35 1.27609 0
      vertex 10.5069 -0.206122 0
    endloop
  endfacet
  facet normal 0 0 -1
    outer loop
      vertex 8.14731 0.9 0
      vertex 9.35 1.27609 0
      vertex 9.24337 0.204416 0
    endloop
  endfacet
  facet normal 0 0 -1
    outer loop
      vertex 8.14731 0.9 0
      vertex 7.2 5 0
      vertex 9.35 1.27609 0
    endloop
  endfacet
  facet normal 0 0 -1
    outer loop
      vertex 4.83488 4.03015 0
      vertex 7.2 5 0
      vertex 8.14731 0.9 0
    endloop
  endfacet
  facet normal -0 0 -1
    outer loop
      vertex 7.2 5 0
      vertex 5.06924 4.49012 0
      vertex 5.15 5 0
    endloop
  endfacet
  facet normal 0 0 -1
    outer loop
      vertex 7.2 5 0
      vertex 4.83488 4.03015 0
      vertex 5.06924 4.49012 0
    endloop
  endfacet
  facet normal 0 0 -1
    outer loop
      vertex 8.14731 0.9 0
      vertex 4.46984 3.66512 0
      vertex 4.83488 4.03015 0
    endloop
  endfacet
  facet normal 0 0 -1
    outer loop
      vertex 3.5 0.9 0
      vertex 4.46984 3.66512 0
      vertex 8.14731 0.9 0
    endloop
  endfacet
  facet normal 0 0 -1
    outer loop
      vertex 4.46984 3.66512 0
      vertex 3.5 0.9 0
      vertex 4.00988 3.43076 0
    endloop
  endfacet
  facet normal 0 0 -1
    outer loop
      vertex 3.5 0.9 0
      vertex 3.5 3.35 0
      vertex 4.00988 3.43076 0
    endloop
  endfacet
  facet normal 0 0 -1
    outer loop
      vertex 3.5 0.9 0
      vertex 2.99012 3.43076 0
      vertex 3.5 3.35 0
    endloop
  endfacet
  facet normal 0 0 -1
    outer loop
      vertex 2.23303 1.10067 0
      vertex 2.99012 3.43076 0
      vertex 3.5 0.9 0
    endloop
  endfacet
  facet normal -0 0 -1
    outer loop
      vertex 2.99012 3.43076 0
      vertex 2.23303 1.10067 0
      vertex 2.53015 3.66512 0
    endloop
  endfacet
  facet normal 0 0 -1
    outer loop
      vertex 1.09008 1.68303 0
      vertex 2.53015 3.66512 0
      vertex 2.23303 1.10067 0
    endloop
  endfacet
  facet normal -0 0 -1
    outer loop
      vertex 2.53015 3.66512 0
      vertex 1.09008 1.68303 0
      vertex 2.16512 4.03015 0
    endloop
  endfacet
  facet normal 0 0 -1
    outer loop
      vertex 0.18303 2.59008 0
      vertex 2.16512 4.03015 0
      vertex 1.09008 1.68303 0
    endloop
  endfacet
  facet normal -0 0 -1
    outer loop
      vertex 2.16512 4.03015 0
      vertex 0.18303 2.59008 0
      vertex 1.93076 4.49012 0
    endloop
  endfacet
  facet normal 0 0 -1
    outer loop
      vertex 20.8349 5.96984 0
      vertex 22.817 7.40992 0
      vertex 21.0692 5.50988 0
    endloop
  endfacet
  facet normal -0 0 -1
    outer loop
      vertex 22.817 7.40992 0
      vertex 20.8349 5.96984 0
      vertex 21.9099 8.31697 0
    endloop
  endfacet
  facet normal 0 0 -1
    outer loop
      vertex 20.4698 6.33488 0
      vertex 21.9099 8.31697 0
      vertex 20.8349 5.96984 0
    endloop
  endfacet
  facet normal -0 0 -1
    outer loop
      vertex 21.9099 8.31697 0
      vertex 20.4698 6.33488 0
      vertex 20.767 8.89933 0
    endloop
  endfacet
  facet normal 0 0 -1
    outer loop
      vertex 20.0099 6.56924 0
      vertex 20.767 8.89933 0
      vertex 20.4698 6.33488 0
    endloop
  endfacet
  facet normal 0 0 -1
    outer loop
      vertex 19.5 6.65 0
      vertex 20.767 8.89933 0
      vertex 20.0099 6.56924 0
    endloop
  endfacet
  facet normal 0 0 -1
    outer loop
      vertex 19.5 6.65 0
      vertex 19.5 9.1 0
      vertex 20.767 8.89933 0
    endloop
  endfacet
  facet normal 0 0 -1
    outer loop
      vertex 18.9901 6.56924 0
      vertex 19.5 9.1 0
      vertex 19.5 6.65 0
    endloop
  endfacet
  facet normal 0 0 -1
    outer loop
      vertex 18.5302 6.33488 0
      vertex 19.5 9.1 0
      vertex 18.9901 6.56924 0
    endloop
  endfacet
  facet normal 0 0 -1
    outer loop
      vertex 14.7931 9.1 0
      vertex 18.5302 6.33488 0
      vertex 18.1651 5.96984 0
    endloop
  endfacet
  facet normal 0 0 -1
    outer loop
      vertex 15.8 5 0
      vertex 18.1651 5.96984 0
      vertex 17.9308 5.50988 0
    endloop
  endfacet
  facet normal 0 0 -1
    outer loop
      vertex 15.8 5 0
      vertex 17.9308 5.50988 0
      vertex 17.85 5 0
    endloop
  endfacet
  facet normal -0 0 -1
    outer loop
      vertex 18.1651 5.96984 0
      vertex 15.8 5 0
      vertex 14.7931 9.1 0
    endloop
  endfacet
  facet normal 0 0 -1
    outer loop
      vertex 18.5302 6.33488 0
      vertex 14.7931 9.1 0
      vertex 19.5 9.1 0
    endloop
  endfacet
  facet normal 0 0 -1
    outer loop
      vertex 13.65 8.72391 0
      vertex 14.7931 9.1 0
      vertex 15.8 5 0
    endloop
  endfacet
  facet normal -0 0 -1
    outer loop
      vertex 14.7931 9.1 0
      vertex 13.65 8.72391 0
      vertex 14.3399 9.47494 0
    endloop
  endfacet
  facet normal 0 0 -1
    outer loop
      vertex 13.65 8.72391 0
      vertex 13.1378 10.0406 0
      vertex 14.3399 9.47494 0
    endloop
  endfacet
  facet normal 0 0 -1
    outer loop
      vertex 13.65 8.72391 0
      vertex 11.8328 10.2895 0
      vertex 13.1378 10.0406 0
    endloop
  endfacet
  facet normal 0 0 -1
    outer loop
      vertex 9.35 8.72391 0
      vertex 11.8328 10.2895 0
      vertex 13.65 8.72391 0
    endloop
  endfacet
  facet normal 0 0 -1
    outer loop
      vertex 11.8328 10.2895 0
      vertex 9.35 8.72391 0
      vertex 10.5069 10.2061 0
    endloop
  endfacet
  facet normal 0 0 -1
    outer loop
      vertex 9.35 8.72391 0
      vertex 9.24337 9.79558 0
      vertex 10.5069 10.2061 0
    endloop
  endfacet
  facet normal 0 0 -1
    outer loop
      vertex 9.35 8.72391 0
      vertex 8.14731 9.1 0
      vertex 9.24337 9.79558 0
    endloop
  endfacet
  facet normal 0 0 -1
    outer loop
      vertex 7.2 5 0
      vertex 8.14731 9.1 0
      vertex 9.35 8.72391 0
    endloop
  endfacet
  facet normal 0 0 -1
    outer loop
      vertex 5.06924 5.50988 0
      vertex 7.2 5 0
      vertex 5.15 5 0
    endloop
  endfacet
  facet normal 0 0 -1
    outer loop
      vertex 4.83488 5.96984 0
      vertex 7.2 5 0
      vertex 5.06924 5.50988 0
    endloop
  endfacet
  facet normal 0 0 -1
    outer loop
      vertex 7.2 5 0
      vertex 4.83488 5.96984 0
      vertex 8.14731 9.1 0
    endloop
  endfacet
  facet normal 0 0 -1
    outer loop
      vertex 4.46984 6.33488 0
      vertex 8.14731 9.1 0
      vertex 4.83488 5.96984 0
    endloop
  endfacet
  facet normal 0 0 -1
    outer loop
      vertex 3.5 9.1 0
      vertex 4.46984 6.33488 0
      vertex 4.00988 6.56924 0
    endloop
  endfacet
  facet normal 0 0 -1
    outer loop
      vertex 3.5 9.1 0
      vertex 4.00988 6.56924 0
      vertex 3.5 6.65 0
    endloop
  endfacet
  facet normal 0 0 -1
    outer loop
      vertex 4.46984 6.33488 0
      vertex 3.5 9.1 0
      vertex 8.14731 9.1 0
    endloop
  endfacet
  facet normal 0 0 -1
    outer loop
      vertex 2.99012 6.56924 0
      vertex 3.5 9.1 0
      vertex 3.5 6.65 0
    endloop
  endfacet
  facet normal 0 0 -1
    outer loop
      vertex 2.23303 8.89933 0
      vertex 2.99012 6.56924 0
      vertex 2.53015 6.33488 0
    endloop
  endfacet
  facet normal 0 0 -1
    outer loop
      vertex 2.99012 6.56924 0
      vertex 2.23303 8.89933 0
      vertex 3.5 9.1 0
    endloop
  endfacet
  facet normal 0 0 -1
    outer loop
      vertex 1.09008 8.31697 0
      vertex 2.53015 6.33488 0
      vertex 2.16512 5.96984 0
    endloop
  endfacet
  facet normal 0 0 -1
    outer loop
      vertex 0.18303 7.40992 0
      vertex 2.16512 5.96984 0
      vertex 1.93076 5.50988 0
    endloop
  endfacet
  facet normal 0 0 -1
    outer loop
      vertex -0.399331 6.26697 0
      vertex 1.93076 5.50988 0
      vertex 1.85 5 0
    endloop
  endfacet
  facet normal 0 0 -1
    outer loop
      vertex -0.399331 3.73303 0
      vertex 1.93076 4.49012 0
      vertex 0.18303 2.59008 0
    endloop
  endfacet
  facet normal 0 0 -1
    outer loop
      vertex 2.53015 6.33488 0
      vertex 1.09008 8.31697 0
      vertex 2.23303 8.89933 0
    endloop
  endfacet
  facet normal -0 0 -1
    outer loop
      vertex 1.93076 4.49012 0
      vertex -0.399331 3.73303 0
      vertex 1.85 5 0
    endloop
  endfacet
  facet normal 0 0 -1
    outer loop
      vertex 2.16512 5.96984 0
      vertex 0.18303 7.40992 0
      vertex 1.09008 8.31697 0
    endloop
  endfacet
  facet normal 0 0 -1
    outer loop
      vertex -0.599999 5 0
      vertex 1.85 5 0
      vertex -0.399331 3.73303 0
    endloop
  endfacet
  facet normal 0 0 -1
    outer loop
      vertex 1.93076 5.50988 0
      vertex -0.399331 6.26697 0
      vertex 0.18303 7.40992 0
    endloop
  endfacet
  facet normal 0 0 -1
    outer loop
      vertex 1.85 5 0
      vertex -0.599999 5 0
      vertex -0.399331 6.26697 0
    endloop
  endfacet
  facet normal -0.156435 0.987688 0
    outer loop
      vertex 3.5 9.1 0
      vertex 2.23303 8.89933 6
      vertex 3.5 9.1 6
    endloop
  endfacet
  facet normal -0.156435 0.987688 0
    outer loop
      vertex 2.23303 8.89933 6
      vertex 3.5 9.1 0
      vertex 2.23303 8.89933 0
    endloop
  endfacet
  facet normal 0.891007 -0.45399 0
    outer loop
      vertex 22.817 2.59008 6
      vertex 23.3993 3.73303 0
      vertex 23.3993 3.73303 6
    endloop
  endfacet
  facet normal 0.891007 -0.45399 0
    outer loop
      vertex 23.3993 3.73303 0
      vertex 22.817 2.59008 6
      vertex 22.817 2.59008 0
    endloop
  endfacet
  facet normal 0 -1 0
    outer loop
      vertex 14.7931 0.9 0
      vertex 19.5 0.9 6
      vertex 14.7931 0.9 6
    endloop
  endfacet
  facet normal 0 -1 -0
    outer loop
      vertex 19.5 0.9 6
      vertex 14.7931 0.9 0
      vertex 19.5 0.9 0
    endloop
  endfacet
  facet normal 0 -1 0
    outer loop
      vertex 3.5 0.9 0
      vertex 8.14731 0.9 6
      vertex 3.5 0.9 6
    endloop
  endfacet
  facet normal 0 -1 -0
    outer loop
      vertex 8.14731 0.9 6
      vertex 3.5 0.9 0
      vertex 8.14731 0.9 0
    endloop
  endfacet
  facet normal 0.707107 0.707106 0
    outer loop
      vertex 22.817 7.40992 6
      vertex 21.9099 8.31697 0
      vertex 21.9099 8.31697 6
    endloop
  endfacet
  facet normal 0.707107 0.707106 0
    outer loop
      vertex 21.9099 8.31697 0
      vertex 22.817 7.40992 6
      vertex 22.817 7.40992 0
    endloop
  endfacet
  facet normal 0.891007 0.45399 0
    outer loop
      vertex 23.3993 6.26697 6
      vertex 22.817 7.40992 0
      vertex 22.817 7.40992 6
    endloop
  endfacet
  facet normal 0.891007 0.45399 0
    outer loop
      vertex 22.817 7.40992 0
      vertex 23.3993 6.26697 6
      vertex 23.3993 6.26697 0
    endloop
  endfacet
  facet normal 0.45399 0.891007 -0
    outer loop
      vertex 21.9099 8.31697 0
      vertex 20.767 8.89933 6
      vertex 21.9099 8.31697 6
    endloop
  endfacet
  facet normal 0.45399 0.891007 0
    outer loop
      vertex 20.767 8.89933 6
      vertex 21.9099 8.31697 0
      vertex 20.767 8.89933 0
    endloop
  endfacet
  facet normal -0.891007 0.45399 0
    outer loop
      vertex -0.399331 6.26697 0
      vertex 0.18303 7.40992 6
      vertex 0.18303 7.40992 0
    endloop
  endfacet
  facet normal -0.891007 0.45399 0
    outer loop
      vertex 0.18303 7.40992 6
      vertex -0.399331 6.26697 0
      vertex -0.399331 6.26697 6
    endloop
  endfacet
  facet normal -0.987688 0.156435 0
    outer loop
      vertex -0.599999 5 0
      vertex -0.399331 6.26697 6
      vertex -0.399331 6.26697 0
    endloop
  endfacet
  facet normal -0.987688 0.156435 0
    outer loop
      vertex -0.399331 6.26697 6
      vertex -0.599999 5 0
      vertex -0.599999 5 6
    endloop
  endfacet
  facet normal -0.987688 -0.156435 0
    outer loop
      vertex -0.399331 3.73303 0
      vertex -0.599999 5 6
      vertex -0.599999 5 0
    endloop
  endfacet
  facet normal -0.987688 -0.156435 0
    outer loop
      vertex -0.599999 5 6
      vertex -0.399331 3.73303 0
      vertex -0.399331 3.73303 6
    endloop
  endfacet
  facet normal -0.453991 0.891007 0
    outer loop
      vertex 2.23303 8.89933 0
      vertex 1.09008 8.31697 6
      vertex 2.23303 8.89933 6
    endloop
  endfacet
  facet normal -0.453991 0.891007 0
    outer loop
      vertex 1.09008 8.31697 6
      vertex 2.23303 8.89933 0
      vertex 1.09008 8.31697 0
    endloop
  endfacet
  facet normal 0.987688 -0.156435 0
    outer loop
      vertex 23.3993 3.73303 6
      vertex 23.6 5 0
      vertex 23.6 5 6
    endloop
  endfacet
  facet normal 0.987688 -0.156435 0
    outer loop
      vertex 23.6 5 0
      vertex 23.3993 3.73303 6
      vertex 23.3993 3.73303 0
    endloop
  endfacet
  facet normal 0.156435 -0.987688 0
    outer loop
      vertex 19.5 0.9 0
      vertex 20.767 1.10067 6
      vertex 19.5 0.9 6
    endloop
  endfacet
  facet normal 0.156435 -0.987688 0
    outer loop
      vertex 20.767 1.10067 6
      vertex 19.5 0.9 0
      vertex 20.767 1.10067 0
    endloop
  endfacet
  facet normal 0.707107 -0.707106 0
    outer loop
      vertex 21.9099 1.68303 6
      vertex 22.817 2.59008 0
      vertex 22.817 2.59008 6
    endloop
  endfacet
  facet normal 0.707107 -0.707106 0
    outer loop
      vertex 22.817 2.59008 0
      vertex 21.9099 1.68303 6
      vertex 21.9099 1.68303 0
    endloop
  endfacet
  facet normal -0.453991 -0.891007 0
    outer loop
      vertex 1.09008 1.68303 0
      vertex 2.23303 1.10067 6
      vertex 1.09008 1.68303 6
    endloop
  endfacet
  facet normal -0.453991 -0.891007 -0
    outer loop
      vertex 2.23303 1.10067 6
      vertex 1.09008 1.68303 0
      vertex 2.23303 1.10067 0
    endloop
  endfacet
  facet normal -0.891007 -0.45399 0
    outer loop
      vertex 0.18303 2.59008 0
      vertex -0.399331 3.73303 6
      vertex -0.399331 3.73303 0
    endloop
  endfacet
  facet normal -0.891007 -0.45399 0
    outer loop
      vertex -0.399331 3.73303 6
      vertex 0.18303 2.59008 0
      vertex 0.18303 2.59008 6
    endloop
  endfacet
  facet normal 0 0 1
    outer loop
      vertex 22.7 5 6
      vertex 23.6 5 6
      vertex 23.3993 6.26697 6
    endloop
  endfacet
  facet normal 0 0 1
    outer loop
      vertex 22.7 5 6
      vertex 23.3993 6.26697 6
      vertex 22.817 7.40992 6
    endloop
  endfacet
  facet normal 0 0 1
    outer loop
      vertex 23.6 5 6
      vertex 22.7 5 6
      vertex 23.3993 3.73303 6
    endloop
  endfacet
  facet normal 0 0 1
    outer loop
      vertex 23.3993 3.73303 6
      vertex 22.7 5 6
      vertex 22.817 2.59008 6
    endloop
  endfacet
  facet normal -0 0 1
    outer loop
      vertex 21.1 7.77128 6
      vertex 22.817 7.40992 6
      vertex 21.9099 8.31697 6
    endloop
  endfacet
  facet normal 0 0 1
    outer loop
      vertex 22.817 7.40992 6
      vertex 21.1 7.77128 6
      vertex 22.7 5 6
    endloop
  endfacet
  facet normal 0 0 1
    outer loop
      vertex 20.767 8.89933 6
      vertex 21.1 7.77128 6
      vertex 21.9099 8.31697 6
    endloop
  endfacet
  facet normal 0 0 1
    outer loop
      vertex 19.5 9.1 6
      vertex 21.1 7.77128 6
      vertex 20.767 8.89933 6
    endloop
  endfacet
  facet normal 0 0 1
    outer loop
      vertex 19.5 9.1 6
      vertex 17.9 7.77128 6
      vertex 21.1 7.77128 6
    endloop
  endfacet
  facet normal 0 0 1
    outer loop
      vertex 17.9 7.77128 6
      vertex 16.6335 6.31806 6
      vertex 16.7102 5.71055 6
    endloop
  endfacet
  facet normal 0 0 1
    outer loop
      vertex 17.9 7.77128 6
      vertex 16.1444 7.55329 6
      vertex 16.6335 6.31806 6
    endloop
  endfacet
  facet normal -0 0 1
    outer loop
      vertex 15.3635 8.6281 6
      vertex 17.9 7.77128 6
      vertex 19.5 9.1 6
    endloop
  endfacet
  facet normal 0 0 1
    outer loop
      vertex 17.9 7.77128 6
      vertex 15.3635 8.6281 6
      vertex 16.1444 7.55329 6
    endloop
  endfacet
  facet normal 0 -0 1
    outer loop
      vertex 15.3635 8.6281 6
      vertex 19.5 9.1 6
      vertex 14.7931 9.1 6
    endloop
  endfacet
  facet normal 0 0 1
    outer loop
      vertex 21.1 2.22872 6
      vertex 22.817 2.59008 6
      vertex 22.7 5 6
    endloop
  endfacet
  facet normal 0 0 1
    outer loop
      vertex 22.817 2.59008 6
      vertex 21.1 2.22872 6
      vertex 21.9099 1.68303 6
    endloop
  endfacet
  facet normal 0 0 1
    outer loop
      vertex 21.1 2.22872 6
      vertex 20.767 1.10067 6
      vertex 21.9099 1.68303 6
    endloop
  endfacet
  facet normal 0 0 1
    outer loop
      vertex 21.1 2.22872 6
      vertex 19.5 0.9 6
      vertex 20.767 1.10067 6
    endloop
  endfacet
  facet normal -0 0 1
    outer loop
      vertex 17.9 2.22872 6
      vertex 19.5 0.9 6
      vertex 21.1 2.22872 6
    endloop
  endfacet
  facet normal -0 0 1
    outer loop
      vertex 16.6335 3.68194 6
      vertex 17.9 2.22872 6
      vertex 16.7102 4.28945 6
    endloop
  endfacet
  facet normal -0 0 1
    outer loop
      vertex 16.1444 2.4467 6
      vertex 17.9 2.22872 6
      vertex 16.6335 3.68194 6
    endloop
  endfacet
  facet normal 0 0 1
    outer loop
      vertex 15.3635 1.3719 6
      vertex 17.9 2.22872 6
      vertex 16.1444 2.4467 6
    endloop
  endfacet
  facet normal 0 0 1
    outer loop
      vertex 17.9 2.22872 6
      vertex 15.3635 1.3719 6
      vertex 19.5 0.9 6
    endloop
  endfacet
  facet normal 0 0 1
    outer loop
      vertex 19.5 0.9 6
      vertex 15.3635 1.3719 6
      vertex 14.7931 0.9 6
    endloop
  endfacet
  facet normal 0 0 1
    outer loop
      vertex 6.57218 6.95106 6
      vertex 5.1 7.77128 6
      vertex 6.26478 5.75382 6
    endloop
  endfacet
  facet normal 0 0 1
    outer loop
      vertex 7.21221 8.11526 6
      vertex 5.1 7.77128 6
      vertex 6.57218 6.95106 6
    endloop
  endfacet
  facet normal 0 0 1
    outer loop
      vertex 3.5 9.1 6
      vertex 7.21221 8.11526 6
      vertex 8.12165 9.08372 6
    endloop
  endfacet
  facet normal -0 0 1
    outer loop
      vertex 3.5 9.1 6
      vertex 8.12165 9.08372 6
      vertex 8.14731 9.1 6
    endloop
  endfacet
  facet normal 0 0 1
    outer loop
      vertex 7.21221 8.11526 6
      vertex 3.5 9.1 6
      vertex 5.1 7.77128 6
    endloop
  endfacet
  facet normal 0 0 1
    outer loop
      vertex 1.9 7.77128 6
      vertex 3.5 9.1 6
      vertex 2.23303 8.89933 6
    endloop
  endfacet
  facet normal 0 0 1
    outer loop
      vertex 3.5 9.1 6
      vertex 1.9 7.77128 6
      vertex 5.1 7.77128 6
    endloop
  endfacet
  facet normal -0 0 1
    outer loop
      vertex 1.09008 8.31697 6
      vertex 1.9 7.77128 6
      vertex 2.23303 8.89933 6
    endloop
  endfacet
  facet normal 0 0 1
    outer loop
      vertex 0.18303 7.40992 6
      vertex 1.9 7.77128 6
      vertex 1.09008 8.31697 6
    endloop
  endfacet
  facet normal 0 0 1
    outer loop
      vertex 1.9 7.77128 6
      vertex 0.18303 7.40992 6
      vertex 0.299999 5 6
    endloop
  endfacet
  facet normal 0 0 1
    outer loop
      vertex 5.1 2.22872 6
      vertex 6.57218 3.04894 6
      vertex 6.26478 4.24618 6
    endloop
  endfacet
  facet normal -0 0 1
    outer loop
      vertex 5.1 2.22872 6
      vertex 7.21221 1.88474 6
      vertex 6.57218 3.04894 6
    endloop
  endfacet
  facet normal 0 0 1
    outer loop
      vertex 3.5 0.9 6
      vertex 7.21221 1.88474 6
      vertex 5.1 2.22872 6
    endloop
  endfacet
  facet normal 0 0 1
    outer loop
      vertex 7.21221 1.88474 6
      vertex 3.5 0.9 6
      vertex 8.12165 0.91628 6
    endloop
  endfacet
  facet normal 0 0 1
    outer loop
      vertex 8.12165 0.91628 6
      vertex 3.5 0.9 6
      vertex 8.14731 0.9 6
    endloop
  endfacet
  facet normal -0 0 1
    outer loop
      vertex 1.9 2.22872 6
      vertex 3.5 0.9 6
      vertex 5.1 2.22872 6
    endloop
  endfacet
  facet normal 0 0 1
    outer loop
      vertex 3.5 0.9 6
      vertex 1.9 2.22872 6
      vertex 2.23303 1.10067 6
    endloop
  endfacet
  facet normal 0 0 1
    outer loop
      vertex 1.9 2.22872 6
      vertex 1.09008 1.68303 6
      vertex 2.23303 1.10067 6
    endloop
  endfacet
  facet normal -0 0 1
    outer loop
      vertex 0.18303 2.59008 6
      vertex 1.9 2.22872 6
      vertex 0.299999 5 6
    endloop
  endfacet
  facet normal 0 0 1
    outer loop
      vertex 1.9 2.22872 6
      vertex 0.18303 2.59008 6
      vertex 1.09008 1.68303 6
    endloop
  endfacet
  facet normal -0 0 1
    outer loop
      vertex -0.399331 6.26697 6
      vertex 0.299999 5 6
      vertex 0.18303 7.40992 6
    endloop
  endfacet
  facet normal 0 0 1
    outer loop
      vertex -0.599999 5 6
      vertex 0.299999 5 6
      vertex -0.399331 6.26697 6
    endloop
  endfacet
  facet normal 0 0 1
    outer loop
      vertex 0.299999 5 6
      vertex -0.399331 3.73303 6
      vertex 0.18303 2.59008 6
    endloop
  endfacet
  facet normal 0 0 1
    outer loop
      vertex 0.299999 5 6
      vertex -0.599999 5 6
      vertex -0.399331 3.73303 6
    endloop
  endfacet
  facet normal 0.45399 -0.891007 0
    outer loop
      vertex 20.767 1.10067 0
      vertex 21.9099 1.68303 6
      vertex 20.767 1.10067 6
    endloop
  endfacet
  facet normal 0.45399 -0.891007 0
    outer loop
      vertex 21.9099 1.68303 6
      vertex 20.767 1.10067 0
      vertex 21.9099 1.68303 0
    endloop
  endfacet
  facet normal -0.707107 -0.707107 0
    outer loop
      vertex 1.09008 1.68303 0
      vertex 0.18303 2.59008 6
      vertex 0.18303 2.59008 0
    endloop
  endfacet
  facet normal -0.707107 -0.707107 0
    outer loop
      vertex 0.18303 2.59008 6
      vertex 1.09008 1.68303 0
      vertex 1.09008 1.68303 6
    endloop
  endfacet
  facet normal 0.987688 0.156435 0
    outer loop
      vertex 14.6 5 11.6
      vertex 14.4483 5.95795 10.6
      vertex 14.4483 5.95795 11.6
    endloop
  endfacet
  facet normal 0.987688 0.156435 0
    outer loop
      vertex 14.4483 5.95795 10.6
      vertex 14.6 5 11.6
      vertex 14.6 5 10.6
    endloop
  endfacet
  facet normal 0.156435 0.987688 -0
    outer loop
      vertex 12.458 7.94827 10.6
      vertex 11.5 8.1 11.6
      vertex 12.458 7.94827 11.6
    endloop
  endfacet
  facet normal 0.156435 0.987688 0
    outer loop
      vertex 11.5 8.1 11.6
      vertex 12.458 7.94827 10.6
      vertex 11.5 8.1 10.6
    endloop
  endfacet
  facet normal -0.987688 -0.156434 0
    outer loop
      vertex 8.55172 4.04205 10.6
      vertex 8.4 5 11.6
      vertex 8.4 5 10.6
    endloop
  endfacet
  facet normal -0.987688 -0.156434 0
    outer loop
      vertex 8.4 5 11.6
      vertex 8.55172 4.04205 10.6
      vertex 8.55172 4.04205 11.6
    endloop
  endfacet
  facet normal 0.453991 -0.891006 0
    outer loop
      vertex 12.458 2.05172 10.6
      vertex 13.3221 2.49205 11.6
      vertex 12.458 2.05172 11.6
    endloop
  endfacet
  facet normal 0.453991 -0.891006 0
    outer loop
      vertex 13.3221 2.49205 11.6
      vertex 12.458 2.05172 10.6
      vertex 13.3221 2.49205 10.6
    endloop
  endfacet
  facet normal 0.156435 -0.987688 0
    outer loop
      vertex 11.5 1.9 10.6
      vertex 12.458 2.05172 11.6
      vertex 11.5 1.9 11.6
    endloop
  endfacet
  facet normal 0.156435 -0.987688 0
    outer loop
      vertex 12.458 2.05172 11.6
      vertex 11.5 1.9 10.6
      vertex 12.458 2.05172 10.6
    endloop
  endfacet
  facet normal 0.891006 0.453991 0
    outer loop
      vertex 14.4483 5.95795 11.6
      vertex 14.008 6.82213 10.6
      vertex 14.008 6.82213 11.6
    endloop
  endfacet
  facet normal 0.891006 0.453991 0
    outer loop
      vertex 14.008 6.82213 10.6
      vertex 14.4483 5.95795 11.6
      vertex 14.4483 5.95795 10.6
    endloop
  endfacet
  facet normal -0.156434 0.987688 0
    outer loop
      vertex 11.5 8.1 10.6
      vertex 10.542 7.94827 11.6
      vertex 11.5 8.1 11.6
    endloop
  endfacet
  facet normal -0.156434 0.987688 0
    outer loop
      vertex 10.542 7.94827 11.6
      vertex 11.5 8.1 10.6
      vertex 10.542 7.94827 10.6
    endloop
  endfacet
  facet normal -0.453991 0.891006 0
    outer loop
      vertex 10.542 7.94827 10.6
      vertex 9.67787 7.50795 11.6
      vertex 10.542 7.94827 11.6
    endloop
  endfacet
  facet normal -0.453991 0.891006 0
    outer loop
      vertex 9.67787 7.50795 11.6
      vertex 10.542 7.94827 10.6
      vertex 9.67787 7.50795 10.6
    endloop
  endfacet
  facet normal -0.891006 -0.453991 0
    outer loop
      vertex 8.99205 3.17787 10.6
      vertex 8.55172 4.04205 11.6
      vertex 8.55172 4.04205 10.6
    endloop
  endfacet
  facet normal -0.891006 -0.453991 0
    outer loop
      vertex 8.55172 4.04205 11.6
      vertex 8.99205 3.17787 10.6
      vertex 8.99205 3.17787 11.6
    endloop
  endfacet
  facet normal -0.156434 -0.987688 0
    outer loop
      vertex 10.542 2.05172 10.6
      vertex 11.5 1.9 11.6
      vertex 10.542 2.05172 11.6
    endloop
  endfacet
  facet normal -0.156434 -0.987688 -0
    outer loop
      vertex 11.5 1.9 11.6
      vertex 10.542 2.05172 10.6
      vertex 11.5 1.9 10.6
    endloop
  endfacet
  facet normal 0.707107 0.707107 0
    outer loop
      vertex 14.008 6.82213 11.6
      vertex 13.3221 7.50795 10.6
      vertex 13.3221 7.50795 11.6
    endloop
  endfacet
  facet normal 0.707107 0.707107 0
    outer loop
      vertex 13.3221 7.50795 10.6
      vertex 14.008 6.82213 11.6
      vertex 14.008 6.82213 10.6
    endloop
  endfacet
  facet normal 0.453991 0.891006 -0
    outer loop
      vertex 13.3221 7.50795 10.6
      vertex 12.458 7.94827 11.6
      vertex 13.3221 7.50795 11.6
    endloop
  endfacet
  facet normal 0.453991 0.891006 0
    outer loop
      vertex 12.458 7.94827 11.6
      vertex 13.3221 7.50795 10.6
      vertex 12.458 7.94827 10.6
    endloop
  endfacet
  facet normal 0 0 1
    outer loop
      vertex 13.5 5 11.6
      vertex 14.6 5 11.6
      vertex 14.4483 5.95795 11.6
    endloop
  endfacet
  facet normal 0 0 1
    outer loop
      vertex 13.4021 5.61803 11.6
      vertex 14.4483 5.95795 11.6
      vertex 14.008 6.82213 11.6
    endloop
  endfacet
  facet normal 0 0 1
    outer loop
      vertex 14.6 5 11.6
      vertex 13.5 5 11.6
      vertex 14.4483 4.04205 11.6
    endloop
  endfacet
  facet normal -0 0 1
    outer loop
      vertex 13.4021 4.38197 11.6
      vertex 14.4483 4.04205 11.6
      vertex 13.5 5 11.6
    endloop
  endfacet
  facet normal 0 0 1
    outer loop
      vertex 14.4483 5.95795 11.6
      vertex 13.4021 5.61803 11.6
      vertex 13.5 5 11.6
    endloop
  endfacet
  facet normal 0 0 1
    outer loop
      vertex 13.118 6.17557 11.6
      vertex 14.008 6.82213 11.6
      vertex 13.3221 7.50795 11.6
    endloop
  endfacet
  facet normal 0 0 1
    outer loop
      vertex 14.008 6.82213 11.6
      vertex 13.118 6.17557 11.6
      vertex 13.4021 5.61803 11.6
    endloop
  endfacet
  facet normal 0 0 1
    outer loop
      vertex 13.3221 7.50795 11.6
      vertex 12.6756 6.61803 11.6
      vertex 13.118 6.17557 11.6
    endloop
  endfacet
  facet normal 0 0 1
    outer loop
      vertex 12.458 7.94827 11.6
      vertex 12.6756 6.61803 11.6
      vertex 13.3221 7.50795 11.6
    endloop
  endfacet
  facet normal 0 0 1
    outer loop
      vertex 12.458 7.94827 11.6
      vertex 12.118 6.90211 11.6
      vertex 12.6756 6.61803 11.6
    endloop
  endfacet
  facet normal 0 0 1
    outer loop
      vertex 11.5 8.1 11.6
      vertex 12.118 6.90211 11.6
      vertex 12.458 7.94827 11.6
    endloop
  endfacet
  facet normal 0 0 1
    outer loop
      vertex 11.5 8.1 11.6
      vertex 11.5 7 11.6
      vertex 12.118 6.90211 11.6
    endloop
  endfacet
  facet normal 0 0 1
    outer loop
      vertex 11.5 8.1 11.6
      vertex 10.882 6.90211 11.6
      vertex 11.5 7 11.6
    endloop
  endfacet
  facet normal -0 0 1
    outer loop
      vertex 10.542 7.94827 11.6
      vertex 10.882 6.90211 11.6
      vertex 11.5 8.1 11.6
    endloop
  endfacet
  facet normal 0 0 1
    outer loop
      vertex 10.542 7.94827 11.6
      vertex 10.3244 6.61803 11.6
      vertex 10.882 6.90211 11.6
    endloop
  endfacet
  facet normal -0 0 1
    outer loop
      vertex 9.67787 7.50795 11.6
      vertex 10.3244 6.61803 11.6
      vertex 10.542 7.94827 11.6
    endloop
  endfacet
  facet normal 0 0 1
    outer loop
      vertex 10.3244 6.61803 11.6
      vertex 9.67787 7.50795 11.6
      vertex 9.88197 6.17557 11.6
    endloop
  endfacet
  facet normal -0 0 1
    outer loop
      vertex 8.99205 6.82213 11.6
      vertex 9.88197 6.17557 11.6
      vertex 9.67787 7.50795 11.6
    endloop
  endfacet
  facet normal 0 0 1
    outer loop
      vertex 9.88197 6.17557 11.6
      vertex 8.99205 6.82213 11.6
      vertex 9.59789 5.61803 11.6
    endloop
  endfacet
  facet normal -0 0 1
    outer loop
      vertex 8.55172 5.95795 11.6
      vertex 9.59789 5.61803 11.6
      vertex 8.99205 6.82213 11.6
    endloop
  endfacet
  facet normal 0 0 1
    outer loop
      vertex 14.4483 4.04205 11.6
      vertex 13.4021 4.38197 11.6
      vertex 14.008 3.17787 11.6
    endloop
  endfacet
  facet normal -0 0 1
    outer loop
      vertex 13.118 3.82443 11.6
      vertex 14.008 3.17787 11.6
      vertex 13.4021 4.38197 11.6
    endloop
  endfacet
  facet normal 0 0 1
    outer loop
      vertex 14.008 3.17787 11.6
      vertex 13.118 3.82443 11.6
      vertex 13.3221 2.49205 11.6
    endloop
  endfacet
  facet normal -0 0 1
    outer loop
      vertex 12.6756 3.38197 11.6
      vertex 13.3221 2.49205 11.6
      vertex 13.118 3.82443 11.6
    endloop
  endfacet
  facet normal 0 0 1
    outer loop
      vertex 12.6756 3.38197 11.6
      vertex 12.458 2.05172 11.6
      vertex 13.3221 2.49205 11.6
    endloop
  endfacet
  facet normal -0 0 1
    outer loop
      vertex 12.118 3.09789 11.6
      vertex 12.458 2.05172 11.6
      vertex 12.6756 3.38197 11.6
    endloop
  endfacet
  facet normal -0 0 1
    outer loop
      vertex 11.5 3 11.6
      vertex 12.458 2.05172 11.6
      vertex 12.118 3.09789 11.6
    endloop
  endfacet
  facet normal 0 0 1
    outer loop
      vertex 11.5 3 11.6
      vertex 11.5 1.9 11.6
      vertex 12.458 2.05172 11.6
    endloop
  endfacet
  facet normal 0 0 1
    outer loop
      vertex 10.882 3.09789 11.6
      vertex 11.5 1.9 11.6
      vertex 11.5 3 11.6
    endloop
  endfacet
  facet normal 0 0 1
    outer loop
      vertex 10.882 3.09789 11.6
      vertex 10.542 2.05172 11.6
      vertex 11.5 1.9 11.6
    endloop
  endfacet
  facet normal 0 0 1
    outer loop
      vertex 10.3244 3.38197 11.6
      vertex 10.542 2.05172 11.6
      vertex 10.882 3.09789 11.6
    endloop
  endfacet
  facet normal 0 0 1
    outer loop
      vertex 9.67787 2.49205 11.6
      vertex 10.3244 3.38197 11.6
      vertex 9.88197 3.82443 11.6
    endloop
  endfacet
  facet normal 0 0 1
    outer loop
      vertex 10.3244 3.38197 11.6
      vertex 9.67787 2.49205 11.6
      vertex 10.542 2.05172 11.6
    endloop
  endfacet
  facet normal 0 0 1
    outer loop
      vertex 8.99205 3.17787 11.6
      vertex 9.88197 3.82443 11.6
      vertex 9.59789 4.38197 11.6
    endloop
  endfacet
  facet normal 0 0 1
    outer loop
      vertex 8.55172 4.04205 11.6
      vertex 9.59789 4.38197 11.6
      vertex 9.5 5 11.6
    endloop
  endfacet
  facet normal 0 0 1
    outer loop
      vertex 9.59789 5.61803 11.6
      vertex 8.55172 5.95795 11.6
      vertex 9.5 5 11.6
    endloop
  endfacet
  facet normal 0 0 1
    outer loop
      vertex 9.88197 3.82443 11.6
      vertex 8.99205 3.17787 11.6
      vertex 9.67787 2.49205 11.6
    endloop
  endfacet
  facet normal 0 0 1
    outer loop
      vertex 8.4 5 11.6
      vertex 9.5 5 11.6
      vertex 8.55172 5.95795 11.6
    endloop
  endfacet
  facet normal 0 0 1
    outer loop
      vertex 9.59789 4.38197 11.6
      vertex 8.55172 4.04205 11.6
      vertex 8.99205 3.17787 11.6
    endloop
  endfacet
  facet normal 0 0 1
    outer loop
      vertex 9.5 5 11.6
      vertex 8.4 5 11.6
      vertex 8.55172 4.04205 11.6
    endloop
  endfacet
  facet normal -0.987688 0.156435 0
    outer loop
      vertex 8.4 5 10.6
      vertex 8.55172 5.95795 11.6
      vertex 8.55172 5.95795 10.6
    endloop
  endfacet
  facet normal -0.987688 0.156435 0
    outer loop
      vertex 8.55172 5.95795 11.6
      vertex 8.4 5 10.6
      vertex 8.4 5 11.6
    endloop
  endfacet
  facet normal -0.707107 0.707107 0
    outer loop
      vertex 8.99205 6.82213 10.6
      vertex 9.67787 7.50795 11.6
      vertex 9.67787 7.50795 10.6
    endloop
  endfacet
  facet normal -0.707107 0.707107 0
    outer loop
      vertex 9.67787 7.50795 11.6
      vertex 8.99205 6.82213 10.6
      vertex 8.99205 6.82213 11.6
    endloop
  endfacet
  facet normal -0.891006 0.453991 0
    outer loop
      vertex 8.55172 5.95795 10.6
      vertex 8.99205 6.82213 11.6
      vertex 8.99205 6.82213 10.6
    endloop
  endfacet
  facet normal -0.891006 0.453991 0
    outer loop
      vertex 8.99205 6.82213 11.6
      vertex 8.55172 5.95795 10.6
      vertex 8.55172 5.95795 11.6
    endloop
  endfacet
  facet normal 0.707107 -0.707107 0
    outer loop
      vertex 13.3221 2.49205 11.6
      vertex 14.008 3.17787 10.6
      vertex 14.008 3.17787 11.6
    endloop
  endfacet
  facet normal 0.707107 -0.707107 0
    outer loop
      vertex 14.008 3.17787 10.6
      vertex 13.3221 2.49205 11.6
      vertex 13.3221 2.49205 10.6
    endloop
  endfacet
  facet normal 0.987688 -0.156434 0
    outer loop
      vertex 14.4483 4.04205 11.6
      vertex 14.6 5 10.6
      vertex 14.6 5 11.6
    endloop
  endfacet
  facet normal 0.987688 -0.156434 0
    outer loop
      vertex 14.6 5 10.6
      vertex 14.4483 4.04205 11.6
      vertex 14.4483 4.04205 10.6
    endloop
  endfacet
  facet normal -0.707107 -0.707107 0
    outer loop
      vertex 9.67787 2.49205 10.6
      vertex 8.99205 3.17787 11.6
      vertex 8.99205 3.17787 10.6
    endloop
  endfacet
  facet normal -0.707107 -0.707107 0
    outer loop
      vertex 8.99205 3.17787 11.6
      vertex 9.67787 2.49205 10.6
      vertex 9.67787 2.49205 11.6
    endloop
  endfacet
  facet normal -0.453991 -0.891006 0
    outer loop
      vertex 9.67787 2.49205 10.6
      vertex 10.542 2.05172 11.6
      vertex 9.67787 2.49205 11.6
    endloop
  endfacet
  facet normal -0.453991 -0.891006 -0
    outer loop
      vertex 10.542 2.05172 11.6
      vertex 9.67787 2.49205 10.6
      vertex 10.542 2.05172 10.6
    endloop
  endfacet
  facet normal 0.891006 -0.453991 0
    outer loop
      vertex 14.008 3.17787 11.6
      vertex 14.4483 4.04205 10.6
      vertex 14.4483 4.04205 11.6
    endloop
  endfacet
  facet normal 0.891006 -0.453991 0
    outer loop
      vertex 14.4483 4.04205 10.6
      vertex 14.008 3.17787 11.6
      vertex 14.008 3.17787 10.6
    endloop
  endfacet
  facet normal -1 0 0
    outer loop
      vertex 6.24179 4.33573 7
      vertex 6.24179 5.66427 10.6
      vertex 6.24179 5.66427 7
    endloop
  endfacet
  facet normal -1 -0 0
    outer loop
      vertex 6.24179 5.66427 10.6
      vertex 6.24179 4.33573 7
      vertex 6.24179 4.33573 10.6
    endloop
  endfacet
  facet normal 0.425779 0.904827 -0
    outer loop
      vertex 14.3399 9.47494 0
      vertex 13.1378 10.0406 10.6
      vertex 14.3399 9.47494 10.6
    endloop
  endfacet
  facet normal 0.425779 0.904827 0
    outer loop
      vertex 13.1378 10.0406 10.6
      vertex 14.3399 9.47494 0
      vertex 13.1378 10.0406 0
    endloop
  endfacet
  facet normal 0.992115 -0.125333 0
    outer loop
      vertex 16.8 5 10.6
      vertex 16.7102 4.28945 7
      vertex 16.8 5 7
    endloop
  endfacet
  facet normal 0.992115 -0.125332 -2.78086e-07
    outer loop
      vertex 16.6335 3.68194 10.6
      vertex 16.7102 4.28945 7
      vertex 16.8 5 10.6
    endloop
  endfacet
  facet normal 0.992115 -0.12533 0
    outer loop
      vertex 16.6335 3.68194 6
      vertex 16.7102 4.28945 7
      vertex 16.6335 3.68194 10.6
    endloop
  endfacet
  facet normal 0.992115 -0.12533 0
    outer loop
      vertex 16.7102 4.28945 7
      vertex 16.6335 3.68194 6
      vertex 16.7102 4.28945 6
    endloop
  endfacet
  facet normal -0.309017 -0.951057 0
    outer loop
      vertex 9.24337 0.204416 0
      vertex 10.5069 -0.206122 10.6
      vertex 9.24337 0.204416 10.6
    endloop
  endfacet
  facet normal -0.309017 -0.951057 -0
    outer loop
      vertex 10.5069 -0.206122 10.6
      vertex 9.24337 0.204416 0
      vertex 10.5069 -0.206122 0
    endloop
  endfacet
  facet normal 0.929776 0.368126 0
    outer loop
      vertex 16.6335 6.31806 10.6
      vertex 16.1444 7.55329 6
      vertex 16.1444 7.55329 10.6
    endloop
  endfacet
  facet normal 0.929776 0.368126 0
    outer loop
      vertex 16.1444 7.55329 6
      vertex 16.6335 6.31806 10.6
      vertex 16.6335 6.31806 6
    endloop
  endfacet
  facet normal -0.0627902 0.998027 0
    outer loop
      vertex 11.8328 10.2895 0
      vertex 10.5069 10.2061 10.6
      vertex 11.8328 10.2895 10.6
    endloop
  endfacet
  facet normal -0.0627902 0.998027 0
    outer loop
      vertex 10.5069 10.2061 10.6
      vertex 11.8328 10.2895 0
      vertex 10.5069 10.2061 0
    endloop
  endfacet
  facet normal -0.309017 0.951056 0
    outer loop
      vertex 10.5069 10.2061 0
      vertex 9.24337 9.79558 10.6
      vertex 10.5069 10.2061 10.6
    endloop
  endfacet
  facet normal -0.309017 0.951056 0
    outer loop
      vertex 9.24337 9.79558 10.6
      vertex 10.5069 10.2061 0
      vertex 9.24337 9.79558 0
    endloop
  endfacet
  facet normal -0.968583 0.24869 0
    outer loop
      vertex 6.26478 5.75382 7
      vertex 6.57218 6.95106 6
      vertex 6.26478 5.75382 6
    endloop
  endfacet
  facet normal -0.968583 0.24869 0
    outer loop
      vertex 6.57218 6.95106 6
      vertex 6.26478 5.75382 7
      vertex 6.57218 6.95106 10.6
    endloop
  endfacet
  facet normal -0.968583 0.248692 0
    outer loop
      vertex 6.24179 5.66427 10.6
      vertex 6.26478 5.75382 7
      vertex 6.24179 5.66427 7
    endloop
  endfacet
  facet normal -0.968583 0.24869 -4.59967e-08
    outer loop
      vertex 6.26478 5.75382 7
      vertex 6.24179 5.66427 10.6
      vertex 6.57218 6.95106 10.6
    endloop
  endfacet
  facet normal 0.929776 -0.368126 0
    outer loop
      vertex 16.1444 2.4467 10.6
      vertex 16.6335 3.68194 6
      vertex 16.6335 3.68194 10.6
    endloop
  endfacet
  facet normal 0.929776 -0.368126 0
    outer loop
      vertex 16.6335 3.68194 6
      vertex 16.1444 2.4467 10.6
      vertex 16.1444 2.4467 6
    endloop
  endfacet
  facet normal -0.876307 -0.481754 0
    outer loop
      vertex 7.21221 1.88474 6
      vertex 6.57218 3.04894 10.6
      vertex 6.57218 3.04894 6
    endloop
  endfacet
  facet normal -0.876307 -0.481754 0
    outer loop
      vertex 6.57218 3.04894 10.6
      vertex 7.21221 1.88474 6
      vertex 7.21221 1.88474 10.6
    endloop
  endfacet
  facet normal -0.535821 -0.844332 0
    outer loop
      vertex 8.14731 0.9 6
      vertex 8.12165 0.91628 10.6
      vertex 8.12165 0.91628 6
    endloop
  endfacet
  facet normal -0.535827 -0.844328 -4.77938e-08
    outer loop
      vertex 8.12165 0.91628 10.6
      vertex 8.14731 0.9 6
      vertex 9.24337 0.204416 10.6
    endloop
  endfacet
  facet normal -0.535827 -0.844328 0
    outer loop
      vertex 9.24337 0.204416 0
      vertex 8.14731 0.9 6
      vertex 8.14731 0.9 0
    endloop
  endfacet
  facet normal -0.535827 -0.844328 0
    outer loop
      vertex 8.14731 0.9 6
      vertex 9.24337 0.204416 0
      vertex 9.24337 0.204416 10.6
    endloop
  endfacet
  facet normal 0.809017 0.587785 0
    outer loop
      vertex 16.1444 7.55329 10.6
      vertex 15.3635 8.6281 6
      vertex 15.3635 8.6281 10.6
    endloop
  endfacet
  facet normal 0.809017 0.587785 0
    outer loop
      vertex 15.3635 8.6281 6
      vertex 16.1444 7.55329 10.6
      vertex 16.1444 7.55329 6
    endloop
  endfacet
  facet normal 0.637424 0.770513 0
    outer loop
      vertex 14.7931 9.1 6
      vertex 15.3635 8.6281 10.6
      vertex 15.3635 8.6281 6
    endloop
  endfacet
  facet normal 0.637424 0.770513 2.08406e-08
    outer loop
      vertex 15.3635 8.6281 10.6
      vertex 14.7931 9.1 6
      vertex 14.3399 9.47494 10.6
    endloop
  endfacet
  facet normal 0.637424 0.770513 0
    outer loop
      vertex 14.3399 9.47494 0
      vertex 14.7931 9.1 6
      vertex 14.7931 9.1 0
    endloop
  endfacet
  facet normal 0.637424 0.770513 0
    outer loop
      vertex 14.7931 9.1 6
      vertex 14.3399 9.47494 0
      vertex 14.3399 9.47494 10.6
    endloop
  endfacet
  facet normal 0.187381 0.982287 -0
    outer loop
      vertex 13.1378 10.0406 0
      vertex 11.8328 10.2895 10.6
      vertex 13.1378 10.0406 10.6
    endloop
  endfacet
  facet normal 0.187381 0.982287 0
    outer loop
      vertex 11.8328 10.2895 10.6
      vertex 13.1378 10.0406 0
      vertex 11.8328 10.2895 0
    endloop
  endfacet
  facet normal 0 0 1
    outer loop
      vertex 14.6 5 10.6
      vertex 16.8 5 10.6
      vertex 16.6335 6.31806 10.6
    endloop
  endfacet
  facet normal 0 0 1
    outer loop
      vertex 14.4483 5.95795 10.6
      vertex 16.6335 6.31806 10.6
      vertex 16.1444 7.55329 10.6
    endloop
  endfacet
  facet normal 0 0 1
    outer loop
      vertex 16.8 5 10.6
      vertex 14.6 5 10.6
      vertex 16.6335 3.68194 10.6
    endloop
  endfacet
  facet normal 0 0 1
    outer loop
      vertex 14.008 6.82213 10.6
      vertex 16.1444 7.55329 10.6
      vertex 15.3635 8.6281 10.6
    endloop
  endfacet
  facet normal -0 0 1
    outer loop
      vertex 14.4483 4.04205 10.6
      vertex 16.6335 3.68194 10.6
      vertex 14.6 5 10.6
    endloop
  endfacet
  facet normal 0 0 1
    outer loop
      vertex 16.6335 3.68194 10.6
      vertex 14.4483 4.04205 10.6
      vertex 16.1444 2.4467 10.6
    endloop
  endfacet
  facet normal 0 0 1
    outer loop
      vertex 16.6335 6.31806 10.6
      vertex 14.4483 5.95795 10.6
      vertex 14.6 5 10.6
    endloop
  endfacet
  facet normal 0 0 1
    outer loop
      vertex 13.3221 7.50795 10.6
      vertex 15.3635 8.6281 10.6
      vertex 14.3399 9.47494 10.6
    endloop
  endfacet
  facet normal 0 0 1
    outer loop
      vertex 16.1444 7.55329 10.6
      vertex 14.008 6.82213 10.6
      vertex 14.4483 5.95795 10.6
    endloop
  endfacet
  facet normal 0 0 1
    outer loop
      vertex 15.3635 8.6281 10.6
      vertex 13.3221 7.50795 10.6
      vertex 14.008 6.82213 10.6
    endloop
  endfacet
  facet normal 0 0 1
    outer loop
      vertex 12.458 7.94827 10.6
      vertex 14.3399 9.47494 10.6
      vertex 13.1378 10.0406 10.6
    endloop
  endfacet
  facet normal 0 0 1
    outer loop
      vertex 14.3399 9.47494 10.6
      vertex 12.458 7.94827 10.6
      vertex 13.3221 7.50795 10.6
    endloop
  endfacet
  facet normal 0 0 1
    outer loop
      vertex 11.8328 10.2895 10.6
      vertex 12.458 7.94827 10.6
      vertex 13.1378 10.0406 10.6
    endloop
  endfacet
  facet normal 0 0 1
    outer loop
      vertex 11.8328 10.2895 10.6
      vertex 11.5 8.1 10.6
      vertex 12.458 7.94827 10.6
    endloop
  endfacet
  facet normal -0 0 1
    outer loop
      vertex 10.5069 10.2061 10.6
      vertex 11.5 8.1 10.6
      vertex 11.8328 10.2895 10.6
    endloop
  endfacet
  facet normal 0 0 1
    outer loop
      vertex 11.5 8.1 10.6
      vertex 10.5069 10.2061 10.6
      vertex 10.542 7.94827 10.6
    endloop
  endfacet
  facet normal -0 0 1
    outer loop
      vertex 9.24337 9.79558 10.6
      vertex 10.542 7.94827 10.6
      vertex 10.5069 10.2061 10.6
    endloop
  endfacet
  facet normal 0 0 1
    outer loop
      vertex 10.542 7.94827 10.6
      vertex 9.24337 9.79558 10.6
      vertex 9.67787 7.50795 10.6
    endloop
  endfacet
  facet normal -0 0 1
    outer loop
      vertex 8.12165 9.08372 10.6
      vertex 9.67787 7.50795 10.6
      vertex 9.24337 9.79558 10.6
    endloop
  endfacet
  facet normal 0 0 1
    outer loop
      vertex 9.67787 7.50795 10.6
      vertex 8.12165 9.08372 10.6
      vertex 8.99205 6.82213 10.6
    endloop
  endfacet
  facet normal -0 0 1
    outer loop
      vertex 6.57218 6.95106 10.6
      vertex 8.99205 6.82213 10.6
      vertex 7.21221 8.11526 10.6
    endloop
  endfacet
  facet normal -0 0 1
    outer loop
      vertex 7.21221 8.11526 10.6
      vertex 8.99205 6.82213 10.6
      vertex 8.12165 9.08372 10.6
    endloop
  endfacet
  facet normal -0 0 1
    outer loop
      vertex 14.008 3.17787 10.6
      vertex 16.1444 2.4467 10.6
      vertex 14.4483 4.04205 10.6
    endloop
  endfacet
  facet normal 0 0 1
    outer loop
      vertex 16.1444 2.4467 10.6
      vertex 14.008 3.17787 10.6
      vertex 15.3635 1.3719 10.6
    endloop
  endfacet
  facet normal -0 0 1
    outer loop
      vertex 13.3221 2.49205 10.6
      vertex 15.3635 1.3719 10.6
      vertex 14.008 3.17787 10.6
    endloop
  endfacet
  facet normal 0 0 1
    outer loop
      vertex 15.3635 1.3719 10.6
      vertex 13.3221 2.49205 10.6
      vertex 14.3399 0.525062 10.6
    endloop
  endfacet
  facet normal -0 0 1
    outer loop
      vertex 12.458 2.05172 10.6
      vertex 14.3399 0.525062 10.6
      vertex 13.3221 2.49205 10.6
    endloop
  endfacet
  facet normal 0 0 1
    outer loop
      vertex 14.3399 0.525062 10.6
      vertex 12.458 2.05172 10.6
      vertex 13.1378 -0.0405989 10.6
    endloop
  endfacet
  facet normal 0 0 1
    outer loop
      vertex 12.458 2.05172 10.6
      vertex 11.8328 -0.289541 10.6
      vertex 13.1378 -0.0405989 10.6
    endloop
  endfacet
  facet normal -0 0 1
    outer loop
      vertex 11.5 1.9 10.6
      vertex 11.8328 -0.289541 10.6
      vertex 12.458 2.05172 10.6
    endloop
  endfacet
  facet normal 0 0 1
    outer loop
      vertex 10.5069 -0.206122 10.6
      vertex 11.5 1.9 10.6
      vertex 10.542 2.05172 10.6
    endloop
  endfacet
  facet normal 0 0 1
    outer loop
      vertex 11.5 1.9 10.6
      vertex 10.5069 -0.206122 10.6
      vertex 11.8328 -0.289541 10.6
    endloop
  endfacet
  facet normal 0 0 1
    outer loop
      vertex 9.24337 0.204416 10.6
      vertex 10.542 2.05172 10.6
      vertex 9.67787 2.49205 10.6
    endloop
  endfacet
  facet normal 0 0 1
    outer loop
      vertex 10.542 2.05172 10.6
      vertex 9.24337 0.204416 10.6
      vertex 10.5069 -0.206122 10.6
    endloop
  endfacet
  facet normal 0 0 1
    outer loop
      vertex 8.12165 0.91628 10.6
      vertex 9.67787 2.49205 10.6
      vertex 8.99205 3.17787 10.6
    endloop
  endfacet
  facet normal 0 0 1
    outer loop
      vertex 6.57218 3.04894 10.6
      vertex 8.99205 3.17787 10.6
      vertex 8.55172 4.04205 10.6
    endloop
  endfacet
  facet normal 0 0 1
    outer loop
      vertex 9.67787 2.49205 10.6
      vertex 8.12165 0.91628 10.6
      vertex 9.24337 0.204416 10.6
    endloop
  endfacet
  facet normal -0 0 1
    outer loop
      vertex 6.24179 4.33573 10.6
      vertex 8.55172 4.04205 10.6
      vertex 8.4 5 10.6
    endloop
  endfacet
  facet normal 0 0 1
    outer loop
      vertex 8.99205 6.82213 10.6
      vertex 6.57218 6.95106 10.6
      vertex 8.55172 5.95795 10.6
    endloop
  endfacet
  facet normal 0 0 1
    outer loop
      vertex 6.24179 5.66427 10.6
      vertex 8.55172 5.95795 10.6
      vertex 6.57218 6.95106 10.6
    endloop
  endfacet
  facet normal 0 0 1
    outer loop
      vertex 8.99205 3.17787 10.6
      vertex 7.21221 1.88474 10.6
      vertex 8.12165 0.91628 10.6
    endloop
  endfacet
  facet normal 0 0 1
    outer loop
      vertex 8.55172 5.95795 10.6
      vertex 6.24179 5.66427 10.6
      vertex 8.4 5 10.6
    endloop
  endfacet
  facet normal 0 0 1
    outer loop
      vertex 8.99205 3.17787 10.6
      vertex 6.57218 3.04894 10.6
      vertex 7.21221 1.88474 10.6
    endloop
  endfacet
  facet normal 0 0 1
    outer loop
      vertex 6.24179 4.33573 10.6
      vertex 8.4 5 10.6
      vertex 6.24179 5.66427 10.6
    endloop
  endfacet
  facet normal 0 0 1
    outer loop
      vertex 8.55172 4.04205 10.6
      vertex 6.24179 4.33573 10.6
      vertex 6.57218 3.04894 10.6
    endloop
  endfacet
  facet normal -0.876307 0.481754 0
    outer loop
      vertex 6.57218 6.95106 6
      vertex 7.21221 8.11526 10.6
      vertex 7.21221 8.11526 6
    endloop
  endfacet
  facet normal -0.876307 0.481754 0
    outer loop
      vertex 7.21221 8.11526 10.6
      vertex 6.57218 6.95106 6
      vertex 6.57218 6.95106 10.6
    endloop
  endfacet
  facet normal -0.535827 0.844328 -4.77938e-08
    outer loop
      vertex 9.24337 9.79558 10.6
      vertex 8.14731 9.1 6
      vertex 8.12165 9.08372 10.6
    endloop
  endfacet
  facet normal -0.535827 0.844328 0
    outer loop
      vertex 9.24337 9.79558 0
      vertex 8.14731 9.1 6
      vertex 9.24337 9.79558 10.6
    endloop
  endfacet
  facet normal -0.535827 0.844328 0
    outer loop
      vertex 8.14731 9.1 6
      vertex 9.24337 9.79558 0
      vertex 8.14731 9.1 0
    endloop
  endfacet
  facet normal -0.535821 0.844332 0
    outer loop
      vertex 8.12165 9.08372 10.6
      vertex 8.14731 9.1 6
      vertex 8.12165 9.08372 6
    endloop
  endfacet
  facet normal -0.728969 0.684547 0
    outer loop
      vertex 7.21221 8.11526 6
      vertex 8.12165 9.08372 10.6
      vertex 8.12165 9.08372 6
    endloop
  endfacet
  facet normal -0.728969 0.684547 0
    outer loop
      vertex 8.12165 9.08372 10.6
      vertex 7.21221 8.11526 6
      vertex 7.21221 8.11526 10.6
    endloop
  endfacet
  facet normal 0.992115 0.125331 0
    outer loop
      vertex 16.6335 6.31806 10.6
      vertex 16.7102 5.71055 7
      vertex 16.6335 6.31806 6
    endloop
  endfacet
  facet normal 0.992115 0.125332 -2.76789e-07
    outer loop
      vertex 16.8 5 10.6
      vertex 16.7102 5.71055 7
      vertex 16.6335 6.31806 10.6
    endloop
  endfacet
  facet normal 0.992115 0.125334 0
    outer loop
      vertex 16.7102 5.71055 7
      vertex 16.8 5 10.6
      vertex 16.8 5 7
    endloop
  endfacet
  facet normal 0.992115 0.125331 0
    outer loop
      vertex 16.6335 6.31806 6
      vertex 16.7102 5.71055 7
      vertex 16.7102 5.71055 6
    endloop
  endfacet
  facet normal 0.187381 -0.982287 0
    outer loop
      vertex 11.8328 -0.289541 0
      vertex 13.1378 -0.0405989 10.6
      vertex 11.8328 -0.289541 10.6
    endloop
  endfacet
  facet normal 0.187381 -0.982287 0
    outer loop
      vertex 13.1378 -0.0405989 10.6
      vertex 11.8328 -0.289541 0
      vertex 13.1378 -0.0405989 0
    endloop
  endfacet
  facet normal 0.425779 -0.904827 0
    outer loop
      vertex 13.1378 -0.0405989 0
      vertex 14.3399 0.525062 10.6
      vertex 13.1378 -0.0405989 10.6
    endloop
  endfacet
  facet normal 0.425779 -0.904827 0
    outer loop
      vertex 14.3399 0.525062 10.6
      vertex 13.1378 -0.0405989 0
      vertex 14.3399 0.525062 0
    endloop
  endfacet
  facet normal 0.637424 -0.770513 2.08406e-08
    outer loop
      vertex 14.3399 0.525062 10.6
      vertex 14.7931 0.9 6
      vertex 15.3635 1.3719 10.6
    endloop
  endfacet
  facet normal 0.637424 -0.770513 0
    outer loop
      vertex 14.3399 0.525062 0
      vertex 14.7931 0.9 6
      vertex 14.3399 0.525062 10.6
    endloop
  endfacet
  facet normal 0.637424 -0.770513 0
    outer loop
      vertex 14.7931 0.9 6
      vertex 14.3399 0.525062 0
      vertex 14.7931 0.9 0
    endloop
  endfacet
  facet normal 0.637424 -0.770513 0
    outer loop
      vertex 15.3635 1.3719 10.6
      vertex 14.7931 0.9 6
      vertex 15.3635 1.3719 6
    endloop
  endfacet
  facet normal -0.0627902 -0.998027 0
    outer loop
      vertex 10.5069 -0.206122 0
      vertex 11.8328 -0.289541 10.6
      vertex 10.5069 -0.206122 10.6
    endloop
  endfacet
  facet normal -0.0627902 -0.998027 -0
    outer loop
      vertex 11.8328 -0.289541 10.6
      vertex 10.5069 -0.206122 0
      vertex 11.8328 -0.289541 0
    endloop
  endfacet
  facet normal -0.728969 -0.684547 0
    outer loop
      vertex 8.12165 0.91628 6
      vertex 7.21221 1.88474 10.6
      vertex 7.21221 1.88474 6
    endloop
  endfacet
  facet normal -0.728969 -0.684547 0
    outer loop
      vertex 7.21221 1.88474 10.6
      vertex 8.12165 0.91628 6
      vertex 8.12165 0.91628 10.6
    endloop
  endfacet
  facet normal -0.968583 -0.24869 0
    outer loop
      vertex 6.26478 4.24618 6
      vertex 6.57218 3.04894 6
      vertex 6.26478 4.24618 7
    endloop
  endfacet
  facet normal -0.968584 -0.248688 0
    outer loop
      vertex 6.26478 4.24618 7
      vertex 6.24179 4.33573 10.6
      vertex 6.24179 4.33573 7
    endloop
  endfacet
  facet normal -0.968583 -0.24869 -0
    outer loop
      vertex 6.57218 3.04894 10.6
      vertex 6.26478 4.24618 7
      vertex 6.57218 3.04894 6
    endloop
  endfacet
  facet normal -0.968583 -0.24869 4.93566e-08
    outer loop
      vertex 6.26478 4.24618 7
      vertex 6.57218 3.04894 10.6
      vertex 6.24179 4.33573 10.6
    endloop
  endfacet
  facet normal 0.809017 -0.587785 0
    outer loop
      vertex 15.3635 1.3719 10.6
      vertex 16.1444 2.4467 6
      vertex 16.1444 2.4467 10.6
    endloop
  endfacet
  facet normal 0.809017 -0.587785 0
    outer loop
      vertex 16.1444 2.4467 6
      vertex 15.3635 1.3719 10.6
      vertex 15.3635 1.3719 6
    endloop
  endfacet
  facet normal -0.866025 -0.5 0
    outer loop
      vertex 15.8 5 0
      vertex 13.65 8.72391 7
      vertex 13.65 8.72391 0
    endloop
  endfacet
  facet normal -0.866025 -0.5 0
    outer loop
      vertex 13.65 8.72391 7
      vertex 15.8 5 0
      vertex 15.8 5 7
    endloop
  endfacet
  facet normal 0 -1 0
    outer loop
      vertex 9.35 8.72391 0
      vertex 13.65 8.72391 7
      vertex 9.35 8.72391 7
    endloop
  endfacet
  facet normal 0 -1 -0
    outer loop
      vertex 13.65 8.72391 7
      vertex 9.35 8.72391 0
      vertex 13.65 8.72391 0
    endloop
  endfacet
  facet normal 0 1 -0
    outer loop
      vertex 13.65 1.27609 0
      vertex 9.35 1.27609 7
      vertex 13.65 1.27609 7
    endloop
  endfacet
  facet normal 0 1 0
    outer loop
      vertex 9.35 1.27609 7
      vertex 13.65 1.27609 0
      vertex 9.35 1.27609 0
    endloop
  endfacet
  facet normal 0 0 -1
    outer loop
      vertex 13.65 1.27609 7
      vertex 13.65 8.72391 7
      vertex 15.8 5 7
    endloop
  endfacet
  facet normal 0 0 -1
    outer loop
      vertex 9.35 1.27609 7
      vertex 13.65 8.72391 7
      vertex 13.65 1.27609 7
    endloop
  endfacet
  facet normal 0 0 -1
    outer loop
      vertex 9.35 1.27609 7
      vertex 9.35 8.72391 7
      vertex 13.65 8.72391 7
    endloop
  endfacet
  facet normal 0 -0 -1
    outer loop
      vertex 9.35 8.72391 7
      vertex 9.35 1.27609 7
      vertex 7.2 5 7
    endloop
  endfacet
  facet normal 0.866025 -0.5 0
    outer loop
      vertex 7.2 5 7
      vertex 9.35 8.72391 0
      vertex 9.35 8.72391 7
    endloop
  endfacet
  facet normal 0.866025 -0.5 0
    outer loop
      vertex 9.35 8.72391 0
      vertex 7.2 5 7
      vertex 7.2 5 0
    endloop
  endfacet
  facet normal -0.866025 0.5 0
    outer loop
      vertex 13.65 1.27609 0
      vertex 15.8 5 7
      vertex 15.8 5 0
    endloop
  endfacet
  facet normal -0.866025 0.5 0
    outer loop
      vertex 15.8 5 7
      vertex 13.65 1.27609 0
      vertex 13.65 1.27609 7
    endloop
  endfacet
  facet normal 0.866025 0.5 0
    outer loop
      vertex 9.35 1.27609 7
      vertex 7.2 5 0
      vertex 7.2 5 7
    endloop
  endfacet
  facet normal 0.866025 0.5 0
    outer loop
      vertex 7.2 5 0
      vertex 9.35 1.27609 7
      vertex 9.35 1.27609 0
    endloop
  endfacet
  facet normal -0.987688 -0.156435 0
    outer loop
      vertex 13.5 5 7.3
      vertex 13.4021 5.61803 11.6
      vertex 13.4021 5.61803 7.3
    endloop
  endfacet
  facet normal -0.987688 -0.156435 0
    outer loop
      vertex 13.4021 5.61803 11.6
      vertex 13.5 5 7.3
      vertex 13.5 5 11.6
    endloop
  endfacet
  facet normal -0.156435 -0.987688 0
    outer loop
      vertex 11.5 7 7.3
      vertex 12.118 6.90211 11.6
      vertex 11.5 7 11.6
    endloop
  endfacet
  facet normal -0.156435 -0.987688 -0
    outer loop
      vertex 12.118 6.90211 11.6
      vertex 11.5 7 7.3
      vertex 12.118 6.90211 7.3
    endloop
  endfacet
  facet normal 0.987689 0.156433 0
    outer loop
      vertex 9.59789 4.38197 11.6
      vertex 9.5 5 7.3
      vertex 9.5 5 11.6
    endloop
  endfacet
  facet normal 0.987689 0.156433 0
    outer loop
      vertex 9.5 5 7.3
      vertex 9.59789 4.38197 11.6
      vertex 9.59789 4.38197 7.3
    endloop
  endfacet
  facet normal -0.453991 0.891006 0
    outer loop
      vertex 12.6756 3.38197 7.3
      vertex 12.118 3.09789 11.6
      vertex 12.6756 3.38197 11.6
    endloop
  endfacet
  facet normal -0.453991 0.891006 0
    outer loop
      vertex 12.118 3.09789 11.6
      vertex 12.6756 3.38197 7.3
      vertex 12.118 3.09789 7.3
    endloop
  endfacet
  facet normal -0.156433 0.987689 0
    outer loop
      vertex 12.118 3.09789 7.3
      vertex 11.5 3 11.6
      vertex 12.118 3.09789 11.6
    endloop
  endfacet
  facet normal -0.156433 0.987689 0
    outer loop
      vertex 11.5 3 11.6
      vertex 12.118 3.09789 7.3
      vertex 11.5 3 7.3
    endloop
  endfacet
  facet normal -0.891006 -0.453991 0
    outer loop
      vertex 13.4021 5.61803 7.3
      vertex 13.118 6.17557 11.6
      vertex 13.118 6.17557 7.3
    endloop
  endfacet
  facet normal -0.891006 -0.453991 0
    outer loop
      vertex 13.118 6.17557 11.6
      vertex 13.4021 5.61803 7.3
      vertex 13.4021 5.61803 11.6
    endloop
  endfacet
  facet normal 0.156434 -0.987688 0
    outer loop
      vertex 10.882 6.90211 7.3
      vertex 11.5 7 11.6
      vertex 10.882 6.90211 11.6
    endloop
  endfacet
  facet normal 0.156434 -0.987688 0
    outer loop
      vertex 11.5 7 11.6
      vertex 10.882 6.90211 7.3
      vertex 11.5 7 7.3
    endloop
  endfacet
  facet normal 0 0 1
    outer loop
      vertex 13.4021 5.61803 7.3
      vertex 13.4021 4.38197 7.3
      vertex 13.5 5 7.3
    endloop
  endfacet
  facet normal 0 0 1
    outer loop
      vertex 13.118 6.17557 7.3
      vertex 13.4021 4.38197 7.3
      vertex 13.4021 5.61803 7.3
    endloop
  endfacet
  facet normal 0 0 1
    outer loop
      vertex 13.118 6.17557 7.3
      vertex 13.118 3.82443 7.3
      vertex 13.4021 4.38197 7.3
    endloop
  endfacet
  facet normal 0 0 1
    outer loop
      vertex 12.6756 6.61803 7.3
      vertex 13.118 3.82443 7.3
      vertex 13.118 6.17557 7.3
    endloop
  endfacet
  facet normal 0 0 1
    outer loop
      vertex 12.6756 6.61803 7.3
      vertex 12.6756 3.38197 7.3
      vertex 13.118 3.82443 7.3
    endloop
  endfacet
  facet normal 0 0 1
    outer loop
      vertex 12.118 6.90211 7.3
      vertex 12.6756 3.38197 7.3
      vertex 12.6756 6.61803 7.3
    endloop
  endfacet
  facet normal 0 0 1
    outer loop
      vertex 12.118 6.90211 7.3
      vertex 12.118 3.09789 7.3
      vertex 12.6756 3.38197 7.3
    endloop
  endfacet
  facet normal 0 0 1
    outer loop
      vertex 11.5 7 7.3
      vertex 12.118 3.09789 7.3
      vertex 12.118 6.90211 7.3
    endloop
  endfacet
  facet normal 0 0 1
    outer loop
      vertex 11.5 7 7.3
      vertex 11.5 3 7.3
      vertex 12.118 3.09789 7.3
    endloop
  endfacet
  facet normal -0 0 1
    outer loop
      vertex 10.882 6.90211 7.3
      vertex 11.5 3 7.3
      vertex 11.5 7 7.3
    endloop
  endfacet
  facet normal 0 0 1
    outer loop
      vertex 10.882 6.90211 7.3
      vertex 10.882 3.09789 7.3
      vertex 11.5 3 7.3
    endloop
  endfacet
  facet normal -0 0 1
    outer loop
      vertex 10.3244 6.61803 7.3
      vertex 10.882 3.09789 7.3
      vertex 10.882 6.90211 7.3
    endloop
  endfacet
  facet normal 0 0 1
    outer loop
      vertex 10.3244 6.61803 7.3
      vertex 10.3244 3.38197 7.3
      vertex 10.882 3.09789 7.3
    endloop
  endfacet
  facet normal -0 0 1
    outer loop
      vertex 9.88197 6.17557 7.3
      vertex 10.3244 3.38197 7.3
      vertex 10.3244 6.61803 7.3
    endloop
  endfacet
  facet normal 0 0 1
    outer loop
      vertex 9.88197 6.17557 7.3
      vertex 9.88197 3.82443 7.3
      vertex 10.3244 3.38197 7.3
    endloop
  endfacet
  facet normal -0 0 1
    outer loop
      vertex 9.59789 5.61803 7.3
      vertex 9.88197 3.82443 7.3
      vertex 9.88197 6.17557 7.3
    endloop
  endfacet
  facet normal 0 0 1
    outer loop
      vertex 9.59789 5.61803 7.3
      vertex 9.59789 4.38197 7.3
      vertex 9.88197 3.82443 7.3
    endloop
  endfacet
  facet normal 0 -0 1
    outer loop
      vertex 9.59789 4.38197 7.3
      vertex 9.59789 5.61803 7.3
      vertex 9.5 5 7.3
    endloop
  endfacet
  facet normal 0.453991 -0.891006 0
    outer loop
      vertex 10.3244 6.61803 7.3
      vertex 10.882 6.90211 11.6
      vertex 10.3244 6.61803 11.6
    endloop
  endfacet
  facet normal 0.453991 -0.891006 0
    outer loop
      vertex 10.882 6.90211 11.6
      vertex 10.3244 6.61803 7.3
      vertex 10.882 6.90211 7.3
    endloop
  endfacet
  facet normal 0.891006 0.453991 0
    outer loop
      vertex 9.88197 3.82443 11.6
      vertex 9.59789 4.38197 7.3
      vertex 9.59789 4.38197 11.6
    endloop
  endfacet
  facet normal 0.891006 0.453991 0
    outer loop
      vertex 9.59789 4.38197 7.3
      vertex 9.88197 3.82443 11.6
      vertex 9.88197 3.82443 7.3
    endloop
  endfacet
  facet normal 0.156433 0.987689 -0
    outer loop
      vertex 11.5 3 7.3
      vertex 10.882 3.09789 11.6
      vertex 11.5 3 11.6
    endloop
  endfacet
  facet normal 0.156433 0.987689 0
    outer loop
      vertex 10.882 3.09789 11.6
      vertex 11.5 3 7.3
      vertex 10.882 3.09789 7.3
    endloop
  endfacet
  facet normal -0.707107 -0.707107 0
    outer loop
      vertex 13.118 6.17557 7.3
      vertex 12.6756 6.61803 11.6
      vertex 12.6756 6.61803 7.3
    endloop
  endfacet
  facet normal -0.707107 -0.707107 0
    outer loop
      vertex 12.6756 6.61803 11.6
      vertex 13.118 6.17557 7.3
      vertex 13.118 6.17557 11.6
    endloop
  endfacet
  facet normal -0.453991 -0.891006 0
    outer loop
      vertex 12.118 6.90211 7.3
      vertex 12.6756 6.61803 11.6
      vertex 12.118 6.90211 11.6
    endloop
  endfacet
  facet normal -0.453991 -0.891006 -0
    outer loop
      vertex 12.6756 6.61803 11.6
      vertex 12.118 6.90211 7.3
      vertex 12.6756 6.61803 7.3
    endloop
  endfacet
  facet normal 0.987689 -0.156433 0
    outer loop
      vertex 9.5 5 11.6
      vertex 9.59789 5.61803 7.3
      vertex 9.59789 5.61803 11.6
    endloop
  endfacet
  facet normal 0.987689 -0.156433 0
    outer loop
      vertex 9.59789 5.61803 7.3
      vertex 9.5 5 11.6
      vertex 9.5 5 7.3
    endloop
  endfacet
  facet normal 0.707107 -0.707107 0
    outer loop
      vertex 9.88197 6.17557 11.6
      vertex 10.3244 6.61803 7.3
      vertex 10.3244 6.61803 11.6
    endloop
  endfacet
  facet normal 0.707107 -0.707107 0
    outer loop
      vertex 10.3244 6.61803 7.3
      vertex 9.88197 6.17557 11.6
      vertex 9.88197 6.17557 7.3
    endloop
  endfacet
  facet normal 0.891006 -0.453991 0
    outer loop
      vertex 9.59789 5.61803 11.6
      vertex 9.88197 6.17557 7.3
      vertex 9.88197 6.17557 11.6
    endloop
  endfacet
  facet normal 0.891006 -0.453991 0
    outer loop
      vertex 9.88197 6.17557 7.3
      vertex 9.59789 5.61803 11.6
      vertex 9.59789 5.61803 7.3
    endloop
  endfacet
  facet normal -0.707107 0.707107 0
    outer loop
      vertex 12.6756 3.38197 7.3
      vertex 13.118 3.82443 11.6
      vertex 13.118 3.82443 7.3
    endloop
  endfacet
  facet normal -0.707107 0.707107 0
    outer loop
      vertex 13.118 3.82443 11.6
      vertex 12.6756 3.38197 7.3
      vertex 12.6756 3.38197 11.6
    endloop
  endfacet
  facet normal 0.707107 0.707107 0
    outer loop
      vertex 10.3244 3.38197 11.6
      vertex 9.88197 3.82443 7.3
      vertex 9.88197 3.82443 11.6
    endloop
  endfacet
  facet normal 0.707107 0.707107 0
    outer loop
      vertex 9.88197 3.82443 7.3
      vertex 10.3244 3.38197 11.6
      vertex 10.3244 3.38197 7.3
    endloop
  endfacet
  facet normal 0.453991 0.891006 -0
    outer loop
      vertex 10.882 3.09789 7.3
      vertex 10.3244 3.38197 11.6
      vertex 10.882 3.09789 11.6
    endloop
  endfacet
  facet normal 0.453991 0.891006 0
    outer loop
      vertex 10.3244 3.38197 11.6
      vertex 10.882 3.09789 7.3
      vertex 10.3244 3.38197 7.3
    endloop
  endfacet
  facet normal -0.891006 0.453991 0
    outer loop
      vertex 13.118 3.82443 7.3
      vertex 13.4021 4.38197 11.6
      vertex 13.4021 4.38197 7.3
    endloop
  endfacet
  facet normal -0.891006 0.453991 0
    outer loop
      vertex 13.4021 4.38197 11.6
      vertex 13.118 3.82443 7.3
      vertex 13.118 3.82443 11.6
    endloop
  endfacet
  facet normal -0.987688 0.156434 0
    outer loop
      vertex 13.4021 4.38197 7.3
      vertex 13.5 5 11.6
      vertex 13.5 5 7.3
    endloop
  endfacet
  facet normal -0.987688 0.156434 0
    outer loop
      vertex 13.5 5 11.6
      vertex 13.4021 4.38197 7.3
      vertex 13.4021 4.38197 11.6
    endloop
  endfacet
endsolid OpenSCAD_Model
