solid OpenSCAD_Model
  facet normal -1 0 0
    outer loop
      vertex 0 0 0
      vertex 0 10 6
      vertex 0 10 0
    endloop
  endfacet
  facet normal -1 -0 0
    outer loop
      vertex 0 10 6
      vertex 0 0 0
      vertex 0 0 6
    endloop
  endfacet
  facet normal 0 0 1
    outer loop
      vertex 7.53943 4.72188 6
      vertex 6.1 2.22872 6
      vertex 7.53943 4.37333 6
    endloop
  endfacet
  facet normal 0 0 1
    outer loop
      vertex 25 10 6
      vertex 23.7 5 6
      vertex 25 0 6
    endloop
  endfacet
  facet normal 0 0 1
    outer loop
      vertex 25 10 6
      vertex 22.1 7.77128 6
      vertex 23.7 5 6
    endloop
  endfacet
  facet normal 0 0 1
    outer loop
      vertex 25 10 6
      vertex 18.9 7.77128 6
      vertex 22.1 7.77128 6
    endloop
  endfacet
  facet normal 0 0 1
    outer loop
      vertex 18.9 7.77128 6
      vertex 17.3429 6.24345 6
      vertex 17.4641 5.28422 6
    endloop
  endfacet
  facet normal 0 0 1
    outer loop
      vertex 18.9 7.77128 6
      vertex 16.8815 7.40877 6
      vertex 17.3429 6.24345 6
    endloop
  endfacet
  facet normal -0 0 1
    outer loop
      vertex 15.1791 9.22164 6
      vertex 18.9 7.77128 6
      vertex 25 10 6
    endloop
  endfacet
  facet normal 0 0 1
    outer loop
      vertex 18.9 7.77128 6
      vertex 16.1448 8.42274 6
      vertex 16.8815 7.40877 6
    endloop
  endfacet
  facet normal 0 0 1
    outer loop
      vertex 18.9 7.77128 6
      vertex 15.1791 9.22164 6
      vertex 16.1448 8.42274 6
    endloop
  endfacet
  facet normal 0 0 1
    outer loop
      vertex 25 10 6
      vertex 14.0451 9.75528 6
      vertex 15.1791 9.22164 6
    endloop
  endfacet
  facet normal 0 0 1
    outer loop
      vertex 25 10 6
      vertex 12.814 9.99013 6
      vertex 14.0451 9.75528 6
    endloop
  endfacet
  facet normal 0 0 1
    outer loop
      vertex 7.53943 5.62667 6
      vertex 6.1 7.77128 6
      vertex 7.53943 5.27812 6
    endloop
  endfacet
  facet normal 0 0 1
    outer loop
      vertex 7.85112 6.84062 6
      vertex 6.1 7.77128 6
      vertex 7.53943 5.62667 6
    endloop
  endfacet
  facet normal 0 0 1
    outer loop
      vertex 8.45491 7.93893 6
      vertex 6.1 7.77128 6
      vertex 7.85112 6.84062 6
    endloop
  endfacet
  facet normal 0 0 1
    outer loop
      vertex 9.31288 8.85257 6
      vertex 6.1 7.77128 6
      vertex 8.45491 7.93893 6
    endloop
  endfacet
  facet normal 0 0 1
    outer loop
      vertex 0 10 6
      vertex 9.31288 8.85257 6
      vertex 10.3711 9.52413 6
    endloop
  endfacet
  facet normal 0 0 1
    outer loop
      vertex 9.31288 8.85257 6
      vertex 0 10 6
      vertex 6.1 7.77128 6
    endloop
  endfacet
  facet normal 0 0 1
    outer loop
      vertex 0 10 6
      vertex 10.3711 9.52413 6
      vertex 11.5631 9.91144 6
    endloop
  endfacet
  facet normal 0 0 1
    outer loop
      vertex 2.9 7.77128 6
      vertex 0 10 6
      vertex 1.3 5 6
    endloop
  endfacet
  facet normal 0 0 1
    outer loop
      vertex 6.1 7.77128 6
      vertex 0 10 6
      vertex 2.9 7.77128 6
    endloop
  endfacet
  facet normal 0 0 1
    outer loop
      vertex 12.814 9.99013 6
      vertex 0 10 6
      vertex 11.5631 9.91144 6
    endloop
  endfacet
  facet normal -0 0 1
    outer loop
      vertex 0 10 6
      vertex 12.814 9.99013 6
      vertex 25 10 6
    endloop
  endfacet
  facet normal -0 0 1
    outer loop
      vertex 22.1 2.22872 6
      vertex 25 0 6
      vertex 23.7 5 6
    endloop
  endfacet
  facet normal -0 0 1
    outer loop
      vertex 18.9 2.22872 6
      vertex 25 0 6
      vertex 22.1 2.22872 6
    endloop
  endfacet
  facet normal -0 0 1
    outer loop
      vertex 17.3429 3.75655 6
      vertex 18.9 2.22872 6
      vertex 17.4641 4.71578 6
    endloop
  endfacet
  facet normal -0 0 1
    outer loop
      vertex 16.8815 2.59123 6
      vertex 18.9 2.22872 6
      vertex 17.3429 3.75655 6
    endloop
  endfacet
  facet normal 0 0 1
    outer loop
      vertex 16.1448 1.57726 6
      vertex 18.9 2.22872 6
      vertex 16.8815 2.59123 6
    endloop
  endfacet
  facet normal 0 0 1
    outer loop
      vertex 15.1791 0.77836 6
      vertex 18.9 2.22872 6
      vertex 16.1448 1.57726 6
    endloop
  endfacet
  facet normal 0 0 1
    outer loop
      vertex 18.9 2.22872 6
      vertex 15.1791 0.77836 6
      vertex 25 0 6
    endloop
  endfacet
  facet normal -0 0 1
    outer loop
      vertex 14.0451 0.244717 6
      vertex 25 0 6
      vertex 15.1791 0.77836 6
    endloop
  endfacet
  facet normal -0 0 1
    outer loop
      vertex 12.814 0.00986576 6
      vertex 25 0 6
      vertex 14.0451 0.244717 6
    endloop
  endfacet
  facet normal 0 0 1
    outer loop
      vertex 6.1 2.22872 6
      vertex 7.85112 3.15938 6
      vertex 7.53943 4.37333 6
    endloop
  endfacet
  facet normal -0 0 1
    outer loop
      vertex 6.1 2.22872 6
      vertex 8.45491 2.06107 6
      vertex 7.85112 3.15938 6
    endloop
  endfacet
  facet normal 0 0 1
    outer loop
      vertex 6.1 2.22872 6
      vertex 9.31288 1.14743 6
      vertex 8.45491 2.06107 6
    endloop
  endfacet
  facet normal 0 0 1
    outer loop
      vertex 0 0 6
      vertex 9.31288 1.14743 6
      vertex 6.1 2.22872 6
    endloop
  endfacet
  facet normal 0 0 1
    outer loop
      vertex 0 0 6
      vertex 6.1 2.22872 6
      vertex 2.9 2.22872 6
    endloop
  endfacet
  facet normal 0 0 1
    outer loop
      vertex 9.31288 1.14743 6
      vertex 0 0 6
      vertex 10.3711 0.475864 6
    endloop
  endfacet
  facet normal 0 0 1
    outer loop
      vertex 12.814 0.00986576 6
      vertex 0 0 6
      vertex 25 0 6
    endloop
  endfacet
  facet normal 0 0 1
    outer loop
      vertex 11.5631 0.088563 6
      vertex 0 0 6
      vertex 12.814 0.00986576 6
    endloop
  endfacet
  facet normal 0 0 1
    outer loop
      vertex 10.3711 0.475864 6
      vertex 0 0 6
      vertex 11.5631 0.088563 6
    endloop
  endfacet
  facet normal 0 0 1
    outer loop
      vertex 1.3 5 6
      vertex 0 0 6
      vertex 2.9 2.22872 6
    endloop
  endfacet
  facet normal 0 0 1
    outer loop
      vertex 0 0 6
      vertex 1.3 5 6
      vertex 0 10 6
    endloop
  endfacet
  facet normal 1 -0 0
    outer loop
      vertex 25 0 6
      vertex 25 10 0
      vertex 25 10 6
    endloop
  endfacet
  facet normal 1 0 0
    outer loop
      vertex 25 10 0
      vertex 25 0 6
      vertex 25 0 0
    endloop
  endfacet
  facet normal 0 1 -0
    outer loop
      vertex 25 10 0
      vertex 0 10 6
      vertex 25 10 6
    endloop
  endfacet
  facet normal 0 1 0
    outer loop
      vertex 0 10 6
      vertex 25 10 0
      vertex 0 10 0
    endloop
  endfacet
  facet normal 0 0 -1
    outer loop
      vertex 25 0 0
      vertex 22.15 5 0
      vertex 25 10 0
    endloop
  endfacet
  facet normal 0 0 -1
    outer loop
      vertex 25 0 0
      vertex 22.0692 4.49012 0
      vertex 22.15 5 0
    endloop
  endfacet
  facet normal 0 0 -1
    outer loop
      vertex 25 0 0
      vertex 21.8349 4.03015 0
      vertex 22.0692 4.49012 0
    endloop
  endfacet
  facet normal 0 0 -1
    outer loop
      vertex 25 0 0
      vertex 21.4698 3.66512 0
      vertex 21.8349 4.03015 0
    endloop
  endfacet
  facet normal 0 0 -1
    outer loop
      vertex 25 0 0
      vertex 21.0099 3.43076 0
      vertex 21.4698 3.66512 0
    endloop
  endfacet
  facet normal 0 0 -1
    outer loop
      vertex 25 0 0
      vertex 20.5 3.35 0
      vertex 21.0099 3.43076 0
    endloop
  endfacet
  facet normal 0 0 -1
    outer loop
      vertex 14.75 1.10289 0
      vertex 20.5 3.35 0
      vertex 25 0 0
    endloop
  endfacet
  facet normal -0 0 -1
    outer loop
      vertex 20.5 3.35 0
      vertex 14.75 1.10289 0
      vertex 19.9901 3.43076 0
    endloop
  endfacet
  facet normal 0 0 -1
    outer loop
      vertex 18.9308 4.49012 0
      vertex 17 5 0
      vertex 18.85 5 0
    endloop
  endfacet
  facet normal 0 0 -1
    outer loop
      vertex 19.1651 4.03015 0
      vertex 17 5 0
      vertex 18.9308 4.49012 0
    endloop
  endfacet
  facet normal 0 0 -1
    outer loop
      vertex 14.75 1.10289 0
      vertex 19.1651 4.03015 0
      vertex 19.5302 3.66512 0
    endloop
  endfacet
  facet normal -0 0 -1
    outer loop
      vertex 19.9901 3.43076 0
      vertex 14.75 1.10289 0
      vertex 19.5302 3.66512 0
    endloop
  endfacet
  facet normal -0 0 -1
    outer loop
      vertex 19.1651 4.03015 0
      vertex 14.75 1.10289 0
      vertex 17 5 0
    endloop
  endfacet
  facet normal 0 0 -1
    outer loop
      vertex 25 0 0
      vertex 10.25 1.10289 0
      vertex 14.75 1.10289 0
    endloop
  endfacet
  facet normal 0 0 -1
    outer loop
      vertex 5.83488 4.03015 0
      vertex 8 5 0
      vertex 10.25 1.10289 0
    endloop
  endfacet
  facet normal -0 0 -1
    outer loop
      vertex 8 5 0
      vertex 6.06924 4.49012 0
      vertex 6.15 5 0
    endloop
  endfacet
  facet normal 0 0 -1
    outer loop
      vertex 8 5 0
      vertex 5.83488 4.03015 0
      vertex 6.06924 4.49012 0
    endloop
  endfacet
  facet normal 0 0 -1
    outer loop
      vertex 10.25 1.10289 0
      vertex 5.46984 3.66512 0
      vertex 5.83488 4.03015 0
    endloop
  endfacet
  facet normal 0 0 -1
    outer loop
      vertex 10.25 1.10289 0
      vertex 5.00988 3.43076 0
      vertex 5.46984 3.66512 0
    endloop
  endfacet
  facet normal 0 0 -1
    outer loop
      vertex 10.25 1.10289 0
      vertex 4.5 3.35 0
      vertex 5.00988 3.43076 0
    endloop
  endfacet
  facet normal 0 0 -1
    outer loop
      vertex 0 0 0
      vertex 4.5 3.35 0
      vertex 10.25 1.10289 0
    endloop
  endfacet
  facet normal -0 0 -1
    outer loop
      vertex 2.93076 4.49012 0
      vertex 0 0 0
      vertex 2.85 5 0
    endloop
  endfacet
  facet normal -0 0 -1
    outer loop
      vertex 3.16512 4.03015 0
      vertex 0 0 0
      vertex 2.93076 4.49012 0
    endloop
  endfacet
  facet normal -0 0 -1
    outer loop
      vertex 3.53015 3.66512 0
      vertex 0 0 0
      vertex 3.16512 4.03015 0
    endloop
  endfacet
  facet normal -0 0 -1
    outer loop
      vertex 3.99012 3.43076 0
      vertex 0 0 0
      vertex 3.53015 3.66512 0
    endloop
  endfacet
  facet normal -0 0 -1
    outer loop
      vertex 4.5 3.35 0
      vertex 0 0 0
      vertex 3.99012 3.43076 0
    endloop
  endfacet
  facet normal 0 0 -1
    outer loop
      vertex 0 0 0
      vertex 10.25 1.10289 0
      vertex 25 0 0
    endloop
  endfacet
  facet normal 0 0 -1
    outer loop
      vertex 22.0692 5.50988 0
      vertex 25 10 0
      vertex 22.15 5 0
    endloop
  endfacet
  facet normal 0 0 -1
    outer loop
      vertex 21.8349 5.96984 0
      vertex 25 10 0
      vertex 22.0692 5.50988 0
    endloop
  endfacet
  facet normal 0 0 -1
    outer loop
      vertex 21.4698 6.33488 0
      vertex 25 10 0
      vertex 21.8349 5.96984 0
    endloop
  endfacet
  facet normal 0 0 -1
    outer loop
      vertex 21.0099 6.56924 0
      vertex 25 10 0
      vertex 21.4698 6.33488 0
    endloop
  endfacet
  facet normal 0 0 -1
    outer loop
      vertex 20.5 6.65 0
      vertex 25 10 0
      vertex 21.0099 6.56924 0
    endloop
  endfacet
  facet normal 0 0 -1
    outer loop
      vertex 14.75 8.89711 0
      vertex 20.5 6.65 0
      vertex 19.9901 6.56924 0
    endloop
  endfacet
  facet normal 0 0 -1
    outer loop
      vertex 14.75 8.89711 0
      vertex 19.9901 6.56924 0
      vertex 19.5302 6.33488 0
    endloop
  endfacet
  facet normal 0 0 -1
    outer loop
      vertex 17 5 0
      vertex 18.9308 5.50988 0
      vertex 18.85 5 0
    endloop
  endfacet
  facet normal 0 0 -1
    outer loop
      vertex 17 5 0
      vertex 19.1651 5.96984 0
      vertex 18.9308 5.50988 0
    endloop
  endfacet
  facet normal 0 0 -1
    outer loop
      vertex 14.75 8.89711 0
      vertex 19.1651 5.96984 0
      vertex 17 5 0
    endloop
  endfacet
  facet normal 0 0 -1
    outer loop
      vertex 19.1651 5.96984 0
      vertex 14.75 8.89711 0
      vertex 19.5302 6.33488 0
    endloop
  endfacet
  facet normal 0 0 -1
    outer loop
      vertex 20.5 6.65 0
      vertex 14.75 8.89711 0
      vertex 25 10 0
    endloop
  endfacet
  facet normal 0 0 -1
    outer loop
      vertex 10.25 8.89711 0
      vertex 25 10 0
      vertex 14.75 8.89711 0
    endloop
  endfacet
  facet normal 0 0 -1
    outer loop
      vertex 6.06924 5.50988 0
      vertex 8 5 0
      vertex 6.15 5 0
    endloop
  endfacet
  facet normal 0 0 -1
    outer loop
      vertex 5.83488 5.96984 0
      vertex 8 5 0
      vertex 6.06924 5.50988 0
    endloop
  endfacet
  facet normal 0 0 -1
    outer loop
      vertex 8 5 0
      vertex 5.83488 5.96984 0
      vertex 10.25 8.89711 0
    endloop
  endfacet
  facet normal 0 0 -1
    outer loop
      vertex 5.46984 6.33488 0
      vertex 10.25 8.89711 0
      vertex 5.83488 5.96984 0
    endloop
  endfacet
  facet normal 0 0 -1
    outer loop
      vertex 5.00988 6.56924 0
      vertex 10.25 8.89711 0
      vertex 5.46984 6.33488 0
    endloop
  endfacet
  facet normal 0 0 -1
    outer loop
      vertex 4.5 6.65 0
      vertex 10.25 8.89711 0
      vertex 5.00988 6.56924 0
    endloop
  endfacet
  facet normal 0 0 -1
    outer loop
      vertex 0 10 0
      vertex 4.5 6.65 0
      vertex 3.99012 6.56924 0
    endloop
  endfacet
  facet normal 0 0 -1
    outer loop
      vertex 0 10 0
      vertex 2.85 5 0
      vertex 0 0 0
    endloop
  endfacet
  facet normal 0 0 -1
    outer loop
      vertex 2.85 5 0
      vertex 0 10 0
      vertex 2.93076 5.50988 0
    endloop
  endfacet
  facet normal 0 0 -1
    outer loop
      vertex 10.25 8.89711 0
      vertex 0 10 0
      vertex 25 10 0
    endloop
  endfacet
  facet normal 0 0 -1
    outer loop
      vertex 4.5 6.65 0
      vertex 0 10 0
      vertex 10.25 8.89711 0
    endloop
  endfacet
  facet normal 0 0 -1
    outer loop
      vertex 3.53015 6.33488 0
      vertex 0 10 0
      vertex 3.99012 6.56924 0
    endloop
  endfacet
  facet normal 0 0 -1
    outer loop
      vertex 3.16512 5.96984 0
      vertex 0 10 0
      vertex 3.53015 6.33488 0
    endloop
  endfacet
  facet normal 0 0 -1
    outer loop
      vertex 2.93076 5.50988 0
      vertex 0 10 0
      vertex 3.16512 5.96984 0
    endloop
  endfacet
  facet normal 0 -1 0
    outer loop
      vertex 0 0 0
      vertex 25 0 6
      vertex 0 0 6
    endloop
  endfacet
  facet normal 0 -1 -0
    outer loop
      vertex 25 0 6
      vertex 0 0 0
      vertex 25 0 0
    endloop
  endfacet
  facet normal 0.987688 0.156435 0
    outer loop
      vertex 15.6 5 11.6
      vertex 15.4483 5.95795 10.6
      vertex 15.4483 5.95795 11.6
    endloop
  endfacet
  facet normal 0.987688 0.156435 0
    outer loop
      vertex 15.4483 5.95795 10.6
      vertex 15.6 5 11.6
      vertex 15.6 5 10.6
    endloop
  endfacet
  facet normal -0.156434 0.987688 0
    outer loop
      vertex 12.5 8.1 10.6
      vertex 11.542 7.94827 11.6
      vertex 12.5 8.1 11.6
    endloop
  endfacet
  facet normal -0.156434 0.987688 0
    outer loop
      vertex 11.542 7.94827 11.6
      vertex 12.5 8.1 10.6
      vertex 11.542 7.94827 10.6
    endloop
  endfacet
  facet normal 0.156435 -0.987688 0
    outer loop
      vertex 12.5 1.9 10.6
      vertex 13.458 2.05172 11.6
      vertex 12.5 1.9 11.6
    endloop
  endfacet
  facet normal 0.156435 -0.987688 0
    outer loop
      vertex 13.458 2.05172 11.6
      vertex 12.5 1.9 10.6
      vertex 13.458 2.05172 10.6
    endloop
  endfacet
  facet normal -0.453991 -0.891006 0
    outer loop
      vertex 10.6779 2.49205 10.6
      vertex 11.542 2.05172 11.6
      vertex 10.6779 2.49205 11.6
    endloop
  endfacet
  facet normal -0.453991 -0.891006 -0
    outer loop
      vertex 11.542 2.05172 11.6
      vertex 10.6779 2.49205 10.6
      vertex 11.542 2.05172 10.6
    endloop
  endfacet
  facet normal 0.453991 0.891006 -0
    outer loop
      vertex 14.3221 7.50795 10.6
      vertex 13.458 7.94827 11.6
      vertex 14.3221 7.50795 11.6
    endloop
  endfacet
  facet normal 0.453991 0.891006 0
    outer loop
      vertex 13.458 7.94827 11.6
      vertex 14.3221 7.50795 10.6
      vertex 13.458 7.94827 10.6
    endloop
  endfacet
  facet normal 0.891006 0.453991 0
    outer loop
      vertex 15.4483 5.95795 11.6
      vertex 15.008 6.82213 10.6
      vertex 15.008 6.82213 11.6
    endloop
  endfacet
  facet normal 0.891006 0.453991 0
    outer loop
      vertex 15.008 6.82213 10.6
      vertex 15.4483 5.95795 11.6
      vertex 15.4483 5.95795 10.6
    endloop
  endfacet
  facet normal 0.156435 0.987688 -0
    outer loop
      vertex 13.458 7.94827 10.6
      vertex 12.5 8.1 11.6
      vertex 13.458 7.94827 11.6
    endloop
  endfacet
  facet normal 0.156435 0.987688 0
    outer loop
      vertex 12.5 8.1 11.6
      vertex 13.458 7.94827 10.6
      vertex 12.5 8.1 10.6
    endloop
  endfacet
  facet normal -0.891006 0.453991 0
    outer loop
      vertex 9.55172 5.95795 10.6
      vertex 9.99205 6.82213 11.6
      vertex 9.99205 6.82213 10.6
    endloop
  endfacet
  facet normal -0.891006 0.453991 0
    outer loop
      vertex 9.99205 6.82213 11.6
      vertex 9.55172 5.95795 10.6
      vertex 9.55172 5.95795 11.6
    endloop
  endfacet
  facet normal -0.987688 0.156435 0
    outer loop
      vertex 9.4 5 10.6
      vertex 9.55172 5.95795 11.6
      vertex 9.55172 5.95795 10.6
    endloop
  endfacet
  facet normal -0.987688 0.156435 0
    outer loop
      vertex 9.55172 5.95795 11.6
      vertex 9.4 5 10.6
      vertex 9.4 5 11.6
    endloop
  endfacet
  facet normal 0 0 1
    outer loop
      vertex 14.5 5 11.6
      vertex 15.6 5 11.6
      vertex 15.4483 5.95795 11.6
    endloop
  endfacet
  facet normal 0 0 1
    outer loop
      vertex 14.4021 5.61803 11.6
      vertex 15.4483 5.95795 11.6
      vertex 15.008 6.82213 11.6
    endloop
  endfacet
  facet normal 0 0 1
    outer loop
      vertex 15.6 5 11.6
      vertex 14.5 5 11.6
      vertex 15.4483 4.04205 11.6
    endloop
  endfacet
  facet normal -0 0 1
    outer loop
      vertex 14.4021 4.38197 11.6
      vertex 15.4483 4.04205 11.6
      vertex 14.5 5 11.6
    endloop
  endfacet
  facet normal 0 0 1
    outer loop
      vertex 15.4483 5.95795 11.6
      vertex 14.4021 5.61803 11.6
      vertex 14.5 5 11.6
    endloop
  endfacet
  facet normal 0 0 1
    outer loop
      vertex 14.118 6.17557 11.6
      vertex 15.008 6.82213 11.6
      vertex 14.3221 7.50795 11.6
    endloop
  endfacet
  facet normal 0 0 1
    outer loop
      vertex 15.008 6.82213 11.6
      vertex 14.118 6.17557 11.6
      vertex 14.4021 5.61803 11.6
    endloop
  endfacet
  facet normal 0 0 1
    outer loop
      vertex 14.3221 7.50795 11.6
      vertex 13.6756 6.61803 11.6
      vertex 14.118 6.17557 11.6
    endloop
  endfacet
  facet normal 0 0 1
    outer loop
      vertex 13.458 7.94827 11.6
      vertex 13.6756 6.61803 11.6
      vertex 14.3221 7.50795 11.6
    endloop
  endfacet
  facet normal 0 0 1
    outer loop
      vertex 13.458 7.94827 11.6
      vertex 13.118 6.90211 11.6
      vertex 13.6756 6.61803 11.6
    endloop
  endfacet
  facet normal 0 0 1
    outer loop
      vertex 12.5 8.1 11.6
      vertex 13.118 6.90211 11.6
      vertex 13.458 7.94827 11.6
    endloop
  endfacet
  facet normal 0 0 1
    outer loop
      vertex 12.5 8.1 11.6
      vertex 12.5 7 11.6
      vertex 13.118 6.90211 11.6
    endloop
  endfacet
  facet normal 0 0 1
    outer loop
      vertex 12.5 8.1 11.6
      vertex 11.882 6.90211 11.6
      vertex 12.5 7 11.6
    endloop
  endfacet
  facet normal -0 0 1
    outer loop
      vertex 11.542 7.94827 11.6
      vertex 11.882 6.90211 11.6
      vertex 12.5 8.1 11.6
    endloop
  endfacet
  facet normal 0 0 1
    outer loop
      vertex 11.542 7.94827 11.6
      vertex 11.3244 6.61803 11.6
      vertex 11.882 6.90211 11.6
    endloop
  endfacet
  facet normal -0 0 1
    outer loop
      vertex 10.6779 7.50795 11.6
      vertex 11.3244 6.61803 11.6
      vertex 11.542 7.94827 11.6
    endloop
  endfacet
  facet normal 0 0 1
    outer loop
      vertex 11.3244 6.61803 11.6
      vertex 10.6779 7.50795 11.6
      vertex 10.882 6.17557 11.6
    endloop
  endfacet
  facet normal -0 0 1
    outer loop
      vertex 9.99205 6.82213 11.6
      vertex 10.882 6.17557 11.6
      vertex 10.6779 7.50795 11.6
    endloop
  endfacet
  facet normal 0 0 1
    outer loop
      vertex 10.882 6.17557 11.6
      vertex 9.99205 6.82213 11.6
      vertex 10.5979 5.61803 11.6
    endloop
  endfacet
  facet normal -0 0 1
    outer loop
      vertex 9.55172 5.95795 11.6
      vertex 10.5979 5.61803 11.6
      vertex 9.99205 6.82213 11.6
    endloop
  endfacet
  facet normal 0 0 1
    outer loop
      vertex 15.4483 4.04205 11.6
      vertex 14.4021 4.38197 11.6
      vertex 15.008 3.17787 11.6
    endloop
  endfacet
  facet normal -0 0 1
    outer loop
      vertex 14.118 3.82443 11.6
      vertex 15.008 3.17787 11.6
      vertex 14.4021 4.38197 11.6
    endloop
  endfacet
  facet normal 0 0 1
    outer loop
      vertex 15.008 3.17787 11.6
      vertex 14.118 3.82443 11.6
      vertex 14.3221 2.49205 11.6
    endloop
  endfacet
  facet normal -0 0 1
    outer loop
      vertex 13.6756 3.38197 11.6
      vertex 14.3221 2.49205 11.6
      vertex 14.118 3.82443 11.6
    endloop
  endfacet
  facet normal 0 0 1
    outer loop
      vertex 13.6756 3.38197 11.6
      vertex 13.458 2.05172 11.6
      vertex 14.3221 2.49205 11.6
    endloop
  endfacet
  facet normal -0 0 1
    outer loop
      vertex 13.118 3.09789 11.6
      vertex 13.458 2.05172 11.6
      vertex 13.6756 3.38197 11.6
    endloop
  endfacet
  facet normal -0 0 1
    outer loop
      vertex 12.5 3 11.6
      vertex 13.458 2.05172 11.6
      vertex 13.118 3.09789 11.6
    endloop
  endfacet
  facet normal 0 0 1
    outer loop
      vertex 12.5 3 11.6
      vertex 12.5 1.9 11.6
      vertex 13.458 2.05172 11.6
    endloop
  endfacet
  facet normal 0 0 1
    outer loop
      vertex 11.882 3.09789 11.6
      vertex 12.5 1.9 11.6
      vertex 12.5 3 11.6
    endloop
  endfacet
  facet normal 0 0 1
    outer loop
      vertex 11.882 3.09789 11.6
      vertex 11.542 2.05172 11.6
      vertex 12.5 1.9 11.6
    endloop
  endfacet
  facet normal 0 0 1
    outer loop
      vertex 11.3244 3.38197 11.6
      vertex 11.542 2.05172 11.6
      vertex 11.882 3.09789 11.6
    endloop
  endfacet
  facet normal 0 0 1
    outer loop
      vertex 10.6779 2.49205 11.6
      vertex 11.3244 3.38197 11.6
      vertex 10.882 3.82443 11.6
    endloop
  endfacet
  facet normal 0 0 1
    outer loop
      vertex 11.3244 3.38197 11.6
      vertex 10.6779 2.49205 11.6
      vertex 11.542 2.05172 11.6
    endloop
  endfacet
  facet normal 0 0 1
    outer loop
      vertex 9.99205 3.17787 11.6
      vertex 10.882 3.82443 11.6
      vertex 10.5979 4.38197 11.6
    endloop
  endfacet
  facet normal 0 0 1
    outer loop
      vertex 9.55172 4.04205 11.6
      vertex 10.5979 4.38197 11.6
      vertex 10.5 5 11.6
    endloop
  endfacet
  facet normal 0 0 1
    outer loop
      vertex 10.5979 5.61803 11.6
      vertex 9.55172 5.95795 11.6
      vertex 10.5 5 11.6
    endloop
  endfacet
  facet normal 0 0 1
    outer loop
      vertex 10.882 3.82443 11.6
      vertex 9.99205 3.17787 11.6
      vertex 10.6779 2.49205 11.6
    endloop
  endfacet
  facet normal 0 0 1
    outer loop
      vertex 9.4 5 11.6
      vertex 10.5 5 11.6
      vertex 9.55172 5.95795 11.6
    endloop
  endfacet
  facet normal 0 0 1
    outer loop
      vertex 10.5979 4.38197 11.6
      vertex 9.55172 4.04205 11.6
      vertex 9.99205 3.17787 11.6
    endloop
  endfacet
  facet normal 0 0 1
    outer loop
      vertex 10.5 5 11.6
      vertex 9.4 5 11.6
      vertex 9.55172 4.04205 11.6
    endloop
  endfacet
  facet normal -0.453991 0.891006 0
    outer loop
      vertex 11.542 7.94827 10.6
      vertex 10.6779 7.50795 11.6
      vertex 11.542 7.94827 11.6
    endloop
  endfacet
  facet normal -0.453991 0.891006 0
    outer loop
      vertex 10.6779 7.50795 11.6
      vertex 11.542 7.94827 10.6
      vertex 10.6779 7.50795 10.6
    endloop
  endfacet
  facet normal 0.987688 -0.156434 0
    outer loop
      vertex 15.4483 4.04205 11.6
      vertex 15.6 5 10.6
      vertex 15.6 5 11.6
    endloop
  endfacet
  facet normal 0.987688 -0.156434 0
    outer loop
      vertex 15.6 5 10.6
      vertex 15.4483 4.04205 11.6
      vertex 15.4483 4.04205 10.6
    endloop
  endfacet
  facet normal -0.156434 -0.987688 0
    outer loop
      vertex 11.542 2.05172 10.6
      vertex 12.5 1.9 11.6
      vertex 11.542 2.05172 11.6
    endloop
  endfacet
  facet normal -0.156434 -0.987688 -0
    outer loop
      vertex 12.5 1.9 11.6
      vertex 11.542 2.05172 10.6
      vertex 12.5 1.9 10.6
    endloop
  endfacet
  facet normal -0.891006 -0.453991 0
    outer loop
      vertex 9.99205 3.17787 10.6
      vertex 9.55172 4.04205 11.6
      vertex 9.55172 4.04205 10.6
    endloop
  endfacet
  facet normal -0.891006 -0.453991 0
    outer loop
      vertex 9.55172 4.04205 11.6
      vertex 9.99205 3.17787 10.6
      vertex 9.99205 3.17787 11.6
    endloop
  endfacet
  facet normal 0.707107 0.707107 0
    outer loop
      vertex 15.008 6.82213 11.6
      vertex 14.3221 7.50795 10.6
      vertex 14.3221 7.50795 11.6
    endloop
  endfacet
  facet normal 0.707107 0.707107 0
    outer loop
      vertex 14.3221 7.50795 10.6
      vertex 15.008 6.82213 11.6
      vertex 15.008 6.82213 10.6
    endloop
  endfacet
  facet normal -0.987688 -0.156434 0
    outer loop
      vertex 9.55172 4.04205 10.6
      vertex 9.4 5 11.6
      vertex 9.4 5 10.6
    endloop
  endfacet
  facet normal -0.987688 -0.156434 0
    outer loop
      vertex 9.4 5 11.6
      vertex 9.55172 4.04205 10.6
      vertex 9.55172 4.04205 11.6
    endloop
  endfacet
  facet normal -0.707107 0.707107 0
    outer loop
      vertex 9.99205 6.82213 10.6
      vertex 10.6779 7.50795 11.6
      vertex 10.6779 7.50795 10.6
    endloop
  endfacet
  facet normal -0.707107 0.707107 0
    outer loop
      vertex 10.6779 7.50795 11.6
      vertex 9.99205 6.82213 10.6
      vertex 9.99205 6.82213 11.6
    endloop
  endfacet
  facet normal 0.453991 -0.891006 0
    outer loop
      vertex 13.458 2.05172 10.6
      vertex 14.3221 2.49205 11.6
      vertex 13.458 2.05172 11.6
    endloop
  endfacet
  facet normal 0.453991 -0.891006 0
    outer loop
      vertex 14.3221 2.49205 11.6
      vertex 13.458 2.05172 10.6
      vertex 14.3221 2.49205 10.6
    endloop
  endfacet
  facet normal -0.707107 -0.707107 0
    outer loop
      vertex 10.6779 2.49205 10.6
      vertex 9.99205 3.17787 11.6
      vertex 9.99205 3.17787 10.6
    endloop
  endfacet
  facet normal -0.707107 -0.707107 0
    outer loop
      vertex 9.99205 3.17787 11.6
      vertex 10.6779 2.49205 10.6
      vertex 10.6779 2.49205 11.6
    endloop
  endfacet
  facet normal 0.707107 -0.707107 0
    outer loop
      vertex 14.3221 2.49205 11.6
      vertex 15.008 3.17787 10.6
      vertex 15.008 3.17787 11.6
    endloop
  endfacet
  facet normal 0.707107 -0.707107 0
    outer loop
      vertex 15.008 3.17787 10.6
      vertex 14.3221 2.49205 11.6
      vertex 14.3221 2.49205 10.6
    endloop
  endfacet
  facet normal 0.891006 -0.453991 0
    outer loop
      vertex 15.008 3.17787 11.6
      vertex 15.4483 4.04205 10.6
      vertex 15.4483 4.04205 11.6
    endloop
  endfacet
  facet normal 0.891006 -0.453991 0
    outer loop
      vertex 15.4483 4.04205 10.6
      vertex 15.008 3.17787 11.6
      vertex 15.008 3.17787 10.6
    endloop
  endfacet
  facet normal 0.992115 0.125334 0
    outer loop
      vertex 17.3429 6.24345 10.6
      vertex 17.4641 5.28422 7
      vertex 17.3429 6.24345 6
    endloop
  endfacet
  facet normal 0.992115 0.125334 -1.86374e-08
    outer loop
      vertex 17.5 5 10.6
      vertex 17.4641 5.28422 7
      vertex 17.3429 6.24345 10.6
    endloop
  endfacet
  facet normal 0.992115 0.125334 0
    outer loop
      vertex 17.4641 5.28422 7
      vertex 17.5 5 10.6
      vertex 17.5 5 7
    endloop
  endfacet
  facet normal 0.992115 0.125334 0
    outer loop
      vertex 17.3429 6.24345 6
      vertex 17.4641 5.28422 7
      vertex 17.4641 5.28422 6
    endloop
  endfacet
  facet normal -1 0 0
    outer loop
      vertex 7.53943 4.72188 6
      vertex 7.53943 4.37333 6
      vertex 7.53943 4.72188 7
    endloop
  endfacet
  facet normal -1 0 0
    outer loop
      vertex 7.53943 5.27812 7
      vertex 7.53943 5.62667 6
      vertex 7.53943 5.27812 6
    endloop
  endfacet
  facet normal -1 0 0
    outer loop
      vertex 7.53943 5.62667 6
      vertex 7.53943 5.27812 7
      vertex 7.53943 5.62667 10.6
    endloop
  endfacet
  facet normal -1 0 0
    outer loop
      vertex 7.53943 4.72188 7
      vertex 7.53943 5.62667 10.6
      vertex 7.53943 5.27812 7
    endloop
  endfacet
  facet normal -1 0 0
    outer loop
      vertex 7.53943 4.37333 10.6
      vertex 7.53943 4.72188 7
      vertex 7.53943 4.37333 6
    endloop
  endfacet
  facet normal -1 0 0
    outer loop
      vertex 7.53943 4.72188 7
      vertex 7.53943 4.37333 10.6
      vertex 7.53943 5.62667 10.6
    endloop
  endfacet
  facet normal -0.0627904 0.998027 0
    outer loop
      vertex 12.814 9.99013 6
      vertex 11.5631 9.91144 10.6
      vertex 12.814 9.99013 10.6
    endloop
  endfacet
  facet normal -0.0627904 0.998027 0
    outer loop
      vertex 11.5631 9.91144 10.6
      vertex 12.814 9.99013 6
      vertex 11.5631 9.91144 6
    endloop
  endfacet
  facet normal 0.187381 -0.982287 0
    outer loop
      vertex 12.814 0.00986576 6
      vertex 14.0451 0.244717 10.6
      vertex 12.814 0.00986576 10.6
    endloop
  endfacet
  facet normal 0.187381 -0.982287 0
    outer loop
      vertex 14.0451 0.244717 10.6
      vertex 12.814 0.00986576 6
      vertex 14.0451 0.244717 6
    endloop
  endfacet
  facet normal 0.637423 0.770514 -0
    outer loop
      vertex 16.1448 8.42274 6
      vertex 15.1791 9.22164 10.6
      vertex 16.1448 8.42274 10.6
    endloop
  endfacet
  facet normal 0.637423 0.770514 0
    outer loop
      vertex 15.1791 9.22164 10.6
      vertex 16.1448 8.42274 6
      vertex 15.1791 9.22164 6
    endloop
  endfacet
  facet normal 0.42578 0.904827 -0
    outer loop
      vertex 15.1791 9.22164 6
      vertex 14.0451 9.75528 10.6
      vertex 15.1791 9.22164 10.6
    endloop
  endfacet
  facet normal 0.42578 0.904827 0
    outer loop
      vertex 14.0451 9.75528 10.6
      vertex 15.1791 9.22164 6
      vertex 14.0451 9.75528 6
    endloop
  endfacet
  facet normal -0.728968 0.684547 0
    outer loop
      vertex 8.45491 7.93893 6
      vertex 9.31288 8.85257 10.6
      vertex 9.31288 8.85257 6
    endloop
  endfacet
  facet normal -0.728968 0.684547 0
    outer loop
      vertex 9.31288 8.85257 10.6
      vertex 8.45491 7.93893 6
      vertex 8.45491 7.93893 10.6
    endloop
  endfacet
  facet normal 0 0 1
    outer loop
      vertex 15.6 5 10.6
      vertex 17.5 5 10.6
      vertex 17.3429 6.24345 10.6
    endloop
  endfacet
  facet normal 0 0 1
    outer loop
      vertex 15.4483 5.95795 10.6
      vertex 17.3429 6.24345 10.6
      vertex 16.8815 7.40877 10.6
    endloop
  endfacet
  facet normal 0 0 1
    outer loop
      vertex 17.5 5 10.6
      vertex 15.6 5 10.6
      vertex 17.3429 3.75655 10.6
    endloop
  endfacet
  facet normal 0 0 1
    outer loop
      vertex 15.008 6.82213 10.6
      vertex 16.8815 7.40877 10.6
      vertex 16.1448 8.42274 10.6
    endloop
  endfacet
  facet normal -0 0 1
    outer loop
      vertex 15.4483 4.04205 10.6
      vertex 17.3429 3.75655 10.6
      vertex 15.6 5 10.6
    endloop
  endfacet
  facet normal 0 0 1
    outer loop
      vertex 17.3429 3.75655 10.6
      vertex 15.4483 4.04205 10.6
      vertex 16.8815 2.59123 10.6
    endloop
  endfacet
  facet normal 0 0 1
    outer loop
      vertex 17.3429 6.24345 10.6
      vertex 15.4483 5.95795 10.6
      vertex 15.6 5 10.6
    endloop
  endfacet
  facet normal 0 0 1
    outer loop
      vertex 14.3221 7.50795 10.6
      vertex 16.1448 8.42274 10.6
      vertex 15.1791 9.22164 10.6
    endloop
  endfacet
  facet normal 0 0 1
    outer loop
      vertex 16.8815 7.40877 10.6
      vertex 15.008 6.82213 10.6
      vertex 15.4483 5.95795 10.6
    endloop
  endfacet
  facet normal 0 0 1
    outer loop
      vertex 16.1448 8.42274 10.6
      vertex 14.3221 7.50795 10.6
      vertex 15.008 6.82213 10.6
    endloop
  endfacet
  facet normal 0 0 1
    outer loop
      vertex 13.458 7.94827 10.6
      vertex 15.1791 9.22164 10.6
      vertex 14.0451 9.75528 10.6
    endloop
  endfacet
  facet normal 0 0 1
    outer loop
      vertex 15.1791 9.22164 10.6
      vertex 13.458 7.94827 10.6
      vertex 14.3221 7.50795 10.6
    endloop
  endfacet
  facet normal 0 0 1
    outer loop
      vertex 12.814 9.99013 10.6
      vertex 13.458 7.94827 10.6
      vertex 14.0451 9.75528 10.6
    endloop
  endfacet
  facet normal 0 0 1
    outer loop
      vertex 12.814 9.99013 10.6
      vertex 12.5 8.1 10.6
      vertex 13.458 7.94827 10.6
    endloop
  endfacet
  facet normal -0 0 1
    outer loop
      vertex 11.5631 9.91144 10.6
      vertex 12.5 8.1 10.6
      vertex 12.814 9.99013 10.6
    endloop
  endfacet
  facet normal 0 0 1
    outer loop
      vertex 11.5631 9.91144 10.6
      vertex 11.542 7.94827 10.6
      vertex 12.5 8.1 10.6
    endloop
  endfacet
  facet normal -0 0 1
    outer loop
      vertex 10.3711 9.52413 10.6
      vertex 11.542 7.94827 10.6
      vertex 11.5631 9.91144 10.6
    endloop
  endfacet
  facet normal 0 0 1
    outer loop
      vertex 11.542 7.94827 10.6
      vertex 10.3711 9.52413 10.6
      vertex 10.6779 7.50795 10.6
    endloop
  endfacet
  facet normal -0 0 1
    outer loop
      vertex 9.31288 8.85257 10.6
      vertex 10.6779 7.50795 10.6
      vertex 10.3711 9.52413 10.6
    endloop
  endfacet
  facet normal 0 0 1
    outer loop
      vertex 10.6779 7.50795 10.6
      vertex 9.31288 8.85257 10.6
      vertex 9.99205 6.82213 10.6
    endloop
  endfacet
  facet normal -0 0 1
    outer loop
      vertex 7.85112 6.84062 10.6
      vertex 9.99205 6.82213 10.6
      vertex 8.45491 7.93893 10.6
    endloop
  endfacet
  facet normal -0 0 1
    outer loop
      vertex 8.45491 7.93893 10.6
      vertex 9.99205 6.82213 10.6
      vertex 9.31288 8.85257 10.6
    endloop
  endfacet
  facet normal -0 0 1
    outer loop
      vertex 15.008 3.17787 10.6
      vertex 16.8815 2.59123 10.6
      vertex 15.4483 4.04205 10.6
    endloop
  endfacet
  facet normal 0 0 1
    outer loop
      vertex 16.8815 2.59123 10.6
      vertex 15.008 3.17787 10.6
      vertex 16.1448 1.57726 10.6
    endloop
  endfacet
  facet normal -0 0 1
    outer loop
      vertex 14.3221 2.49205 10.6
      vertex 16.1448 1.57726 10.6
      vertex 15.008 3.17787 10.6
    endloop
  endfacet
  facet normal 0 0 1
    outer loop
      vertex 16.1448 1.57726 10.6
      vertex 14.3221 2.49205 10.6
      vertex 15.1791 0.77836 10.6
    endloop
  endfacet
  facet normal -0 0 1
    outer loop
      vertex 13.458 2.05172 10.6
      vertex 15.1791 0.77836 10.6
      vertex 14.3221 2.49205 10.6
    endloop
  endfacet
  facet normal 0 0 1
    outer loop
      vertex 15.1791 0.77836 10.6
      vertex 13.458 2.05172 10.6
      vertex 14.0451 0.244717 10.6
    endloop
  endfacet
  facet normal 0 0 1
    outer loop
      vertex 13.458 2.05172 10.6
      vertex 12.814 0.00986576 10.6
      vertex 14.0451 0.244717 10.6
    endloop
  endfacet
  facet normal -0 0 1
    outer loop
      vertex 12.5 1.9 10.6
      vertex 12.814 0.00986576 10.6
      vertex 13.458 2.05172 10.6
    endloop
  endfacet
  facet normal 0 0 1
    outer loop
      vertex 12.5 1.9 10.6
      vertex 11.5631 0.088563 10.6
      vertex 12.814 0.00986576 10.6
    endloop
  endfacet
  facet normal 0 0 1
    outer loop
      vertex 11.542 2.05172 10.6
      vertex 11.5631 0.088563 10.6
      vertex 12.5 1.9 10.6
    endloop
  endfacet
  facet normal 0 0 1
    outer loop
      vertex 10.3711 0.475864 10.6
      vertex 11.542 2.05172 10.6
      vertex 10.6779 2.49205 10.6
    endloop
  endfacet
  facet normal 0 0 1
    outer loop
      vertex 11.542 2.05172 10.6
      vertex 10.3711 0.475864 10.6
      vertex 11.5631 0.088563 10.6
    endloop
  endfacet
  facet normal 0 0 1
    outer loop
      vertex 9.31288 1.14743 10.6
      vertex 10.6779 2.49205 10.6
      vertex 9.99205 3.17787 10.6
    endloop
  endfacet
  facet normal 0 0 1
    outer loop
      vertex 7.85112 3.15938 10.6
      vertex 9.99205 3.17787 10.6
      vertex 9.55172 4.04205 10.6
    endloop
  endfacet
  facet normal 0 0 1
    outer loop
      vertex 10.6779 2.49205 10.6
      vertex 9.31288 1.14743 10.6
      vertex 10.3711 0.475864 10.6
    endloop
  endfacet
  facet normal -0 0 1
    outer loop
      vertex 7.53943 4.37333 10.6
      vertex 9.55172 4.04205 10.6
      vertex 9.4 5 10.6
    endloop
  endfacet
  facet normal 0 0 1
    outer loop
      vertex 9.99205 6.82213 10.6
      vertex 7.85112 6.84062 10.6
      vertex 9.55172 5.95795 10.6
    endloop
  endfacet
  facet normal 0 0 1
    outer loop
      vertex 7.53943 5.62667 10.6
      vertex 9.55172 5.95795 10.6
      vertex 7.85112 6.84062 10.6
    endloop
  endfacet
  facet normal 0 0 1
    outer loop
      vertex 9.99205 3.17787 10.6
      vertex 8.45491 2.06107 10.6
      vertex 9.31288 1.14743 10.6
    endloop
  endfacet
  facet normal 0 0 1
    outer loop
      vertex 9.55172 5.95795 10.6
      vertex 7.53943 5.62667 10.6
      vertex 9.4 5 10.6
    endloop
  endfacet
  facet normal 0 0 1
    outer loop
      vertex 9.99205 3.17787 10.6
      vertex 7.85112 3.15938 10.6
      vertex 8.45491 2.06107 10.6
    endloop
  endfacet
  facet normal 0 0 1
    outer loop
      vertex 7.53943 4.37333 10.6
      vertex 9.4 5 10.6
      vertex 7.53943 5.62667 10.6
    endloop
  endfacet
  facet normal 0 0 1
    outer loop
      vertex 9.55172 4.04205 10.6
      vertex 7.53943 4.37333 10.6
      vertex 7.85112 3.15938 10.6
    endloop
  endfacet
  facet normal -0.535827 0.844328 0
    outer loop
      vertex 10.3711 9.52413 6
      vertex 9.31288 8.85257 10.6
      vertex 10.3711 9.52413 10.6
    endloop
  endfacet
  facet normal -0.535827 0.844328 0
    outer loop
      vertex 9.31288 8.85257 10.6
      vertex 10.3711 9.52413 6
      vertex 9.31288 8.85257 6
    endloop
  endfacet
  facet normal 0.929777 -0.368124 0
    outer loop
      vertex 16.8815 2.59123 10.6
      vertex 17.3429 3.75655 6
      vertex 17.3429 3.75655 10.6
    endloop
  endfacet
  facet normal 0.929777 -0.368124 0
    outer loop
      vertex 17.3429 3.75655 6
      vertex 16.8815 2.59123 10.6
      vertex 16.8815 2.59123 6
    endloop
  endfacet
  facet normal 0.809018 0.587784 0
    outer loop
      vertex 16.8815 7.40877 10.6
      vertex 16.1448 8.42274 6
      vertex 16.1448 8.42274 10.6
    endloop
  endfacet
  facet normal 0.809018 0.587784 0
    outer loop
      vertex 16.1448 8.42274 6
      vertex 16.8815 7.40877 10.6
      vertex 16.8815 7.40877 6
    endloop
  endfacet
  facet normal 0.929777 0.368124 0
    outer loop
      vertex 17.3429 6.24345 10.6
      vertex 16.8815 7.40877 6
      vertex 16.8815 7.40877 10.6
    endloop
  endfacet
  facet normal 0.929777 0.368124 0
    outer loop
      vertex 16.8815 7.40877 6
      vertex 17.3429 6.24345 10.6
      vertex 17.3429 6.24345 6
    endloop
  endfacet
  facet normal 0.187381 0.982287 -0
    outer loop
      vertex 14.0451 9.75528 6
      vertex 12.814 9.99013 10.6
      vertex 14.0451 9.75528 10.6
    endloop
  endfacet
  facet normal 0.187381 0.982287 0
    outer loop
      vertex 12.814 9.99013 10.6
      vertex 14.0451 9.75528 6
      vertex 12.814 9.99013 6
    endloop
  endfacet
  facet normal -0.876307 0.481753 0
    outer loop
      vertex 7.85112 6.84062 6
      vertex 8.45491 7.93893 10.6
      vertex 8.45491 7.93893 6
    endloop
  endfacet
  facet normal -0.876307 0.481753 0
    outer loop
      vertex 8.45491 7.93893 10.6
      vertex 7.85112 6.84062 6
      vertex 7.85112 6.84062 10.6
    endloop
  endfacet
  facet normal -0.968583 0.24869 0
    outer loop
      vertex 7.53943 5.62667 6
      vertex 7.85112 6.84062 10.6
      vertex 7.85112 6.84062 6
    endloop
  endfacet
  facet normal -0.968583 0.24869 0
    outer loop
      vertex 7.85112 6.84062 10.6
      vertex 7.53943 5.62667 6
      vertex 7.53943 5.62667 10.6
    endloop
  endfacet
  facet normal -0.309017 0.951056 0
    outer loop
      vertex 11.5631 9.91144 6
      vertex 10.3711 9.52413 10.6
      vertex 11.5631 9.91144 10.6
    endloop
  endfacet
  facet normal -0.309017 0.951056 0
    outer loop
      vertex 10.3711 9.52413 10.6
      vertex 11.5631 9.91144 6
      vertex 10.3711 9.52413 6
    endloop
  endfacet
  facet normal 0.992115 -0.125334 0
    outer loop
      vertex 17.5 5 10.6
      vertex 17.4641 4.71578 7
      vertex 17.5 5 7
    endloop
  endfacet
  facet normal 0.992115 -0.125334 -2.62266e-08
    outer loop
      vertex 17.3429 3.75655 10.6
      vertex 17.4641 4.71578 7
      vertex 17.5 5 10.6
    endloop
  endfacet
  facet normal 0.992115 -0.125334 0
    outer loop
      vertex 17.3429 3.75655 6
      vertex 17.4641 4.71578 7
      vertex 17.3429 3.75655 10.6
    endloop
  endfacet
  facet normal 0.992115 -0.125334 0
    outer loop
      vertex 17.4641 4.71578 7
      vertex 17.3429 3.75655 6
      vertex 17.4641 4.71578 6
    endloop
  endfacet
  facet normal 0.809018 -0.587784 0
    outer loop
      vertex 16.1448 1.57726 10.6
      vertex 16.8815 2.59123 6
      vertex 16.8815 2.59123 10.6
    endloop
  endfacet
  facet normal 0.809018 -0.587784 0
    outer loop
      vertex 16.8815 2.59123 6
      vertex 16.1448 1.57726 10.6
      vertex 16.1448 1.57726 6
    endloop
  endfacet
  facet normal -0.728968 -0.684547 0
    outer loop
      vertex 9.31288 1.14743 6
      vertex 8.45491 2.06107 10.6
      vertex 8.45491 2.06107 6
    endloop
  endfacet
  facet normal -0.728968 -0.684547 0
    outer loop
      vertex 8.45491 2.06107 10.6
      vertex 9.31288 1.14743 6
      vertex 9.31288 1.14743 10.6
    endloop
  endfacet
  facet normal -0.0627904 -0.998027 0
    outer loop
      vertex 11.5631 0.088563 6
      vertex 12.814 0.00986576 10.6
      vertex 11.5631 0.088563 10.6
    endloop
  endfacet
  facet normal -0.0627904 -0.998027 -0
    outer loop
      vertex 12.814 0.00986576 10.6
      vertex 11.5631 0.088563 6
      vertex 12.814 0.00986576 6
    endloop
  endfacet
  facet normal -0.535827 -0.844328 0
    outer loop
      vertex 9.31288 1.14743 6
      vertex 10.3711 0.475864 10.6
      vertex 9.31288 1.14743 10.6
    endloop
  endfacet
  facet normal -0.535827 -0.844328 -0
    outer loop
      vertex 10.3711 0.475864 10.6
      vertex 9.31288 1.14743 6
      vertex 10.3711 0.475864 6
    endloop
  endfacet
  facet normal -0.876307 -0.481753 0
    outer loop
      vertex 8.45491 2.06107 6
      vertex 7.85112 3.15938 10.6
      vertex 7.85112 3.15938 6
    endloop
  endfacet
  facet normal -0.876307 -0.481753 0
    outer loop
      vertex 7.85112 3.15938 10.6
      vertex 8.45491 2.06107 6
      vertex 8.45491 2.06107 10.6
    endloop
  endfacet
  facet normal -0.968583 -0.24869 0
    outer loop
      vertex 7.85112 3.15938 6
      vertex 7.53943 4.37333 10.6
      vertex 7.53943 4.37333 6
    endloop
  endfacet
  facet normal -0.968583 -0.24869 0
    outer loop
      vertex 7.53943 4.37333 10.6
      vertex 7.85112 3.15938 6
      vertex 7.85112 3.15938 10.6
    endloop
  endfacet
  facet normal 0.637423 -0.770514 0
    outer loop
      vertex 15.1791 0.77836 6
      vertex 16.1448 1.57726 10.6
      vertex 15.1791 0.77836 10.6
    endloop
  endfacet
  facet normal 0.637423 -0.770514 0
    outer loop
      vertex 16.1448 1.57726 10.6
      vertex 15.1791 0.77836 6
      vertex 16.1448 1.57726 6
    endloop
  endfacet
  facet normal 0.42578 -0.904827 0
    outer loop
      vertex 14.0451 0.244717 6
      vertex 15.1791 0.77836 10.6
      vertex 14.0451 0.244717 10.6
    endloop
  endfacet
  facet normal 0.42578 -0.904827 0
    outer loop
      vertex 15.1791 0.77836 10.6
      vertex 14.0451 0.244717 6
      vertex 15.1791 0.77836 6
    endloop
  endfacet
  facet normal -0.309017 -0.951056 0
    outer loop
      vertex 10.3711 0.475864 6
      vertex 11.5631 0.088563 10.6
      vertex 10.3711 0.475864 10.6
    endloop
  endfacet
  facet normal -0.309017 -0.951056 -0
    outer loop
      vertex 11.5631 0.088563 10.6
      vertex 10.3711 0.475864 6
      vertex 11.5631 0.088563 6
    endloop
  endfacet
  facet normal -0.987688 -0.156435 0
    outer loop
      vertex 6.15 5 0
      vertex 6.06924 5.50988 3
      vertex 6.06924 5.50988 0
    endloop
  endfacet
  facet normal -0.987688 -0.156435 0
    outer loop
      vertex 6.06924 5.50988 3
      vertex 6.15 5 0
      vertex 6.15 5 3
    endloop
  endfacet
  facet normal 0.891007 0.453989 0
    outer loop
      vertex 3.16512 4.03015 3
      vertex 2.93076 4.49012 0
      vertex 2.93076 4.49012 3
    endloop
  endfacet
  facet normal 0.891007 0.453989 0
    outer loop
      vertex 2.93076 4.49012 0
      vertex 3.16512 4.03015 3
      vertex 3.16512 4.03015 0
    endloop
  endfacet
  facet normal 0.156435 -0.987688 0
    outer loop
      vertex 3.99012 6.56924 0
      vertex 4.5 6.65 3
      vertex 3.99012 6.56924 3
    endloop
  endfacet
  facet normal 0.156435 -0.987688 0
    outer loop
      vertex 4.5 6.65 3
      vertex 3.99012 6.56924 0
      vertex 4.5 6.65 0
    endloop
  endfacet
  facet normal 0.987688 0.156435 0
    outer loop
      vertex 2.93076 4.49012 3
      vertex 2.85 5 0
      vertex 2.85 5 3
    endloop
  endfacet
  facet normal 0.987688 0.156435 0
    outer loop
      vertex 2.85 5 0
      vertex 2.93076 4.49012 3
      vertex 2.93076 4.49012 0
    endloop
  endfacet
  facet normal -0.707107 -0.707107 0
    outer loop
      vertex 5.83488 5.96984 0
      vertex 5.46984 6.33488 3
      vertex 5.46984 6.33488 0
    endloop
  endfacet
  facet normal -0.707107 -0.707107 0
    outer loop
      vertex 5.46984 6.33488 3
      vertex 5.83488 5.96984 0
      vertex 5.83488 5.96984 3
    endloop
  endfacet
  facet normal -0.891007 -0.453989 0
    outer loop
      vertex 6.06924 5.50988 0
      vertex 5.83488 5.96984 3
      vertex 5.83488 5.96984 0
    endloop
  endfacet
  facet normal -0.891007 -0.453989 0
    outer loop
      vertex 5.83488 5.96984 3
      vertex 6.06924 5.50988 0
      vertex 6.06924 5.50988 3
    endloop
  endfacet
  facet normal -0.156435 -0.987688 0
    outer loop
      vertex 4.5 6.65 0
      vertex 5.00988 6.56924 3
      vertex 4.5 6.65 3
    endloop
  endfacet
  facet normal -0.156435 -0.987688 -0
    outer loop
      vertex 5.00988 6.56924 3
      vertex 4.5 6.65 0
      vertex 5.00988 6.56924 0
    endloop
  endfacet
  facet normal 0.453989 -0.891007 0
    outer loop
      vertex 3.53015 6.33488 0
      vertex 3.99012 6.56924 3
      vertex 3.53015 6.33488 3
    endloop
  endfacet
  facet normal 0.453989 -0.891007 0
    outer loop
      vertex 3.99012 6.56924 3
      vertex 3.53015 6.33488 0
      vertex 3.99012 6.56924 0
    endloop
  endfacet
  facet normal 0.987688 -0.156435 0
    outer loop
      vertex 2.85 5 3
      vertex 2.93076 5.50988 0
      vertex 2.93076 5.50988 3
    endloop
  endfacet
  facet normal 0.987688 -0.156435 0
    outer loop
      vertex 2.93076 5.50988 0
      vertex 2.85 5 3
      vertex 2.85 5 0
    endloop
  endfacet
  facet normal 0.707107 -0.707107 0
    outer loop
      vertex 3.16512 5.96984 3
      vertex 3.53015 6.33488 0
      vertex 3.53015 6.33488 3
    endloop
  endfacet
  facet normal 0.707107 -0.707107 0
    outer loop
      vertex 3.53015 6.33488 0
      vertex 3.16512 5.96984 3
      vertex 3.16512 5.96984 0
    endloop
  endfacet
  facet normal -0.453989 -0.891007 0
    outer loop
      vertex 5.00988 6.56924 0
      vertex 5.46984 6.33488 3
      vertex 5.00988 6.56924 3
    endloop
  endfacet
  facet normal -0.453989 -0.891007 -0
    outer loop
      vertex 5.46984 6.33488 3
      vertex 5.00988 6.56924 0
      vertex 5.46984 6.33488 0
    endloop
  endfacet
  facet normal 0 0 -1
    outer loop
      vertex 7.53943 5.27812 7
      vertex 7.7 5 7
      vertex 7.53943 4.72188 7
    endloop
  endfacet
  facet normal 0.891007 -0.453989 0
    outer loop
      vertex 2.93076 5.50988 3
      vertex 3.16512 5.96984 0
      vertex 3.16512 5.96984 3
    endloop
  endfacet
  facet normal 0.891007 -0.453989 0
    outer loop
      vertex 3.16512 5.96984 0
      vertex 2.93076 5.50988 3
      vertex 2.93076 5.50988 0
    endloop
  endfacet
  facet normal -0.891007 0.453989 0
    outer loop
      vertex 5.83488 4.03015 0
      vertex 6.06924 4.49012 3
      vertex 6.06924 4.49012 0
    endloop
  endfacet
  facet normal -0.891007 0.453989 0
    outer loop
      vertex 6.06924 4.49012 3
      vertex 5.83488 4.03015 0
      vertex 5.83488 4.03015 3
    endloop
  endfacet
  facet normal 0.453989 0.891007 -0
    outer loop
      vertex 3.99012 3.43076 0
      vertex 3.53015 3.66512 3
      vertex 3.99012 3.43076 3
    endloop
  endfacet
  facet normal 0.453989 0.891007 0
    outer loop
      vertex 3.53015 3.66512 3
      vertex 3.99012 3.43076 0
      vertex 3.53015 3.66512 0
    endloop
  endfacet
  facet normal 0.707107 0.707107 0
    outer loop
      vertex 3.53015 3.66512 3
      vertex 3.16512 4.03015 0
      vertex 3.16512 4.03015 3
    endloop
  endfacet
  facet normal 0.707107 0.707107 0
    outer loop
      vertex 3.16512 4.03015 0
      vertex 3.53015 3.66512 3
      vertex 3.53015 3.66512 0
    endloop
  endfacet
  facet normal -0.453989 0.891007 0
    outer loop
      vertex 5.46984 3.66512 0
      vertex 5.00988 3.43076 3
      vertex 5.46984 3.66512 3
    endloop
  endfacet
  facet normal -0.453989 0.891007 0
    outer loop
      vertex 5.00988 3.43076 3
      vertex 5.46984 3.66512 0
      vertex 5.00988 3.43076 0
    endloop
  endfacet
  facet normal -0.707107 0.707107 0
    outer loop
      vertex 5.46984 3.66512 0
      vertex 5.83488 4.03015 3
      vertex 5.83488 4.03015 0
    endloop
  endfacet
  facet normal -0.707107 0.707107 0
    outer loop
      vertex 5.83488 4.03015 3
      vertex 5.46984 3.66512 0
      vertex 5.46984 3.66512 3
    endloop
  endfacet
  facet normal -0.987688 0.156435 0
    outer loop
      vertex 6.06924 4.49012 0
      vertex 6.15 5 3
      vertex 6.15 5 0
    endloop
  endfacet
  facet normal -0.987688 0.156435 0
    outer loop
      vertex 6.15 5 3
      vertex 6.06924 4.49012 0
      vertex 6.06924 4.49012 3
    endloop
  endfacet
  facet normal -0.156435 0.987688 0
    outer loop
      vertex 5.00988 3.43076 0
      vertex 4.5 3.35 3
      vertex 5.00988 3.43076 3
    endloop
  endfacet
  facet normal -0.156435 0.987688 0
    outer loop
      vertex 4.5 3.35 3
      vertex 5.00988 3.43076 0
      vertex 4.5 3.35 0
    endloop
  endfacet
  facet normal 0.156435 0.987688 -0
    outer loop
      vertex 4.5 3.35 0
      vertex 3.99012 3.43076 3
      vertex 4.5 3.35 3
    endloop
  endfacet
  facet normal 0.156435 0.987688 0
    outer loop
      vertex 3.99012 3.43076 3
      vertex 4.5 3.35 0
      vertex 3.99012 3.43076 0
    endloop
  endfacet
  facet normal -0 0 1
    outer loop
      vertex 5.83488 5.96984 3
      vertex 7.7 5 3
      vertex 6.1 7.77128 3
    endloop
  endfacet
  facet normal 0 0 1
    outer loop
      vertex 7.7 5 3
      vertex 6.06924 5.50988 3
      vertex 6.15 5 3
    endloop
  endfacet
  facet normal 0 0 1
    outer loop
      vertex 7.7 5 3
      vertex 5.83488 5.96984 3
      vertex 6.06924 5.50988 3
    endloop
  endfacet
  facet normal 0 0 1
    outer loop
      vertex 6.1 7.77128 3
      vertex 5.46984 6.33488 3
      vertex 5.83488 5.96984 3
    endloop
  endfacet
  facet normal 0 0 1
    outer loop
      vertex 6.1 7.77128 3
      vertex 5.00988 6.56924 3
      vertex 5.46984 6.33488 3
    endloop
  endfacet
  facet normal 0 0 1
    outer loop
      vertex 6.1 7.77128 3
      vertex 4.5 6.65 3
      vertex 5.00988 6.56924 3
    endloop
  endfacet
  facet normal -0 0 1
    outer loop
      vertex 2.9 7.77128 3
      vertex 4.5 6.65 3
      vertex 6.1 7.77128 3
    endloop
  endfacet
  facet normal 0 0 1
    outer loop
      vertex 4.5 6.65 3
      vertex 2.9 7.77128 3
      vertex 3.99012 6.56924 3
    endloop
  endfacet
  facet normal 0 0 1
    outer loop
      vertex 3.99012 6.56924 3
      vertex 2.9 7.77128 3
      vertex 3.53015 6.33488 3
    endloop
  endfacet
  facet normal 0 0 1
    outer loop
      vertex 2.9 7.77128 3
      vertex 3.16512 5.96984 3
      vertex 3.53015 6.33488 3
    endloop
  endfacet
  facet normal 0 0 1
    outer loop
      vertex 1.3 5 3
      vertex 3.16512 5.96984 3
      vertex 2.9 7.77128 3
    endloop
  endfacet
  facet normal 0 0 1
    outer loop
      vertex 3.16512 5.96984 3
      vertex 1.3 5 3
      vertex 2.93076 5.50988 3
    endloop
  endfacet
  facet normal 0 0 1
    outer loop
      vertex 2.93076 5.50988 3
      vertex 1.3 5 3
      vertex 2.85 5 3
    endloop
  endfacet
  facet normal 0 0 1
    outer loop
      vertex 6.06924 4.49012 3
      vertex 7.7 5 3
      vertex 6.15 5 3
    endloop
  endfacet
  facet normal 0 0 1
    outer loop
      vertex 5.83488 4.03015 3
      vertex 7.7 5 3
      vertex 6.06924 4.49012 3
    endloop
  endfacet
  facet normal 0 0 1
    outer loop
      vertex 7.7 5 3
      vertex 5.83488 4.03015 3
      vertex 6.1 2.22872 3
    endloop
  endfacet
  facet normal -0 0 1
    outer loop
      vertex 5.46984 3.66512 3
      vertex 6.1 2.22872 3
      vertex 5.83488 4.03015 3
    endloop
  endfacet
  facet normal -0 0 1
    outer loop
      vertex 5.00988 3.43076 3
      vertex 6.1 2.22872 3
      vertex 5.46984 3.66512 3
    endloop
  endfacet
  facet normal -0 0 1
    outer loop
      vertex 4.5 3.35 3
      vertex 6.1 2.22872 3
      vertex 5.00988 3.43076 3
    endloop
  endfacet
  facet normal 0 0 1
    outer loop
      vertex 2.9 2.22872 3
      vertex 4.5 3.35 3
      vertex 3.99012 3.43076 3
    endloop
  endfacet
  facet normal 0 0 1
    outer loop
      vertex 2.9 2.22872 3
      vertex 3.99012 3.43076 3
      vertex 3.53015 3.66512 3
    endloop
  endfacet
  facet normal 0 0 1
    outer loop
      vertex 4.5 3.35 3
      vertex 2.9 2.22872 3
      vertex 6.1 2.22872 3
    endloop
  endfacet
  facet normal 0 0 1
    outer loop
      vertex 3.16512 4.03015 3
      vertex 2.9 2.22872 3
      vertex 3.53015 3.66512 3
    endloop
  endfacet
  facet normal 0 0 1
    outer loop
      vertex 1.3 5 3
      vertex 3.16512 4.03015 3
      vertex 2.93076 4.49012 3
    endloop
  endfacet
  facet normal -0 0 1
    outer loop
      vertex 1.3 5 3
      vertex 2.93076 4.49012 3
      vertex 2.85 5 3
    endloop
  endfacet
  facet normal 0 0 1
    outer loop
      vertex 3.16512 4.03015 3
      vertex 1.3 5 3
      vertex 2.9 2.22872 3
    endloop
  endfacet
  facet normal -0.866025 -0.5 0
    outer loop
      vertex 6.1 7.77128 3
      vertex 7.53943 5.27812 6
      vertex 6.1 7.77128 6
    endloop
  endfacet
  facet normal -0.866025 -0.5 -3.9404e-08
    outer loop
      vertex 7.7 5 3
      vertex 7.53943 5.27812 6
      vertex 6.1 7.77128 3
    endloop
  endfacet
  facet normal -0.866025 -0.5 -0
    outer loop
      vertex 7.7 5 7
      vertex 7.53943 5.27812 6
      vertex 7.7 5 3
    endloop
  endfacet
  facet normal -0.866025 -0.5 0
    outer loop
      vertex 7.53943 5.27812 6
      vertex 7.7 5 7
      vertex 7.53943 5.27812 7
    endloop
  endfacet
  facet normal 0 1 -0
    outer loop
      vertex 6.1 2.22872 3
      vertex 2.9 2.22872 6
      vertex 6.1 2.22872 6
    endloop
  endfacet
  facet normal 0 1 0
    outer loop
      vertex 2.9 2.22872 6
      vertex 6.1 2.22872 3
      vertex 2.9 2.22872 3
    endloop
  endfacet
  facet normal 0.866025 -0.5 0
    outer loop
      vertex 1.3 5 6
      vertex 2.9 7.77128 3
      vertex 2.9 7.77128 6
    endloop
  endfacet
  facet normal 0.866025 -0.5 0
    outer loop
      vertex 2.9 7.77128 3
      vertex 1.3 5 6
      vertex 1.3 5 3
    endloop
  endfacet
  facet normal 0 -1 0
    outer loop
      vertex 2.9 7.77128 3
      vertex 6.1 7.77128 6
      vertex 2.9 7.77128 6
    endloop
  endfacet
  facet normal 0 -1 -0
    outer loop
      vertex 6.1 7.77128 6
      vertex 2.9 7.77128 3
      vertex 6.1 7.77128 3
    endloop
  endfacet
  facet normal 0.866025 0.5 0
    outer loop
      vertex 2.9 2.22872 6
      vertex 1.3 5 3
      vertex 1.3 5 6
    endloop
  endfacet
  facet normal 0.866025 0.5 0
    outer loop
      vertex 1.3 5 3
      vertex 2.9 2.22872 6
      vertex 2.9 2.22872 3
    endloop
  endfacet
  facet normal -0.866026 0.5 0
    outer loop
      vertex 7.7 5 3
      vertex 7.53943 4.72188 6
      vertex 7.7 5 7
    endloop
  endfacet
  facet normal -0.866025 0.5 2.41172e-08
    outer loop
      vertex 6.1 2.22872 3
      vertex 7.53943 4.72188 6
      vertex 7.7 5 3
    endloop
  endfacet
  facet normal -0.866025 0.5 0
    outer loop
      vertex 7.53943 4.72188 6
      vertex 6.1 2.22872 3
      vertex 6.1 2.22872 6
    endloop
  endfacet
  facet normal -0.866026 0.5 0
    outer loop
      vertex 7.7 5 7
      vertex 7.53943 4.72188 6
      vertex 7.53943 4.72188 7
    endloop
  endfacet
  facet normal -0.987688 -0.156435 0
    outer loop
      vertex 22.15 5 0
      vertex 22.0692 5.50988 3
      vertex 22.0692 5.50988 0
    endloop
  endfacet
  facet normal -0.987688 -0.156435 0
    outer loop
      vertex 22.0692 5.50988 3
      vertex 22.15 5 0
      vertex 22.15 5 3
    endloop
  endfacet
  facet normal 0.156435 -0.987688 0
    outer loop
      vertex 19.9901 6.56924 0
      vertex 20.5 6.65 3
      vertex 19.9901 6.56924 3
    endloop
  endfacet
  facet normal 0.156435 -0.987688 0
    outer loop
      vertex 20.5 6.65 3
      vertex 19.9901 6.56924 0
      vertex 20.5 6.65 0
    endloop
  endfacet
  facet normal -0.156436 0.987688 0
    outer loop
      vertex 21.0099 3.43076 0
      vertex 20.5 3.35 3
      vertex 21.0099 3.43076 3
    endloop
  endfacet
  facet normal -0.156436 0.987688 0
    outer loop
      vertex 20.5 3.35 3
      vertex 21.0099 3.43076 0
      vertex 20.5 3.35 0
    endloop
  endfacet
  facet normal -0.453989 0.891007 0
    outer loop
      vertex 21.4698 3.66512 0
      vertex 21.0099 3.43076 3
      vertex 21.4698 3.66512 3
    endloop
  endfacet
  facet normal -0.453989 0.891007 0
    outer loop
      vertex 21.0099 3.43076 3
      vertex 21.4698 3.66512 0
      vertex 21.0099 3.43076 0
    endloop
  endfacet
  facet normal -0.707108 -0.707106 0
    outer loop
      vertex 21.8349 5.96984 0
      vertex 21.4698 6.33488 3
      vertex 21.4698 6.33488 0
    endloop
  endfacet
  facet normal -0.707108 -0.707106 0
    outer loop
      vertex 21.4698 6.33488 3
      vertex 21.8349 5.96984 0
      vertex 21.8349 5.96984 3
    endloop
  endfacet
  facet normal -0.891006 -0.453991 0
    outer loop
      vertex 22.0692 5.50988 0
      vertex 21.8349 5.96984 3
      vertex 21.8349 5.96984 0
    endloop
  endfacet
  facet normal -0.891006 -0.453991 0
    outer loop
      vertex 21.8349 5.96984 3
      vertex 22.0692 5.50988 0
      vertex 22.0692 5.50988 3
    endloop
  endfacet
  facet normal 0.707106 -0.707108 0
    outer loop
      vertex 19.1651 5.96984 0
      vertex 19.5302 6.33488 3
      vertex 19.1651 5.96984 3
    endloop
  endfacet
  facet normal 0.707106 -0.707108 0
    outer loop
      vertex 19.5302 6.33488 3
      vertex 19.1651 5.96984 0
      vertex 19.5302 6.33488 0
    endloop
  endfacet
  facet normal 0.45399 -0.891007 0
    outer loop
      vertex 19.5302 6.33488 0
      vertex 19.9901 6.56924 3
      vertex 19.5302 6.33488 3
    endloop
  endfacet
  facet normal 0.45399 -0.891007 0
    outer loop
      vertex 19.9901 6.56924 3
      vertex 19.5302 6.33488 0
      vertex 19.9901 6.56924 0
    endloop
  endfacet
  facet normal -0.156436 -0.987688 0
    outer loop
      vertex 20.5 6.65 0
      vertex 21.0099 6.56924 3
      vertex 20.5 6.65 3
    endloop
  endfacet
  facet normal -0.156436 -0.987688 -0
    outer loop
      vertex 21.0099 6.56924 3
      vertex 20.5 6.65 0
      vertex 21.0099 6.56924 0
    endloop
  endfacet
  facet normal -0.453989 -0.891007 0
    outer loop
      vertex 21.0099 6.56924 0
      vertex 21.4698 6.33488 3
      vertex 21.0099 6.56924 3
    endloop
  endfacet
  facet normal -0.453989 -0.891007 -0
    outer loop
      vertex 21.4698 6.33488 3
      vertex 21.0099 6.56924 0
      vertex 21.4698 6.33488 0
    endloop
  endfacet
  facet normal 0.891006 -0.453991 0
    outer loop
      vertex 18.9308 5.50988 3
      vertex 19.1651 5.96984 0
      vertex 19.1651 5.96984 3
    endloop
  endfacet
  facet normal 0.891006 -0.453991 0
    outer loop
      vertex 19.1651 5.96984 0
      vertex 18.9308 5.50988 3
      vertex 18.9308 5.50988 0
    endloop
  endfacet
  facet normal 0.987688 -0.156435 0
    outer loop
      vertex 18.85 5 3
      vertex 18.9308 5.50988 0
      vertex 18.9308 5.50988 3
    endloop
  endfacet
  facet normal 0.987688 -0.156435 0
    outer loop
      vertex 18.9308 5.50988 0
      vertex 18.85 5 3
      vertex 18.85 5 0
    endloop
  endfacet
  facet normal 0.987688 0.156435 0
    outer loop
      vertex 18.9308 4.49012 3
      vertex 18.85 5 0
      vertex 18.85 5 3
    endloop
  endfacet
  facet normal 0.987688 0.156435 0
    outer loop
      vertex 18.85 5 0
      vertex 18.9308 4.49012 3
      vertex 18.9308 4.49012 0
    endloop
  endfacet
  facet normal -0.707108 0.707106 0
    outer loop
      vertex 21.4698 3.66512 0
      vertex 21.8349 4.03015 3
      vertex 21.8349 4.03015 0
    endloop
  endfacet
  facet normal -0.707108 0.707106 0
    outer loop
      vertex 21.8349 4.03015 3
      vertex 21.4698 3.66512 0
      vertex 21.4698 3.66512 3
    endloop
  endfacet
  facet normal -0.891006 0.453991 0
    outer loop
      vertex 21.8349 4.03015 0
      vertex 22.0692 4.49012 3
      vertex 22.0692 4.49012 0
    endloop
  endfacet
  facet normal -0.891006 0.453991 0
    outer loop
      vertex 22.0692 4.49012 3
      vertex 21.8349 4.03015 0
      vertex 21.8349 4.03015 3
    endloop
  endfacet
  facet normal 0 0 -1
    outer loop
      vertex 17.3 5 7
      vertex 17.5 5 7
      vertex 17.4641 4.71578 7
    endloop
  endfacet
  facet normal 0 0 -1
    outer loop
      vertex 17.5 5 7
      vertex 17.3 5 7
      vertex 17.4641 5.28422 7
    endloop
  endfacet
  facet normal 0.707106 0.707108 -0
    outer loop
      vertex 19.5302 3.66512 0
      vertex 19.1651 4.03015 3
      vertex 19.5302 3.66512 3
    endloop
  endfacet
  facet normal 0.707106 0.707108 0
    outer loop
      vertex 19.1651 4.03015 3
      vertex 19.5302 3.66512 0
      vertex 19.1651 4.03015 0
    endloop
  endfacet
  facet normal 0.891006 0.453991 0
    outer loop
      vertex 19.1651 4.03015 3
      vertex 18.9308 4.49012 0
      vertex 18.9308 4.49012 3
    endloop
  endfacet
  facet normal 0.891006 0.453991 0
    outer loop
      vertex 18.9308 4.49012 0
      vertex 19.1651 4.03015 3
      vertex 19.1651 4.03015 0
    endloop
  endfacet
  facet normal -0.987688 0.156435 0
    outer loop
      vertex 22.0692 4.49012 0
      vertex 22.15 5 3
      vertex 22.15 5 0
    endloop
  endfacet
  facet normal -0.987688 0.156435 0
    outer loop
      vertex 22.15 5 3
      vertex 22.0692 4.49012 0
      vertex 22.0692 4.49012 3
    endloop
  endfacet
  facet normal 0.156435 0.987688 -0
    outer loop
      vertex 20.5 3.35 0
      vertex 19.9901 3.43076 3
      vertex 20.5 3.35 3
    endloop
  endfacet
  facet normal 0.156435 0.987688 0
    outer loop
      vertex 19.9901 3.43076 3
      vertex 20.5 3.35 0
      vertex 19.9901 3.43076 0
    endloop
  endfacet
  facet normal 0.45399 0.891007 -0
    outer loop
      vertex 19.9901 3.43076 0
      vertex 19.5302 3.66512 3
      vertex 19.9901 3.43076 3
    endloop
  endfacet
  facet normal 0.45399 0.891007 0
    outer loop
      vertex 19.5302 3.66512 3
      vertex 19.9901 3.43076 0
      vertex 19.5302 3.66512 0
    endloop
  endfacet
  facet normal -0 0 1
    outer loop
      vertex 21.8349 5.96984 3
      vertex 23.7 5 3
      vertex 22.1 7.77128 3
    endloop
  endfacet
  facet normal 0 0 1
    outer loop
      vertex 23.7 5 3
      vertex 22.0692 5.50988 3
      vertex 22.15 5 3
    endloop
  endfacet
  facet normal 0 0 1
    outer loop
      vertex 23.7 5 3
      vertex 21.8349 5.96984 3
      vertex 22.0692 5.50988 3
    endloop
  endfacet
  facet normal 0 0 1
    outer loop
      vertex 22.1 7.77128 3
      vertex 21.4698 6.33488 3
      vertex 21.8349 5.96984 3
    endloop
  endfacet
  facet normal 0 0 1
    outer loop
      vertex 22.1 7.77128 3
      vertex 21.0099 6.56924 3
      vertex 21.4698 6.33488 3
    endloop
  endfacet
  facet normal 0 0 1
    outer loop
      vertex 22.1 7.77128 3
      vertex 20.5 6.65 3
      vertex 21.0099 6.56924 3
    endloop
  endfacet
  facet normal -0 0 1
    outer loop
      vertex 18.9 7.77128 3
      vertex 20.5 6.65 3
      vertex 22.1 7.77128 3
    endloop
  endfacet
  facet normal 0 0 1
    outer loop
      vertex 20.5 6.65 3
      vertex 18.9 7.77128 3
      vertex 19.9901 6.56924 3
    endloop
  endfacet
  facet normal 0 0 1
    outer loop
      vertex 19.9901 6.56924 3
      vertex 18.9 7.77128 3
      vertex 19.5302 6.33488 3
    endloop
  endfacet
  facet normal 0 0 1
    outer loop
      vertex 18.9 7.77128 3
      vertex 19.1651 5.96984 3
      vertex 19.5302 6.33488 3
    endloop
  endfacet
  facet normal 0 0 1
    outer loop
      vertex 17.3 5 3
      vertex 19.1651 5.96984 3
      vertex 18.9 7.77128 3
    endloop
  endfacet
  facet normal 0 0 1
    outer loop
      vertex 19.1651 5.96984 3
      vertex 17.3 5 3
      vertex 18.9308 5.50988 3
    endloop
  endfacet
  facet normal 0 0 1
    outer loop
      vertex 18.9308 5.50988 3
      vertex 17.3 5 3
      vertex 18.85 5 3
    endloop
  endfacet
  facet normal 0 0 1
    outer loop
      vertex 22.0692 4.49012 3
      vertex 23.7 5 3
      vertex 22.15 5 3
    endloop
  endfacet
  facet normal 0 0 1
    outer loop
      vertex 21.8349 4.03015 3
      vertex 23.7 5 3
      vertex 22.0692 4.49012 3
    endloop
  endfacet
  facet normal 0 0 1
    outer loop
      vertex 23.7 5 3
      vertex 21.8349 4.03015 3
      vertex 22.1 2.22872 3
    endloop
  endfacet
  facet normal -0 0 1
    outer loop
      vertex 21.4698 3.66512 3
      vertex 22.1 2.22872 3
      vertex 21.8349 4.03015 3
    endloop
  endfacet
  facet normal -0 0 1
    outer loop
      vertex 21.0099 3.43076 3
      vertex 22.1 2.22872 3
      vertex 21.4698 3.66512 3
    endloop
  endfacet
  facet normal -0 0 1
    outer loop
      vertex 20.5 3.35 3
      vertex 22.1 2.22872 3
      vertex 21.0099 3.43076 3
    endloop
  endfacet
  facet normal 0 0 1
    outer loop
      vertex 18.9 2.22872 3
      vertex 20.5 3.35 3
      vertex 19.9901 3.43076 3
    endloop
  endfacet
  facet normal 0 0 1
    outer loop
      vertex 18.9 2.22872 3
      vertex 19.9901 3.43076 3
      vertex 19.5302 3.66512 3
    endloop
  endfacet
  facet normal 0 0 1
    outer loop
      vertex 20.5 3.35 3
      vertex 18.9 2.22872 3
      vertex 22.1 2.22872 3
    endloop
  endfacet
  facet normal 0 0 1
    outer loop
      vertex 19.1651 4.03015 3
      vertex 18.9 2.22872 3
      vertex 19.5302 3.66512 3
    endloop
  endfacet
  facet normal 0 0 1
    outer loop
      vertex 17.3 5 3
      vertex 19.1651 4.03015 3
      vertex 18.9308 4.49012 3
    endloop
  endfacet
  facet normal -0 0 1
    outer loop
      vertex 17.3 5 3
      vertex 18.9308 4.49012 3
      vertex 18.85 5 3
    endloop
  endfacet
  facet normal 0 0 1
    outer loop
      vertex 19.1651 4.03015 3
      vertex 17.3 5 3
      vertex 18.9 2.22872 3
    endloop
  endfacet
  facet normal -0.866025 -0.500001 0
    outer loop
      vertex 23.7 5 3
      vertex 22.1 7.77128 6
      vertex 22.1 7.77128 3
    endloop
  endfacet
  facet normal -0.866025 -0.500001 0
    outer loop
      vertex 22.1 7.77128 6
      vertex 23.7 5 3
      vertex 23.7 5 6
    endloop
  endfacet
  facet normal 0 1 -0
    outer loop
      vertex 22.1 2.22872 3
      vertex 18.9 2.22872 6
      vertex 22.1 2.22872 6
    endloop
  endfacet
  facet normal 0 1 0
    outer loop
      vertex 18.9 2.22872 6
      vertex 22.1 2.22872 3
      vertex 18.9 2.22872 3
    endloop
  endfacet
  facet normal 0.866026 -0.499999 0
    outer loop
      vertex 17.4641 5.28422 7
      vertex 17.3 5 7
      vertex 17.4641 5.28422 6
    endloop
  endfacet
  facet normal 0.866025 -0.5 0
    outer loop
      vertex 17.4641 5.28422 6
      vertex 18.9 7.77128 3
      vertex 18.9 7.77128 6
    endloop
  endfacet
  facet normal 0.866025 -0.5 8.29934e-08
    outer loop
      vertex 17.4641 5.28422 6
      vertex 17.3 5 3
      vertex 18.9 7.77128 3
    endloop
  endfacet
  facet normal 0.866026 -0.499999 0
    outer loop
      vertex 17.3 5 3
      vertex 17.4641 5.28422 6
      vertex 17.3 5 7
    endloop
  endfacet
  facet normal 0 -1 0
    outer loop
      vertex 18.9 7.77128 3
      vertex 22.1 7.77128 6
      vertex 18.9 7.77128 6
    endloop
  endfacet
  facet normal 0 -1 -0
    outer loop
      vertex 22.1 7.77128 6
      vertex 18.9 7.77128 3
      vertex 22.1 7.77128 3
    endloop
  endfacet
  facet normal 0.866026 0.499999 -0
    outer loop
      vertex 17.4641 4.71578 6
      vertex 17.3 5 7
      vertex 17.4641 4.71578 7
    endloop
  endfacet
  facet normal 0.866026 0.499999 0
    outer loop
      vertex 17.3 5 7
      vertex 17.4641 4.71578 6
      vertex 17.3 5 3
    endloop
  endfacet
  facet normal 0.866025 0.5 -0
    outer loop
      vertex 18.9 2.22872 3
      vertex 17.4641 4.71578 6
      vertex 18.9 2.22872 6
    endloop
  endfacet
  facet normal 0.866025 0.5 6.6692e-08
    outer loop
      vertex 17.4641 4.71578 6
      vertex 18.9 2.22872 3
      vertex 17.3 5 3
    endloop
  endfacet
  facet normal -0.866025 0.5 0
    outer loop
      vertex 22.1 2.22872 3
      vertex 23.7 5 6
      vertex 23.7 5 3
    endloop
  endfacet
  facet normal -0.866025 0.5 0
    outer loop
      vertex 23.7 5 6
      vertex 22.1 2.22872 3
      vertex 22.1 2.22872 6
    endloop
  endfacet
  facet normal -0.866025 -0.5 0
    outer loop
      vertex 17 5 0
      vertex 14.75 8.89711 5
      vertex 14.75 8.89711 0
    endloop
  endfacet
  facet normal -0.866025 -0.5 0
    outer loop
      vertex 14.75 8.89711 5
      vertex 17 5 0
      vertex 17 5 5
    endloop
  endfacet
  facet normal 0.866026 0.5 0
    outer loop
      vertex 10.25 1.10289 5
      vertex 8 5 0
      vertex 8 5 5
    endloop
  endfacet
  facet normal 0.866026 0.5 0
    outer loop
      vertex 8 5 0
      vertex 10.25 1.10289 5
      vertex 10.25 1.10289 0
    endloop
  endfacet
  facet normal 0 -1 0
    outer loop
      vertex 10.25 8.89711 0
      vertex 14.75 8.89711 5
      vertex 10.25 8.89711 5
    endloop
  endfacet
  facet normal 0 -1 -0
    outer loop
      vertex 14.75 8.89711 5
      vertex 10.25 8.89711 0
      vertex 14.75 8.89711 0
    endloop
  endfacet
  facet normal 0 1 -0
    outer loop
      vertex 14.75 1.10289 0
      vertex 10.25 1.10289 5
      vertex 14.75 1.10289 5
    endloop
  endfacet
  facet normal 0 1 0
    outer loop
      vertex 10.25 1.10289 5
      vertex 14.75 1.10289 0
      vertex 10.25 1.10289 0
    endloop
  endfacet
  facet normal 0 0 -1
    outer loop
      vertex 14.75 1.10289 5
      vertex 14.75 8.89711 5
      vertex 17 5 5
    endloop
  endfacet
  facet normal 0 0 -1
    outer loop
      vertex 14.75 1.10289 5
      vertex 10.25 8.89711 5
      vertex 14.75 8.89711 5
    endloop
  endfacet
  facet normal 0 0 -1
    outer loop
      vertex 10.25 1.10289 5
      vertex 10.25 8.89711 5
      vertex 14.75 1.10289 5
    endloop
  endfacet
  facet normal 0 0 -1
    outer loop
      vertex 10.25 8.89711 5
      vertex 10.25 1.10289 5
      vertex 8 5 5
    endloop
  endfacet
  facet normal 0.866025 -0.5 0
    outer loop
      vertex 8 5 5
      vertex 10.25 8.89711 0
      vertex 10.25 8.89711 5
    endloop
  endfacet
  facet normal 0.866025 -0.5 0
    outer loop
      vertex 10.25 8.89711 0
      vertex 8 5 5
      vertex 8 5 0
    endloop
  endfacet
  facet normal -0.866025 0.5 0
    outer loop
      vertex 14.75 1.10289 0
      vertex 17 5 5
      vertex 17 5 0
    endloop
  endfacet
  facet normal -0.866025 0.5 0
    outer loop
      vertex 17 5 5
      vertex 14.75 1.10289 0
      vertex 14.75 1.10289 5
    endloop
  endfacet
  facet normal -0.987688 -0.156435 0
    outer loop
      vertex 14.5 5 5.3
      vertex 14.4021 5.61803 11.6
      vertex 14.4021 5.61803 5.3
    endloop
  endfacet
  facet normal -0.987688 -0.156435 0
    outer loop
      vertex 14.4021 5.61803 11.6
      vertex 14.5 5 5.3
      vertex 14.5 5 11.6
    endloop
  endfacet
  facet normal -0.156435 -0.987688 0
    outer loop
      vertex 12.5 7 5.3
      vertex 13.118 6.90211 11.6
      vertex 12.5 7 11.6
    endloop
  endfacet
  facet normal -0.156435 -0.987688 -0
    outer loop
      vertex 13.118 6.90211 11.6
      vertex 12.5 7 5.3
      vertex 13.118 6.90211 5.3
    endloop
  endfacet
  facet normal 0.987689 0.156433 0
    outer loop
      vertex 10.5979 4.38197 11.6
      vertex 10.5 5 5.3
      vertex 10.5 5 11.6
    endloop
  endfacet
  facet normal 0.987689 0.156433 0
    outer loop
      vertex 10.5 5 5.3
      vertex 10.5979 4.38197 11.6
      vertex 10.5979 4.38197 5.3
    endloop
  endfacet
  facet normal -0.453991 0.891006 0
    outer loop
      vertex 13.6756 3.38197 5.3
      vertex 13.118 3.09789 11.6
      vertex 13.6756 3.38197 11.6
    endloop
  endfacet
  facet normal -0.453991 0.891006 0
    outer loop
      vertex 13.118 3.09789 11.6
      vertex 13.6756 3.38197 5.3
      vertex 13.118 3.09789 5.3
    endloop
  endfacet
  facet normal -0.156433 0.987689 0
    outer loop
      vertex 13.118 3.09789 5.3
      vertex 12.5 3 11.6
      vertex 13.118 3.09789 11.6
    endloop
  endfacet
  facet normal -0.156433 0.987689 0
    outer loop
      vertex 12.5 3 11.6
      vertex 13.118 3.09789 5.3
      vertex 12.5 3 5.3
    endloop
  endfacet
  facet normal -0.891006 -0.453991 0
    outer loop
      vertex 14.4021 5.61803 5.3
      vertex 14.118 6.17557 11.6
      vertex 14.118 6.17557 5.3
    endloop
  endfacet
  facet normal -0.891006 -0.453991 0
    outer loop
      vertex 14.118 6.17557 11.6
      vertex 14.4021 5.61803 5.3
      vertex 14.4021 5.61803 11.6
    endloop
  endfacet
  facet normal 0.156434 -0.987688 0
    outer loop
      vertex 11.882 6.90211 5.3
      vertex 12.5 7 11.6
      vertex 11.882 6.90211 11.6
    endloop
  endfacet
  facet normal 0.156434 -0.987688 0
    outer loop
      vertex 12.5 7 11.6
      vertex 11.882 6.90211 5.3
      vertex 12.5 7 5.3
    endloop
  endfacet
  facet normal 0 0 1
    outer loop
      vertex 14.4021 5.61803 5.3
      vertex 14.4021 4.38197 5.3
      vertex 14.5 5 5.3
    endloop
  endfacet
  facet normal 0 0 1
    outer loop
      vertex 14.118 6.17557 5.3
      vertex 14.4021 4.38197 5.3
      vertex 14.4021 5.61803 5.3
    endloop
  endfacet
  facet normal 0 0 1
    outer loop
      vertex 14.118 6.17557 5.3
      vertex 14.118 3.82443 5.3
      vertex 14.4021 4.38197 5.3
    endloop
  endfacet
  facet normal 0 0 1
    outer loop
      vertex 13.6756 6.61803 5.3
      vertex 14.118 3.82443 5.3
      vertex 14.118 6.17557 5.3
    endloop
  endfacet
  facet normal 0 0 1
    outer loop
      vertex 13.6756 6.61803 5.3
      vertex 13.6756 3.38197 5.3
      vertex 14.118 3.82443 5.3
    endloop
  endfacet
  facet normal 0 0 1
    outer loop
      vertex 13.118 6.90211 5.3
      vertex 13.6756 3.38197 5.3
      vertex 13.6756 6.61803 5.3
    endloop
  endfacet
  facet normal 0 0 1
    outer loop
      vertex 13.118 6.90211 5.3
      vertex 13.118 3.09789 5.3
      vertex 13.6756 3.38197 5.3
    endloop
  endfacet
  facet normal 0 0 1
    outer loop
      vertex 12.5 7 5.3
      vertex 13.118 3.09789 5.3
      vertex 13.118 6.90211 5.3
    endloop
  endfacet
  facet normal 0 0 1
    outer loop
      vertex 12.5 7 5.3
      vertex 12.5 3 5.3
      vertex 13.118 3.09789 5.3
    endloop
  endfacet
  facet normal -0 0 1
    outer loop
      vertex 11.882 6.90211 5.3
      vertex 12.5 3 5.3
      vertex 12.5 7 5.3
    endloop
  endfacet
  facet normal 0 0 1
    outer loop
      vertex 11.882 6.90211 5.3
      vertex 11.882 3.09789 5.3
      vertex 12.5 3 5.3
    endloop
  endfacet
  facet normal -0 0 1
    outer loop
      vertex 11.3244 6.61803 5.3
      vertex 11.882 3.09789 5.3
      vertex 11.882 6.90211 5.3
    endloop
  endfacet
  facet normal 0 0 1
    outer loop
      vertex 11.3244 6.61803 5.3
      vertex 11.3244 3.38197 5.3
      vertex 11.882 3.09789 5.3
    endloop
  endfacet
  facet normal -0 0 1
    outer loop
      vertex 10.882 6.17557 5.3
      vertex 11.3244 3.38197 5.3
      vertex 11.3244 6.61803 5.3
    endloop
  endfacet
  facet normal 0 0 1
    outer loop
      vertex 10.882 6.17557 5.3
      vertex 10.882 3.82443 5.3
      vertex 11.3244 3.38197 5.3
    endloop
  endfacet
  facet normal -0 0 1
    outer loop
      vertex 10.5979 5.61803 5.3
      vertex 10.882 3.82443 5.3
      vertex 10.882 6.17557 5.3
    endloop
  endfacet
  facet normal 0 0 1
    outer loop
      vertex 10.5979 5.61803 5.3
      vertex 10.5979 4.38197 5.3
      vertex 10.882 3.82443 5.3
    endloop
  endfacet
  facet normal 0 -0 1
    outer loop
      vertex 10.5979 4.38197 5.3
      vertex 10.5979 5.61803 5.3
      vertex 10.5 5 5.3
    endloop
  endfacet
  facet normal 0.453991 -0.891006 0
    outer loop
      vertex 11.3244 6.61803 5.3
      vertex 11.882 6.90211 11.6
      vertex 11.3244 6.61803 11.6
    endloop
  endfacet
  facet normal 0.453991 -0.891006 0
    outer loop
      vertex 11.882 6.90211 11.6
      vertex 11.3244 6.61803 5.3
      vertex 11.882 6.90211 5.3
    endloop
  endfacet
  facet normal 0.987689 -0.156433 0
    outer loop
      vertex 10.5 5 11.6
      vertex 10.5979 5.61803 5.3
      vertex 10.5979 5.61803 11.6
    endloop
  endfacet
  facet normal 0.987689 -0.156433 0
    outer loop
      vertex 10.5979 5.61803 5.3
      vertex 10.5 5 11.6
      vertex 10.5 5 5.3
    endloop
  endfacet
  facet normal 0.891006 0.453991 0
    outer loop
      vertex 10.882 3.82443 11.6
      vertex 10.5979 4.38197 5.3
      vertex 10.5979 4.38197 11.6
    endloop
  endfacet
  facet normal 0.891006 0.453991 0
    outer loop
      vertex 10.5979 4.38197 5.3
      vertex 10.882 3.82443 11.6
      vertex 10.882 3.82443 5.3
    endloop
  endfacet
  facet normal 0.156433 0.987689 -0
    outer loop
      vertex 12.5 3 5.3
      vertex 11.882 3.09789 11.6
      vertex 12.5 3 11.6
    endloop
  endfacet
  facet normal 0.156433 0.987689 0
    outer loop
      vertex 11.882 3.09789 11.6
      vertex 12.5 3 5.3
      vertex 11.882 3.09789 5.3
    endloop
  endfacet
  facet normal -0.707107 -0.707107 0
    outer loop
      vertex 14.118 6.17557 5.3
      vertex 13.6756 6.61803 11.6
      vertex 13.6756 6.61803 5.3
    endloop
  endfacet
  facet normal -0.707107 -0.707107 0
    outer loop
      vertex 13.6756 6.61803 11.6
      vertex 14.118 6.17557 5.3
      vertex 14.118 6.17557 11.6
    endloop
  endfacet
  facet normal -0.453991 -0.891006 0
    outer loop
      vertex 13.118 6.90211 5.3
      vertex 13.6756 6.61803 11.6
      vertex 13.118 6.90211 11.6
    endloop
  endfacet
  facet normal -0.453991 -0.891006 -0
    outer loop
      vertex 13.6756 6.61803 11.6
      vertex 13.118 6.90211 5.3
      vertex 13.6756 6.61803 5.3
    endloop
  endfacet
  facet normal 0.707107 -0.707107 0
    outer loop
      vertex 10.882 6.17557 11.6
      vertex 11.3244 6.61803 5.3
      vertex 11.3244 6.61803 11.6
    endloop
  endfacet
  facet normal 0.707107 -0.707107 0
    outer loop
      vertex 11.3244 6.61803 5.3
      vertex 10.882 6.17557 11.6
      vertex 10.882 6.17557 5.3
    endloop
  endfacet
  facet normal 0.891006 -0.453991 0
    outer loop
      vertex 10.5979 5.61803 11.6
      vertex 10.882 6.17557 5.3
      vertex 10.882 6.17557 11.6
    endloop
  endfacet
  facet normal 0.891006 -0.453991 0
    outer loop
      vertex 10.882 6.17557 5.3
      vertex 10.5979 5.61803 11.6
      vertex 10.5979 5.61803 5.3
    endloop
  endfacet
  facet normal -0.707107 0.707107 0
    outer loop
      vertex 13.6756 3.38197 5.3
      vertex 14.118 3.82443 11.6
      vertex 14.118 3.82443 5.3
    endloop
  endfacet
  facet normal -0.707107 0.707107 0
    outer loop
      vertex 14.118 3.82443 11.6
      vertex 13.6756 3.38197 5.3
      vertex 13.6756 3.38197 11.6
    endloop
  endfacet
  facet normal 0.707107 0.707107 0
    outer loop
      vertex 11.3244 3.38197 11.6
      vertex 10.882 3.82443 5.3
      vertex 10.882 3.82443 11.6
    endloop
  endfacet
  facet normal 0.707107 0.707107 0
    outer loop
      vertex 10.882 3.82443 5.3
      vertex 11.3244 3.38197 11.6
      vertex 11.3244 3.38197 5.3
    endloop
  endfacet
  facet normal -0.891006 0.453991 0
    outer loop
      vertex 14.118 3.82443 5.3
      vertex 14.4021 4.38197 11.6
      vertex 14.4021 4.38197 5.3
    endloop
  endfacet
  facet normal -0.891006 0.453991 0
    outer loop
      vertex 14.4021 4.38197 11.6
      vertex 14.118 3.82443 5.3
      vertex 14.118 3.82443 11.6
    endloop
  endfacet
  facet normal -0.987688 0.156434 0
    outer loop
      vertex 14.4021 4.38197 5.3
      vertex 14.5 5 11.6
      vertex 14.5 5 5.3
    endloop
  endfacet
  facet normal -0.987688 0.156434 0
    outer loop
      vertex 14.5 5 11.6
      vertex 14.4021 4.38197 5.3
      vertex 14.4021 4.38197 11.6
    endloop
  endfacet
  facet normal 0.453991 0.891006 -0
    outer loop
      vertex 11.882 3.09789 5.3
      vertex 11.3244 3.38197 11.6
      vertex 11.882 3.09789 11.6
    endloop
  endfacet
  facet normal 0.453991 0.891006 0
    outer loop
      vertex 11.3244 3.38197 11.6
      vertex 11.882 3.09789 5.3
      vertex 11.3244 3.38197 5.3
    endloop
  endfacet
endsolid OpenSCAD_Model
